<?xml version="1.0" standalone="no"?>
<!DOCTYPE svg PUBLIC "-//W3C//DTD SVG 1.1//EN" "http://www.w3.org/Graphics/SVG/1.1/DTD/svg11.dtd" >
<svg>
<metadata>
Created by FontForge 20110222 at Tue Oct 21 14:11:22 2014
 By deploy user
Copyright (c) 2011 by Frantisek Storm. All rights reserved.
</metadata>
<defs>
<font id="JannonSansMedium" horiz-adv-x="506" >
  <font-face 
    font-family="Jannon Sans Medium"
    font-weight="400"
    font-stretch="normal"
    units-per-em="1000"
    panose-1="2 0 5 3 0 0 0 2 0 3"
    ascent="800"
    descent="-200"
    x-height="448"
    cap-height="690"
    bbox="-220 -265 1379 963"
    underline-thickness="57"
    underline-position="-60"
    unicode-range="U+0020-F6D0"
  />
<missing-glyph horiz-adv-x="228" 
 />
    <glyph glyph-name="f_f" unicode="ff" horiz-adv-x="586" 
d="M324 785v-111q-16 6 -37 6q-39 0 -56 -25t-17 -78v-128h139v89q0 114 48 181t145 67q19 0 28 -1v-111q-17 6 -38 6q-38 0 -55.5 -25t-17.5 -78v-128h111v-93h-111v-356h-110v356h-139v-356h-110v356h-80v93h80v89q0 114 47.5 181t145.5 67q19 0 27 -1z" />
    <glyph glyph-name="f_i" unicode="fi" horiz-adv-x="525" 
d="M214 554v-105h249v-449h-110v356h-139v-356h-110v356h-80v93h80v67q0 130 64 193.5t180 63.5q53 0 115 -14v-115q-72 24 -128 24q-121 0 -121 -114z" />
    <glyph glyph-name="f_j" unicode="fj" horiz-adv-x="525" 
d="M214 554v-105h249v-430q0 -254 -228 -262q1 5 8.5 47.5t12.5 64.5q58 1 77.5 25.5t19.5 93.5v368h-139v-356h-110v356h-80v93h80v67q0 130 64 193.5t180 63.5q53 0 115 -14v-115q-72 24 -128 24q-121 0 -121 -114z" />
    <glyph glyph-name="f_l" unicode="fl" horiz-adv-x="523" 
d="M214 576v-127h99v-93h-99v-356h-110v356h-80v93h80v106q0 93 57.5 155.5t155.5 62.5q74 0 144 -30v-743h-110v665q-22 7 -50 7q-41 0 -64 -24.5t-23 -71.5z" />
    <glyph glyph-name="f_f_i" unicode="ffi" horiz-adv-x="775" 
d="M325 786v-111q-21 6 -38 6q-73 0 -73 -104v-128h140v86q0 119 66.5 178.5t177.5 59.5q59 0 115 -14v-114q-72 24 -129 24q-120 0 -120 -114v-106h249v-449h-110v356h-139v-356h-110v356h-140v-356h-110v356h-80v93h80v109q0 105 51 167t142 62q5 0 14 -0.5t14 -0.5z" />
    <glyph glyph-name="f_f_j" unicode="ffj" horiz-adv-x="775" 
d="M325 786v-111q-21 6 -38 6q-73 0 -73 -104v-128h140v86q0 119 66.5 178.5t177.5 59.5q59 0 115 -14v-114q-72 24 -129 24q-120 0 -120 -114v-106h249v-430q0 -254 -229 -263l22 112q58 1 77.5 25.5t19.5 94.5v368h-139v-356h-110v356h-140v-356h-110v356h-80v93h80v109
q0 105 51 167t142 62q5 0 14 -0.5t14 -0.5z" />
    <glyph glyph-name="f_f_k" unicode="ffk" horiz-adv-x="1033" 
d="M325 786v-111q-21 6 -38 6q-73 0 -73 -104v-128h140v89q0 93 59 155.5t158 62.5q69 0 143 -30v-726h-109v648q-20 6 -51 6q-42 0 -66 -24t-24 -71v-110h99v-93h-99v-356h-110v356h-140v-356h-110v356h-80v93h80v109q0 105 51 167t142 62q5 0 14 -0.5t14 -0.5zM872 449
h138l-177 -192l205 -257h-147l-175 231z" />
    <glyph glyph-name="f_f_l" unicode="ffl" horiz-adv-x="776" 
d="M325 786v-111q-21 6 -38 6q-73 0 -73 -104v-128h140v89q0 93 59 155.5t158 62.5q69 0 143 -30v-726h-109v648q-20 6 -51 6q-42 0 -66 -24t-24 -71v-110h99v-93h-99v-356h-110v356h-140v-356h-110v356h-80v93h80v109q0 105 51 167t142 62q5 0 14 -0.5t14 -0.5z" />
    <glyph glyph-name="T_h" unicode="Th" horiz-adv-x="975" 
d="M3 690h294l340 12v-323q30 38 73.5 61t83.5 23q119 0 119 -152v-311h-109v284q0 79 -68 79q-43 0 -71 -32.5t-28 -77.5v-253h-109v590h-182v-590h-123v590l-220 -15v115z" />
    <glyph glyph-name=".notdef" horiz-adv-x="228" 
 />
    <glyph glyph-name=".null" horiz-adv-x="0" 
 />
    <glyph glyph-name="nonmarkingreturn" horiz-adv-x="333" 
 />
    <glyph glyph-name="space" unicode=" " horiz-adv-x="228" 
 />
    <glyph glyph-name="exclam" unicode="!" horiz-adv-x="307" 
d="M85 58q0 28 20.5 48t48.5 20t48 -20t20 -48q0 -29 -20 -49t-48 -20t-48.5 20.5t-20.5 48.5zM86 690h135l-21 -498h-94z" />
    <glyph glyph-name="quotedbl" unicode="&#x22;" horiz-adv-x="367" 
d="M44 785h118l-55 -233h-68zM213 785h118l-55 -233h-67z" />
    <glyph glyph-name="numbersign" unicode="#" 
d="M21 268h87v159h-87v92h87v171h96v-171h95v171h97v-171h88v-92h-88v-159h88v-93h-88v-175h-97v175h-95v-175h-96v175h-87v93zM204 427v-159h95v159h-95z" />
    <glyph glyph-name="dollar" unicode="$" 
d="M297 700q77 0 122 -17v-128q-48 23 -132 33v-188q40 -18 64.5 -32t53.5 -37t43.5 -54t14.5 -70q0 -73 -47.5 -131.5t-128.5 -79.5v-110h-76v100h-2q-90 0 -162 22v132q72 -30 164 -37v206q-38 18 -62 32t-51.5 36.5t-41 51.5t-13.5 64q0 64 43.5 119.5t124.5 76.5v100h76
v-89h10zM356 185q0 47 -69 87v-165q69 19 69 78zM149 514q0 -43 62 -78v150q-62 -13 -62 -72z" />
    <glyph glyph-name="percent" unicode="%" horiz-adv-x="818" 
d="M208 700q79 0 121 -48t42 -131q0 -82 -49 -135.5t-125 -53.5q-79 0 -121.5 47.5t-42.5 129.5q0 84 49 137.5t126 53.5zM200 615q-63 0 -63 -96q0 -100 68 -100q32 0 47 23t15 72q0 101 -67 101zM622 354q78 0 120.5 -48t42.5 -131q0 -82 -49.5 -135.5t-125.5 -53.5
q-79 0 -121 47t-42 130q0 84 49 137.5t126 53.5zM614 268q-33 0 -48 -22.5t-15 -72.5q0 -100 67 -100q33 0 48 22.5t15 72.5q0 100 -67 100zM608 690h115l-512 -690h-115z" />
    <glyph glyph-name="ampersand" unicode="&#x26;" horiz-adv-x="808" 
d="M383 701q67 0 107.5 -31.5t40.5 -93.5q0 -35 -14.5 -64.5t-46 -56.5t-57 -44t-70.5 -43q54 -112 135 -188l132 269h137l-216 -313q72 -49 138 -49q67 0 126 24v-84q-61 -41 -145 -41q-97 0 -196 69q-100 -69 -223 -69q-192 0 -192 159q0 50 27 94t61 71t87 58
q-32 78 -32 137q0 81 58 138.5t143 57.5zM395 103q-89 83 -152 201q-79 -58 -79 -123q0 -50 33.5 -77t87.5 -27q55 0 110 26zM297 540q0 -51 21 -111q49 31 74.5 60t25.5 64q0 30 -15.5 45.5t-41.5 15.5q-29 0 -46.5 -19t-17.5 -55z" />
    <glyph glyph-name="quotesingle" unicode="'" horiz-adv-x="198" 
d="M44 785h118l-55 -233h-68z" />
    <glyph glyph-name="parenleft" unicode="(" horiz-adv-x="316" 
d="M341 -243h-138q-66 91 -103.5 224t-37.5 287q0 330 141 517h138q-81 -79 -126.5 -211t-45.5 -297q0 -163 46 -300.5t126 -219.5z" />
    <glyph glyph-name="parenright" unicode=")" horiz-adv-x="316" 
d="M-26 785h139q66 -91 103.5 -224t37.5 -287q0 -330 -141 -517h-139q82 79 127.5 210.5t45.5 297.5q0 163 -46 301t-127 219z" />
    <glyph glyph-name="asterisk" unicode="*" horiz-adv-x="419" 
d="M67 652q43 -30 129 -88l-42 150q19 4 53 4q38 0 59 -5q-6 -21 -21 -71.5t-23 -77.5l130 86q30 -56 33 -106l-154 -4l121 -99q-38 -41 -93 -65l-50 148q-7 -21 -25 -70.5t-27 -76.5q-50 20 -91 65l122 97q-104 4 -155 5q3 52 34 108z" />
    <glyph glyph-name="plus" unicode="+" 
d="M21 298h185v184h93v-184h185v-92h-185v-187h-93v187h-185v92z" />
    <glyph glyph-name="comma" unicode="," horiz-adv-x="221" 
d="M52 98l129 18q11 -71 -17 -160t-77 -158l-59 28q63 121 24 272z" />
    <glyph glyph-name="hyphen" unicode="-" horiz-adv-x="327" 
d="M43 305h241v-98h-241v98z" />
    <glyph glyph-name="hyphen" unicode="&#xad;" horiz-adv-x="327" 
d="M43 305h241v-98h-241v98z" />
    <glyph glyph-name="period" unicode="." horiz-adv-x="254" 
d="M56 61q0 29 21 50t51 21q29 0 49.5 -21t20.5 -50t-21 -50.5t-49 -21.5q-30 0 -51 21.5t-21 50.5z" />
    <glyph glyph-name="slash" unicode="/" horiz-adv-x="484" 
d="M415 785h115l-484 -1028h-115z" />
    <glyph glyph-name="zero" unicode="0" horiz-adv-x="537" 
d="M272 700q110 0 166.5 -98t56.5 -256q0 -152 -64 -256t-168 -104q-110 0 -166.5 97t-56.5 253q0 154 64 259t168 105zM265 605q-47 0 -74.5 -64t-27.5 -196q0 -119 28.5 -191.5t77.5 -72.5q47 0 74 62t27 193q0 120 -28 194.5t-77 74.5z" />
    <glyph glyph-name="one" unicode="1" horiz-adv-x="384" 
d="M23 606l263 94v-700h-115v556l-148 -73v123z" />
    <glyph glyph-name="two" unicode="2" horiz-adv-x="515" 
d="M286 700q83 0 132 -50t49 -139q0 -107 -78.5 -215.5t-211.5 -202.5l294 17v-110h-424v80q142 100 216 207t74 194q0 60 -25 91t-63 31q-36 0 -58.5 -25.5t-22.5 -64.5q0 -56 46 -105l-119 -71q-39 66 -39 137q0 94 63.5 160t166.5 66z" />
    <glyph glyph-name="three" unicode="3" horiz-adv-x="488" 
d="M50 567v112q73 21 180 21q93 0 140.5 -38.5t47.5 -107.5q0 -106 -122 -172q67 -18 104.5 -62t37.5 -109q0 -95 -69 -160t-182 -65q-81 0 -137 23v125q66 -37 148 -37q54 0 84.5 24.5t30.5 72.5q0 54 -38.5 88t-110.5 34q-28 0 -52 -3v92q191 0 191 102q0 44 -31 67.5
t-82 23.5q-80 0 -140 -31z" />
    <glyph glyph-name="four" unicode="4" horiz-adv-x="498" 
d="M272 690h123v-416l95 4v-102h-95v-176h-113v176h-272v72zM113 263l169 5v280z" />
    <glyph glyph-name="five" unicode="5" horiz-adv-x="469" 
d="M72 392l19 298l318 14v-111h-232l-7 -100q131 -17 190 -77t59 -149q0 -53 -21 -102t-61.5 -90t-109.5 -65t-156 -24l7 107q241 0 241 142q0 69 -62 113t-185 44z" />
    <glyph glyph-name="six" unicode="6" horiz-adv-x="508" 
d="M312 700q64 0 111 -19v-118q-62 31 -129 31q-122 0 -147 -170q75 39 142 39q82 0 131 -59t49 -155q0 -111 -61 -187t-159 -76q-104 0 -156 80.5t-52 223.5q0 178 72.5 294t198.5 116zM229 370q-44 0 -87 -20v-15q0 -241 127 -241q47 0 72 34t25 98q0 68 -37 106t-100 38z
" />
    <glyph glyph-name="seven" unicode="7" horiz-adv-x="447" 
d="M7 690h431v-96l-247 -607l-72 13l187 588l-299 -13v115z" />
    <glyph glyph-name="eight" unicode="8" 
d="M450 556q0 -57 -34.5 -97t-99.5 -84q36 -24 57 -40t46 -41t37 -53.5t12 -60.5q0 -89 -71 -141.5t-169 -52.5q-81 0 -135.5 40t-54.5 118q0 62 36 107t101 91q-56 37 -86 74t-30 90q0 89 63.5 141.5t155.5 52.5q71 0 121.5 -37t50.5 -107zM346 161q0 46 -31 78.5t-90 70.5
q-77 -63 -77 -139q0 -45 28.5 -69t75.5 -24q40 0 67 21.5t27 61.5zM172 538q0 -37 24.5 -66.5t71.5 -63.5q77 63 77 129q0 39 -25.5 59.5t-63.5 20.5q-36 0 -60 -21t-24 -58z" />
    <glyph glyph-name="nine" unicode="9" horiz-adv-x="516" 
d="M262 700q110 0 161 -69.5t51 -181.5q0 -95 -33 -182.5t-111.5 -164.5t-193.5 -116l-33 72q177 67 233 229q-68 -41 -139 -41q-73 0 -119.5 48.5t-46.5 144.5q0 110 64.5 185.5t166.5 75.5zM260 338q42 0 93 24q4 24 4 53q0 189 -120 189q-43 0 -69.5 -32t-26.5 -91
q0 -71 32 -107t87 -36z" />
    <glyph glyph-name="colon" unicode=":" horiz-adv-x="254" 
d="M56 61q0 29 21 50t51 21q29 0 49.5 -21t20.5 -50t-21 -50.5t-49 -21.5q-30 0 -51 21.5t-21 50.5zM56 393q0 29 21 50t51 21q29 0 49.5 -21t20.5 -50t-21 -50.5t-49 -21.5q-30 0 -51 21.5t-21 50.5z" />
    <glyph glyph-name="semicolon" unicode=";" horiz-adv-x="254" 
d="M56 393q0 29 21 50t51 21q29 0 49.5 -21t20.5 -50t-21 -50.5t-49 -21.5q-30 0 -51 21.5t-21 50.5zM61 98l124 16q11 -69 -19.5 -156.5t-81.5 -159.5l-59 28q70 134 36 272z" />
    <glyph glyph-name="less" unicode="&#x3c;" 
d="M53 291l370 193l29 -74l-270 -157l270 -157l-29 -78l-370 194v79z" />
    <glyph glyph-name="equal" unicode="=" 
d="M21 322h463v-140h-463v140z" />
    <glyph glyph-name="greater" unicode="&#x3e;" 
d="M82 484l370 -194v-79l-370 -193l-29 74l264 157l-264 157z" />
    <glyph glyph-name="question" unicode="?" horiz-adv-x="432" 
d="M107 58q0 28 20.5 48t48.5 20t48 -20t20 -48q0 -29 -20 -49t-48 -20t-48.5 20.5t-20.5 48.5zM258 523q0 35 -21.5 53t-56.5 18q-65 0 -126 -40v121q92 25 169 25q76 0 119 -37.5t43 -106.5q0 -49 -25.5 -94.5t-56 -75.5t-56 -71.5t-25.5 -82.5q0 -22 7 -44h-106
q-4 19 -4 42q0 40 14.5 76.5t34.5 63t40.5 51t35 51t14.5 51.5z" />
    <glyph glyph-name="at" unicode="@" horiz-adv-x="838" 
d="M623 540h103q55 -110 55 -225q0 -82 -27.5 -154.5t-80 -130t-137 -91.5t-191.5 -34q-137 0 -212.5 82t-75.5 201q0 66 25 130t71 117t121.5 85.5t168.5 32.5q144 0 144 -136v-328h-76l-18 75q-26 -40 -67.5 -65t-88.5 -25q-50 0 -77 27t-27 72q0 134 249 213v26
q0 55 -66 55q-123 0 -194.5 -77t-71.5 -176q0 -100 64.5 -162.5t182.5 -62.5q155 0 224 69t69 200q0 147 -67 282zM482 275v34q-60 -11 -97 -41t-37 -63q0 -36 37 -36q34 0 65.5 31.5t31.5 74.5z" />
    <glyph glyph-name="A" unicode="A" horiz-adv-x="637" 
d="M260 690h124l255 -690h-147l-66 190h-233l-65 -190h-131zM309 545l-88 -263h177z" />
    <glyph glyph-name="B" unicode="B" horiz-adv-x="578" 
d="M199 586v-187q95 1 132 27t37 76q0 39 -29.5 63.5t-90.5 24.5q-26 0 -49 -4zM199 304v-204q36 -6 63 -6q69 0 104 26t35 71q0 52 -42 82.5t-160 30.5zM260 690q71 0 119.5 -14t72 -39.5t33 -52t9.5 -59.5q0 -61 -40 -105.5t-106 -57.5q187 -24 187 -162q0 -82 -71.5 -141
t-208.5 -59h-178v690h183z" />
    <glyph glyph-name="C" unicode="C" horiz-adv-x="609" 
d="M425 700q78 0 147 -20v-136q-80 45 -170 45q-103 0 -158 -65t-55 -179t56.5 -182t158.5 -68q90 0 168 44v-133q-69 -20 -165 -20q-157 0 -253 94t-96 255q0 164 102.5 264.5t264.5 100.5z" />
    <glyph glyph-name="D" unicode="D" horiz-adv-x="700" 
d="M77 690h217q151 0 249.5 -82.5t98.5 -235.5q0 -172 -102 -272t-289 -100h-174v690zM200 586v-478q37 -5 65 -5q115 0 179.5 63t64.5 184q0 240 -237 240q-28 0 -72 -4z" />
    <glyph glyph-name="E" unicode="E" horiz-adv-x="519" 
d="M77 690h402v-109l-279 15v-199l234 15v-110l-234 15v-223l279 15v-109h-402v690z" />
    <glyph glyph-name="F" unicode="F" horiz-adv-x="503" 
d="M77 690h402v-109l-279 15v-217l229 16v-109l-229 14v-300h-123v690z" />
    <glyph glyph-name="G" unicode="G" horiz-adv-x="662" 
d="M591 358v-343q-91 -29 -184 -29q-157 0 -253 92.5t-96 253.5q0 164 106 266t273 102q83 0 154 -20v-136q-81 45 -176 45q-108 0 -167 -66t-59 -180t56.5 -182t158.5 -68q37 0 64 8v257h123z" />
    <glyph glyph-name="H" unicode="H" horiz-adv-x="693" 
d="M493 690h123v-690h-123v314h-293v-314h-123v690h123v-278h293v278z" />
    <glyph glyph-name="I" unicode="I" horiz-adv-x="277" 
d="M77 690h123v-690h-123v690z" />
    <glyph glyph-name="J" unicode="J" horiz-adv-x="280" 
d="M80 690h122v-668q0 -129 -72 -195.5t-204 -69.5l22 118q75 0 103.5 27.5t28.5 97.5v690z" />
    <glyph glyph-name="K" unicode="K" horiz-adv-x="645" 
d="M456 690h153l-285 -303l324 -387h-165l-283 357v-357h-123v690h123v-333z" />
    <glyph glyph-name="L" unicode="L" horiz-adv-x="484" 
d="M77 690h123v-596l279 15v-109h-402v690z" />
    <glyph glyph-name="M" unicode="M" horiz-adv-x="872" 
d="M96 690h173l176 -507l175 507h156l39 -690h-123l-26 530l-187 -526h-90l-187 533l-27 -537h-118z" />
    <glyph glyph-name="N" unicode="N" horiz-adv-x="681" 
d="M77 690h155l262 -445v445h110v-690h-98l-319 539v-539h-110v690z" />
    <glyph glyph-name="O" unicode="O" horiz-adv-x="791" 
d="M393 592q-94 0 -149.5 -64t-55.5 -183q0 -117 54 -184t152 -67q95 0 151.5 63.5t56.5 182.5q0 118 -55 185t-154 67zM407 700q154 0 239.5 -97t85.5 -242q0 -159 -97 -267t-259 -108q-147 0 -232.5 98.5t-85.5 246.5q0 152 95.5 260.5t253.5 108.5z" />
    <glyph glyph-name="P" unicode="P" horiz-adv-x="558" 
d="M276 690q128 0 188.5 -59t60.5 -146q0 -101 -65 -165t-175 -64q-47 0 -85 10v-266h-123v690h199zM200 586v-228q33 -7 58 -7q63 0 98.5 31.5t35.5 85.5q0 58 -31.5 90t-96.5 32q-39 0 -64 -4z" />
    <glyph glyph-name="Q" unicode="Q" horiz-adv-x="791" 
d="M407 700q154 0 239.5 -97t85.5 -242q0 -136 -72 -236.5t-196 -128.5l246 -239h-179l-209 233q-124 18 -194 112.5t-70 228.5q0 152 95.5 260.5t253.5 108.5zM393 592q-94 0 -149.5 -64t-55.5 -183q0 -117 54 -184t152 -67q95 0 151.5 63.5t56.5 182.5q0 118 -55 185
t-154 67z" />
    <glyph glyph-name="R" unicode="R" horiz-adv-x="609" 
d="M282 690q127 0 185.5 -55.5t58.5 -138.5q0 -80 -38 -132t-103 -75l231 -289h-160l-192 274q-27 1 -64 8v-282h-123v690h205zM200 586v-214q27 -7 63 -7q56 0 93.5 27t37.5 86q0 112 -133 112q-33 0 -61 -4z" />
    <glyph glyph-name="S" unicode="S" horiz-adv-x="515" 
d="M431 683v-130q-67 33 -148 33q-44 0 -70 -18.5t-26 -55.5q0 -30 29.5 -54.5t72 -44t85 -43.5t72 -65.5t29.5 -97.5q0 -90 -70 -155.5t-184 -65.5q-89 0 -161 22v133q88 -36 169 -36q51 0 82 20t31 60q0 32 -30 58.5t-72 48t-84.5 45.5t-72.5 64t-30 92q0 81 68 144
t188 63q78 0 122 -17z" />
    <glyph glyph-name="T" unicode="T" horiz-adv-x="569" 
d="M3 690h563v-121l-220 15v-584h-123v584l-220 -15v121z" />
    <glyph glyph-name="U" unicode="U" horiz-adv-x="684" 
d="M73 690h122v-454q0 -69 40.5 -102t107.5 -33q66 0 108 32t42 96v461h118v-460q0 -111 -84 -177.5t-199 -66.5q-108 0 -181.5 57t-73.5 165v482z" />
    <glyph glyph-name="V" unicode="V" horiz-adv-x="637" 
d="M-3 690h150l179 -545l179 545h134l-262 -690h-125z" />
    <glyph glyph-name="W" unicode="W" horiz-adv-x="991" 
d="M7 690h140l149 -525l153 525h113l154 -525l141 525h127l-223 -690h-123l-150 477l-146 -477h-117z" />
    <glyph glyph-name="X" unicode="X" horiz-adv-x="674" 
d="M506 690h150l-257 -331l271 -359h-160l-178 265l-184 -265h-145l269 351l-256 339h165l159 -245z" />
    <glyph glyph-name="Y" unicode="Y" horiz-adv-x="645" 
d="M-3 690h160l176 -291l173 291h142l-263 -392v-298h-122v288z" />
    <glyph glyph-name="Z" unicode="Z" horiz-adv-x="605" 
d="M34 97l366 492l-349 -15v116h507v-97l-367 -493l379 16v-116h-536v97z" />
    <glyph glyph-name="bracketleft" unicode="[" horiz-adv-x="392" 
d="M387 -243h-265v1028h265v-87h-158v-854h158v-87z" />
    <glyph glyph-name="backslash" unicode="\" horiz-adv-x="484" 
d="M-129 785h115l484 -1028h-115z" />
    <glyph glyph-name="bracketright" unicode="]" horiz-adv-x="392" 
d="M5 785h266v-1028h-266v87h158v854h-158v87z" />
    <glyph glyph-name="asciicircum" unicode="^" 
d="M213 700h79l193 -359l-77 -29l-157 259l-157 -259l-74 29z" />
    <glyph glyph-name="underscore" unicode="_" horiz-adv-x="654" 
d="M33 -74h588v-94h-588v94z" />
    <glyph glyph-name="grave" unicode="`" horiz-adv-x="322" 
d="M53 690h121l96 -169l-72 -7z" />
    <glyph glyph-name="a" unicode="a" horiz-adv-x="463" 
d="M70 338v99q86 26 175 26q73 0 114.5 -29.5t41.5 -90.5v-343h-82l-18 75q-26 -40 -68 -64.5t-88 -24.5q-50 0 -76.5 26.5t-26.5 71.5q0 134 249 213v36q0 40 -61 40q-74 0 -160 -35zM291 186v34q-60 -10 -97.5 -40t-37.5 -63q0 -36 37 -36q34 0 66 31t32 74z" />
    <glyph glyph-name="b" unicode="b" horiz-adv-x="543" 
d="M319 463q84 0 132 -56t48 -158q0 -116 -61 -189.5t-170 -73.5q-93 0 -143 63l-16 -49h-47v769l109 18v-378q65 54 148 54zM280 355q-56 0 -109 -29v-154q2 -42 29.5 -67t77.5 -25q52 0 83 38t31 99q0 63 -28.5 100.5t-83.5 37.5z" />
    <glyph glyph-name="c" unicode="c" horiz-adv-x="428" 
d="M397 445v-111q-67 31 -132 31q-56 0 -85.5 -35.5t-29.5 -95.5q0 -66 34.5 -105.5t96.5 -39.5q60 0 116 27v-88q-72 -42 -151 -42q-92 0 -147.5 58t-55.5 164q0 114 64.5 184.5t170.5 70.5q60 0 119 -18z" />
    <glyph glyph-name="d" unicode="d" horiz-adv-x="543" 
d="M371 769l110 18v-787h-77l-14 50q-73 -64 -166 -64q-84 0 -132.5 56t-48.5 157q0 117 61 190.5t170 73.5q56 0 97 -19v325zM263 93q52 0 108 29v158q-2 41 -30 65t-76 24q-52 0 -83 -38t-31 -99q0 -64 28 -101.5t84 -37.5z" />
    <glyph glyph-name="e" unicode="e" horiz-adv-x="468" 
d="M431 218h-281q5 -131 135 -131q72 0 135 30v-89q-70 -42 -157 -42q-102 0 -161 56t-59 170q0 107 62.5 179t166.5 72q80 0 122 -49.5t42 -139.5q0 -11 -5 -56zM258 376q-77 0 -100 -80l172 8q0 72 -72 72z" />
    <glyph glyph-name="f" unicode="f" horiz-adv-x="336" 
d="M24 449h80v109q0 105 51 167t142 62q5 0 14 -0.5t14 -0.5v-111q-21 6 -38 6q-73 0 -73 -104v-128h111v-93h-111v-356h-110v356h-80v93z" />
    <glyph glyph-name="g" unicode="g" horiz-adv-x="526" 
d="M126 154q-67 43 -67 127q0 78 57 130t145 52q50 0 87 -14h169v-95l-89 13q11 -31 11 -71q0 -76 -58 -126.5t-146 -50.5q-29 0 -63 8q-26 -19 -26 -44q0 -28 45 -28q23 0 82.5 3.5t99.5 3.5q142 0 142 -109q0 -91 -87 -150.5t-226 -59.5q-90 0 -136 25.5t-46 71.5
q0 37 29.5 72t75.5 53q-42 4 -64.5 25t-22.5 50q0 28 24.5 60.5t63.5 53.5zM189 -37q-22 -10 -38.5 -30.5t-16.5 -42.5q0 -27 22.5 -39t76.5 -12q73 0 117 22t44 58q0 49 -65 49q-26 0 -72.5 -2.5t-67.5 -2.5zM248 383q-82 0 -82 -91q0 -46 22.5 -70.5t61.5 -24.5
q83 0 83 92q0 46 -22 70t-63 24z" />
    <glyph glyph-name="h" unicode="h" horiz-adv-x="509" 
d="M62 769l109 18v-408q30 38 73.5 61t83.5 23q119 0 119 -152v-311h-109v284q0 79 -67 79q-43 0 -71.5 -32.5t-28.5 -77.5v-253h-109v769z" />
    <glyph glyph-name="i" unicode="i" horiz-adv-x="235" 
d="M63 435l110 18v-453h-110v435zM53 603q0 27 18.5 45t46.5 18q27 0 45 -18t18 -45q0 -28 -18 -46.5t-45 -18.5q-28 0 -46.5 18.5t-18.5 46.5z" />
    <glyph glyph-name="j" unicode="j" horiz-adv-x="234" 
d="M62 435l110 18v-434q0 -254 -229 -263l21 112q58 1 78 25.5t20 94.5v447zM53 603q0 27 18.5 45t46.5 18q27 0 45 -18t18 -45q0 -28 -18 -46.5t-45 -18.5q-28 0 -46.5 18.5t-18.5 46.5z" />
    <glyph glyph-name="k" unicode="k" horiz-adv-x="490" 
d="M62 769l109 18v-787h-109v769zM330 449h139l-179 -192l206 -257h-147l-177 231z" />
    <glyph glyph-name="l" unicode="l" horiz-adv-x="233" 
d="M62 769l109 18v-787h-109v769z" />
    <glyph glyph-name="m" unicode="m" horiz-adv-x="760" 
d="M62 435l109 18v-72q65 82 150 82q86 0 107 -93q66 93 157 93q113 0 113 -153v-310h-110v278q0 45 -12 65t-47 20q-39 0 -67 -32t-28 -75v-256h-109v278q0 45 -12 65t-47 20q-40 0 -67.5 -31t-27.5 -75v-257h-109v435z" />
    <glyph glyph-name="n" unicode="n" horiz-adv-x="509" 
d="M62 435l109 18v-74q30 38 73.5 61t83.5 23q119 0 119 -152v-311h-109v284q0 79 -65 79q-43 0 -72.5 -33.5t-29.5 -77.5v-252h-109v435z" />
    <glyph glyph-name="o" unicode="o" horiz-adv-x="552" 
d="M283 463q104 0 165 -61.5t61 -170.5t-67.5 -177t-175.5 -68q-102 0 -162.5 62t-60.5 167q0 109 66.5 178.5t173.5 69.5zM277 376q-54 0 -85 -39t-31 -114t30 -113t85 -38q53 0 83.5 38.5t30.5 113.5q0 76 -29.5 114t-83.5 38z" />
    <glyph glyph-name="p" unicode="p" horiz-adv-x="543" 
d="M62 435l109 18v-40q67 50 148 50q84 0 132 -56t48 -158q0 -116 -61 -189.5t-170 -73.5q-56 0 -97 18v-247h-109v678zM280 355q-59 0 -109 -25v-158q2 -42 29.5 -67t77.5 -25q52 0 83 37.5t31 99.5q0 64 -28.5 101t-83.5 37z" />
    <glyph glyph-name="q" unicode="q" horiz-adv-x="543" 
d="M434 449h47v-692h-110v276q-65 -47 -147 -47q-84 0 -132.5 56t-48.5 157q0 117 61.5 190.5t170.5 73.5q93 0 143 -57zM263 93q52 0 108 27v159q-2 41 -29.5 65.5t-76.5 24.5q-52 0 -83 -37.5t-31 -99.5q0 -65 28 -102t84 -37z" />
    <glyph glyph-name="r" unicode="r" horiz-adv-x="331" 
d="M62 435l109 18v-74q21 37 54 60.5t70 23.5q15 0 31 -4v-110q-18 5 -39 5q-52 0 -84 -28t-32 -70v-256h-109v435z" />
    <glyph glyph-name="s" unicode="s" horiz-adv-x="385" 
d="M322 446v-101q-49 26 -102 26q-31 0 -46.5 -12t-15.5 -31q0 -18 20 -30.5t48 -22.5t56 -23t48 -39.5t20 -64.5q0 -74 -51.5 -118t-134.5 -44q-63 0 -112 20v105q59 -34 121 -34q66 0 66 49q0 20 -30 36t-65.5 28t-65.5 43.5t-30 78.5q0 65 51.5 108t131.5 43q49 0 91 -17
z" />
    <glyph glyph-name="t" unicode="t" horiz-adv-x="348" 
d="M13 449h71v108l110 18v-126h141v-93h-141v-195q0 -34 12 -47t41 -13q48 0 88 28v-105q-68 -38 -141 -38q-54 0 -82 30.5t-28 109.5v230h-71v93z" />
    <glyph glyph-name="u" unicode="u" horiz-adv-x="509" 
d="M62 449h109v-283q0 -42 15 -62t50 -20q42 0 72 31.5t30 76.5v257h109v-449h-85l-19 73q-30 -41 -72.5 -64t-87.5 -23q-121 0 -121 150v313z" />
    <glyph glyph-name="v" unicode="v" horiz-adv-x="443" 
d="M3 449h126l102 -319l101 319h108l-168 -449h-107z" />
    <glyph glyph-name="w" unicode="w" horiz-adv-x="707" 
d="M3 449h125l89 -314l102 314h86l102 -314l88 314h109l-152 -449h-107l-93 285l-97 -285h-106z" />
    <glyph glyph-name="x" unicode="x" horiz-adv-x="474" 
d="M331 448h122l-162 -212l175 -236h-133l-102 153l-104 -153h-120l173 227l-163 221h134l88 -137z" />
    <glyph glyph-name="y" unicode="y" horiz-adv-x="443" 
d="M3 449h122l104 -322l103 322h108l-168 -450q-49 -130 -115.5 -185.5t-180.5 -56.5l20 106q73 0 105 26.5t59 97.5l5 13z" />
    <glyph glyph-name="z" unicode="z" horiz-adv-x="438" 
d="M32 85l237 273l-223 -10v101h354v-85l-230 -274l240 11v-101h-378v85z" />
    <glyph glyph-name="braceleft" unicode="{" horiz-adv-x="364" 
d="M24 228v84h18q51 0 72 28.5t21 84.5q0 21 -6.5 79t-6.5 84q0 196 229 197v-86q-73 -3 -98 -28.5t-25 -72.5q0 -24 6.5 -89.5t6.5 -93.5q0 -125 -113 -141q115 -15 115 -139q0 -31 -5.5 -92.5t-5.5 -88.5q0 -53 23 -81.5t96 -30.5v-85q-130 1 -178 50t-48 138
q0 27 5.5 88.5t5.5 87.5q0 54 -21 80.5t-73 26.5h-18z" />
    <glyph glyph-name="bar" unicode="|" horiz-adv-x="324" 
d="M113 785h98v-1028h-98v1028z" />
    <glyph glyph-name="braceright" unicode="}" horiz-adv-x="364" 
d="M339 314v-84h-18q-51 0 -71.5 -29t-20.5 -84q0 -21 6.5 -79t6.5 -84q0 -196 -229 -197v86q72 3 97.5 28.5t25.5 72.5q0 24 -7 89.5t-7 93.5q0 125 114 141q-116 15 -116 139q0 31 6 92.5t6 88.5q0 53 -23.5 81.5t-95.5 30.5v85q130 -1 178 -50t48 -138q0 -27 -5.5 -88.5
t-5.5 -87.5q0 -53 21 -80t72 -27h18z" />
    <glyph glyph-name="asciitilde" unicode="~" 
d="M110 251l-59 11q7 62 38 103t80 41q34 0 68 -22.5t62 -45t48 -22.5q24 0 35.5 18.5t12.5 45.5l60 -10q-7 -65 -39 -103.5t-79 -38.5q-32 0 -65 23t-61 45.5t-47 22.5q-28 0 -39 -18t-15 -50z" />
    <glyph glyph-name="nbspace" unicode="&#xa0;" horiz-adv-x="249" 
 />
    <glyph glyph-name="exclamdown" unicode="&#xa1;" horiz-adv-x="307" 
d="M222 421q0 -28 -20.5 -48t-49.5 -20q-28 0 -47.5 20t-19.5 48q0 29 19.5 49t47.5 20q29 0 49.5 -20.5t20.5 -48.5zM221 -211h-135l21 497h93z" />
    <glyph glyph-name="cent" unicode="&#xa2;" 
d="M427 639v-111q-47 20 -88 27l-2 -271q51 7 90 25v-87q-44 -26 -90 -36l-1 -142h-76v136q-85 5 -136 63t-51 159q0 99 50.5 166.5t136.5 83.5v133h81l-1 -131q49 -3 87 -15zM180 428q0 -106 80 -137v263q-39 -10 -59.5 -43.5t-20.5 -82.5z" />
    <glyph glyph-name="sterling" unicode="&#xa3;" 
d="M49 395h36q-8 46 -8 93q0 85 66.5 148.5t186.5 63.5q78 0 122 -17v-126q-67 34 -155 34q-44 0 -69.5 -21t-25.5 -63q0 -41 15 -112h145v-93h-128q18 -119 -28 -208l251 15v-109h-373q23 39 34 76.5t9 79.5t-6.5 69t-15.5 77h-56v93z" />
    <glyph glyph-name="currency" unicode="&#xa4;" 
d="M374 648l95 -62l-67 -97q39 -50 39 -125q0 -71 -39 -125l80 -123l-105 -62l-68 116q-30 -12 -64 -12q-35 0 -58 11l-70 -115l-91 62l75 110q-34 48 -34 122q0 76 41 129l-70 109l107 62l58 -103q27 11 57 11q31 0 54 -10zM249 472q-83 0 -83 -115q0 -53 24.5 -84
t64.5 -31q39 0 60 28t21 80q0 57 -24 89.5t-63 32.5z" />
    <glyph glyph-name="yen" unicode="&#xa5;" 
d="M-11 690h136l139 -290l137 290h117l-163 -316h103v-93h-139v-76h139v-92h-139v-113h-122v113h-142v92h142v76h-142v93h100z" />
    <glyph glyph-name="brokenbar" unicode="&#xa6;" horiz-adv-x="324" 
d="M113 785h98v-389h-98v389zM113 146h98v-389h-98v389z" />
    <glyph glyph-name="section" unicode="&#xa7;" horiz-adv-x="615" 
d="M505 683v-119q-64 32 -135 32q-45 0 -71.5 -19t-26.5 -56q0 -33 32 -70t77.5 -74.5t91 -81.5t77.5 -108t32 -137q0 -63 -19.5 -113.5t-52 -83.5t-77 -55t-92 -31.5t-99.5 -9.5q-91 0 -171 22v120q69 -29 149 -29q126 0 126 76q0 25 -17.5 51.5t-45 51t-60.5 52t-66.5 60
t-61 69t-45 85t-17.5 101.5q0 127 91.5 205.5t235.5 78.5q81 0 145 -17zM161 538q-27 -39 -27 -91q0 -58 33 -114t80 -101t94.5 -88t80.5 -90.5t33 -92.5q0 -9 -2 -25q28 38 28 90q0 48 -24 95t-59.5 84t-77.5 76.5t-77.5 73t-59.5 73.5t-24 78q0 23 2 32z" />
    <glyph glyph-name="dieresis" unicode="&#xa8;" horiz-adv-x="398" 
d="M107 641q23 0 39 -16.5t16 -42.5t-16 -43t-39 -17q-24 0 -40 17t-16 43t16 42.5t40 16.5zM294 641q24 0 39.5 -16.5t15.5 -42.5t-16 -43t-39 -17q-24 0 -40 17t-16 43t16 42.5t40 16.5z" />
    <glyph glyph-name="copyright" unicode="&#xa9;" horiz-adv-x="778" 
d="M409 700q149 0 235 -97t86 -242q0 -100 -43 -185t-126 -137.5t-189 -52.5q-149 0 -236.5 96t-87.5 244q0 158 103 266t258 108zM401 610q-114 0 -181.5 -75t-67.5 -196q0 -123 62.5 -193.5t171.5 -70.5q113 0 181 76t68 194q0 126 -61 195.5t-173 69.5zM504 530v-98
q-35 19 -83 19q-97 0 -97 -99q0 -51 27 -82.5t79 -31.5q39 0 74 16v-80q-50 -26 -110 -26q-82 0 -130.5 48.5t-48.5 134.5q0 90 57 150.5t147 60.5q41 0 85 -12z" />
    <glyph glyph-name="ordfeminine" unicode="&#xaa;" horiz-adv-x="309" 
d="M185 582q-33 -8 -53.5 -24.5t-20.5 -34.5q0 -16 18 -16q22 0 39 19.5t17 45.5v10zM162 750q54 0 80 -22.5t26 -72.5v-213h-63l-10 40q-40 -49 -97 -49q-34 0 -53 18.5t-19 50.5q0 87 159 140v20q0 18 -33 18q-43 0 -108 -25v78q56 17 118 17z" />
    <glyph glyph-name="guillemotleft" unicode="&#xab;" horiz-adv-x="544" 
d="M39 290l206 156l41 -70l-140 -128l140 -127l-41 -75l-206 157v87zM258 290l206 156l41 -70l-139 -128l139 -127l-41 -75l-206 157v87z" />
    <glyph glyph-name="logicalnot" unicode="&#xac;" 
d="M21 298h459v-298h-100v206h-359v92z" />
    <glyph glyph-name="registered" unicode="&#xae;" horiz-adv-x="545" 
d="M283 700q101 0 159 -65.5t58 -160.5q0 -103 -67.5 -176.5t-173.5 -73.5q-99 0 -157.5 65t-58.5 160q0 111 69.5 181t170.5 70zM178 597h72q128 0 128 -77q0 -59 -53 -79l64 -101q37 48 37 120q0 85 -39.5 131.5t-111.5 46.5q-74 0 -119 -46t-45 -132q0 -85 41 -130
t113 -45t115 46h-58l-56 96h-23v-95h-65v265zM243 548v-72q7 -1 20 -1q46 0 46 39q0 35 -46 35q-15 0 -20 -1z" />
    <glyph glyph-name="macron" unicode="&#xaf;" horiz-adv-x="324" 
d="M51 620h225v-69h-225v69z" />
    <glyph glyph-name="macron" unicode="&#x2c9;" horiz-adv-x="324" 
d="M51 620h225v-69h-225v69z" />
    <glyph glyph-name="degree" unicode="&#xb0;" horiz-adv-x="413" 
d="M212 700q79 0 121 -48t42 -131q0 -82 -49 -135.5t-125 -53.5q-79 0 -121.5 47.5t-42.5 129.5q0 84 49 137.5t126 53.5zM204 615q-62 0 -62 -96q0 -100 67 -100q33 0 47.5 22.5t14.5 72.5q0 101 -67 101z" />
    <glyph glyph-name="plusminus" unicode="&#xb1;" 
d="M21 449h185v185h93v-185h185v-92h-185v-186h-93v186h-185v92zM21 92h463v-92h-463v92z" />
    <glyph glyph-name="twosuperior" unicode="&#xb2;" horiz-adv-x="317" 
d="M131 683l-74 -48q-28 45 -28 86q0 56 40 95t106 39q53 0 82.5 -29.5t29.5 -81.5q0 -59 -41.5 -118t-112.5 -110l157 8v-75h-265v54q169 116 169 222q0 30 -13.5 44.5t-33.5 14.5q-18 0 -29 -12t-11 -31q0 -31 24 -58z" />
    <glyph glyph-name="threesuperior" unicode="&#xb3;" horiz-adv-x="317" 
d="M40 763v78q52 14 115 14q59 0 89.5 -23.5t30.5 -65.5q0 -59 -61 -93q73 -27 73 -99q0 -56 -43 -94.5t-114 -38.5q-52 0 -90 15v86q55 -26 95 -26q60 0 60 48q0 27 -20 44.5t-59 17.5q-15 0 -39 -3v67q113 0 113 49q0 22 -16.5 33.5t-42.5 11.5q-41 0 -91 -21z" />
    <glyph glyph-name="acute" unicode="&#xb4;" horiz-adv-x="322" 
d="M149 690h121l-145 -176l-72 7z" />
    <glyph glyph-name="mu" unicode="&#xb5;" horiz-adv-x="515" 
d="M502 96v-91q-44 -19 -78 -19q-41 0 -59.5 20t-25.5 67q-48 -84 -132 -84q-34 0 -63 17l18 -236q-33 -5 -115 -16l17 381l-9 305l121 16l-7 -291q0 -82 64 -82q41 0 70 31.5t29 76.5v249l110 16v-333q0 -20 6 -28t21 -8q18 0 33 9z" />
    <glyph glyph-name="mu" unicode="&#x3bc;" horiz-adv-x="515" 
d="M502 96v-91q-44 -19 -78 -19q-41 0 -59.5 20t-25.5 67q-48 -84 -132 -84q-34 0 -63 17l18 -236q-33 -5 -115 -16l17 381l-9 305l121 16l-7 -291q0 -82 64 -82q41 0 70 31.5t29 76.5v249l110 16v-333q0 -20 6 -28t21 -8q18 0 33 9z" />
    <glyph glyph-name="paragraph" unicode="&#xb6;" horiz-adv-x="558" 
d="M285 690h196v-690h-122v267q-39 -11 -86 -11q-110 0 -175 62.5t-65 163.5q0 89 62 148.5t190 59.5z" />
    <glyph glyph-name="periodcentered" unicode="&#xb7;" 
d="M175 251q0 32 23 54t56 22q32 0 54.5 -22.5t22.5 -53.5q0 -33 -22.5 -56.5t-54.5 -23.5q-33 0 -56 23.5t-23 56.5z" />
    <glyph glyph-name="periodcentered" unicode="&#x2219;" 
d="M175 251q0 32 23 54t56 22q32 0 54.5 -22.5t22.5 -53.5q0 -33 -22.5 -56.5t-54.5 -23.5q-33 0 -56 23.5t-23 56.5z" />
    <glyph glyph-name="cedilla" unicode="&#xb8;" horiz-adv-x="320" 
d="M129 10h61l-32 -68q54 -1 80.5 -22t26.5 -56q0 -43 -34.5 -71t-98.5 -28q-49 0 -82 14l20 53q19 -8 42 -8q50 0 50 36q0 40 -74 40z" />
    <glyph glyph-name="onesuperior" unicode="&#xb9;" horiz-adv-x="317" 
d="M58 800l172 58v-345h56v-64h-202v64h62v241l-88 -40v86z" />
    <glyph glyph-name="ordmasculine" unicode="&#xba;" horiz-adv-x="365" 
d="M190 751q70 0 109 -39.5t39 -111.5q0 -73 -46 -119.5t-118 -46.5q-68 0 -107 40t-39 110q0 72 46 119.5t116 47.5zM181 683q-66 0 -66 -89q0 -44 19.5 -68.5t51.5 -24.5q64 0 64 88q0 45 -19 69.5t-50 24.5z" />
    <glyph glyph-name="guillemotright" unicode="&#xbb;" horiz-adv-x="544" 
d="M299 446l206 -157v-87l-206 -156l-41 71l140 128l-140 127zM80 446l206 -157v-87l-206 -156l-41 71l139 128l-139 127z" />
    <glyph glyph-name="onequarter" unicode="&#xbc;" horiz-adv-x="745" 
d="M577 690h115l-512 -690h-115zM33 652l172 58v-345h56v-65h-202v65h62v241l-88 -40v86zM553 400h87v-234l56 3v-70h-56v-99h-83v99h-162v50zM557 288l-79 -126l79 1v125z" />
    <glyph glyph-name="onehalf" unicode="&#xbd;" horiz-adv-x="745" 
d="M576 690h115l-512 -690h-115zM34 652l172 58v-345h56v-65h-202v65h62v241l-88 -40v86zM553 235l-75 -48q-27 43 -27 85q0 57 39.5 95.5t105.5 38.5q53 0 82.5 -29t29.5 -82q0 -59 -41.5 -118t-112.5 -110l157 9v-76h-264v54q169 117 169 222q0 31 -14 45.5t-34 14.5
q-17 0 -28.5 -12.5t-11.5 -31.5q0 -31 25 -57z" />
    <glyph glyph-name="threequarters" unicode="&#xbe;" horiz-adv-x="716" 
d="M555 690h115l-512 -690h-115zM519 400h87v-234l56 3v-70h-56v-99h-83v99h-162v50zM523 288l-79 -126l79 1v125zM34 614v79q54 13 114 13q59 0 89.5 -23.5t30.5 -64.5q0 -58 -61 -94q73 -27 73 -98q0 -57 -43 -95.5t-114 -38.5q-49 0 -89 15v87q52 -26 94 -26q60 0 60 48
q0 27 -20 44t-59 17q-23 0 -39 -3v67q113 0 113 50q0 44 -59 44q-42 0 -90 -21z" />
    <glyph glyph-name="questiondown" unicode="&#xbf;" horiz-adv-x="432" 
d="M332 421q0 -28 -20.5 -48t-49.5 -20q-28 0 -47.5 20t-19.5 48q0 29 19.5 49t47.5 20q29 0 49.5 -20.5t20.5 -48.5zM181 -44q0 -35 21.5 -53t56.5 -18q65 0 126 40v-121q-92 -25 -169 -25q-76 0 -119 37.5t-43 106.5q0 49 25.5 94.5t56 75.5t56 71.5t25.5 82.5q0 22 -7 44
h106q3 -23 3 -42q0 -40 -14 -76.5t-34.5 -63.5t-41 -51.5t-34.5 -50.5t-14 -51z" />
    <glyph glyph-name="Agrave" unicode="&#xc0;" horiz-adv-x="637" 
d="M260 690h124l255 -690h-147l-66 190h-233l-65 -190h-131zM309 545l-88 -263h177zM165 875h113l100 -150l-70 -8z" />
    <glyph glyph-name="Aacute" unicode="&#xc1;" horiz-adv-x="637" 
d="M260 690h124l255 -690h-147l-66 190h-233l-65 -190h-131zM309 545l-88 -263h177zM340 875h113l-142 -158l-70 8z" />
    <glyph glyph-name="Acircumflex" unicode="&#xc2;" horiz-adv-x="637" 
d="M260 690h124l255 -690h-147l-66 190h-233l-65 -190h-131zM309 545l-88 -263h177zM274 879h89l105 -156l-66 -8l-85 89l-86 -89q-1 0 -31 4l-30 4z" />
    <glyph glyph-name="Atilde" unicode="&#xc3;" horiz-adv-x="637" 
d="M260 690h124l255 -690h-147l-66 190h-233l-65 -190h-131zM309 545l-88 -263h177zM202 728l-46 6q5 59 31.5 93t71.5 34q39 0 76 -29.5t57 -29.5q38 0 43 56l46 -3q-4 -63 -31.5 -94t-71.5 -31q-36 0 -72.5 29t-55.5 29q-24 0 -34.5 -15t-13.5 -45z" />
    <glyph glyph-name="Adieresis" unicode="&#xc4;" horiz-adv-x="637" 
d="M260 690h124l255 -690h-147l-66 190h-233l-65 -190h-131zM309 545l-88 -263h177zM166 786q0 24 16.5 39t40.5 15q23 0 39.5 -15.5t16.5 -38.5q0 -24 -16.5 -40t-39.5 -16q-24 0 -40.5 16t-16.5 40zM357 786q0 24 16.5 39t40.5 15t40.5 -15t16.5 -39t-16.5 -40t-40.5 -16
t-40.5 16t-16.5 40z" />
    <glyph glyph-name="Aring" unicode="&#xc5;" horiz-adv-x="637" 
d="M260 690h124l255 -690h-147l-66 190h-233l-65 -190h-131zM309 545l-88 -263h177zM211 801q0 44 30.5 71t76.5 27t76 -27t30 -71q0 -43 -30 -67t-76 -24q-48 0 -77.5 24t-29.5 67zM273 800q0 -20 12.5 -31t32.5 -11q43 0 43 41q0 20 -12.5 31.5t-32.5 11.5q-43 0 -43 -42z
" />
    <glyph glyph-name="AE" unicode="&#xc6;" horiz-adv-x="833" 
d="M379 690h414v-109l-279 15v-198l235 14v-110l-235 15v-223l279 15v-109h-401v190h-238l-133 -190h-145zM213 282h179v259z" />
    <glyph glyph-name="Ccedilla" unicode="&#xc7;" horiz-adv-x="609" 
d="M425 700q78 0 147 -20v-136q-80 45 -170 45q-103 0 -158 -65t-55 -179t56.5 -182t158.5 -68q90 0 168 44v-133q-69 -20 -165 -20h-8l-20 -44q54 -1 80.5 -22t26.5 -56q0 -43 -34.5 -71t-98.5 -28q-49 0 -82 14l20 53q19 -8 42 -8q50 0 50 36q0 40 -74 40l34 91
q-130 18 -207.5 109t-77.5 235q0 164 102.5 264.5t264.5 100.5z" />
    <glyph glyph-name="Egrave" unicode="&#xc8;" horiz-adv-x="519" 
d="M77 690h402v-109l-279 15v-199l234 15v-110l-234 15v-223l279 15v-109h-402v690zM153 875h113l100 -150l-70 -8z" />
    <glyph glyph-name="Eacute" unicode="&#xc9;" horiz-adv-x="519" 
d="M77 690h402v-109l-279 15v-199l234 15v-110l-234 15v-223l279 15v-109h-402v690zM314 875h113l-142 -158l-70 8z" />
    <glyph glyph-name="Ecircumflex" unicode="&#xca;" horiz-adv-x="519" 
d="M77 690h402v-109l-279 15v-199l234 15v-110l-234 15v-223l279 15v-109h-402v690zM237 879h89l105 -156l-66 -8l-85 89l-86 -89q-1 0 -31 4l-30 4z" />
    <glyph glyph-name="Edieresis" unicode="&#xcb;" horiz-adv-x="519" 
d="M77 690h402v-109l-279 15v-199l234 15v-110l-234 15v-223l279 15v-109h-402v690zM123 786q0 24 16.5 39t40.5 15q23 0 39.5 -15.5t16.5 -38.5q0 -24 -16.5 -40t-39.5 -16q-24 0 -40.5 16t-16.5 40zM314 786q0 24 16.5 39t40.5 15t40.5 -15t16.5 -39t-16.5 -40t-40.5 -16
t-40.5 16t-16.5 40z" />
    <glyph glyph-name="Igrave" unicode="&#xcc;" horiz-adv-x="277" 
d="M77 690h123v-690h-123v690zM4 875h113l100 -150l-70 -8z" />
    <glyph glyph-name="Iacute" unicode="&#xcd;" horiz-adv-x="277" 
d="M77 690h123v-690h-123v690zM160 875h113l-142 -158l-70 8z" />
    <glyph glyph-name="Icircumflex" unicode="&#xce;" horiz-adv-x="277" 
d="M77 690h123v-690h-123v690zM95 879h89l105 -156l-66 -8l-85 89l-86 -89q-1 0 -31 4l-30 4z" />
    <glyph glyph-name="Idieresis" unicode="&#xcf;" horiz-adv-x="277" 
d="M77 690h123v-690h-123v690zM-13 786q0 24 16.5 39t40.5 15q23 0 39.5 -15.5t16.5 -38.5q0 -24 -16.5 -40t-39.5 -16q-24 0 -40.5 16t-16.5 40zM178 786q0 24 16.5 39t40.5 15t40.5 -15t16.5 -39t-16.5 -40t-40.5 -16t-40.5 16t-16.5 40z" />
    <glyph glyph-name="Eth" unicode="&#xd0;" horiz-adv-x="700" 
d="M77 690h217q151 0 249.5 -82.5t98.5 -235.5q0 -172 -102 -272t-289 -100h-174v327h-51v69h51v294zM200 586v-190h105v-69h-105v-219q37 -5 65 -5q115 0 179.5 63t64.5 184q0 240 -237 240q-28 0 -72 -4z" />
    <glyph glyph-name="Ntilde" unicode="&#xd1;" horiz-adv-x="681" 
d="M77 690h155l262 -445v445h110v-690h-98l-319 539v-539h-110v690zM224 728l-46 6q5 59 31.5 93t71.5 34q39 0 76 -29.5t57 -29.5q38 0 43 56l46 -3q-4 -63 -31.5 -94t-71.5 -31q-36 0 -72.5 29t-55.5 29q-24 0 -34.5 -15t-13.5 -45z" />
    <glyph glyph-name="Ograve" unicode="&#xd2;" horiz-adv-x="791" 
d="M393 592q-94 0 -149.5 -64t-55.5 -183q0 -117 54 -184t152 -67q95 0 151.5 63.5t56.5 182.5q0 118 -55 185t-154 67zM407 700q154 0 239.5 -97t85.5 -242q0 -159 -97 -267t-259 -108q-147 0 -232.5 98.5t-85.5 246.5q0 152 95.5 260.5t253.5 108.5zM288 875h113l100 -150
l-70 -8z" />
    <glyph glyph-name="Oacute" unicode="&#xd3;" horiz-adv-x="791" 
d="M393 592q-94 0 -149.5 -64t-55.5 -183q0 -117 54 -184t152 -67q95 0 151.5 63.5t56.5 182.5q0 118 -55 185t-154 67zM407 700q154 0 239.5 -97t85.5 -242q0 -159 -97 -267t-259 -108q-147 0 -232.5 98.5t-85.5 246.5q0 152 95.5 260.5t253.5 108.5zM395 875h113
l-142 -158l-70 8z" />
    <glyph glyph-name="Ocircumflex" unicode="&#xd4;" horiz-adv-x="791" 
d="M393 592q-94 0 -149.5 -64t-55.5 -183q0 -117 54 -184t152 -67q95 0 151.5 63.5t56.5 182.5q0 118 -55 185t-154 67zM407 700q154 0 239.5 -97t85.5 -242q0 -159 -97 -267t-259 -108q-147 0 -232.5 98.5t-85.5 246.5q0 152 95.5 260.5t253.5 108.5zM351 879h89l105 -156
l-66 -8l-85 89l-86 -89q-1 0 -31 4l-30 4z" />
    <glyph glyph-name="Otilde" unicode="&#xd5;" horiz-adv-x="791" 
d="M393 592q-94 0 -149.5 -64t-55.5 -183q0 -117 54 -184t152 -67q95 0 151.5 63.5t56.5 182.5q0 118 -55 185t-154 67zM407 700q154 0 239.5 -97t85.5 -242q0 -159 -97 -267t-259 -108q-147 0 -232.5 98.5t-85.5 246.5q0 152 95.5 260.5t253.5 108.5zM279 728l-46 6
q5 59 31.5 93t71.5 34q39 0 76 -29.5t57 -29.5q38 0 43 56l46 -3q-4 -63 -31.5 -94t-71.5 -31q-36 0 -72.5 29t-55.5 29q-24 0 -34.5 -15t-13.5 -45z" />
    <glyph glyph-name="Odieresis" unicode="&#xd6;" horiz-adv-x="791" 
d="M393 592q-94 0 -149.5 -64t-55.5 -183q0 -117 54 -184t152 -67q95 0 151.5 63.5t56.5 182.5q0 118 -55 185t-154 67zM407 700q154 0 239.5 -97t85.5 -242q0 -159 -97 -267t-259 -108q-147 0 -232.5 98.5t-85.5 246.5q0 152 95.5 260.5t253.5 108.5zM243 786q0 24 16.5 39
t40.5 15q23 0 39.5 -15.5t16.5 -38.5q0 -24 -16.5 -40t-39.5 -16q-24 0 -40.5 16t-16.5 40zM434 786q0 24 16.5 39t40.5 15t40.5 -15t16.5 -39t-16.5 -40t-40.5 -16t-40.5 16t-16.5 40z" />
    <glyph glyph-name="multiply" unicode="&#xd7;" 
d="M94 476l159 -160l159 159l65 -65l-158 -159l159 -159l-65 -66l-160 160l-160 -160l-65 65l160 160l-159 159z" />
    <glyph glyph-name="Oslash" unicode="&#xd8;" horiz-adv-x="791" 
d="M407 700q101 0 176 -46l35 44l103 -15l-69 -87q80 -94 80 -235q0 -159 -97 -267t-259 -108q-99 0 -171 46l-31 -40l-103 15l67 84q-80 95 -80 240q0 152 95.5 260.5t253.5 108.5zM602 340q0 88 -33 151l-289 -365q47 -32 114 -32q95 0 151.5 63.5t56.5 182.5zM393 592
q-94 0 -149.5 -64t-55.5 -183q0 -89 32 -150l288 364q-49 33 -115 33z" />
    <glyph glyph-name="Ugrave" unicode="&#xd9;" horiz-adv-x="684" 
d="M73 690h122v-454q0 -69 40.5 -102t107.5 -33q66 0 108 32t42 96v461h118v-460q0 -111 -84 -177.5t-199 -66.5q-108 0 -181.5 57t-73.5 165v482zM221 875h113l100 -150l-70 -8z" />
    <glyph glyph-name="Uacute" unicode="&#xda;" horiz-adv-x="684" 
d="M73 690h122v-454q0 -69 40.5 -102t107.5 -33q66 0 108 32t42 96v461h118v-460q0 -111 -84 -177.5t-199 -66.5q-108 0 -181.5 57t-73.5 165v482zM353 875h113l-142 -158l-70 8z" />
    <glyph glyph-name="Ucircumflex" unicode="&#xdb;" horiz-adv-x="684" 
d="M73 690h122v-454q0 -69 40.5 -102t107.5 -33q66 0 108 32t42 96v461h118v-460q0 -111 -84 -177.5t-199 -66.5q-108 0 -181.5 57t-73.5 165v482zM297 879h89l105 -156l-66 -8l-85 89l-86 -89q-1 0 -31 4l-30 4z" />
    <glyph glyph-name="Udieresis" unicode="&#xdc;" horiz-adv-x="684" 
d="M73 690h122v-454q0 -69 40.5 -102t107.5 -33q66 0 108 32t42 96v461h118v-460q0 -111 -84 -177.5t-199 -66.5q-108 0 -181.5 57t-73.5 165v482zM189 786q0 24 16.5 39t40.5 15q23 0 39.5 -15.5t16.5 -38.5q0 -24 -16.5 -40t-39.5 -16q-24 0 -40.5 16t-16.5 40zM380 786
q0 24 16.5 39t40.5 15t40.5 -15t16.5 -39t-16.5 -40t-40.5 -16t-40.5 16t-16.5 40z" />
    <glyph glyph-name="Yacute" unicode="&#xdd;" horiz-adv-x="645" 
d="M-3 690h160l176 -291l173 291h142l-263 -392v-298h-122v288zM349 875h113l-142 -158l-70 8z" />
    <glyph glyph-name="Thorn" unicode="&#xde;" horiz-adv-x="558" 
d="M199 576h77q127 0 188 -59t61 -145q0 -102 -65 -166t-175 -64q-43 0 -86 12v-154h-122v690h122v-114zM263 477q-37 0 -64 -4v-228q32 -8 58 -8q63 0 98.5 31.5t35.5 86.5q0 57 -31.5 89.5t-96.5 32.5z" />
    <glyph glyph-name="germandbls" unicode="&#xdf;" horiz-adv-x="544" 
d="M304 782q89 0 144 -49t55 -129q0 -100 -66 -185q-25 9 -46 9q-27 0 -42 -13t-15 -34q0 -23 29 -48t63 -45.5t63 -58t29 -81.5q0 -74 -50.5 -118t-133.5 -44q-55 0 -104 20v105q59 -34 114 -34q63 0 63 49q0 23 -28.5 48.5t-62.5 47t-62.5 60.5t-28.5 86q0 60 38.5 102
t91.5 42q18 0 34 -4q9 27 9 60q0 51 -29.5 81.5t-81.5 30.5q-48 0 -82 -34t-34 -99v-547h-109v539q0 109 71 176t171 67z" />
    <glyph glyph-name="agrave" unicode="&#xe0;" horiz-adv-x="463" 
d="M70 338v99q86 26 175 26q73 0 114.5 -29.5t41.5 -90.5v-343h-82l-18 75q-26 -40 -68 -64.5t-88 -24.5q-50 0 -76.5 26.5t-26.5 71.5q0 134 249 213v36q0 40 -61 40q-74 0 -160 -35zM291 186v34q-60 -10 -97.5 -40t-37.5 -63q0 -36 37 -36q34 0 66 31t32 74zM110 690h121
l96 -169l-72 -7z" />
    <glyph glyph-name="aacute" unicode="&#xe1;" horiz-adv-x="463" 
d="M70 338v99q86 26 175 26q73 0 114.5 -29.5t41.5 -90.5v-343h-82l-18 75q-26 -40 -68 -64.5t-88 -24.5q-50 0 -76.5 26.5t-26.5 71.5q0 134 249 213v36q0 40 -61 40q-74 0 -160 -35zM291 186v34q-60 -10 -97.5 -40t-37.5 -63q0 -36 37 -36q34 0 66 31t32 74zM239 690h121
l-145 -176l-72 7z" />
    <glyph glyph-name="acircumflex" unicode="&#xe2;" horiz-adv-x="463" 
d="M70 338v99q86 26 175 26q73 0 114.5 -29.5t41.5 -90.5v-343h-82l-18 75q-26 -40 -68 -64.5t-88 -24.5q-50 0 -76.5 26.5t-26.5 71.5q0 134 249 213v36q0 40 -61 40q-74 0 -160 -35zM291 186v34q-60 -10 -97.5 -40t-37.5 -63q0 -36 37 -36q34 0 66 31t32 74zM186 683h90
l105 -167l-66 -8l-86 98l-86 -98l-62 8z" />
    <glyph glyph-name="atilde" unicode="&#xe3;" horiz-adv-x="463" 
d="M70 338v99q86 26 175 26q73 0 114.5 -29.5t41.5 -90.5v-343h-82l-18 75q-26 -40 -68 -64.5t-88 -24.5q-50 0 -76.5 26.5t-26.5 71.5q0 134 249 213v36q0 40 -61 40q-74 0 -160 -35zM291 186v34q-60 -10 -97.5 -40t-37.5 -63q0 -36 37 -36q34 0 66 31t32 74zM133 519
l-48 6q14 124 104 124q30 0 50.5 -15.5t36 -30.5t31.5 -15q38 0 40 55l48 -4q-6 -63 -33 -93t-70 -30q-28 0 -48.5 16t-35.5 31.5t-30 15.5q-22 0 -32 -15t-13 -45z" />
    <glyph glyph-name="adieresis" unicode="&#xe4;" horiz-adv-x="463" 
d="M70 338v99q86 26 175 26q73 0 114.5 -29.5t41.5 -90.5v-343h-82l-18 75q-26 -40 -68 -64.5t-88 -24.5q-50 0 -76.5 26.5t-26.5 71.5q0 134 249 213v36q0 40 -61 40q-74 0 -160 -35zM291 186v34q-60 -10 -97.5 -40t-37.5 -63q0 -36 37 -36q34 0 66 31t32 74zM137 641
q23 0 39 -16.5t16 -42.5t-16 -43t-39 -17q-24 0 -40 17t-16 43t16 42.5t40 16.5zM324 641q24 0 39.5 -16.5t15.5 -42.5t-16 -43t-39 -17q-24 0 -40 17t-16 43t16 42.5t40 16.5z" />
    <glyph glyph-name="aring" unicode="&#xe5;" horiz-adv-x="463" 
d="M70 338v99q86 26 175 26q73 0 114.5 -29.5t41.5 -90.5v-343h-82l-18 75q-26 -40 -68 -64.5t-88 -24.5q-50 0 -76.5 26.5t-26.5 71.5q0 134 249 213v36q0 40 -61 40q-74 0 -160 -35zM291 186v34q-60 -10 -97.5 -40t-37.5 -63q0 -36 37 -36q34 0 66 31t32 74zM132 598
q0 45 31.5 75t76.5 30t74.5 -29.5t29.5 -75.5q0 -45 -31 -74t-76 -29q-46 0 -75.5 29t-29.5 74zM236 644q-40 0 -40 -45q0 -22 11.5 -35.5t31.5 -13.5q39 0 39 45q0 22 -11.5 35.5t-30.5 13.5z" />
    <glyph glyph-name="ae" unicode="&#xe6;" horiz-adv-x="708" 
d="M243 462q47 0 76 -13t45 -46q57 59 147 59q164 0 164 -191q0 -27 -5 -55q-122 4 -162 4q-71 0 -118 -4q4 -69 40 -99t108 -30q62 0 122 30v-90q-71 -41 -156 -41q-134 0 -180 93q-70 -93 -178 -93q-50 0 -77.5 26.5t-27.5 71.5q0 142 251 192q-3 53 -19 75t-45 22
q-72 0 -158 -35v99q81 25 173 25zM192 80q36 0 63 29.5t35 95.5q-134 -25 -134 -89q0 -36 36 -36zM497 375q-79 0 -100 -84q75 7 172 9q0 36 -15 55.5t-57 19.5z" />
    <glyph glyph-name="ccedilla" unicode="&#xe7;" horiz-adv-x="428" 
d="M397 445v-111q-67 31 -132 31q-56 0 -85.5 -35.5t-29.5 -95.5q0 -66 34.5 -105.5t96.5 -39.5q60 0 116 27v-88q-65 -39 -140 -42l-21 -44q54 -1 80.5 -22t26.5 -56q0 -43 -34.5 -71t-98.5 -28q-49 0 -82 14l20 53q19 -8 42 -8q50 0 50 36q0 40 -74 40l33 90
q-72 14 -114 70t-42 148q0 114 64.5 184.5t170.5 70.5q60 0 119 -18z" />
    <glyph glyph-name="egrave" unicode="&#xe8;" horiz-adv-x="468" 
d="M431 218h-281q5 -131 135 -131q72 0 135 30v-89q-70 -42 -157 -42q-102 0 -161 56t-59 170q0 107 62.5 179t166.5 72q80 0 122 -49.5t42 -139.5q0 -11 -5 -56zM139 690h121l96 -169l-72 -7zM258 376q-77 0 -100 -80l172 8q0 72 -72 72z" />
    <glyph glyph-name="eacute" unicode="&#xe9;" horiz-adv-x="468" 
d="M431 218h-281q5 -131 135 -131q72 0 135 30v-89q-70 -42 -157 -42q-102 0 -161 56t-59 170q0 107 62.5 179t166.5 72q80 0 122 -49.5t42 -139.5q0 -11 -5 -56zM273 690h121l-145 -176l-72 7zM258 376q-77 0 -100 -80l172 8q0 72 -72 72z" />
    <glyph glyph-name="ecircumflex" unicode="&#xea;" horiz-adv-x="468" 
d="M431 218h-281q5 -131 135 -131q72 0 135 30v-89q-70 -42 -157 -42q-102 0 -161 56t-59 170q0 107 62.5 179t166.5 72q80 0 122 -49.5t42 -139.5q0 -11 -5 -56zM220 683h90l105 -167l-66 -8l-86 98l-86 -98l-62 8zM258 376q-77 0 -100 -80l172 8q0 72 -72 72z" />
    <glyph glyph-name="edieresis" unicode="&#xeb;" horiz-adv-x="468" 
d="M431 218h-281q5 -131 135 -131q72 0 135 30v-89q-70 -42 -157 -42q-102 0 -161 56t-59 170q0 107 62.5 179t166.5 72q80 0 122 -49.5t42 -139.5q0 -11 -5 -56zM169 641q23 0 39 -16.5t16 -42.5t-16 -43t-39 -17q-24 0 -40 17t-16 43t16 42.5t40 16.5zM356 641
q24 0 39.5 -16.5t15.5 -42.5t-16 -43t-39 -17q-24 0 -40 17t-16 43t16 42.5t40 16.5zM258 376q-77 0 -100 -80l172 8q0 72 -72 72z" />
    <glyph glyph-name="igrave" unicode="&#xec;" horiz-adv-x="229" 
d="M-23 690h121l96 -169l-72 -7zM63 435l104 18v-453h-104v435z" />
    <glyph glyph-name="iacute" unicode="&#xed;" horiz-adv-x="229" 
d="M138 690h121l-145 -176l-72 7zM63 435l104 18v-453h-104v435z" />
    <glyph glyph-name="icircumflex" unicode="&#xee;" horiz-adv-x="229" 
d="M63 435l104 18v-453h-104v435zM71 683h90l105 -167l-66 -8l-86 98l-86 -98l-62 8z" />
    <glyph glyph-name="idieresis" unicode="&#xef;" horiz-adv-x="229" 
d="M22 641q23 0 39 -16.5t16 -42.5t-16 -43t-39 -17q-24 0 -40 17t-16 43t16 42.5t40 16.5zM209 641q24 0 39.5 -16.5t15.5 -42.5t-16 -43t-39 -17q-24 0 -40 17t-16 43t16 42.5t40 16.5zM63 435l104 18v-453h-104v435z" />
    <glyph glyph-name="eth" unicode="&#xf0;" horiz-adv-x="547" 
d="M216 762l116 39q41 -42 75 -102l54 28l32 -60l-55 -28q69 -151 69 -313q0 -169 -65.5 -254.5t-184.5 -85.5q-101 0 -157.5 61.5t-56.5 167.5q0 109 62 178t160 69q89 0 140 -54q-14 87 -64 182l-68 -35l-32 60l67 34q-45 68 -92 113zM279 375q-55 0 -86.5 -37.5
t-31.5 -111.5q0 -76 30 -114.5t84 -38.5t84.5 42t30.5 126q0 134 -111 134z" />
    <glyph glyph-name="ntilde" unicode="&#xf1;" horiz-adv-x="509" 
d="M62 435l109 18v-74q30 38 73.5 61t83.5 23q119 0 119 -152v-311h-109v284q0 79 -65 79q-43 0 -72.5 -33.5t-29.5 -77.5v-252h-109v435zM150 519l-48 6q14 124 104 124q30 0 50.5 -15.5t36 -30.5t31.5 -15q38 0 40 55l48 -4q-6 -63 -33 -93t-70 -30q-28 0 -48.5 16
t-35.5 31.5t-30 15.5q-22 0 -32 -15t-13 -45z" />
    <glyph glyph-name="ograve" unicode="&#xf2;" horiz-adv-x="552" 
d="M283 463q104 0 165 -61.5t61 -170.5t-67.5 -177t-175.5 -68q-102 0 -162.5 62t-60.5 167q0 109 66.5 178.5t173.5 69.5zM277 376q-54 0 -85 -39t-31 -114t30 -113t85 -38q53 0 83.5 38.5t30.5 113.5q0 76 -29.5 114t-83.5 38zM140 690h121l96 -169l-72 -7z" />
    <glyph glyph-name="oacute" unicode="&#xf3;" horiz-adv-x="552" 
d="M283 463q104 0 165 -61.5t61 -170.5t-67.5 -177t-175.5 -68q-102 0 -162.5 62t-60.5 167q0 109 66.5 178.5t173.5 69.5zM277 376q-54 0 -85 -39t-31 -114t30 -113t85 -38q53 0 83.5 38.5t30.5 113.5q0 76 -29.5 114t-83.5 38zM267 690h121l-145 -176l-72 7z" />
    <glyph glyph-name="ocircumflex" unicode="&#xf4;" horiz-adv-x="552" 
d="M283 463q104 0 165 -61.5t61 -170.5t-67.5 -177t-175.5 -68q-102 0 -162.5 62t-60.5 167q0 109 66.5 178.5t173.5 69.5zM277 376q-54 0 -85 -39t-31 -114t30 -113t85 -38q53 0 83.5 38.5t30.5 113.5q0 76 -29.5 114t-83.5 38zM229 683h90l105 -167l-66 -8l-86 98l-86 -98
l-62 8z" />
    <glyph glyph-name="otilde" unicode="&#xf5;" horiz-adv-x="552" 
d="M283 463q104 0 165 -61.5t61 -170.5t-67.5 -177t-175.5 -68q-102 0 -162.5 62t-60.5 167q0 109 66.5 178.5t173.5 69.5zM277 376q-54 0 -85 -39t-31 -114t30 -113t85 -38q53 0 83.5 38.5t30.5 113.5q0 76 -29.5 114t-83.5 38zM167 519l-48 6q14 124 104 124
q30 0 50.5 -15.5t36 -30.5t31.5 -15q38 0 40 55l48 -4q-6 -63 -33 -93t-70 -30q-28 0 -48.5 16t-35.5 31.5t-30 15.5q-22 0 -32 -15t-13 -45z" />
    <glyph glyph-name="odieresis" unicode="&#xf6;" horiz-adv-x="552" 
d="M283 463q104 0 165 -61.5t61 -170.5t-67.5 -177t-175.5 -68q-102 0 -162.5 62t-60.5 167q0 109 66.5 178.5t173.5 69.5zM277 376q-54 0 -85 -39t-31 -114t30 -113t85 -38q53 0 83.5 38.5t30.5 113.5q0 76 -29.5 114t-83.5 38zM181 641q23 0 39 -16.5t16 -42.5t-16 -43
t-39 -17q-24 0 -40 17t-16 43t16 42.5t40 16.5zM368 641q24 0 39.5 -16.5t15.5 -42.5t-16 -43t-39 -17q-24 0 -40 17t-16 43t16 42.5t40 16.5z" />
    <glyph glyph-name="divide" unicode="&#xf7;" 
d="M21 298h463v-92h-463v92zM188 421q0 26 19.5 45t45.5 19q27 0 46 -19t19 -45q0 -27 -19 -46.5t-46 -19.5q-26 0 -45.5 19.5t-19.5 46.5zM188 84q0 26 19.5 45t45.5 19q27 0 46 -19t19 -45q0 -27 -19 -46.5t-46 -19.5q-26 0 -45.5 19.5t-19.5 46.5z" />
    <glyph glyph-name="oslash" unicode="&#xf8;" horiz-adv-x="549" 
d="M283 463q69 0 124 -30l20 23l80 -15l-47 -54q49 -62 49 -156q0 -109 -67.5 -177t-175.5 -68q-68 0 -123 31l-22 -25l-79 16l48 55q-47 59 -47 152q0 109 66.5 178.5t173.5 69.5zM390 224q0 34 -9 70l-173 -201q27 -21 68 -21q53 0 83.5 38.5t30.5 113.5zM277 376
q-54 0 -85 -39t-31 -114q0 -43 8 -68l172 201q-26 20 -64 20z" />
    <glyph glyph-name="ugrave" unicode="&#xf9;" horiz-adv-x="509" 
d="M62 449h109v-283q0 -42 15 -62t50 -20q42 0 72 31.5t30 76.5v257h109v-449h-85l-19 73q-30 -41 -72.5 -64t-87.5 -23q-121 0 -121 150v313zM124 690h121l96 -169l-72 -7z" />
    <glyph glyph-name="uacute" unicode="&#xfa;" horiz-adv-x="509" 
d="M62 449h109v-283q0 -42 15 -62t50 -20q42 0 72 31.5t30 76.5v257h109v-449h-85l-19 73q-30 -41 -72.5 -64t-87.5 -23q-121 0 -121 150v313zM269 690h121l-145 -176l-72 7z" />
    <glyph glyph-name="ucircumflex" unicode="&#xfb;" horiz-adv-x="509" 
d="M62 449h109v-283q0 -42 15 -62t50 -20q42 0 72 31.5t30 76.5v257h109v-449h-85l-19 73q-30 -41 -72.5 -64t-87.5 -23q-121 0 -121 150v313zM207 683h90l105 -167l-66 -8l-86 98l-86 -98l-62 8z" />
    <glyph glyph-name="udieresis" unicode="&#xfc;" horiz-adv-x="509" 
d="M62 449h109v-283q0 -42 15 -62t50 -20q42 0 72 31.5t30 76.5v257h109v-449h-85l-19 73q-30 -41 -72.5 -64t-87.5 -23q-121 0 -121 150v313zM159 641q23 0 39 -16.5t16 -42.5t-16 -43t-39 -17q-24 0 -40 17t-16 43t16 42.5t40 16.5zM346 641q24 0 39.5 -16.5t15.5 -42.5
t-16 -43t-39 -17q-24 0 -40 17t-16 43t16 42.5t40 16.5z" />
    <glyph glyph-name="yacute" unicode="&#xfd;" horiz-adv-x="443" 
d="M3 449h122l104 -322l103 322h108l-168 -450q-49 -130 -115.5 -185.5t-180.5 -56.5l20 106q73 0 105 26.5t59 97.5l5 13zM251 690h121l-145 -176l-72 7z" />
    <glyph glyph-name="thorn" unicode="&#xfe;" horiz-adv-x="543" 
d="M62 767l109 18v-372q67 50 148 50q84 0 132 -56t48 -158q0 -116 -61 -189.5t-170 -73.5q-56 0 -97 18v-247h-109v1010zM280 355q-59 0 -109 -25v-158q2 -42 29.5 -67t77.5 -25q52 0 83 37.5t31 99.5q0 64 -28.5 101t-83.5 37z" />
    <glyph glyph-name="ydieresis" unicode="&#xff;" horiz-adv-x="443" 
d="M3 449h122l104 -322l103 322h108l-168 -450q-49 -130 -115.5 -185.5t-180.5 -56.5l20 106q73 0 105 26.5t59 97.5l5 13zM129 641q23 0 39 -16.5t16 -42.5t-16 -43t-39 -17q-24 0 -40 17t-16 43t16 42.5t40 16.5zM316 641q24 0 39.5 -16.5t15.5 -42.5t-16 -43t-39 -17
q-24 0 -40 17t-16 43t16 42.5t40 16.5z" />
    <glyph glyph-name="Amacron" unicode="&#x100;" horiz-adv-x="637" 
d="M260 690h124l255 -690h-147l-66 190h-233l-65 -190h-131zM309 545l-88 -263h177zM202 823h231v-69h-231v69z" />
    <glyph glyph-name="amacron" unicode="&#x101;" horiz-adv-x="463" 
d="M70 338v99q86 26 175 26q73 0 114.5 -29.5t41.5 -90.5v-343h-82l-18 75q-26 -40 -68 -64.5t-88 -24.5q-50 0 -76.5 26.5t-26.5 71.5q0 134 249 213v36q0 40 -61 40q-74 0 -160 -35zM291 186v34q-60 -10 -97.5 -40t-37.5 -63q0 -36 37 -36q34 0 66 31t32 74zM124 620h225
v-69h-225v69z" />
    <glyph glyph-name="Abreve" unicode="&#x102;" horiz-adv-x="637" 
d="M260 690h124l255 -690h-147l-66 190h-233l-65 -190h-131zM309 545l-88 -263h177zM182 854l66 5q2 -29 20.5 -46.5t51.5 -17.5q32 0 50.5 17.5t20.5 46.5l62 -5q-1 -65 -38.5 -97t-96.5 -32t-97 32t-39 97z" />
    <glyph glyph-name="abreve" unicode="&#x103;" horiz-adv-x="463" 
d="M70 338v99q86 26 175 26q73 0 114.5 -29.5t41.5 -90.5v-343h-82l-18 75q-26 -40 -68 -64.5t-88 -24.5q-50 0 -76.5 26.5t-26.5 71.5q0 134 249 213v36q0 40 -61 40q-74 0 -160 -35zM291 186v34q-60 -10 -97.5 -40t-37.5 -63q0 -36 37 -36q34 0 66 31t32 74zM95 662l67 5
q2 -72 72 -72q68 0 71 73l63 -6q-1 -73 -38.5 -112.5t-97.5 -39.5t-98 39.5t-39 112.5z" />
    <glyph glyph-name="Aogonek" unicode="&#x104;" horiz-adv-x="637" 
d="M260 690h124l255 -690h-58q-53 -38 -53 -94q0 -47 54 -47q30 0 57 16l11 -56q-41 -32 -106 -32q-54 0 -82 22t-28 61q0 38 24 74t61 56h-27l-66 190h-233l-65 -190h-131zM309 545l-88 -263h177z" />
    <glyph glyph-name="aogonek" unicode="&#x105;" horiz-adv-x="463" 
d="M70 338v99q86 26 175 26q73 0 114.5 -29.5t41.5 -90.5v-343h-24q-53 -38 -53 -94q0 -47 54 -47q30 0 57 16l11 -56q-41 -32 -106 -32q-54 0 -82 22t-28 61t25 76t63 56l-17 73q-26 -40 -68 -64.5t-88 -24.5q-50 0 -76.5 26.5t-26.5 71.5q0 134 249 213v36q0 40 -61 40
q-74 0 -160 -35zM291 186v34q-60 -10 -97.5 -40t-37.5 -63q0 -36 37 -36q34 0 66 31t32 74z" />
    <glyph glyph-name="Cacute" unicode="&#x106;" horiz-adv-x="609" 
d="M425 700q78 0 147 -20v-136q-80 45 -170 45q-103 0 -158 -65t-55 -179t56.5 -182t158.5 -68q90 0 168 44v-133q-69 -20 -165 -20q-157 0 -253 94t-96 255q0 164 102.5 264.5t264.5 100.5zM390 875h113l-142 -158l-70 8z" />
    <glyph glyph-name="cacute" unicode="&#x107;" horiz-adv-x="428" 
d="M397 445v-111q-67 31 -132 31q-56 0 -85.5 -35.5t-29.5 -95.5q0 -66 34.5 -105.5t96.5 -39.5q60 0 116 27v-88q-72 -42 -151 -42q-92 0 -147.5 58t-55.5 164q0 114 64.5 184.5t170.5 70.5q60 0 119 -18zM264 690h121l-145 -176l-72 7z" />
    <glyph glyph-name="Ccircumflex" unicode="&#x108;" horiz-adv-x="609" 
d="M425 700q78 0 147 -20v-136q-80 45 -170 45q-103 0 -158 -65t-55 -179t56.5 -182t158.5 -68q90 0 168 44v-133q-69 -20 -165 -20q-157 0 -253 94t-96 255q0 164 102.5 264.5t264.5 100.5zM353 879h89l105 -156l-66 -8l-85 89l-86 -89q-1 0 -31 4l-30 4z" />
    <glyph glyph-name="ccircumflex" unicode="&#x109;" horiz-adv-x="428" 
d="M397 445v-111q-67 31 -132 31q-56 0 -85.5 -35.5t-29.5 -95.5q0 -66 34.5 -105.5t96.5 -39.5q60 0 116 27v-88q-72 -42 -151 -42q-92 0 -147.5 58t-55.5 164q0 114 64.5 184.5t170.5 70.5q60 0 119 -18zM219 683h90l105 -167l-66 -8l-86 98l-86 -98l-62 8z" />
    <glyph glyph-name="Cdotaccent" unicode="&#x10a;" horiz-adv-x="609" 
d="M425 700q78 0 147 -20v-136q-80 45 -170 45q-103 0 -158 -65t-55 -179t56.5 -182t158.5 -68q90 0 168 44v-133q-69 -20 -165 -20q-157 0 -253 94t-96 255q0 164 102.5 264.5t264.5 100.5zM344 796q0 24 17 39.5t41 15.5q23 0 39.5 -15.5t16.5 -39.5t-16.5 -39.5
t-39.5 -15.5q-24 0 -41 15.5t-17 39.5z" />
    <glyph glyph-name="cdotaccent" unicode="&#x10b;" horiz-adv-x="428" 
d="M397 445v-111q-67 31 -132 31q-56 0 -85.5 -35.5t-29.5 -95.5q0 -66 34.5 -105.5t96.5 -39.5q60 0 116 27v-88q-72 -42 -151 -42q-92 0 -147.5 58t-55.5 164q0 114 64.5 184.5t170.5 70.5q60 0 119 -18zM264 642q23 0 40 -16.5t17 -41.5t-17 -41.5t-40 -16.5
q-24 0 -40.5 16.5t-16.5 41.5t16.5 41.5t40.5 16.5z" />
    <glyph glyph-name="Ccaron" unicode="&#x10c;" horiz-adv-x="609" 
d="M425 700q78 0 147 -20v-136q-80 45 -170 45q-103 0 -158 -65t-55 -179t56.5 -182t158.5 -68q90 0 168 44v-133q-69 -20 -165 -20q-157 0 -253 94t-96 255q0 164 102.5 264.5t264.5 100.5zM248 879l66 8l86 -90l85 90l63 -8l-106 -157h-89z" />
    <glyph glyph-name="ccaron" unicode="&#x10d;" horiz-adv-x="428" 
d="M397 445v-111q-67 31 -132 31q-56 0 -85.5 -35.5t-29.5 -95.5q0 -66 34.5 -105.5t96.5 -39.5q60 0 116 27v-88q-72 -42 -151 -42q-92 0 -147.5 58t-55.5 164q0 114 64.5 184.5t170.5 70.5q60 0 119 -18zM113 683l66 8l85 -97l85 97l64 -8l-106 -166h-90z" />
    <glyph glyph-name="Dcaron" unicode="&#x10e;" horiz-adv-x="700" 
d="M77 690h217q151 0 249.5 -82.5t98.5 -235.5q0 -172 -102 -272t-289 -100h-174v690zM200 586v-478q37 -5 65 -5q115 0 179.5 63t64.5 184q0 240 -237 240q-28 0 -72 -4zM162 879l66 8l86 -90l85 90l63 -8l-106 -157h-89z" />
    <glyph glyph-name="dcaron" unicode="&#x10f;" horiz-adv-x="543" 
d="M371 769l110 18v-787h-77l-14 50q-73 -64 -166 -64q-84 0 -132.5 56t-48.5 157q0 117 61 190.5t170 73.5q56 0 97 -19v325zM263 93q52 0 108 29v154q-1 43 -28.5 68t-77.5 25q-52 0 -83 -38t-31 -99q0 -64 28 -101.5t84 -37.5zM531 785h94l-46 -194l-57 6z" />
    <glyph glyph-name="Dcroat" unicode="&#x110;" horiz-adv-x="700" 
d="M77 690h217q151 0 249.5 -82.5t98.5 -235.5q0 -172 -102 -272t-289 -100h-174v327h-51v69h51v294zM200 586v-190h105v-69h-105v-219q37 -5 65 -5q115 0 179.5 63t64.5 184q0 240 -237 240q-28 0 -72 -4z" />
    <glyph glyph-name="dcroat" unicode="&#x111;" horiz-adv-x="543" 
d="M371 769l110 18v-167h43v-69h-43v-551h-77l-14 50q-73 -64 -166 -64q-84 0 -132.5 56t-48.5 157q0 117 61 190.5t170 73.5q56 0 97 -19v107h-72v69h72v149zM263 93q52 0 108 29v154q-1 43 -28.5 68t-77.5 25q-52 0 -83 -38t-31 -99q0 -64 28 -101.5t84 -37.5z" />
    <glyph glyph-name="Emacron" unicode="&#x112;" horiz-adv-x="519" 
d="M77 690h402v-109l-279 15v-199l234 15v-110l-234 15v-223l279 15v-109h-402v690zM165 823h231v-69h-231v69z" />
    <glyph glyph-name="emacron" unicode="&#x113;" horiz-adv-x="468" 
d="M431 218h-281q5 -131 135 -131q72 0 135 30v-89q-70 -42 -157 -42q-102 0 -161 56t-59 170q0 107 62.5 179t166.5 72q80 0 122 -49.5t42 -139.5q0 -11 -5 -56zM149 620h225v-69h-225v69zM258 376q-77 0 -100 -80l172 8q0 72 -72 72z" />
    <glyph glyph-name="Ebreve" unicode="&#x114;" horiz-adv-x="519" 
d="M77 690h402v-109l-279 15v-199l234 15v-110l-234 15v-223l279 15v-109h-402v690zM143 854l66 5q2 -29 20.5 -46.5t51.5 -17.5q32 0 50.5 17.5t20.5 46.5l62 -5q-1 -65 -38.5 -97t-96.5 -32t-97 32t-39 97z" />
    <glyph glyph-name="ebreve" unicode="&#x115;" horiz-adv-x="468" 
d="M431 218h-281q5 -131 135 -131q72 0 135 30v-89q-70 -42 -157 -42q-102 0 -161 56t-59 170q0 107 62.5 179t166.5 72q80 0 122 -49.5t42 -139.5q0 -11 -5 -56zM131 662l67 5q2 -72 72 -72q68 0 71 73l63 -6q-1 -73 -38.5 -112.5t-97.5 -39.5t-98 39.5t-39 112.5zM258 376
q-77 0 -100 -80l172 8q0 72 -72 72z" />
    <glyph glyph-name="Edotaccent" unicode="&#x116;" horiz-adv-x="519" 
d="M77 690h402v-109l-279 15v-199l234 15v-110l-234 15v-223l279 15v-109h-402v690zM226 796q0 24 17 39.5t41 15.5q23 0 39.5 -15.5t16.5 -39.5t-16.5 -39.5t-39.5 -15.5q-24 0 -41 15.5t-17 39.5z" />
    <glyph glyph-name="edotaccent" unicode="&#x117;" horiz-adv-x="468" 
d="M431 218h-281q5 -131 135 -131q72 0 135 30v-89q-70 -42 -157 -42q-102 0 -161 56t-59 170q0 107 62.5 179t166.5 72q80 0 122 -49.5t42 -139.5q0 -11 -5 -56zM268 642q23 0 40 -16.5t17 -41.5t-17 -41.5t-40 -16.5q-24 0 -40.5 16.5t-16.5 41.5t16.5 41.5t40.5 16.5z
M258 376q-77 0 -100 -80l172 8q0 72 -72 72z" />
    <glyph glyph-name="Eogonek" unicode="&#x118;" horiz-adv-x="519" 
d="M77 690h402v-109l-279 15v-199l234 15v-110l-234 15v-223l279 15v-109h-46q-53 -38 -53 -94q0 -47 54 -47q30 0 57 16l11 -56q-41 -32 -106 -32q-54 0 -82 22t-28 61q0 38 24 74t61 56h-294v690z" />
    <glyph glyph-name="eogonek" unicode="&#x119;" horiz-adv-x="468" 
d="M431 218h-281q5 -131 135 -131q72 0 135 30v-89q-49 -28 -103 -37q-41 -38 -41 -85t54 -47q30 0 57 16l11 -56q-41 -32 -106 -32q-54 0 -82 22t-28 61q0 67 64 117q-95 5 -149 60.5t-54 164.5q0 107 62.5 179t166.5 72q80 0 122 -49.5t42 -139.5q0 -11 -5 -56zM258 376
q-77 0 -100 -80l172 8q0 72 -72 72z" />
    <glyph glyph-name="Ecaron" unicode="&#x11a;" horiz-adv-x="519" 
d="M77 690h402v-109l-279 15v-199l234 15v-110l-234 15v-223l279 15v-109h-402v690zM134 879l66 8l86 -90l85 90l63 -8l-106 -157h-89z" />
    <glyph glyph-name="ecaron" unicode="&#x11b;" horiz-adv-x="468" 
d="M431 218h-281q5 -131 135 -131q72 0 135 30v-89q-70 -42 -157 -42q-102 0 -161 56t-59 170q0 107 62.5 179t166.5 72q80 0 122 -49.5t42 -139.5q0 -11 -5 -56zM120 683l66 8l85 -97l85 97l64 -8l-106 -166h-90zM258 376q-77 0 -100 -80l172 8q0 72 -72 72z" />
    <glyph glyph-name="Gcircumflex" unicode="&#x11c;" horiz-adv-x="662" 
d="M591 358v-343q-91 -29 -184 -29q-157 0 -253 92.5t-96 253.5q0 164 106 266t273 102q83 0 154 -20v-136q-81 45 -176 45q-108 0 -167 -66t-59 -180t56.5 -182t158.5 -68q37 0 64 8v257h123zM363 879h89l105 -156l-66 -8l-85 89l-86 -89q-1 0 -31 4l-30 4z" />
    <glyph glyph-name="gcircumflex" unicode="&#x11d;" horiz-adv-x="526" 
d="M126 154q-67 43 -67 127q0 78 57 130t145 52q50 0 87 -14h169v-95l-89 13q11 -31 11 -71q0 -76 -58 -126.5t-146 -50.5q-29 0 -63 8q-26 -19 -26 -44q0 -28 45 -28q23 0 82.5 3.5t99.5 3.5q142 0 142 -109q0 -91 -87 -150.5t-226 -59.5q-90 0 -136 25.5t-46 71.5
q0 37 29.5 72t75.5 53q-42 4 -64.5 25t-22.5 50q0 28 24.5 60.5t63.5 53.5zM189 -37q-22 -10 -38.5 -30.5t-16.5 -42.5q0 -27 22.5 -39t76.5 -12q73 0 117 22t44 58q0 49 -65 49q-26 0 -72.5 -2.5t-67.5 -2.5zM215 683h90l105 -167l-66 -8l-86 98l-86 -98l-62 8zM248 383
q-82 0 -82 -91q0 -46 22.5 -70.5t61.5 -24.5q83 0 83 92q0 46 -22 70t-63 24z" />
    <glyph glyph-name="Gbreve" unicode="&#x11e;" horiz-adv-x="662" 
d="M591 358v-343q-91 -29 -184 -29q-157 0 -253 92.5t-96 253.5q0 164 106 266t273 102q83 0 154 -20v-136q-81 45 -176 45q-108 0 -167 -66t-59 -180t56.5 -182t158.5 -68q37 0 64 8v257h123zM267 854l66 5q2 -29 20.5 -46.5t51.5 -17.5q32 0 50.5 17.5t20.5 46.5l62 -5
q-1 -65 -38.5 -97t-96.5 -32t-97 32t-39 97z" />
    <glyph glyph-name="gbreve" unicode="&#x11f;" horiz-adv-x="526" 
d="M126 154q-67 43 -67 127q0 78 57 130t145 52q50 0 87 -14h169v-95l-89 13q11 -31 11 -71q0 -76 -58 -126.5t-146 -50.5q-29 0 -63 8q-26 -19 -26 -44q0 -28 45 -28q23 0 82.5 3.5t99.5 3.5q142 0 142 -109q0 -91 -87 -150.5t-226 -59.5q-90 0 -136 25.5t-46 71.5
q0 37 29.5 72t75.5 53q-42 4 -64.5 25t-22.5 50q0 28 24.5 60.5t63.5 53.5zM189 -37q-22 -10 -38.5 -30.5t-16.5 -42.5q0 -27 22.5 -39t76.5 -12q73 0 117 22t44 58q0 49 -65 49q-26 0 -72.5 -2.5t-67.5 -2.5zM126 662l67 5q2 -72 72 -72q68 0 71 73l63 -6
q-1 -73 -38.5 -112.5t-97.5 -39.5t-98 39.5t-39 112.5zM248 383q-82 0 -82 -91q0 -46 22.5 -70.5t61.5 -24.5q83 0 83 92q0 46 -22 70t-63 24z" />
    <glyph glyph-name="Gdotaccent" unicode="&#x120;" horiz-adv-x="662" 
d="M591 358v-343q-91 -29 -184 -29q-157 0 -253 92.5t-96 253.5q0 164 106 266t273 102q83 0 154 -20v-136q-81 45 -176 45q-108 0 -167 -66t-59 -180t56.5 -182t158.5 -68q37 0 64 8v257h123zM356 796q0 24 17 39.5t41 15.5q23 0 39.5 -15.5t16.5 -39.5t-16.5 -39.5
t-39.5 -15.5q-24 0 -41 15.5t-17 39.5z" />
    <glyph glyph-name="gdotaccent" unicode="&#x121;" horiz-adv-x="526" 
d="M126 154q-67 43 -67 127q0 78 57 130t145 52q50 0 87 -14h169v-95l-89 13q11 -31 11 -71q0 -76 -58 -126.5t-146 -50.5q-29 0 -63 8q-26 -19 -26 -44q0 -28 45 -28q23 0 82.5 3.5t99.5 3.5q142 0 142 -109q0 -91 -87 -150.5t-226 -59.5q-90 0 -136 25.5t-46 71.5
q0 37 29.5 72t75.5 53q-42 4 -64.5 25t-22.5 50q0 28 24.5 60.5t63.5 53.5zM189 -37q-22 -10 -38.5 -30.5t-16.5 -42.5q0 -27 22.5 -39t76.5 -12q73 0 117 22t44 58q0 49 -65 49q-26 0 -72.5 -2.5t-67.5 -2.5zM248 383q-82 0 -82 -91q0 -46 22.5 -70.5t61.5 -24.5
q83 0 83 92q0 46 -22 70t-63 24zM257 642q23 0 40 -16.5t17 -41.5t-17 -41.5t-40 -16.5q-24 0 -40.5 16.5t-16.5 41.5t16.5 41.5t40.5 16.5z" />
    <glyph glyph-name="Gcommaaccent" unicode="&#x122;" horiz-adv-x="662" 
d="M591 358v-343q-91 -29 -184 -29q-157 0 -253 92.5t-96 253.5q0 164 106 266t273 102q83 0 154 -20v-136q-81 45 -176 45q-108 0 -167 -66t-59 -180t56.5 -182t158.5 -68q37 0 64 8v257h123zM349 -57h110q-25 -107 -84 -185l-62 19q30 72 36 166z" />
    <glyph glyph-name="gcommaaccent" unicode="&#x123;" horiz-adv-x="526" 
d="M126 154q-67 43 -67 127q0 78 57 130t145 52q50 0 87 -14h169v-95l-89 13q11 -31 11 -71q0 -76 -58 -126.5t-146 -50.5q-29 0 -63 8q-26 -19 -26 -44q0 -28 45 -28q23 0 82.5 3.5t99.5 3.5q142 0 142 -109q0 -91 -87 -150.5t-226 -59.5q-90 0 -136 25.5t-46 71.5
q0 37 29.5 72t75.5 53q-42 4 -64.5 25t-22.5 50q0 28 24.5 60.5t63.5 53.5zM189 -37q-22 -10 -38.5 -30.5t-16.5 -42.5q0 -27 22.5 -39t76.5 -12q73 0 117 22t44 58q0 49 -65 49q-26 0 -72.5 -2.5t-67.5 -2.5zM248 383q-82 0 -82 -91q0 -46 22.5 -70.5t61.5 -24.5
q83 0 83 92q0 46 -22 70t-63 24zM298 512h-110q25 107 84 185l62 -19q-30 -72 -36 -166z" />
    <glyph glyph-name="Hcircumflex" unicode="&#x124;" horiz-adv-x="693" 
d="M493 690h123v-690h-123v314h-293v-314h-123v690h123v-278h293v278zM298 879h89l105 -156l-66 -8l-85 89l-86 -89q-1 0 -31 4l-30 4z" />
    <glyph glyph-name="hcircumflex" unicode="&#x125;" horiz-adv-x="509" 
d="M62 769l109 18v-408q30 38 73.5 61t83.5 23q119 0 119 -152v-311h-109v284q0 79 -67 79q-43 0 -71.5 -32.5t-28.5 -77.5v-253h-109v769zM157 947h89l105 -156l-66 -8l-85 89l-86 -89q-1 0 -31 4l-30 4z" />
    <glyph glyph-name="Hbar" unicode="&#x126;" horiz-adv-x="693" 
d="M493 690h123v-113h55v-68h-55v-509h-123v314h-293v-314h-123v509h-62v68h62v113h123v-113h293v113zM200 412h293v97h-293v-97z" />
    <glyph glyph-name="hbar" unicode="&#x127;" horiz-adv-x="509" 
d="M17 620h45v149l109 18v-167h71v-69h-71v-172q30 38 73.5 61t83.5 23q119 0 119 -152v-311h-109v284q0 79 -67 79q-43 0 -71.5 -32.5t-28.5 -77.5v-253h-109v551h-45v69z" />
    <glyph glyph-name="Itilde" unicode="&#x128;" horiz-adv-x="277" 
d="M77 690h123v-690h-123v690zM22 728l-46 6q5 59 31.5 93t71.5 34q39 0 76 -29.5t57 -29.5q38 0 43 56l46 -3q-4 -63 -31.5 -94t-71.5 -31q-36 0 -72.5 29t-55.5 29q-24 0 -34.5 -15t-13.5 -45z" />
    <glyph glyph-name="itilde" unicode="&#x129;" horiz-adv-x="229" 
d="M8 519l-48 6q14 124 104 124q30 0 50.5 -15.5t36 -30.5t31.5 -15q38 0 40 55l48 -4q-6 -63 -33 -93t-70 -30q-28 0 -48.5 16t-35.5 31.5t-30 15.5q-22 0 -32 -15t-13 -45zM63 435l104 18v-453h-104v435z" />
    <glyph glyph-name="Imacron" unicode="&#x12a;" horiz-adv-x="277" 
d="M77 690h123v-690h-123v690zM23 823h231v-69h-231v69z" />
    <glyph glyph-name="imacron" unicode="&#x12b;" horiz-adv-x="229" 
d="M3 620h225v-69h-225v69zM63 435l104 18v-453h-104v435z" />
    <glyph glyph-name="Ibreve" unicode="&#x12c;" horiz-adv-x="277" 
d="M77 690h123v-690h-123v690zM3 854l66 5q2 -29 20.5 -46.5t51.5 -17.5q32 0 50.5 17.5t20.5 46.5l62 -5q-1 -65 -38.5 -97t-96.5 -32t-97 32t-39 97z" />
    <glyph glyph-name="ibreve" unicode="&#x12d;" horiz-adv-x="229" 
d="M-22 662l67 5q2 -72 72 -72q68 0 71 73l63 -6q-1 -73 -38.5 -112.5t-97.5 -39.5t-98 39.5t-39 112.5zM63 435l104 18v-453h-104v435z" />
    <glyph glyph-name="Iogonek" unicode="&#x12e;" horiz-adv-x="277" 
d="M77 690h123v-690h-21q-53 -38 -53 -94q0 -47 54 -47q30 0 57 16l11 -56q-41 -32 -106 -32q-54 0 -82 22t-28 61q0 38 24.5 74.5t60.5 55.5h-40v690z" />
    <glyph glyph-name="iogonek" unicode="&#x12f;" horiz-adv-x="235" 
d="M63 435l110 18v-453h-19q-53 -38 -53 -94q0 -47 54 -47q30 0 57 16l11 -56q-41 -32 -106 -32q-54 0 -82 22t-28 61q0 38 24 74t61 56h-29v435zM53 603q0 27 18.5 45t46.5 18q27 0 45 -18t18 -45q0 -28 -18 -46.5t-45 -18.5q-28 0 -46.5 18.5t-18.5 46.5z" />
    <glyph glyph-name="Idotaccent" unicode="&#x130;" horiz-adv-x="277" 
d="M77 690h123v-690h-123v690zM81 796q0 24 17 39.5t41 15.5q23 0 39.5 -15.5t16.5 -39.5t-16.5 -39.5t-39.5 -15.5q-24 0 -41 15.5t-17 39.5z" />
    <glyph glyph-name="dotlessi" unicode="&#x131;" horiz-adv-x="229" 
d="M63 435l104 18v-453h-104v435z" />
    <glyph glyph-name="IJ" unicode="&#x132;" horiz-adv-x="551" 
d="M77 690h123v-690h-123v690zM351 690h122v-668q0 -129 -72 -195.5t-204 -69.5l22 118q75 0 103.5 27.5t28.5 97.5v690z" />
    <glyph glyph-name="ij" unicode="&#x133;" horiz-adv-x="462" 
d="M63 435l110 18v-453h-110v435zM53 603q0 27 18.5 45t46.5 18q27 0 45 -18t18 -45q0 -28 -18 -46.5t-45 -18.5q-28 0 -46.5 18.5t-18.5 46.5zM291 435l109 18v-434q0 -253 -228 -263l21 112q58 2 78 26t20 94v447zM281 603q0 27 18.5 45t46.5 18t45.5 -18t17.5 -45
q0 -28 -17.5 -46.5t-45.5 -18.5t-46.5 18.5t-18.5 46.5z" />
    <glyph glyph-name="Jcircumflex" unicode="&#x134;" horiz-adv-x="280" 
d="M80 690h122v-668q0 -129 -72 -195.5t-204 -69.5l22 118q75 0 103.5 27.5t28.5 97.5v690zM94 879h89l105 -156l-66 -8l-85 89l-86 -89q-1 0 -31 4l-30 4z" />
    <glyph glyph-name="jcircumflex" unicode="&#x135;" horiz-adv-x="227" 
d="M62 435l104 18v-434q0 -122 -51.5 -190t-171.5 -73l21 107q58 1 78 27.5t20 97.5v447zM71 683h90l105 -167l-66 -8l-86 98l-86 -98l-62 8z" />
    <glyph glyph-name="Kcommaaccent" unicode="&#x136;" horiz-adv-x="645" 
d="M456 690h153l-285 -303l324 -387h-165l-283 357v-357h-123v690h123v-333zM273 -57h110q-25 -107 -84 -185l-62 19q30 72 36 166z" />
    <glyph glyph-name="kcommaaccent" unicode="&#x137;" horiz-adv-x="490" 
d="M62 769l109 18v-787h-109v769zM330 449h139l-179 -192l206 -257h-147l-177 231zM193 -57h110q-25 -107 -84 -185l-62 19q30 72 36 166z" />
    <glyph glyph-name="Lacute" unicode="&#x139;" horiz-adv-x="484" 
d="M77 690h123v-596l279 15v-109h-402v690zM182 875h113l-142 -158l-70 8z" />
    <glyph glyph-name="lacute" unicode="&#x13a;" horiz-adv-x="233" 
d="M62 769l109 18v-787h-109v769zM147 963h113l-142 -158l-70 8z" />
    <glyph glyph-name="Lcommaaccent" unicode="&#x13b;" horiz-adv-x="484" 
d="M77 690h123v-596l279 15v-109h-402v690zM218 -57h110q-25 -107 -84 -185l-62 19q30 72 36 166z" />
    <glyph glyph-name="lcommaaccent" unicode="&#x13c;" horiz-adv-x="233" 
d="M62 769l109 18v-787h-109v769zM63 -57h110q-25 -107 -84 -185l-62 19q30 72 36 166z" />
    <glyph glyph-name="Lcaron" unicode="&#x13d;" horiz-adv-x="484" 
d="M77 690h123v-596l279 15v-109h-402v690zM280 749h94l-46 -194l-57 6z" />
    <glyph glyph-name="lcaron" unicode="&#x13e;" horiz-adv-x="233" 
d="M62 769l109 18v-787h-109v769zM215 785h94l-46 -194l-57 6z" />
    <glyph glyph-name="Lslash" unicode="&#x141;" horiz-adv-x="484" 
d="M77 690h123v-269l93 93l45 -56l-138 -139v-225l279 15v-109h-402v196l-36 -36l-45 57l81 81v392z" />
    <glyph glyph-name="lslash" unicode="&#x142;" horiz-adv-x="233" 
d="M62 769l109 18v-137l40 47l59 -53l-99 -117v-527h-109v399l-47 -55l-59 53l106 124v248z" />
    <glyph glyph-name="Nacute" unicode="&#x143;" horiz-adv-x="681" 
d="M77 690h155l262 -445v445h110v-690h-98l-319 539v-539h-110v690zM370 875h113l-142 -158l-70 8z" />
    <glyph glyph-name="nacute" unicode="&#x144;" horiz-adv-x="509" 
d="M62 435l109 18v-74q30 38 73.5 61t83.5 23q119 0 119 -152v-311h-109v284q0 79 -65 79q-43 0 -72.5 -33.5t-29.5 -77.5v-252h-109v435zM261 690h121l-145 -176l-72 7z" />
    <glyph glyph-name="Ncommaaccent" unicode="&#x145;" horiz-adv-x="681" 
d="M77 690h155l262 -445v445h110v-690h-98l-319 539v-539h-110v690zM293 -57h110q-25 -107 -84 -185l-62 19q30 72 36 166z" />
    <glyph glyph-name="ncommaaccent" unicode="&#x146;" horiz-adv-x="509" 
d="M62 435l109 18v-74q30 38 73.5 61t83.5 23q119 0 119 -152v-311h-109v284q0 79 -65 79q-43 0 -72.5 -33.5t-29.5 -77.5v-252h-109v435zM199 -57h110q-25 -107 -84 -185l-62 19q30 72 36 166z" />
    <glyph glyph-name="Ncaron" unicode="&#x147;" horiz-adv-x="681" 
d="M77 690h155l262 -445v445h110v-690h-98l-319 539v-539h-110v690zM190 879l66 8l86 -90l85 90l63 -8l-106 -157h-89z" />
    <glyph glyph-name="ncaron" unicode="&#x148;" horiz-adv-x="509" 
d="M62 435l109 18v-74q30 38 73.5 61t83.5 23q119 0 119 -152v-311h-109v284q0 79 -65 79q-43 0 -72.5 -33.5t-29.5 -77.5v-252h-109v435zM100 683l66 8l85 -97l85 97l64 -8l-106 -166h-90z" />
    <glyph glyph-name="napostrophe" unicode="&#x149;" horiz-adv-x="509" 
d="M62 435l109 18v-74q30 38 73.5 61t83.5 23q119 0 119 -152v-311h-109v284q0 79 -65 79q-43 0 -72.5 -33.5t-29.5 -77.5v-252h-109v435zM80 678h110q-25 -107 -84 -185l-62 19q30 72 36 166z" />
    <glyph glyph-name="Eng" unicode="&#x14a;" horiz-adv-x="681" 
d="M77 690h155l262 -445v445h110v-671q0 -253 -228 -263l21 112q58 2 79 26.5t21 93.5v26l-310 525v-539h-110v690z" />
    <glyph glyph-name="eng" unicode="&#x14b;" horiz-adv-x="509" 
d="M62 435l109 18v-74q30 38 73.5 61t83.5 23q119 0 119 -152v-292q0 -122 -51 -190t-171 -73l21 107q56 1 74 29t18 101v291q0 79 -65 79q-43 0 -72.5 -33.5t-29.5 -77.5v-252h-109v435z" />
    <glyph glyph-name="Omacron" unicode="&#x14c;" horiz-adv-x="791" 
d="M393 592q-94 0 -149.5 -64t-55.5 -183q0 -117 54 -184t152 -67q95 0 151.5 63.5t56.5 182.5q0 118 -55 185t-154 67zM407 700q154 0 239.5 -97t85.5 -242q0 -159 -97 -267t-259 -108q-147 0 -232.5 98.5t-85.5 246.5q0 152 95.5 260.5t253.5 108.5zM280 823h231v-69h-231
v69z" />
    <glyph glyph-name="omacron" unicode="&#x14d;" horiz-adv-x="552" 
d="M283 463q104 0 165 -61.5t61 -170.5t-67.5 -177t-175.5 -68q-102 0 -162.5 62t-60.5 167q0 109 66.5 178.5t173.5 69.5zM277 376q-54 0 -85 -39t-31 -114t30 -113t85 -38q53 0 83.5 38.5t30.5 113.5q0 76 -29.5 114t-83.5 38zM162 620h225v-69h-225v69z" />
    <glyph glyph-name="Obreve" unicode="&#x14e;" horiz-adv-x="791" 
d="M393 592q-94 0 -149.5 -64t-55.5 -183q0 -117 54 -184t152 -67q95 0 151.5 63.5t56.5 182.5q0 118 -55 185t-154 67zM407 700q154 0 239.5 -97t85.5 -242q0 -159 -97 -267t-259 -108q-147 0 -232.5 98.5t-85.5 246.5q0 152 95.5 260.5t253.5 108.5zM259 854l66 5
q2 -29 20.5 -46.5t51.5 -17.5q32 0 50.5 17.5t20.5 46.5l62 -5q-1 -65 -38.5 -97t-96.5 -32t-97 32t-39 97z" />
    <glyph glyph-name="obreve" unicode="&#x14f;" horiz-adv-x="552" 
d="M283 463q104 0 165 -61.5t61 -170.5t-67.5 -177t-175.5 -68q-102 0 -162.5 62t-60.5 167q0 109 66.5 178.5t173.5 69.5zM277 376q-54 0 -85 -39t-31 -114t30 -113t85 -38q53 0 83.5 38.5t30.5 113.5q0 76 -29.5 114t-83.5 38zM137 662l67 5q2 -72 72 -72q68 0 71 73
l63 -6q-1 -73 -38.5 -112.5t-97.5 -39.5t-98 39.5t-39 112.5z" />
    <glyph glyph-name="Ohungarumlaut" unicode="&#x150;" horiz-adv-x="791" 
d="M393 592q-94 0 -149.5 -64t-55.5 -183q0 -117 54 -184t152 -67q95 0 151.5 63.5t56.5 182.5q0 118 -55 185t-154 67zM407 700q154 0 239.5 -97t85.5 -242q0 -159 -97 -267t-259 -108q-147 0 -232.5 98.5t-85.5 246.5q0 152 95.5 260.5t253.5 108.5zM339 875h93l-121 -145
l-62 3zM488 875h93l-121 -145l-61 3z" />
    <glyph glyph-name="ohungarumlaut" unicode="&#x151;" horiz-adv-x="552" 
d="M283 463q104 0 165 -61.5t61 -170.5t-67.5 -177t-175.5 -68q-102 0 -162.5 62t-60.5 167q0 109 66.5 178.5t173.5 69.5zM277 376q-54 0 -85 -39t-31 -114t30 -113t85 -38q53 0 83.5 38.5t30.5 113.5q0 76 -29.5 114t-83.5 38zM210 690h99l-120 -177l-61 9zM377 690h98
l-120 -177l-61 9z" />
    <glyph glyph-name="OE" unicode="&#x152;" horiz-adv-x="1013" 
d="M929 302l-199 13q-14 -134 -96 -222l339 16v-109h-492q-51 -14 -105 -14q-147 0 -232.5 98.5t-85.5 246.5q0 152 95.5 260.5t253.5 108.5q44 0 89 -10h477v-109l-320 14q66 -78 77 -196l199 13v-110zM393 592q-94 0 -149.5 -64t-55.5 -183q0 -117 54 -184t152 -67
q95 0 151.5 63.5t56.5 182.5q0 118 -55 185t-154 67z" />
    <glyph glyph-name="oe" unicode="&#x153;" horiz-adv-x="812" 
d="M283 463q113 0 168 -74q61 74 165 74q80 0 121.5 -49.5t41.5 -139.5q0 -26 -5 -56h-278q0 -7 -2 -17q14 -114 135 -114q72 0 134 30v-89q-68 -42 -156 -42q-116 0 -170 71q-62 -71 -171 -71q-102 0 -162.5 62t-60.5 167q0 109 66.5 178.5t173.5 69.5zM277 376
q-54 0 -85 -39t-31 -114t30 -113t85 -38q53 0 83.5 38.5t30.5 113.5q0 76 -29.5 114t-83.5 38zM602 376q-78 0 -101 -80l173 8q0 72 -72 72z" />
    <glyph glyph-name="Racute" unicode="&#x154;" horiz-adv-x="609" 
d="M282 690q127 0 185.5 -55.5t58.5 -138.5q0 -80 -38 -132t-103 -75l231 -289h-160l-192 274q-27 1 -64 8v-282h-123v690h205zM200 586v-214q27 -7 63 -7q56 0 93.5 27t37.5 86q0 112 -133 112q-33 0 -61 -4zM292 875h113l-142 -158l-70 8z" />
    <glyph glyph-name="racute" unicode="&#x155;" horiz-adv-x="331" 
d="M62 435l109 18v-74q21 37 54 60.5t70 23.5q15 0 31 -4v-110q-18 5 -39 5q-52 0 -84 -28t-32 -70v-256h-109v435zM225 690h121l-145 -176l-72 7z" />
    <glyph glyph-name="Rcommaaccent" unicode="&#x156;" horiz-adv-x="609" 
d="M282 690q127 0 185.5 -55.5t58.5 -138.5q0 -80 -38 -132t-103 -75l231 -289h-160l-192 274q-27 1 -64 8v-282h-123v690h205zM200 586v-214q27 -7 63 -7q56 0 93.5 27t37.5 86q0 112 -133 112q-33 0 -61 -4zM260 -57h110q-25 -107 -84 -185l-62 19q30 72 36 166z" />
    <glyph glyph-name="rcommaaccent" unicode="&#x157;" horiz-adv-x="331" 
d="M62 435l109 18v-74q21 37 54 60.5t70 23.5q15 0 31 -4v-110q-18 5 -39 5q-52 0 -84 -28t-32 -70v-256h-109v435zM78 -57h110q-25 -107 -84 -185l-62 19q30 72 36 166z" />
    <glyph glyph-name="Rcaron" unicode="&#x158;" horiz-adv-x="609" 
d="M282 690q127 0 185.5 -55.5t58.5 -138.5q0 -80 -38 -132t-103 -75l231 -289h-160l-192 274q-27 1 -64 8v-282h-123v690h205zM200 586v-214q27 -7 63 -7q56 0 93.5 27t37.5 86q0 112 -133 112q-33 0 -61 -4zM131 879l66 8l86 -90l85 90l63 -8l-106 -157h-89z" />
    <glyph glyph-name="rcaron" unicode="&#x159;" horiz-adv-x="331" 
d="M62 435l109 18v-74q21 37 54 60.5t70 23.5q15 0 31 -4v-110q-18 5 -39 5q-52 0 -84 -28t-32 -70v-256h-109v435zM47 683l66 8l85 -97l85 97l64 -8l-106 -166h-90z" />
    <glyph glyph-name="Sacute" unicode="&#x15a;" horiz-adv-x="515" 
d="M431 683v-130q-67 33 -148 33q-44 0 -70 -18.5t-26 -55.5q0 -30 29.5 -54.5t72 -44t85 -43.5t72 -65.5t29.5 -97.5q0 -90 -70 -155.5t-184 -65.5q-89 0 -161 22v133q88 -36 169 -36q51 0 82 20t31 60q0 32 -30 58.5t-72 48t-84.5 45.5t-72.5 64t-30 92q0 81 68 144
t188 63q78 0 122 -17zM281 875h113l-142 -158l-70 8z" />
    <glyph glyph-name="sacute" unicode="&#x15b;" horiz-adv-x="385" 
d="M322 446v-101q-49 26 -102 26q-31 0 -46.5 -12t-15.5 -31q0 -18 20 -30.5t48 -22.5t56 -23t48 -39.5t20 -64.5q0 -74 -51.5 -118t-134.5 -44q-63 0 -112 20v105q59 -34 121 -34q66 0 66 49q0 20 -30 36t-65.5 28t-65.5 43.5t-30 78.5q0 65 51.5 108t131.5 43q49 0 91 -17
zM214 690h121l-145 -176l-72 7z" />
    <glyph glyph-name="Scircumflex" unicode="&#x15c;" horiz-adv-x="515" 
d="M431 683v-130q-67 33 -148 33q-44 0 -70 -18.5t-26 -55.5q0 -30 29.5 -54.5t72 -44t85 -43.5t72 -65.5t29.5 -97.5q0 -90 -70 -155.5t-184 -65.5q-89 0 -161 22v133q88 -36 169 -36q51 0 82 20t31 60q0 32 -30 58.5t-72 48t-84.5 45.5t-72.5 64t-30 92q0 81 68 144
t188 63q78 0 122 -17zM235 879h89l105 -156l-66 -8l-85 89l-86 -89q-1 0 -31 4l-30 4z" />
    <glyph glyph-name="scircumflex" unicode="&#x15d;" horiz-adv-x="385" 
d="M322 446v-101q-49 26 -102 26q-31 0 -46.5 -12t-15.5 -31q0 -18 20 -30.5t48 -22.5t56 -23t48 -39.5t20 -64.5q0 -74 -51.5 -118t-134.5 -44q-63 0 -112 20v105q59 -34 121 -34q66 0 66 49q0 20 -30 36t-65.5 28t-65.5 43.5t-30 78.5q0 65 51.5 108t131.5 43q49 0 91 -17
zM165 683h90l105 -167l-66 -8l-86 98l-86 -98l-62 8z" />
    <glyph glyph-name="Scedilla" unicode="&#x15e;" horiz-adv-x="515" 
d="M431 683v-130q-67 33 -148 33q-44 0 -70 -18.5t-26 -55.5q0 -30 29.5 -54.5t72 -44t85 -43.5t72 -65.5t29.5 -97.5q0 -79 -55.5 -140.5t-148.5 -76.5l-22 -48q54 -1 80.5 -22t26.5 -56q0 -43 -34.5 -71t-98.5 -28q-49 0 -82 14l20 53q19 -8 42 -8q50 0 50 36q0 40 -74 40
l32 86q-84 2 -151 22v133q88 -36 169 -36q51 0 82 20t31 60q0 32 -30 58.5t-72 48t-84.5 45.5t-72.5 64t-30 92q0 81 68 144t188 63q78 0 122 -17z" />
    <glyph glyph-name="Scedilla" unicode="&#xf6c1;" horiz-adv-x="515" 
d="M431 683v-130q-67 33 -148 33q-44 0 -70 -18.5t-26 -55.5q0 -30 29.5 -54.5t72 -44t85 -43.5t72 -65.5t29.5 -97.5q0 -79 -55.5 -140.5t-148.5 -76.5l-22 -48q54 -1 80.5 -22t26.5 -56q0 -43 -34.5 -71t-98.5 -28q-49 0 -82 14l20 53q19 -8 42 -8q50 0 50 36q0 40 -74 40
l32 86q-84 2 -151 22v133q88 -36 169 -36q51 0 82 20t31 60q0 32 -30 58.5t-72 48t-84.5 45.5t-72.5 64t-30 92q0 81 68 144t188 63q78 0 122 -17z" />
    <glyph glyph-name="scedilla" unicode="&#x15f;" horiz-adv-x="385" 
d="M322 446v-101q-49 26 -102 26q-31 0 -46.5 -12t-15.5 -31q0 -18 20 -30.5t48 -22.5t56 -23t48 -39.5t20 -64.5q0 -62 -38 -104t-101 -54l-22 -48q54 -1 80.5 -22t26.5 -56q0 -43 -34.5 -71t-98.5 -28q-49 0 -82 14l20 53q19 -8 42 -8q50 0 50 36q0 40 -74 40l32 86
q-56 3 -99 20v105q59 -34 121 -34q66 0 66 49q0 20 -30 36t-65.5 28t-65.5 43.5t-30 78.5q0 65 51.5 108t131.5 43q49 0 91 -17z" />
    <glyph glyph-name="scedilla" unicode="&#xf6c2;" horiz-adv-x="385" 
d="M322 446v-101q-49 26 -102 26q-31 0 -46.5 -12t-15.5 -31q0 -18 20 -30.5t48 -22.5t56 -23t48 -39.5t20 -64.5q0 -62 -38 -104t-101 -54l-22 -48q54 -1 80.5 -22t26.5 -56q0 -43 -34.5 -71t-98.5 -28q-49 0 -82 14l20 53q19 -8 42 -8q50 0 50 36q0 40 -74 40l32 86
q-56 3 -99 20v105q59 -34 121 -34q66 0 66 49q0 20 -30 36t-65.5 28t-65.5 43.5t-30 78.5q0 65 51.5 108t131.5 43q49 0 91 -17z" />
    <glyph glyph-name="Scaron" unicode="&#x160;" horiz-adv-x="515" 
d="M431 683v-130q-67 33 -148 33q-44 0 -70 -18.5t-26 -55.5q0 -30 29.5 -54.5t72 -44t85 -43.5t72 -65.5t29.5 -97.5q0 -90 -70 -155.5t-184 -65.5q-89 0 -161 22v133q88 -36 169 -36q51 0 82 20t31 60q0 32 -30 58.5t-72 48t-84.5 45.5t-72.5 64t-30 92q0 81 68 144
t188 63q78 0 122 -17zM122 879l66 8l86 -90l85 90l63 -8l-106 -157h-89z" />
    <glyph glyph-name="scaron" unicode="&#x161;" horiz-adv-x="385" 
d="M322 446v-101q-49 26 -102 26q-31 0 -46.5 -12t-15.5 -31q0 -18 20 -30.5t48 -22.5t56 -23t48 -39.5t20 -64.5q0 -74 -51.5 -118t-134.5 -44q-63 0 -112 20v105q59 -34 121 -34q66 0 66 49q0 20 -30 36t-65.5 28t-65.5 43.5t-30 78.5q0 65 51.5 108t131.5 43q49 0 91 -17
zM55 683l66 8l85 -97l85 97l64 -8l-106 -166h-90z" />
    <glyph glyph-name="Tcommaaccent" unicode="&#x162;" horiz-adv-x="569" 
d="M3 690h563v-121l-220 15v-584h-123v584l-220 -15v121zM236 -57h110q-25 -107 -84 -185l-62 19q30 72 36 166z" />
    <glyph glyph-name="Tcommaaccent" unicode="&#x21a;" horiz-adv-x="569" 
d="M3 690h563v-121l-220 15v-584h-123v584l-220 -15v121zM236 -57h110q-25 -107 -84 -185l-62 19q30 72 36 166z" />
    <glyph glyph-name="tcommaaccent" unicode="&#x163;" horiz-adv-x="348" 
d="M13 449h71v108l110 18v-126h141v-93h-141v-195q0 -34 12 -47t41 -13q48 0 88 28v-105q-68 -38 -141 -38q-54 0 -82 30.5t-28 109.5v230h-71v93zM124 -57h110q-25 -107 -84 -185l-62 19q30 72 36 166z" />
    <glyph glyph-name="tcommaaccent" unicode="&#x21b;" horiz-adv-x="348" 
d="M13 449h71v108l110 18v-126h141v-93h-141v-195q0 -34 12 -47t41 -13q48 0 88 28v-105q-68 -38 -141 -38q-54 0 -82 30.5t-28 109.5v230h-71v93zM124 -57h110q-25 -107 -84 -185l-62 19q30 72 36 166z" />
    <glyph glyph-name="Tcaron" unicode="&#x164;" horiz-adv-x="569" 
d="M3 690h563v-121l-220 15v-584h-123v584l-220 -15v121zM134 879l66 8l86 -90l85 90l63 -8l-106 -157h-89z" />
    <glyph glyph-name="tcaron" unicode="&#x165;" horiz-adv-x="348" 
d="M13 449h71v108l110 18v-126h141v-93h-141v-195q0 -34 12 -47t41 -13q48 0 88 28v-105q-68 -38 -141 -38q-54 0 -82 30.5t-28 109.5v230h-71v93zM259 719h94l-46 -194l-57 6z" />
    <glyph glyph-name="Tbar" unicode="&#x166;" horiz-adv-x="569" 
d="M3 690h563v-121l-220 15v-232h68v-69h-68v-283h-123v283h-68v69h68v232l-220 -15v121z" />
    <glyph glyph-name="tbar" unicode="&#x167;" horiz-adv-x="348" 
d="M13 449h71v108l110 18v-126h141v-93h-141v-84h69v-69h-69v-42q0 -34 12 -47t41 -13q48 0 88 28v-105q-68 -38 -141 -38q-54 0 -82 30.5t-28 109.5v77h-46v69h46v84h-71v93z" />
    <glyph glyph-name="Utilde" unicode="&#x168;" horiz-adv-x="684" 
d="M73 690h122v-454q0 -69 40.5 -102t107.5 -33q66 0 108 32t42 96v461h118v-460q0 -111 -84 -177.5t-199 -66.5q-108 0 -181.5 57t-73.5 165v482zM225 728l-46 6q5 59 31.5 93t71.5 34q39 0 76 -29.5t57 -29.5q38 0 43 56l46 -3q-4 -63 -31.5 -94t-71.5 -31q-36 0 -72.5 29
t-55.5 29q-24 0 -34.5 -15t-13.5 -45z" />
    <glyph glyph-name="utilde" unicode="&#x169;" horiz-adv-x="509" 
d="M62 449h109v-283q0 -42 15 -62t50 -20q42 0 72 31.5t30 76.5v257h109v-449h-85l-19 73q-30 -41 -72.5 -64t-87.5 -23q-121 0 -121 150v313zM147 519l-48 6q14 124 104 124q30 0 50.5 -15.5t36 -30.5t31.5 -15q38 0 40 55l48 -4q-6 -63 -33 -93t-70 -30q-28 0 -48.5 16
t-35.5 31.5t-30 15.5q-22 0 -32 -15t-13 -45z" />
    <glyph glyph-name="Umacron" unicode="&#x16a;" horiz-adv-x="684" 
d="M73 690h122v-454q0 -69 40.5 -102t107.5 -33q66 0 108 32t42 96v461h118v-460q0 -111 -84 -177.5t-199 -66.5q-108 0 -181.5 57t-73.5 165v482zM226 823h231v-69h-231v69z" />
    <glyph glyph-name="umacron" unicode="&#x16b;" horiz-adv-x="509" 
d="M62 449h109v-283q0 -42 15 -62t50 -20q42 0 72 31.5t30 76.5v257h109v-449h-85l-19 73q-30 -41 -72.5 -64t-87.5 -23q-121 0 -121 150v313zM140 620h225v-69h-225v69z" />
    <glyph glyph-name="Ubreve" unicode="&#x16c;" horiz-adv-x="684" 
d="M73 690h122v-454q0 -69 40.5 -102t107.5 -33q66 0 108 32t42 96v461h118v-460q0 -111 -84 -177.5t-199 -66.5q-108 0 -181.5 57t-73.5 165v482zM206 854l66 5q2 -29 20.5 -46.5t51.5 -17.5q32 0 50.5 17.5t20.5 46.5l62 -5q-1 -65 -38.5 -97t-96.5 -32t-97 32t-39 97z
" />
    <glyph glyph-name="ubreve" unicode="&#x16d;" horiz-adv-x="509" 
d="M62 449h109v-283q0 -42 15 -62t50 -20q42 0 72 31.5t30 76.5v257h109v-449h-85l-19 73q-30 -41 -72.5 -64t-87.5 -23q-121 0 -121 150v313zM119 662l67 5q2 -72 72 -72q68 0 71 73l63 -6q-1 -73 -38.5 -112.5t-97.5 -39.5t-98 39.5t-39 112.5z" />
    <glyph glyph-name="Uring" unicode="&#x16e;" horiz-adv-x="684" 
d="M73 690h122v-454q0 -69 40.5 -102t107.5 -33q66 0 108 32t42 96v461h118v-460q0 -111 -84 -177.5t-199 -66.5q-108 0 -181.5 57t-73.5 165v482zM235 801q0 44 30.5 71t76.5 27t76 -27t30 -71q0 -43 -30 -67t-76 -24q-48 0 -77.5 24t-29.5 67zM297 800q0 -20 12.5 -31
t32.5 -11q43 0 43 41q0 20 -12.5 31.5t-32.5 11.5q-43 0 -43 -42z" />
    <glyph glyph-name="uring" unicode="&#x16f;" horiz-adv-x="509" 
d="M62 449h109v-283q0 -42 15 -62t50 -20q42 0 72 31.5t30 76.5v257h109v-449h-85l-19 73q-30 -41 -72.5 -64t-87.5 -23q-121 0 -121 150v313zM146 598q0 45 31.5 75t76.5 30t74.5 -29.5t29.5 -75.5q0 -45 -31 -74t-76 -29q-46 0 -75.5 29t-29.5 74zM250 644q-40 0 -40 -45
q0 -22 11.5 -35.5t31.5 -13.5q39 0 39 45q0 22 -11.5 35.5t-30.5 13.5z" />
    <glyph glyph-name="Uhungarumlaut" unicode="&#x170;" horiz-adv-x="684" 
d="M73 690h122v-454q0 -69 40.5 -102t107.5 -33q66 0 108 32t42 96v461h118v-460q0 -111 -84 -177.5t-199 -66.5q-108 0 -181.5 57t-73.5 165v482zM291 875h93l-121 -145l-62 3zM440 875h93l-121 -145l-61 3z" />
    <glyph glyph-name="uhungarumlaut" unicode="&#x171;" horiz-adv-x="509" 
d="M62 449h109v-283q0 -42 15 -62t50 -20q42 0 72 31.5t30 76.5v257h109v-449h-85l-19 73q-30 -41 -72.5 -64t-87.5 -23q-121 0 -121 150v313zM199 690h99l-120 -177l-61 9zM366 690h98l-120 -177l-61 9z" />
    <glyph glyph-name="Uogonek" unicode="&#x172;" horiz-adv-x="684" 
d="M73 690h122v-454q0 -69 40.5 -102t107.5 -33q66 0 108 32t42 96v461h118v-460q0 -99 -67.5 -163.5t-167.5 -77.5q-40 -37 -40 -83q0 -47 54 -47q30 0 57 16l11 -56q-41 -32 -106 -32q-54 0 -82 22t-28 61q0 67 64 117q-100 6 -166.5 62.5t-66.5 158.5v482z" />
    <glyph glyph-name="uogonek" unicode="&#x173;" horiz-adv-x="509" 
d="M62 449h109v-283q0 -42 15 -62t50 -20q42 0 72 31.5t30 76.5v257h109v-449h-27q-53 -38 -53 -94q0 -47 54 -47q30 0 57 16l11 -56q-41 -32 -106 -32q-54 0 -82 22t-28 61t25 76t63 56l-18 71q-30 -41 -72.5 -64t-87.5 -23q-121 0 -121 150v313z" />
    <glyph glyph-name="Wcircumflex" unicode="&#x174;" horiz-adv-x="991" 
d="M7 690h140l149 -525l153 525h113l154 -525l141 525h127l-223 -690h-123l-150 477l-146 -477h-117zM457 879h89l105 -156l-66 -8l-85 89l-86 -89q-1 0 -31 4l-30 4z" />
    <glyph glyph-name="wcircumflex" unicode="&#x175;" horiz-adv-x="707" 
d="M3 449h125l89 -314l102 314h86l102 -314l88 314h109l-152 -449h-107l-93 285l-97 -285h-106zM308 683h90l105 -167l-66 -8l-86 98l-86 -98l-62 8z" />
    <glyph glyph-name="Ycircumflex" unicode="&#x176;" horiz-adv-x="645" 
d="M-3 690h160l176 -291l173 291h142l-263 -392v-298h-122v288zM284 879h89l105 -156l-66 -8l-85 89l-86 -89q-1 0 -31 4l-30 4z" />
    <glyph glyph-name="ycircumflex" unicode="&#x177;" horiz-adv-x="443" 
d="M3 449h122l104 -322l103 322h108l-168 -450q-49 -130 -115.5 -185.5t-180.5 -56.5l20 106q73 0 105 26.5t59 97.5l5 13zM177 683h90l105 -167l-66 -8l-86 98l-86 -98l-62 8z" />
    <glyph glyph-name="Ydieresis" unicode="&#x178;" horiz-adv-x="645" 
d="M-3 690h160l176 -291l173 291h142l-263 -392v-298h-122v288zM174 786q0 24 16.5 39t40.5 15q23 0 39.5 -15.5t16.5 -38.5q0 -24 -16.5 -40t-39.5 -16q-24 0 -40.5 16t-16.5 40zM365 786q0 24 16.5 39t40.5 15t40.5 -15t16.5 -39t-16.5 -40t-40.5 -16t-40.5 16t-16.5 40z
" />
    <glyph glyph-name="Zacute" unicode="&#x179;" horiz-adv-x="605" 
d="M34 97l366 492l-349 -15v116h507v-97l-367 -493l379 16v-116h-536v97zM327 875h113l-142 -158l-70 8z" />
    <glyph glyph-name="zacute" unicode="&#x17a;" horiz-adv-x="438" 
d="M32 85l237 273l-223 -10v101h354v-85l-230 -274l240 11v-101h-378v85zM242 690h121l-145 -176l-72 7z" />
    <glyph glyph-name="Zdotaccent" unicode="&#x17b;" horiz-adv-x="605" 
d="M34 97l366 492l-349 -15v116h507v-97l-367 -493l379 16v-116h-536v97zM245 796q0 24 17 39.5t41 15.5q23 0 39.5 -15.5t16.5 -39.5t-16.5 -39.5t-39.5 -15.5q-24 0 -41 15.5t-17 39.5z" />
    <glyph glyph-name="zdotaccent" unicode="&#x17c;" horiz-adv-x="438" 
d="M32 85l237 273l-223 -10v101h354v-85l-230 -274l240 11v-101h-378v85zM230 642q23 0 40 -16.5t17 -41.5t-17 -41.5t-40 -16.5q-24 0 -40.5 16.5t-16.5 41.5t16.5 41.5t40.5 16.5z" />
    <glyph glyph-name="Zcaron" unicode="&#x17d;" horiz-adv-x="605" 
d="M34 97l366 492l-349 -15v116h507v-97l-367 -493l379 16v-116h-536v97zM152 879l66 8l86 -90l85 90l63 -8l-106 -157h-89z" />
    <glyph glyph-name="zcaron" unicode="&#x17e;" horiz-adv-x="438" 
d="M32 85l237 273l-223 -10v101h354v-85l-230 -274l240 11v-101h-378v85zM75 683l66 8l85 -97l85 97l64 -8l-106 -166h-90z" />
    <glyph glyph-name="longs" unicode="&#x17f;" horiz-adv-x="241" 
d="M282 786v-111q-20 6 -38 6q-73 0 -73 -104v-577h-109v558q0 105 50.5 167t141.5 62q4 0 14 -0.5t14 -0.5z" />
    <glyph glyph-name="florin" unicode="&#x192;" 
d="M420 785v-105q-20 6 -37 6q-79 0 -79 -104v-133h116v-93h-116v-294q0 -68 -10.5 -119t-35 -93.5t-70.5 -66t-112 -26.5q1 5 8.5 45t12.5 61q57 1 77 28t20 97v368h-80v93h80v89q0 112 51 180t148 68q19 0 27 -1z" />
    <glyph glyph-name="AEacute" unicode="&#x1fc;" horiz-adv-x="833" 
d="M379 690h414v-109l-279 15v-198l235 14v-110l-235 15v-223l279 15v-109h-401v190h-238l-133 -190h-145zM213 282h179v259zM551 875h113l-142 -158l-70 8z" />
    <glyph glyph-name="aeacute" unicode="&#x1fd;" horiz-adv-x="759" 
d="M243 462q47 0 76 -13t45 -46q57 59 147 59q164 0 164 -191q0 -27 -5 -55q-122 4 -162 4q-71 0 -118 -4q4 -69 40 -99t108 -30q62 0 122 30v-90q-71 -41 -156 -41q-134 0 -180 93q-70 -93 -178 -93q-50 0 -77.5 26.5t-27.5 71.5q0 142 251 192q-3 53 -19 75t-45 22
q-72 0 -158 -35v99q81 25 173 25zM390 690h121l-145 -176l-72 7zM192 80q36 0 63 29.5t35 95.5q-134 -25 -134 -89q0 -36 36 -36zM497 375q-79 0 -100 -84q75 7 172 9q0 36 -15 55.5t-57 19.5z" />
    <glyph glyph-name="Oslashacute" unicode="&#x1fe;" horiz-adv-x="791" 
d="M407 700q101 0 176 -46l35 44l103 -15l-69 -87q80 -94 80 -235q0 -159 -97 -267t-259 -108q-99 0 -171 46l-31 -40l-103 15l67 84q-80 95 -80 240q0 152 95.5 260.5t253.5 108.5zM602 340q0 88 -33 151l-289 -365q47 -32 114 -32q95 0 151.5 63.5t56.5 182.5zM393 592
q-94 0 -149.5 -64t-55.5 -183q0 -89 32 -150l288 364q-49 33 -115 33zM387 875h113l-142 -158l-70 8z" />
    <glyph glyph-name="oslashacute" unicode="&#x1ff;" horiz-adv-x="549" 
d="M283 463q69 0 124 -30l20 23l80 -15l-47 -54q49 -62 49 -156q0 -109 -67.5 -177t-175.5 -68q-68 0 -123 31l-22 -25l-79 16l48 55q-47 59 -47 152q0 109 66.5 178.5t173.5 69.5zM390 224q0 34 -9 70l-173 -201q27 -21 68 -21q53 0 83.5 38.5t30.5 113.5zM277 376
q-54 0 -85 -39t-31 -114q0 -43 8 -68l172 201q-26 20 -64 20zM272 690h121l-145 -176l-72 7z" />
    <glyph glyph-name="Scommaaccent" unicode="&#x218;" horiz-adv-x="515" 
d="M431 683v-130q-67 33 -148 33q-44 0 -70 -18.5t-26 -55.5q0 -30 29.5 -54.5t72 -44t85 -43.5t72 -65.5t29.5 -97.5q0 -90 -70 -155.5t-184 -65.5q-89 0 -161 22v133q88 -36 169 -36q51 0 82 20t31 60q0 32 -30 58.5t-72 48t-84.5 45.5t-72.5 64t-30 92q0 81 68 144
t188 63q78 0 122 -17zM204 -57h110q-25 -107 -84 -185l-62 19q30 72 36 166z" />
    <glyph glyph-name="scommaaccent" unicode="&#x219;" horiz-adv-x="385" 
d="M322 446v-101q-49 26 -102 26q-31 0 -46.5 -12t-15.5 -31q0 -18 20 -30.5t48 -22.5t56 -23t48 -39.5t20 -64.5q0 -74 -51.5 -118t-134.5 -44q-63 0 -112 20v105q59 -34 121 -34q66 0 66 49q0 20 -30 36t-65.5 28t-65.5 43.5t-30 78.5q0 65 51.5 108t131.5 43q49 0 91 -17
zM141 -57h110q-25 -107 -84 -185l-62 19q30 72 36 166z" />
    <glyph glyph-name="circumflex" unicode="&#x2c6;" horiz-adv-x="402" 
d="M157 683h90l105 -167l-66 -8l-86 98l-86 -98l-62 8z" />
    <glyph glyph-name="caron" unicode="&#x2c7;" horiz-adv-x="402" 
d="M53 683l66 8l85 -97l85 97l64 -8l-106 -166h-90z" />
    <glyph glyph-name="breve" unicode="&#x2d8;" horiz-adv-x="372" 
d="M50 662l67 5q2 -72 72 -72q68 0 71 73l63 -6q-1 -73 -38.5 -112.5t-97.5 -39.5t-98 39.5t-39 112.5z" />
    <glyph glyph-name="dotaccent" unicode="&#x2d9;" horiz-adv-x="215" 
d="M108 642q23 0 40 -16.5t17 -41.5t-17 -41.5t-40 -16.5q-24 0 -40.5 16.5t-16.5 41.5t16.5 41.5t40.5 16.5z" />
    <glyph glyph-name="ring" unicode="&#x2da;" horiz-adv-x="312" 
d="M51 598q0 45 31.5 75t76.5 30t74.5 -29.5t29.5 -75.5q0 -45 -31 -74t-76 -29q-46 0 -75.5 29t-29.5 74zM155 644q-40 0 -40 -45q0 -22 11.5 -35.5t31.5 -13.5q39 0 39 45q0 22 -11.5 35.5t-30.5 13.5z" />
    <glyph glyph-name="ogonek" unicode="&#x2db;" horiz-adv-x="317" 
d="M148 4h60q-26 -17 -42.5 -43.5t-16.5 -54.5q0 -47 54 -47q30 0 57 16l11 -56q-41 -32 -106 -32q-54 0 -82 22t-28 61q0 40 27 78t66 56z" />
    <glyph glyph-name="tilde" unicode="&#x2dc;" horiz-adv-x="418" 
d="M103 519l-48 6q14 124 104 124q30 0 50.5 -15.5t36 -30.5t31.5 -15q38 0 40 55l48 -4q-6 -63 -33 -93t-70 -30q-28 0 -48.5 16t-35.5 31.5t-30 15.5q-22 0 -32 -15t-13 -45z" />
    <glyph glyph-name="hungarumlaut" unicode="&#x2dd;" horiz-adv-x="454" 
d="M136 690h99l-120 -177l-61 9zM303 690h98l-120 -177l-61 9z" />
    <glyph glyph-name="tonos" unicode="&#x384;" horiz-adv-x="213" 
d="M129 590h-79l3 195h113z" />
    <glyph glyph-name="dieresistonos" unicode="&#x385;" horiz-adv-x="498" 
d="M106 531q-23 0 -39.5 17.5t-16.5 42.5q0 26 16 42.5t40 16.5q23 0 39.5 -16.5t16.5 -42.5q0 -25 -16.5 -42.5t-39.5 -17.5zM391 531q-23 0 -39.5 17.5t-16.5 42.5q0 26 16 42.5t40 16.5q23 0 39 -16.5t16 -42.5q0 -25 -16 -42.5t-39 -17.5zM281 511h-83l3 195h117z" />
    <glyph glyph-name="Alphatonos" unicode="&#x386;" horiz-adv-x="637" 
d="M260 690h124l255 -690h-147l-66 190h-233l-65 -190h-131zM309 545l-88 -263h177zM139 590h-79l3 195h113z" />
    <glyph glyph-name="anoteleia" unicode="&#x387;" 
d="M175 251q0 32 23 54t56 22q32 0 54.5 -22.5t22.5 -53.5q0 -33 -22.5 -56.5t-54.5 -23.5q-33 0 -56 23.5t-23 56.5z" />
    <glyph glyph-name="Epsilontonos" unicode="&#x388;" horiz-adv-x="519" 
d="M77 690h402v-109l-279 15v-199l234 15v-110l-234 15v-223l279 15v-109h-402v690zM25 590h-79l3 195h113z" />
    <glyph glyph-name="Etatonos" unicode="&#x389;" horiz-adv-x="693" 
d="M493 690h123v-690h-123v314h-293v-314h-123v690h123v-278h293v278zM25 590h-79l3 195h113z" />
    <glyph glyph-name="Iotatonos" unicode="&#x38a;" horiz-adv-x="277" 
d="M77 690h123v-690h-123v690zM24 590h-79l3 195h113z" />
    <glyph glyph-name="Omicrontonos" unicode="&#x38c;" horiz-adv-x="791" 
d="M393 592q-94 0 -149.5 -64t-55.5 -183q0 -117 54 -184t152 -67q95 0 151.5 63.5t56.5 182.5q0 118 -55 185t-154 67zM407 700q154 0 239.5 -97t85.5 -242q0 -159 -97 -267t-259 -108q-147 0 -232.5 98.5t-85.5 246.5q0 152 95.5 260.5t253.5 108.5zM97 590h-79l3 195h113
z" />
    <glyph glyph-name="Upsilontonos" unicode="&#x38e;" horiz-adv-x="645" 
d="M-12 590h-79l3 195h113l-18 -95h150l176 -291l173 291h142l-263 -392v-298h-122v288l-258 390z" />
    <glyph glyph-name="Omegatonos" unicode="&#x38f;" horiz-adv-x="817" 
d="M783 0h-304v98q143 40 143 230q0 116 -62 188t-164 72q-96 0 -148 -60t-52 -169q0 -85 40 -156t108 -96v-107h-311v109l161 -11q-124 98 -124 244q0 152 98 255t261 103q150 0 234 -94.5t84 -238.5q0 -164 -118 -268l154 10v-109zM98 590h-79l3 195h113z" />
    <glyph glyph-name="iotadieresistonos" unicode="&#x390;" horiz-adv-x="255" 
d="M233 96v-91q-44 -19 -78 -19q-92 0 -92 106v343l110 18v-330q0 -35 27 -35q17 0 33 8zM-11 531q-23 0 -39.5 17.5t-16.5 42.5q0 26 16 42.5t40 16.5q23 0 39.5 -16.5t16.5 -42.5q0 -25 -16.5 -42.5t-39.5 -17.5zM274 531q-23 0 -39.5 17.5t-16.5 42.5q0 26 16 42.5
t40 16.5q23 0 39 -16.5t16 -42.5q0 -25 -16 -42.5t-39 -17.5zM164 511h-83l3 195h117z" />
    <glyph glyph-name="Alpha" unicode="&#x391;" horiz-adv-x="637" 
d="M260 690h124l255 -690h-147l-66 190h-233l-65 -190h-131zM309 545l-88 -263h177z" />
    <glyph glyph-name="Beta" unicode="&#x392;" horiz-adv-x="578" 
d="M199 586v-187q95 1 132 27t37 76q0 39 -29.5 63.5t-90.5 24.5q-26 0 -49 -4zM199 304v-204q36 -6 63 -6q69 0 104 26t35 71q0 52 -42 82.5t-160 30.5zM260 690q71 0 119.5 -14t72 -39.5t33 -52t9.5 -59.5q0 -61 -40 -105.5t-106 -57.5q187 -24 187 -162q0 -82 -71.5 -141
t-208.5 -59h-178v690h183z" />
    <glyph glyph-name="Gamma" unicode="&#x393;" horiz-adv-x="484" 
d="M200 0h-123v690h402v-109l-279 15v-596z" />
    <glyph glyph-name="Delta" unicode="&#x394;" horiz-adv-x="637" 
d="M639 0h-642l263 690h124zM464 92l-155 453l-153 -453h308z" />
    <glyph glyph-name="Delta" unicode="&#x2206;" horiz-adv-x="637" 
d="M639 0h-642l263 690h124zM464 92l-155 453l-153 -453h308z" />
    <glyph glyph-name="Epsilon" unicode="&#x395;" horiz-adv-x="519" 
d="M77 690h402v-109l-279 15v-199l234 15v-110l-234 15v-223l279 15v-109h-402v690z" />
    <glyph glyph-name="Zeta" unicode="&#x396;" horiz-adv-x="605" 
d="M34 97l366 492l-349 -15v116h507v-97l-367 -493l379 16v-116h-536v97z" />
    <glyph glyph-name="Eta" unicode="&#x397;" horiz-adv-x="693" 
d="M493 690h123v-690h-123v314h-293v-314h-123v690h123v-278h293v278z" />
    <glyph glyph-name="Theta" unicode="&#x398;" horiz-adv-x="791" 
d="M233 394h323v-91h-323v91zM393 592q-94 0 -149.5 -64t-55.5 -183q0 -117 54 -184t152 -67q95 0 151.5 63.5t56.5 182.5q0 118 -55 185t-154 67zM407 700q154 0 239.5 -97t85.5 -242q0 -159 -97 -267t-259 -108q-147 0 -232.5 98.5t-85.5 246.5q0 152 95.5 260.5
t253.5 108.5z" />
    <glyph glyph-name="Iota" unicode="&#x399;" horiz-adv-x="277" 
d="M77 690h123v-690h-123v690z" />
    <glyph glyph-name="Kappa" unicode="&#x39a;" horiz-adv-x="645" 
d="M200 0h-123v690h123v-338l256 338h153l-281 -304q40 -68 133.5 -179t181.5 -194l-150 -26q-65 64 -136.5 153t-109.5 155l-47 -64v-231z" />
    <glyph glyph-name="Lambda" unicode="&#x39b;" horiz-adv-x="637" 
d="M639 0h-147l-183 543l-180 -543h-132l263 690h124z" />
    <glyph glyph-name="Mu" unicode="&#x39c;" horiz-adv-x="872" 
d="M96 690h173l176 -507l175 507h156l39 -690h-123l-26 530l-187 -526h-90l-187 533l-27 -537h-118z" />
    <glyph glyph-name="Nu" unicode="&#x39d;" horiz-adv-x="681" 
d="M77 690h155l262 -445v445h110v-690h-98l-319 539v-539h-110v690z" />
    <glyph glyph-name="Xi" unicode="&#x39e;" horiz-adv-x="526" 
d="M444 301h-362v107h362v-107zM489 582h-452v108h452v-108zM489 0h-452v107h452v-107z" />
    <glyph glyph-name="Omicron" unicode="&#x39f;" horiz-adv-x="791" 
d="M393 592q-94 0 -149.5 -64t-55.5 -183q0 -117 54 -184t152 -67q95 0 151.5 63.5t56.5 182.5q0 118 -55 185t-154 67zM407 700q154 0 239.5 -97t85.5 -242q0 -159 -97 -267t-259 -108q-147 0 -232.5 98.5t-85.5 246.5q0 152 95.5 260.5t253.5 108.5z" />
    <glyph glyph-name="Pi" unicode="&#x3a0;" horiz-adv-x="687" 
d="M77 690h539v-690h-123v591h-293v-591h-123v690z" />
    <glyph glyph-name="Rho" unicode="&#x3a1;" horiz-adv-x="558" 
d="M276 690q128 0 188.5 -59t60.5 -146q0 -101 -65 -165t-175 -64q-47 0 -85 10v-266h-123v690h199zM200 586v-228q33 -7 58 -7q63 0 98.5 31.5t35.5 85.5q0 58 -31.5 90t-96.5 32q-39 0 -64 -4z" />
    <glyph glyph-name="Sigma" unicode="&#x3a3;" horiz-adv-x="605" 
d="M51 690h507v-115l-348 12l175 -226l-194 -259l379 13v-115h-536v97l197 264l-180 232v97z" />
    <glyph glyph-name="Tau" unicode="&#x3a4;" horiz-adv-x="569" 
d="M3 690h563v-121l-220 15v-584h-123v584l-220 -15v121z" />
    <glyph glyph-name="Upsilon" unicode="&#x3a5;" horiz-adv-x="645" 
d="M-3 690h160l176 -291l173 291h142l-263 -392v-298h-122v288z" />
    <glyph glyph-name="Phi" unicode="&#x3a6;" horiz-adv-x="743" 
d="M433 0h-122v105q-126 8 -197 71t-71 156t71.5 163t196.5 88v107h122v-103q125 -11 195.5 -76t70.5 -156t-71 -159t-195 -86v-110zM163 353q0 -63 39 -106.5t109 -58.5v318q-72 -10 -110 -50t-38 -103zM580 334q0 62 -39 107t-108 61v-318q71 10 109 49t38 101z" />
    <glyph glyph-name="Chi" unicode="&#x3a7;" horiz-adv-x="674" 
d="M506 690h150l-257 -331l271 -359h-160l-178 265l-184 -265h-145l269 351l-256 339h165l159 -245z" />
    <glyph glyph-name="Psi" unicode="&#x3a8;" horiz-adv-x="740" 
d="M309 690h123v-346q139 19 139 132q0 122 9 214h122q-8 -61 -10 -211q-1 -96 -74 -160.5t-186 -82.5v-236h-123v232q-108 9 -178 60t-79 138q-6 59 -8.5 145.5t-6.5 114.5h122q10 -70 10 -202q0 -58 37 -94.5t103 -48.5v345z" />
    <glyph glyph-name="Omega" unicode="&#x3a9;" horiz-adv-x="817" 
d="M783 0h-304v98q143 40 143 230q0 116 -62 188t-164 72q-96 0 -148 -60t-52 -169q0 -85 40 -156t108 -96v-107h-311v109l161 -11q-124 98 -124 244q0 152 98 255t261 103q150 0 234 -94.5t84 -238.5q0 -164 -118 -268l154 10v-109z" />
    <glyph glyph-name="Omega" unicode="&#x2126;" horiz-adv-x="817" 
d="M783 0h-304v98q143 40 143 230q0 116 -62 188t-164 72q-96 0 -148 -60t-52 -169q0 -85 40 -156t108 -96v-107h-311v109l161 -11q-124 98 -124 244q0 152 98 255t261 103q150 0 234 -94.5t84 -238.5q0 -164 -118 -268l154 10v-109z" />
    <glyph glyph-name="Iotadieresis" unicode="&#x3aa;" horiz-adv-x="277" 
d="M77 690h123v-690h-123v690zM-13 786q0 24 16.5 39t40.5 15q23 0 39.5 -15.5t16.5 -38.5q0 -24 -16.5 -40t-39.5 -16q-24 0 -40.5 16t-16.5 40zM178 786q0 24 16.5 39t40.5 15t40.5 -15t16.5 -39t-16.5 -40t-40.5 -16t-40.5 16t-16.5 40z" />
    <glyph glyph-name="Upsilondieresis" unicode="&#x3ab;" horiz-adv-x="645" 
d="M-3 690h160l176 -291l173 291h142l-263 -392v-298h-122v288zM174 786q0 24 16.5 39t40.5 15q23 0 39.5 -15.5t16.5 -38.5q0 -24 -16.5 -40t-39.5 -16q-24 0 -40.5 16t-16.5 40zM365 786q0 24 16.5 39t40.5 15t40.5 -15t16.5 -39t-16.5 -40t-40.5 -16t-40.5 16t-16.5 40z
" />
    <glyph glyph-name="alphatonos" unicode="&#x3ac;" horiz-adv-x="599" 
d="M576 98l-21 -112q-47 0 -79 28.5t-58 79.5q-94 -108 -201 -108q-85 0 -129.5 58t-44.5 150q0 109 60 189t157 80q68 0 108.5 -43t71.5 -118q16 67 16 147h107q0 -122 -79 -261q38 -90 92 -90zM248 94q79 0 136 78q-42 107 -63 138q-36 52 -86 52q-42 0 -65.5 -35.5
t-23.5 -91.5q0 -58 27 -99.5t75 -41.5zM303 512h-79l3 195h113z" />
    <glyph glyph-name="epsilontonos" unicode="&#x3ad;" horiz-adv-x="425" 
d="M265 512h-79l3 195h113zM388 112v-81q-83 -45 -173 -45q-85 0 -128.5 32t-43.5 89q0 46 31 78.5t80 44.5q-103 21 -103 101q0 58 54.5 95t144.5 37q68 0 138 -19v-101q-58 30 -137 30q-40 0 -61 -13.5t-21 -34.5q0 -20 17.5 -33t51.5 -13q26 0 57 7v-92q-21 5 -46 5
q-41 0 -62.5 -15t-21.5 -42q0 -24 25.5 -38.5t74.5 -14.5q71 0 123 23z" />
    <glyph glyph-name="etatonos" unicode="&#x3ae;" horiz-adv-x="504" 
d="M435 -243h-111q15 230 15 508q0 98 -66 98q-42 0 -71 -38.5t-29 -84.5v-240h-110l10 229q-3 133 -51 201l107 36q25 -40 37 -104q29 48 74 74.5t87 26.5q120 0 120 -169q0 -255 -12 -537zM290 512h-79l3 195h113z" />
    <glyph glyph-name="iotatonos" unicode="&#x3af;" horiz-adv-x="255" 
d="M233 96v-91q-44 -19 -78 -19q-92 0 -92 106v343l110 18v-330q0 -35 27 -35q17 0 33 8zM151 512h-79l3 195h113z" />
    <glyph glyph-name="upsilondieresistonos" unicode="&#x3b0;" horiz-adv-x="544" 
d="M62 133v316h109v-289q0 -77 71 -77q46 0 77 50t32.5 129t-35.5 176l118 21q31 -87 25 -172t-35.5 -152t-90 -108t-138.5 -41q-133 0 -133 147zM116 531q-23 0 -39.5 17.5t-16.5 42.5q0 26 16 42.5t40 16.5q23 0 39.5 -16.5t16.5 -42.5q0 -25 -16.5 -42.5t-39.5 -17.5z
M401 531q-23 0 -39.5 17.5t-16.5 42.5q0 26 16 42.5t40 16.5q23 0 39 -16.5t16 -42.5q0 -25 -16 -42.5t-39 -17.5zM291 511h-83l3 195h117z" />
    <glyph glyph-name="alpha" unicode="&#x3b1;" horiz-adv-x="599" 
d="M576 98l-21 -112q-47 0 -79 28.5t-58 79.5q-94 -108 -201 -108q-85 0 -129.5 58t-44.5 150q0 109 60 189t157 80q68 0 108.5 -43t71.5 -118q16 67 16 147h107q0 -122 -79 -261q38 -90 92 -90zM248 94q79 0 136 78q-42 107 -63 138q-36 52 -86 52q-42 0 -65.5 -35.5
t-23.5 -91.5q0 -58 27 -99.5t75 -41.5z" />
    <glyph glyph-name="beta" unicode="&#x3b2;" horiz-adv-x="546" 
d="M171 -243h-109v700q0 110 68.5 176.5t171.5 66.5q86 0 129.5 -41t43.5 -111q0 -108 -112 -166q64 -19 103 -65t39 -109q0 -95 -62 -158.5t-167 -63.5q-55 0 -105 15v-244zM171 476v-356q55 -27 116 -27q46 0 74 25.5t28 73.5q0 53 -34 87t-95 34q-22 0 -44 -3v95
q147 0 147 108q0 41 -24 63t-66 22q-45 0 -73.5 -31.5t-28.5 -90.5z" />
    <glyph glyph-name="gamma" unicode="&#x3b3;" horiz-adv-x="443" 
d="M282 -243h-127q2 94 15 243q-19 99 -66 220.5t-101 215.5l124 25q87 -176 108 -331q67 156 91 319h112q-52 -223 -164 -449q8 -109 8 -243z" />
    <glyph glyph-name="delta" unicode="&#x3b4;" horiz-adv-x="516" 
d="M43 184q0 67 36.5 131t94.5 102q-57 31 -86.5 61t-29.5 74q0 74 66.5 111t162.5 37q88 0 160 -24v-109q-32 21 -85 33.5t-101 12.5q-43 0 -70.5 -12.5t-27.5 -36.5q0 -18 23 -36t57.5 -33t74.5 -39.5t74.5 -52.5t57.5 -74.5t23 -102.5q0 -99 -65 -169.5t-168 -70.5
q-99 0 -148 56t-49 142zM369 201q0 62 -32.5 102t-91.5 75q-93 -58 -93 -169q0 -56 28.5 -88t80.5 -32q48 0 78 31.5t30 80.5z" />
    <glyph glyph-name="epsilon" unicode="&#x3b5;" horiz-adv-x="425" 
d="M388 112v-81q-83 -45 -173 -45q-85 0 -128.5 32t-43.5 89q0 46 31 78.5t80 44.5q-103 21 -103 101q0 58 54.5 95t144.5 37q68 0 138 -19v-101q-58 30 -137 30q-40 0 -61 -13.5t-21 -34.5q0 -20 17.5 -33t51.5 -13q26 0 57 7v-92q-21 5 -46 5q-41 0 -62.5 -15t-21.5 -42
q0 -24 25.5 -38.5t74.5 -14.5q71 0 123 23z" />
    <glyph glyph-name="zeta" unicode="&#x3b6;" horiz-adv-x="451" 
d="M299 -240l-55 24q23 18 43.5 57t20.5 71q0 28 -14.5 51t-37 39t-50.5 31t-55.5 31t-50 35t-37 47t-14.5 63q0 70 67.5 163t191.5 222l-287 -10v106h435v-97q-132 -91 -205.5 -184t-73.5 -164q0 -35 25 -63.5t60.5 -49t71 -42.5t60.5 -55.5t25 -76.5q0 -54 -38 -108
t-82 -90z" />
    <glyph glyph-name="eta" unicode="&#x3b7;" horiz-adv-x="504" 
d="M435 -243h-111q15 230 15 508q0 98 -66 98q-42 0 -71 -38.5t-29 -84.5v-240h-110l10 229q-3 133 -51 201l107 36q25 -40 37 -104q29 48 74 74.5t87 26.5q120 0 120 -169q0 -255 -12 -537z" />
    <glyph glyph-name="theta" unicode="&#x3b8;" horiz-adv-x="526" 
d="M257 -14q-74 0 -123.5 46t-71 121.5t-21.5 177.5q0 155 62 262t166 107q74 0 123.5 -46.5t71 -123t21.5 -179.5q0 -154 -62 -259.5t-166 -105.5zM266 82q93 0 96 225h-199q5 -103 31.5 -164t71.5 -61zM259 605q-90 0 -96 -212h197q-5 97 -32 154.5t-69 57.5z" />
    <glyph glyph-name="iota" unicode="&#x3b9;" horiz-adv-x="255" 
d="M233 96v-91q-44 -19 -78 -19q-92 0 -92 106v343l110 18v-330q0 -35 27 -35q17 0 33 8z" />
    <glyph glyph-name="kappa" unicode="&#x3ba;" horiz-adv-x="483" 
d="M172 0h-110v435l110 18v-182l138 178h138l-177 -201q34 -53 98.5 -121.5t109.5 -98.5l-112 -48q-91 65 -169 192l-26 -28v-144z" />
    <glyph glyph-name="lambda" unicode="&#x3bb;" horiz-adv-x="443" 
d="M70 679l110 22q45 -74 132 -340.5t137 -360.5h-114q-50 93 -120 315l-104 -315h-108l168 443q-58 167 -101 236z" />
    <glyph glyph-name="nu" unicode="&#x3bd;" horiz-adv-x="443" 
d="M272 0h-107q-61 214 -162 441l125 15q62 -144 103 -325q3 8 21.5 62.5t33.5 98.5t29.5 92t16.5 65h108q-9 -43 -79 -225.5t-89 -223.5z" />
    <glyph glyph-name="xi" unicode="&#x3be;" horiz-adv-x="442" 
d="M309 -243h-95q66 96 66 151q0 28 -25 47t-60 32t-70.5 27t-60.5 40t-25 64q0 52 50 105.5t136 92.5q-80 0 -125.5 20.5t-45.5 56.5q0 45 71.5 103.5t163.5 96.5h-261v110l411 -13v-94q-111 -42 -179 -90t-68 -84q0 -28 41 -36t153 -8v-80q-112 -24 -165.5 -60.5
t-53.5 -80.5q0 -28 36 -51t78.5 -38t78.5 -44.5t36 -68.5q0 -76 -87 -198z" />
    <glyph glyph-name="omicron" unicode="&#x3bf;" horiz-adv-x="538" 
d="M495 236q0 -110 -67 -180t-174 -70q-101 0 -156 59.5t-55 165.5q0 110 65.5 181t171.5 71q103 0 159 -59t56 -168zM276 87q119 0 119 133q0 70 -37.5 105.5t-93.5 35.5q-122 0 -122 -133q0 -71 38 -106t96 -35z" />
    <glyph glyph-name="pi" unicode="&#x3c0;" horiz-adv-x="555" 
d="M546 356h-100v-233q0 -35 27 -35q16 0 33 8v-91q-44 -19 -78 -19q-92 0 -92 106v264h-119l-1 -349l-112 -18l5 367h-100v93h537v-93z" />
    <glyph glyph-name="rho" unicode="&#x3c1;" horiz-adv-x="543" 
d="M171 -241l-109 -4v477q0 95 65 163t179 68q88 0 140.5 -56.5t52.5 -157.5q0 -116 -61 -189.5t-170 -73.5q-56 0 -97 18v-245zM171 245v-73q2 -42 29.5 -67t77.5 -25q52 0 83 37.5t31 99.5q0 64 -29 101t-85 37q-49 0 -78 -29t-29 -81z" />
    <glyph glyph-name="sigma1" unicode="&#x3c2;" horiz-adv-x="416" 
d="M272 -243h-86q66 103 66 187q0 20 -22 42t-53.5 44.5t-63 49.5t-53.5 68.5t-22 89.5q0 100 71.5 162.5t175.5 62.5q55 0 115 -20l-27 -103q-65 30 -118 30q-54 0 -82.5 -29.5t-28.5 -84.5q0 -36 22.5 -68.5t54 -57t63.5 -48.5t54.5 -53t22.5 -61q0 -73 -89 -211z" />
    <glyph glyph-name="sigma" unicode="&#x3c3;" horiz-adv-x="554" 
d="M541 351l-69 3q23 -49 23 -118q0 -110 -67 -180t-174 -70q-101 0 -156 59.5t-55 165.5q0 110 65.5 181t171.5 71q49 0 89 -14h172v-98zM276 87q119 0 119 133q0 70 -37.5 105.5t-93.5 35.5q-122 0 -122 -133q0 -71 38 -106t96 -35z" />
    <glyph glyph-name="tau" unicode="&#x3c4;" horiz-adv-x="414" 
d="M10 449h391v-93h-154v-207q0 -50 42 -50q30 0 64 22v-104q-64 -31 -113 -31q-103 0 -103 128v242h-127v93z" />
    <glyph glyph-name="upsilon" unicode="&#x3c5;" horiz-adv-x="501" 
d="M62 133v316h109v-289q0 -77 71 -77q46 0 77 50t32.5 129t-35.5 176l118 21q31 -87 25 -172t-35.5 -152t-90 -108t-138.5 -41q-133 0 -133 147z" />
    <glyph glyph-name="phi" unicode="&#x3c6;" horiz-adv-x="668" 
d="M389 -243h-110v231q-112 9 -174 68.5t-62 156.5q0 95 64 161.5t172 83.5v311l110 18v-326q111 -10 173.5 -69t62.5 -157q0 -95 -64.5 -160.5t-171.5 -82.5v-235zM166 227q0 -128 113 -155v305q-113 -24 -113 -150zM499 222q0 127 -110 153v-305q110 23 110 152z" />
    <glyph glyph-name="chi" unicode="&#x3c7;" horiz-adv-x="474" 
d="M331 448h122l-166 -333q87 -212 178 -343l-130 -28q-53 103 -107 247l-101 -234h-120l177 354q-82 203 -167 323l131 28q45 -72 95 -219z" />
    <glyph glyph-name="psi" unicode="&#x3c8;" horiz-adv-x="670" 
d="M382 -243h-108v232q-91 11 -148.5 74t-71.5 161.5t13 224.5h113q-33 -133 -7.5 -231.5t101.5 -129.5v681l108 18v-705q61 14 92.5 67t31 129.5t-20.5 170.5h128q17 -111 0.5 -205t-75.5 -164t-156 -88v-235z" />
    <glyph glyph-name="omega" unicode="&#x3c9;" horiz-adv-x="723" 
d="M128 449h108q-36 -32 -59.5 -100t-23.5 -133q0 -121 79 -121q43 0 65 41t22 112l-8 141h112l-9 -140q0 -74 24 -114t65 -40q76 0 76 121q0 59 -21 121t-55 98l118 24q54 -74 54 -211q0 -113 -44.5 -187.5t-131.5 -74.5q-111 0 -141 126q-53 -126 -160 -126
q-77 0 -113.5 55.5t-36.5 142.5q0 70 22.5 143.5t57.5 121.5z" />
    <glyph glyph-name="iotadieresis" unicode="&#x3ca;" horiz-adv-x="255" 
d="M233 96v-91q-44 -19 -78 -19q-92 0 -92 106v343l110 18v-330q0 -35 27 -35q17 0 33 8zM35 641q23 0 39 -16.5t16 -42.5t-16 -43t-39 -17q-24 0 -40 17t-16 43t16 42.5t40 16.5zM222 641q24 0 39.5 -16.5t15.5 -42.5t-16 -43t-39 -17q-24 0 -40 17t-16 43t16 42.5t40 16.5
z" />
    <glyph glyph-name="upsilondieresis" unicode="&#x3cb;" horiz-adv-x="501" 
d="M62 133v316h109v-289q0 -77 71 -77q46 0 77 50t32.5 129t-35.5 176l118 21q31 -87 25 -172t-35.5 -152t-90 -108t-138.5 -41q-133 0 -133 147zM160 641q23 0 39 -16.5t16 -42.5t-16 -43t-39 -17q-24 0 -40 17t-16 43t16 42.5t40 16.5zM347 641q24 0 39.5 -16.5
t15.5 -42.5t-16 -43t-39 -17q-24 0 -40 17t-16 43t16 42.5t40 16.5z" />
    <glyph glyph-name="omicrontonos" unicode="&#x3cc;" horiz-adv-x="538" 
d="M294 512h-79l3 195h113zM495 236q0 -110 -67 -180t-174 -70q-101 0 -156 59.5t-55 165.5q0 110 65.5 181t171.5 71q103 0 159 -59t56 -168zM276 87q119 0 119 133q0 70 -37.5 105.5t-93.5 35.5q-122 0 -122 -133q0 -71 38 -106t96 -35z" />
    <glyph glyph-name="upsilontonos" unicode="&#x3cd;" horiz-adv-x="501" 
d="M285 512h-79l3 195h113zM62 133v316h109v-289q0 -77 71 -77q46 0 77 50t32.5 129t-35.5 176l118 21q31 -87 25 -172t-35.5 -152t-90 -108t-138.5 -41q-133 0 -133 147z" />
    <glyph glyph-name="omegatonos" unicode="&#x3ce;" horiz-adv-x="723" 
d="M128 449h108q-36 -32 -59.5 -100t-23.5 -133q0 -121 79 -121q43 0 65 41t22 112l-8 141h112l-9 -140q0 -74 24 -114t65 -40q76 0 76 121q0 59 -21 121t-55 98l118 24q54 -74 54 -211q0 -113 -44.5 -187.5t-131.5 -74.5q-111 0 -141 126q-53 -126 -160 -126
q-77 0 -113.5 55.5t-36.5 142.5q0 70 22.5 143.5t57.5 121.5zM403 512h-79l3 195h113z" />
    <glyph glyph-name="afii10023" unicode="&#x401;" horiz-adv-x="519" 
d="M77 690h402v-109l-279 15v-199l234 15v-110l-234 15v-223l279 15v-109h-402v690zM123 786q0 24 16.5 39t40.5 15q23 0 39.5 -15.5t16.5 -38.5q0 -24 -16.5 -40t-39.5 -16q-24 0 -40.5 16t-16.5 40zM314 786q0 24 16.5 39t40.5 15t40.5 -15t16.5 -39t-16.5 -40t-40.5 -16
t-40.5 16t-16.5 40z" />
    <glyph glyph-name="afii10051" unicode="&#x402;" horiz-adv-x="694" 
d="M395 -222l21 112q57 1 76 25.5t19 94.5v274q0 79 -65 79q-42 0 -71 -32t-29 -75v-256h-123v590l-220 -15v115h563v-115l-220 15v-211q29 38 74 61t86 23q58 0 92 -37.5t34 -114.5v-278q0 -247 -237 -255z" />
    <glyph glyph-name="afii10052" unicode="&#x403;" horiz-adv-x="484" 
d="M311 875h113l-142 -158l-70 8zM200 0h-123v690h402v-109l-279 15v-596z" />
    <glyph glyph-name="afii10053" unicode="&#x404;" horiz-adv-x="609" 
d="M450 302l-264 14q10 -100 72.5 -153.5t166.5 -53.5q76 0 146 31v-107q-96 -47 -193 -47q-148 0 -234.5 87t-86.5 243q0 166 101 275t265 109q77 0 148 -20v-136q-79 38 -169 38q-94 0 -149.5 -47t-66.5 -136l264 13v-110z" />
    <glyph glyph-name="afii10054" unicode="&#x405;" horiz-adv-x="515" 
d="M431 683v-130q-67 33 -148 33q-44 0 -70 -18.5t-26 -55.5q0 -30 29.5 -54.5t72 -44t85 -43.5t72 -65.5t29.5 -97.5q0 -90 -70 -155.5t-184 -65.5q-89 0 -161 22v133q88 -36 169 -36q51 0 82 20t31 60q0 32 -30 58.5t-72 48t-84.5 45.5t-72.5 64t-30 92q0 81 68 144
t188 63q78 0 122 -17z" />
    <glyph glyph-name="afii10055" unicode="&#x406;" horiz-adv-x="277" 
d="M77 690h123v-690h-123v690z" />
    <glyph glyph-name="afii10056" unicode="&#x407;" horiz-adv-x="277" 
d="M77 690h123v-690h-123v690zM-13 786q0 24 16.5 39t40.5 15q23 0 39.5 -15.5t16.5 -38.5q0 -24 -16.5 -40t-39.5 -16q-24 0 -40.5 16t-16.5 40zM178 786q0 24 16.5 39t40.5 15t40.5 -15t16.5 -39t-16.5 -40t-40.5 -16t-40.5 16t-16.5 40z" />
    <glyph glyph-name="afii10057" unicode="&#x408;" horiz-adv-x="280" 
d="M80 690h122v-668q0 -129 -72 -195.5t-204 -69.5l22 118q75 0 103.5 27.5t28.5 97.5v690z" />
    <glyph glyph-name="afii10058" unicode="&#x409;" horiz-adv-x="973" 
d="M645 0h-178v591h-159q-6 -67 -12 -117t-15.5 -110t-21 -103.5t-28 -89.5t-38.5 -77.5t-49.5 -57t-64 -38t-79.5 -12.5l23 123q78 0 116 149.5t53 431.5h397v-255q80 5 140 -3t97.5 -25t61 -44t32.5 -58t9 -70q0 -100 -72.5 -167.5t-211.5 -67.5zM589 343v-242
q36 -7 69 -7q137 0 137 121q0 62 -45 96.5t-161 31.5z" />
    <glyph glyph-name="afii10059" unicode="&#x40a;" horiz-adv-x="1000" 
d="M671 0h-178v335h-293v-335h-123v690h123v-257h293v257h123v-255q80 5 140 -3t97.5 -25t60.5 -44t32 -58t9 -70q0 -100 -72.5 -167.5t-211.5 -67.5zM616 343v-242q35 -7 69 -7q136 0 136 121q0 62 -45 96.5t-160 31.5z" />
    <glyph glyph-name="afii10060" unicode="&#x40b;" horiz-adv-x="694" 
d="M632 0h-121v284q0 79 -65 79q-42 0 -71 -32t-29 -75v-256h-123v590l-220 -15v115h563v-115l-220 15v-211q29 38 74 61t86 23q58 0 92 -37.5t34 -114.5v-311z" />
    <glyph glyph-name="afii10061" unicode="&#x40c;" horiz-adv-x="634" 
d="M363 875h113l-142 -158l-70 8zM200 0h-123v690h123v-690zM638 0h-165q-90 202 -273 350l256 340h153l-282 -303q157 -131 311 -387z" />
    <glyph glyph-name="afii10062" unicode="&#x40e;" horiz-adv-x="547" 
d="M356 858l89 -4q0 -125 -151 -125q-150 0 -151 124l93 4q1 -35 13.5 -52t46.5 -17t46 17t14 53zM12 690h151l130 -340l122 340h137l-181 -437q-60 -144 -143 -205.5t-216 -61.5l23 114q78 0 114.5 23t64.5 94z" />
    <glyph glyph-name="afii10145" unicode="&#x40f;" horiz-adv-x="687" 
d="M381 -178h-66l-22 178h-216v690h123v-591h293v591h123v-690h-214z" />
    <glyph glyph-name="afii10017" unicode="&#x410;" horiz-adv-x="637" 
d="M260 690h124l255 -690h-147l-66 190h-233l-65 -190h-131zM309 545l-88 -263h177z" />
    <glyph glyph-name="afii10018" unicode="&#x411;" horiz-adv-x="578" 
d="M255 0h-178v690h399v-115l-277 14v-184q2 0 16.5 0.5t32.5 0.5q68 0 119.5 -10t83 -26.5t51 -41.5t26.5 -51t7 -59q0 -89 -71.5 -153.5t-208.5 -64.5zM199 314v-213q42 -8 71 -8q65 0 98 28t33 77q0 57 -41 86.5t-161 29.5z" />
    <glyph glyph-name="afii10019" unicode="&#x412;" horiz-adv-x="578" 
d="M199 586v-187q95 1 132 27t37 76q0 39 -29.5 63.5t-90.5 24.5q-26 0 -49 -4zM199 304v-204q36 -6 63 -6q69 0 104 26t35 71q0 52 -42 82.5t-160 30.5zM260 690q71 0 119.5 -14t72 -39.5t33 -52t9.5 -59.5q0 -61 -40 -105.5t-106 -57.5q187 -24 187 -162q0 -82 -71.5 -141
t-208.5 -59h-178v690h183z" />
    <glyph glyph-name="afii10020" unicode="&#x413;" horiz-adv-x="484" 
d="M200 0h-123v690h402v-109l-279 15v-596z" />
    <glyph glyph-name="afii10021" unicode="&#x414;" horiz-adv-x="756" 
d="M729 -186h-112v186h-486v-186h-112l-16 286h110q92 273 92 590h396v-590h144zM328 590q0 -222 -92 -490h242v490h-150z" />
    <glyph glyph-name="afii10022" unicode="&#x415;" horiz-adv-x="519" 
d="M77 690h402v-109l-279 15v-199l234 15v-110l-234 15v-223l279 15v-109h-402v690z" />
    <glyph glyph-name="afii10024" unicode="&#x416;" horiz-adv-x="992" 
d="M557 0h-122v690h122v-690zM996 0h-165q-90 200 -273 350l255 340h153l-281 -303q157 -131 311 -387zM161 0h-165q154 256 311 387l-281 303h153l255 -340q-183 -150 -273 -350z" />
    <glyph glyph-name="afii10025" unicode="&#x417;" horiz-adv-x="525" 
d="M56 9v125q73 -37 164 -37q131 0 131 97q0 116 -164 116q-36 0 -63 -3v92q216 0 216 108q0 45 -33 68t-91 23q-95 0 -160 -31v112q80 21 198 21q105 0 156 -41.5t51 -112.5q0 -56 -35 -102.5t-96 -67.5q153 -37 153 -167q0 -95 -75.5 -159t-200.5 -64q-90 0 -151 23z" />
    <glyph glyph-name="afii10026" unicode="&#x418;" horiz-adv-x="681" 
d="M604 0h-119v511l-278 -511h-130v690h119v-510l277 510h131v-690z" />
    <glyph glyph-name="afii10027" unicode="&#x419;" horiz-adv-x="681" 
d="M407 858l89 -4q-1 -125 -151 -125q-149 0 -152 124l93 4q2 -35 14.5 -52t46.5 -17t46 17t14 53zM604 0h-119v511l-278 -511h-130v690h119v-510l277 510h131v-690z" />
    <glyph glyph-name="afii10028" unicode="&#x41a;" horiz-adv-x="634" 
d="M200 0h-123v690h123v-690zM638 0h-165q-90 202 -273 350l256 340h153l-282 -303q157 -131 311 -387z" />
    <glyph glyph-name="afii10029" unicode="&#x41b;" horiz-adv-x="666" 
d="M589 0h-122v591h-159q-6 -67 -12 -117t-15.5 -110t-21 -103.5t-28 -89.5t-38.5 -77.5t-49.5 -57t-64 -38t-79.5 -12.5l23 123q78 0 116 149.5t53 431.5h397v-690z" />
    <glyph glyph-name="afii10030" unicode="&#x41c;" horiz-adv-x="872" 
d="M96 690h173l176 -507l175 507h156l39 -690h-123l-26 530l-187 -526h-90l-187 533l-27 -537h-118z" />
    <glyph glyph-name="afii10031" unicode="&#x41d;" horiz-adv-x="693" 
d="M493 690h123v-690h-123v314h-293v-314h-123v690h123v-278h293v278z" />
    <glyph glyph-name="afii10032" unicode="&#x41e;" horiz-adv-x="791" 
d="M393 592q-94 0 -149.5 -64t-55.5 -183q0 -117 54 -184t152 -67q95 0 151.5 63.5t56.5 182.5q0 118 -55 185t-154 67zM407 700q154 0 239.5 -97t85.5 -242q0 -159 -97 -267t-259 -108q-147 0 -232.5 98.5t-85.5 246.5q0 152 95.5 260.5t253.5 108.5z" />
    <glyph glyph-name="afii10033" unicode="&#x41f;" horiz-adv-x="687" 
d="M77 690h539v-690h-123v591h-293v-591h-123v690z" />
    <glyph glyph-name="afii10034" unicode="&#x420;" horiz-adv-x="558" 
d="M276 690q128 0 188.5 -59t60.5 -146q0 -101 -65 -165t-175 -64q-47 0 -85 10v-266h-123v690h199zM200 586v-228q33 -7 58 -7q63 0 98.5 31.5t35.5 85.5q0 58 -31.5 90t-96.5 32q-39 0 -64 -4z" />
    <glyph glyph-name="afii10035" unicode="&#x421;" horiz-adv-x="609" 
d="M425 700q78 0 147 -20v-136q-80 45 -170 45q-103 0 -158 -65t-55 -179t56.5 -182t158.5 -68q90 0 168 44v-133q-69 -20 -165 -20q-157 0 -253 94t-96 255q0 164 102.5 264.5t264.5 100.5z" />
    <glyph glyph-name="afii10036" unicode="&#x422;" horiz-adv-x="569" 
d="M3 690h563v-121l-220 15v-584h-123v584l-220 -15v121z" />
    <glyph glyph-name="afii10037" unicode="&#x423;" horiz-adv-x="547" 
d="M12 690h151l130 -340l122 340h137l-181 -437q-60 -144 -143 -205.5t-216 -61.5l23 114q78 0 114.5 23t64.5 94z" />
    <glyph glyph-name="afii10038" unicode="&#x424;" horiz-adv-x="743" 
d="M433 0h-122v105q-126 8 -197 71t-71 156t71.5 163t196.5 88v107h122v-103q125 -11 195.5 -76t70.5 -156t-71 -159t-195 -86v-110zM163 353q0 -63 39 -106.5t109 -58.5v318q-72 -10 -110 -50t-38 -103zM580 334q0 62 -39 107t-108 61v-318q71 10 109 49t38 101z" />
    <glyph glyph-name="afii10039" unicode="&#x425;" horiz-adv-x="674" 
d="M506 690h150l-257 -331l271 -359h-160l-178 265l-184 -265h-145l269 351l-256 339h165l159 -245z" />
    <glyph glyph-name="afii10040" unicode="&#x426;" horiz-adv-x="744" 
d="M715 -163h-95v163h-543v690h123v-591h279v591h122v-591h132z" />
    <glyph glyph-name="afii10041" unicode="&#x427;" horiz-adv-x="679" 
d="M601 0h-122v303q-110 -107 -242 -107q-76 0 -123 48t-47 133v313h123v-278q0 -98 104 -98q69 0 127 40.5t58 106.5v229h122v-690z" />
    <glyph glyph-name="afii10042" unicode="&#x428;" horiz-adv-x="996" 
d="M919 0h-842v690h123v-591h237v591h122v-591h237v591h123v-690z" />
    <glyph glyph-name="afii10043" unicode="&#x429;" horiz-adv-x="1061" 
d="M1033 -163h-96v163h-860v690h123v-591h237v591h122v-591h237v591h123v-591h132z" />
    <glyph glyph-name="afii10044" unicode="&#x42a;" horiz-adv-x="689" 
d="M360 0h-178v589l-179 -14v115h302v-255q37 3 66 3q152 0 213 -54.5t61 -148.5q0 -100 -73 -167.5t-212 -67.5zM305 343v-242q36 -7 69 -7q136 0 136 121q0 129 -175 129q-5 0 -14.5 -0.5t-15.5 -0.5z" />
    <glyph glyph-name="afii10045" unicode="&#x42b;" horiz-adv-x="810" 
d="M255 0h-178v690h122v-255q50 2 67 2q151 0 212 -54t61 -148q0 -101 -72.5 -168t-211.5 -67zM199 342v-241q40 -8 67 -8q139 0 139 122q0 128 -175 128q-20 0 -31 -1zM732 0h-122v690h122v-690z" />
    <glyph glyph-name="afii10046" unicode="&#x42c;" horiz-adv-x="584" 
d="M255 0h-178v690h122v-255q50 2 67 2q151 0 212 -54t61 -148q0 -101 -72.5 -168t-211.5 -67zM199 342v-241q50 -8 67 -8q139 0 139 122q0 128 -175 128q-20 0 -31 -1z" />
    <glyph glyph-name="afii10047" unicode="&#x42d;" horiz-adv-x="630" 
d="M50 6v136q77 -38 168 -38q102 0 158.5 55t60.5 157l-268 -14v110l262 -13q-18 86 -79.5 132t-156.5 46q-75 0 -145 -31v107q94 47 192 47q148 0 234.5 -87t86.5 -243q0 -166 -101 -275t-265 -109q-78 0 -147 20z" />
    <glyph glyph-name="afii10048" unicode="&#x42e;" horiz-adv-x="1018" 
d="M664 700q140 0 221 -97t81 -240q0 -158 -93 -267.5t-241 -109.5q-131 0 -211.5 93t-84.5 235h-136v-314h-123v690h123v-278h144q25 124 111 206t209 82zM649 591q-81 0 -132 -66t-51 -184q0 -115 50.5 -180.5t134.5 -65.5q81 0 133 64.5t52 183.5q0 115 -51 181.5
t-136 66.5z" />
    <glyph glyph-name="afii10049" unicode="&#x42f;" horiz-adv-x="612" 
d="M340 690h194v-690h-122v276q-31 -8 -42 -10q-85 -148 -172 -214t-196 -66l23 118q63 0 121.5 42t102.5 122q-76 14 -119.5 62t-43.5 132q0 86 64.5 157t189.5 71zM350 591q-130 0 -130 -113q0 -59 38.5 -88.5t94.5 -29.5q27 0 59 7v219q-38 5 -62 5z" />
    <glyph glyph-name="afii10065" unicode="&#x430;" horiz-adv-x="463" 
d="M70 338v99q86 26 175 26q73 0 114.5 -29.5t41.5 -90.5v-343h-82l-18 75q-26 -40 -68 -64.5t-88 -24.5q-50 0 -76.5 26.5t-26.5 71.5q0 134 249 213v36q0 40 -61 40q-74 0 -160 -35zM291 186v34q-60 -10 -97.5 -40t-37.5 -63q0 -36 37 -36q34 0 66 31t32 74z" />
    <glyph glyph-name="afii10066" unicode="&#x431;" horiz-adv-x="519" 
d="M284 586q-113 -10 -131 -176q77 53 156 53q77 0 122 -55.5t45 -154.5q0 -112 -62 -189.5t-161 -77.5q-104 0 -157 81t-53 223q0 71 14.5 138.5t43 125t76 95.5t106.5 44q17 2 49 3.5t59 5t53 13.5v-117q-25 -5 -53.5 -7.5t-61.5 -3t-45 -1.5zM252 368q-56 0 -102 -40
q2 -246 120 -246q45 0 69 37t24 105q0 144 -111 144z" />
    <glyph glyph-name="afii10067" unicode="&#x432;" horiz-adv-x="450" 
d="M171 374v-108q63 0 84.5 13.5t21.5 43.5q0 49 -72 53q-23 0 -34 -2zM171 198v-120q21 -3 45 -3q84 0 84 54q0 32 -26.5 50.5t-102.5 18.5zM205 0h-144v449h110q66 0 110 -7.5t65.5 -23t29.5 -33t8 -42.5q0 -37 -28.5 -65t-71.5 -38q59 -6 93.5 -34t34.5 -73
q0 -58 -52.5 -95.5t-154.5 -37.5z" />
    <glyph glyph-name="afii10068" unicode="&#x433;" horiz-adv-x="352" 
d="M171 0h-109v449h287v-96l-178 11v-364z" />
    <glyph glyph-name="afii10069" unicode="&#x434;" horiz-adv-x="605" 
d="M574 -157h-93v157h-357v-157h-93l-18 247h78q75 185 75 359h312v-359h114zM265 358q-4 -109 -69 -268h173v268h-104z" />
    <glyph glyph-name="afii10070" unicode="&#x435;" horiz-adv-x="468" 
d="M431 218h-281q5 -131 135 -131q72 0 135 30v-89q-70 -42 -157 -42q-102 0 -161 56t-59 170q0 107 62.5 179t166.5 72q80 0 122 -49.5t42 -139.5q0 -11 -5 -56zM258 376q-77 0 -100 -80l172 8q0 72 -72 72z" />
    <glyph glyph-name="afii10072" unicode="&#x436;" horiz-adv-x="733" 
d="M421 0h-110v449h110v-224l156 224h139q-20 -22 -56 -62.5t-65.5 -73.5t-55.5 -62q49 -39 107.5 -116.5t88.5 -134.5h-141q-23 49 -75 118.5t-98 106.5v-225zM138 0h-140q29 56 87.5 133.5t107.5 117.5l-177 198h138l157 -224q-46 -37 -98 -106.5t-75 -118.5z" />
    <glyph glyph-name="afii10073" unicode="&#x437;" horiz-adv-x="423" 
d="M202 463q168 0 168 -103q0 -73 -98 -108q113 -31 113 -114q0 -71 -58.5 -111.5t-158.5 -40.5q-62 0 -116 16v100q60 -22 127 -22q87 0 87 56q0 65 -114 65q-26 0 -49 -3v73q146 0 146 60q0 47 -78 47q-62 0 -119 -25v96q72 14 150 14z" />
    <glyph glyph-name="afii10074" unicode="&#x438;" horiz-adv-x="510" 
d="M448 0h-109v299l-172 -299h-106v449h111v-274l158 274h118v-449z" />
    <glyph glyph-name="afii10075" unicode="&#x439;" horiz-adv-x="510" 
d="M318 653l88 -4q-1 -132 -149 -132q-149 0 -150 132l92 4q1 -36 13.5 -54.5t46.5 -18.5q33 0 45 17.5t14 55.5zM448 0h-109v299l-172 -299h-106v449h111v-274l158 274h118v-449z" />
    <glyph glyph-name="afii10076" unicode="&#x43a;" horiz-adv-x="486" 
d="M171 0h-109v449h109v-449zM488 0h-142q-23 49 -74.5 118.5t-97.5 106.5l156 224h139l-178 -198q49 -39 108 -116t89 -135z" />
    <glyph glyph-name="afii10077" unicode="&#x43b;" horiz-adv-x="523" 
d="M461 0h-110v358h-95q-9 -180 -76 -273.5t-175 -98.5l21 112q40 1 65 32t40 108.5t18 210.5h312v-449z" />
    <glyph glyph-name="afii10078" unicode="&#x43c;" horiz-adv-x="643" 
d="M592 0h-108l-15 295l-112 -292h-73l-113 292l-13 -295h-106l28 449h133l113 -287l116 287h125z" />
    <glyph glyph-name="afii10079" unicode="&#x43d;" horiz-adv-x="505" 
d="M443 0h-110v196h-162v-196h-110v449h110v-165h162v165h110v-449z" />
    <glyph glyph-name="afii10080" unicode="&#x43e;" horiz-adv-x="552" 
d="M283 463q104 0 165 -61.5t61 -170.5t-67.5 -177t-175.5 -68q-102 0 -162.5 62t-60.5 167q0 109 66.5 178.5t173.5 69.5zM277 376q-54 0 -85 -39t-31 -114t30 -113t85 -38q53 0 83.5 38.5t30.5 113.5q0 76 -29.5 114t-83.5 38z" />
    <glyph glyph-name="afii10081" unicode="&#x43f;" horiz-adv-x="505" 
d="M443 0h-110v361h-162v-361h-109v449h381v-449z" />
    <glyph glyph-name="afii10082" unicode="&#x440;" horiz-adv-x="543" 
d="M62 435l109 18v-40q67 50 148 50q84 0 132 -56t48 -158q0 -116 -61 -189.5t-170 -73.5q-56 0 -97 18v-247h-109v678zM280 355q-59 0 -109 -25v-158q2 -42 29.5 -67t77.5 -25q52 0 83 37.5t31 99.5q0 64 -28.5 101t-83.5 37z" />
    <glyph glyph-name="afii10083" unicode="&#x441;" horiz-adv-x="428" 
d="M397 445v-111q-67 31 -132 31q-56 0 -85.5 -35.5t-29.5 -95.5q0 -66 34.5 -105.5t96.5 -39.5q60 0 116 27v-88q-72 -42 -151 -42q-92 0 -147.5 58t-55.5 164q0 114 64.5 184.5t170.5 70.5q60 0 119 -18z" />
    <glyph glyph-name="afii10084" unicode="&#x442;" horiz-adv-x="412" 
d="M261 0h-110v364l-148 -10v95h406v-95l-148 10v-364z" />
    <glyph glyph-name="afii10085" unicode="&#x443;" horiz-adv-x="443" 
d="M3 449h122l104 -322l103 322h108l-168 -450q-49 -130 -115.5 -185.5t-180.5 -56.5l20 106q73 0 105 26.5t59 97.5l5 13z" />
    <glyph glyph-name="afii10086" unicode="&#x444;" horiz-adv-x="668" 
d="M389 -243h-110v231q-112 9 -174 68.5t-62 156.5q0 95 64 161.5t172 83.5v311l110 18v-326q111 -10 173.5 -69t62.5 -157q0 -95 -64.5 -160.5t-171.5 -82.5v-235zM166 227q0 -128 113 -155v305q-113 -24 -113 -150zM499 222q0 127 -110 153v-305q110 23 110 152z" />
    <glyph glyph-name="afii10087" unicode="&#x445;" horiz-adv-x="474" 
d="M331 448h122l-162 -212l175 -236h-133l-102 153l-104 -153h-120l173 227l-163 221h134l88 -137z" />
    <glyph glyph-name="afii10088" unicode="&#x446;" horiz-adv-x="557" 
d="M530 -163h-96v163h-372v449h109v-359h162v359h110v-359h105z" />
    <glyph glyph-name="afii10089" unicode="&#x447;" horiz-adv-x="498" 
d="M436 0h-110v185q-30 -37 -70.5 -57.5t-81.5 -20.5q-120 0 -120 150v192h110v-165q0 -41 15 -60t48 -19q42 0 70.5 33t28.5 77v134h110v-449z" />
    <glyph glyph-name="afii10090" unicode="&#x448;" horiz-adv-x="759" 
d="M698 0h-636v449h109v-359h154v359h109v-359h154v359h110v-449z" />
    <glyph glyph-name="afii10091" unicode="&#x449;" horiz-adv-x="811" 
d="M785 -163h-96v163h-627v449h109v-359h154v359h109v-359h154v359h110v-359h105z" />
    <glyph glyph-name="afii10092" unicode="&#x44a;" horiz-adv-x="517" 
d="M3 449h231v-145q28 4 58 4q93 0 139 -40t46 -99q0 -68 -53.5 -118.5t-155.5 -50.5h-143v364l-122 -10v95zM234 230v-151q20 -3 39 -3q40 0 65.5 19.5t25.5 55.5q0 81 -100 81q-8 0 -30 -2z" />
    <glyph glyph-name="afii10093" unicode="&#x44b;" horiz-adv-x="645" 
d="M61 449h110v-145q31 3 57 3q93 0 139.5 -39.5t46.5 -99.5q0 -63 -48 -112t-136 -55q-20 -1 -61 -1h-108v449zM171 229v-151q18 -3 38 -3q42 0 67 19t25 56q0 81 -101 81q-19 0 -29 -2zM473 449h110v-449h-110v449z" />
    <glyph glyph-name="afii10094" unicode="&#x44c;" horiz-adv-x="454" 
d="M62 449h110v-145q32 3 57 3q93 0 139 -39.5t46 -99.5q0 -63 -47.5 -112t-135.5 -55q-20 -1 -62 -1h-107v449zM172 229v-151q16 -3 37 -3q42 0 67 19t25 56q0 81 -100 81q-19 0 -29 -2z" />
    <glyph glyph-name="afii10095" unicode="&#x44d;" horiz-adv-x="430" 
d="M33 333v87q71 43 151 43q92 0 147.5 -58.5t55.5 -164.5q0 -114 -64.5 -184t-170.5 -70q-65 0 -119 18v111q64 -31 132 -31q47 0 76.5 29t36.5 76l-163 -7v98l160 -8q-19 90 -122 90q-59 0 -120 -29z" />
    <glyph glyph-name="afii10096" unicode="&#x44e;" horiz-adv-x="726" 
d="M475 462q98 0 152.5 -59t54.5 -168t-65.5 -179t-167.5 -70q-89 0 -141.5 56t-56.5 154h-80v-196h-110v449h110v-165h89q20 80 78.5 129t136.5 49zM459 375q-97 0 -97 -148q0 -75 28.5 -114.5t76.5 -39.5q98 0 98 146q0 75 -29.5 115.5t-76.5 40.5z" />
    <glyph glyph-name="afii10097" unicode="&#x44f;" horiz-adv-x="471" 
d="M4 -14l16 104q83 3 155 77q-52 11 -82.5 43.5t-30.5 84.5q0 61 48 107t140 46h159v-448h-110v169q-19 -4 -25 -5q-90 -159 -270 -178zM299 236v129q-16 2 -40 2q-34 0 -57.5 -16t-23.5 -51q0 -68 80 -68q15 0 41 4z" />
    <glyph glyph-name="afii10071" unicode="&#x451;" horiz-adv-x="468" 
d="M431 218h-281q5 -131 135 -131q72 0 135 30v-89q-70 -42 -157 -42q-102 0 -161 56t-59 170q0 107 62.5 179t166.5 72q80 0 122 -49.5t42 -139.5q0 -11 -5 -56zM169 641q23 0 39 -16.5t16 -42.5t-16 -43t-39 -17q-24 0 -40 17t-16 43t16 42.5t40 16.5zM356 641
q24 0 39.5 -16.5t15.5 -42.5t-16 -43t-39 -17q-24 0 -40 17t-16 43t16 42.5t40 16.5zM258 376q-77 0 -100 -80l172 8q0 72 -72 72z" />
    <glyph glyph-name="afii10099" unicode="&#x452;" horiz-adv-x="509" 
d="M241 551h-70v-172q30 38 73.5 61t83.5 23q119 0 119 -152v-292q0 -255 -228 -263l21 112q58 1 78 25.5t20 94.5v296q0 79 -67 79q-43 0 -71.5 -32.5t-28.5 -77.5v-253h-109v551h-46v69h46v149l109 18v-167h70v-69z" />
    <glyph glyph-name="afii10100" unicode="&#x453;" horiz-adv-x="352" 
d="M226 690h121l-145 -176l-72 7zM171 0h-109v449h287v-96l-178 11v-364z" />
    <glyph glyph-name="afii10101" unicode="&#x454;" horiz-adv-x="430" 
d="M277 462q66 0 120 -18v-111q-64 31 -132 31q-44 0 -72.5 -25t-38.5 -68l163 9v-98l-164 8q16 -103 122 -103q63 0 122 28v-87q-74 -42 -151 -42q-92 0 -147.5 58t-55.5 164q0 113 64.5 183.5t169.5 70.5z" />
    <glyph glyph-name="afii10102" unicode="&#x455;" horiz-adv-x="385" 
d="M322 446v-101q-49 26 -102 26q-31 0 -46.5 -12t-15.5 -31q0 -18 20 -30.5t48 -22.5t56 -23t48 -39.5t20 -64.5q0 -74 -51.5 -118t-134.5 -44q-63 0 -112 20v105q59 -34 121 -34q66 0 66 49q0 20 -30 36t-65.5 28t-65.5 43.5t-30 78.5q0 65 51.5 108t131.5 43q49 0 91 -17
z" />
    <glyph glyph-name="afii10103" unicode="&#x456;" horiz-adv-x="235" 
d="M63 435l110 18v-453h-110v435zM53 603q0 27 18.5 45t46.5 18q27 0 45 -18t18 -45q0 -28 -18 -46.5t-45 -18.5q-28 0 -46.5 18.5t-18.5 46.5z" />
    <glyph glyph-name="afii10104" unicode="&#x457;" horiz-adv-x="229" 
d="M22 641q23 0 39 -16.5t16 -42.5t-16 -43t-39 -17q-24 0 -40 17t-16 43t16 42.5t40 16.5zM209 641q24 0 39.5 -16.5t15.5 -42.5t-16 -43t-39 -17q-24 0 -40 17t-16 43t16 42.5t40 16.5zM63 435l104 18v-453h-104v435z" />
    <glyph glyph-name="afii10105" unicode="&#x458;" horiz-adv-x="234" 
d="M62 435l110 18v-434q0 -254 -229 -263l21 112q58 1 78 25.5t20 94.5v447zM53 603q0 27 18.5 45t46.5 18q27 0 45 -18t18 -45q0 -28 -18 -46.5t-45 -18.5q-28 0 -46.5 18.5t-18.5 46.5z" />
    <glyph glyph-name="afii10106" unicode="&#x459;" horiz-adv-x="744" 
d="M149 449h312v-145q28 4 58 4q93 0 139 -40t46 -99q0 -68 -53.5 -118.5t-155.5 -50.5h-144v358h-95q-9 -180 -76 -273.5t-175 -98.5l21 112q40 1 65 32t40 108.5t18 210.5zM461 230v-151q19 -3 38 -3q41 0 66.5 19.5t25.5 55.5q0 81 -100 81q-8 0 -30 -2z" />
    <glyph glyph-name="afii10107" unicode="&#x45a;" horiz-adv-x="726" 
d="M62 449h109v-154h162v154h110v-148q28 4 58 4q94 0 139.5 -38.5t45.5 -97.5q0 -68 -53.5 -118.5t-155.5 -50.5h-144v206h-162v-206h-109v449zM443 227v-148q18 -3 38 -3q41 0 66.5 19.5t25.5 55.5q0 78 -101 78q-9 0 -29 -2z" />
    <glyph glyph-name="afii10108" unicode="&#x45b;" horiz-adv-x="509" 
d="M17 620h45v149l109 18v-167h71v-69h-71v-172q30 38 73.5 61t83.5 23q119 0 119 -152v-311h-109v284q0 79 -67 79q-43 0 -71.5 -32.5t-28.5 -77.5v-253h-109v551h-45v69z" />
    <glyph glyph-name="afii10109" unicode="&#x45c;" horiz-adv-x="486" 
d="M289 690h121l-145 -176l-72 7zM171 0h-109v449h109v-449zM488 0h-142q-23 49 -74.5 118.5t-97.5 106.5l156 224h139l-178 -198q49 -39 108 -116t89 -135z" />
    <glyph glyph-name="afii10110" unicode="&#x45e;" horiz-adv-x="443" 
d="M295 653l88 -4q-1 -132 -149 -132q-149 0 -150 132l92 4q1 -37 13.5 -55t46.5 -18q33 0 45 17.5t14 55.5zM3 449h122l104 -322l103 322h108l-168 -450q-49 -130 -115.5 -185.5t-180.5 -56.5l20 106q73 0 105 26.5t59 97.5l5 13z" />
    <glyph glyph-name="afii10193" unicode="&#x45f;" horiz-adv-x="508" 
d="M288 -178h-67l-21 178h-138v449h109v-361h166v361h110v-449h-138z" />
    <glyph glyph-name="afii10050" unicode="&#x490;" horiz-adv-x="484" 
d="M200 0h-123v690h301l21 103h80v-212l-279 15v-596z" />
    <glyph glyph-name="afii10098" unicode="&#x491;" horiz-adv-x="352" 
d="M61 449h197l18 100h73v-197l-178 12v-364h-110v449z" />
    <glyph glyph-name="Wgrave" unicode="&#x1e80;" horiz-adv-x="991" 
d="M7 690h140l149 -525l153 525h113l154 -525l141 525h127l-223 -690h-123l-150 477l-146 -477h-117zM358 875h113l100 -150l-70 -8z" />
    <glyph glyph-name="wgrave" unicode="&#x1e81;" horiz-adv-x="707" 
d="M3 449h125l89 -314l102 314h86l102 -314l88 314h109l-152 -449h-107l-93 285l-97 -285h-106zM207 690h121l96 -169l-72 -7z" />
    <glyph glyph-name="Wacute" unicode="&#x1e82;" horiz-adv-x="991" 
d="M7 690h140l149 -525l153 525h113l154 -525l141 525h127l-223 -690h-123l-150 477l-146 -477h-117zM526 875h113l-142 -158l-70 8z" />
    <glyph glyph-name="wacute" unicode="&#x1e83;" horiz-adv-x="707" 
d="M3 449h125l89 -314l102 314h86l102 -314l88 314h109l-152 -449h-107l-93 285l-97 -285h-106zM362 690h121l-145 -176l-72 7z" />
    <glyph glyph-name="Wdieresis" unicode="&#x1e84;" horiz-adv-x="991" 
d="M7 690h140l149 -525l153 525h113l154 -525l141 525h127l-223 -690h-123l-150 477l-146 -477h-117zM354 786q0 24 16.5 39t40.5 15q23 0 39.5 -15.5t16.5 -38.5q0 -24 -16.5 -40t-39.5 -16q-24 0 -40.5 16t-16.5 40zM545 786q0 24 16.5 39t40.5 15t40.5 -15t16.5 -39
t-16.5 -40t-40.5 -16t-40.5 16t-16.5 40z" />
    <glyph glyph-name="wdieresis" unicode="&#x1e85;" horiz-adv-x="707" 
d="M3 449h125l89 -314l102 314h86l102 -314l88 314h109l-152 -449h-107l-93 285l-97 -285h-106zM260 641q23 0 39 -16.5t16 -42.5t-16 -43t-39 -17q-24 0 -40 17t-16 43t16 42.5t40 16.5zM447 641q24 0 39.5 -16.5t15.5 -42.5t-16 -43t-39 -17q-24 0 -40 17t-16 43t16 42.5
t40 16.5z" />
    <glyph glyph-name="Ygrave" unicode="&#x1ef2;" horiz-adv-x="645" 
d="M-3 690h160l176 -291l173 291h142l-263 -392v-298h-122v288zM193 875h113l100 -150l-70 -8z" />
    <glyph glyph-name="ygrave" unicode="&#x1ef3;" horiz-adv-x="443" 
d="M3 449h122l104 -322l103 322h108l-168 -450q-49 -130 -115.5 -185.5t-180.5 -56.5l20 106q73 0 105 26.5t59 97.5l5 13zM91 690h121l96 -169l-72 -7z" />
    <glyph glyph-name="endash" unicode="&#x2013;" horiz-adv-x="624" 
d="M28 298h569v-92h-569v92z" />
    <glyph glyph-name="emdash" unicode="&#x2014;" horiz-adv-x="1007" 
d="M33 298h941v-92h-941v92z" />
    <glyph glyph-name="afii00208" unicode="&#x2015;" horiz-adv-x="1007" 
d="M33 298h941v-92h-941v92z" />
    <glyph glyph-name="quoteleft" unicode="&#x2018;" horiz-adv-x="245" 
d="M132 804l71 -14q-38 -129 -42 -246h-119q19 117 90 260z" />
    <glyph glyph-name="quoteright" unicode="&#x2019;" horiz-adv-x="245" 
d="M84 785h119q-18 -111 -90 -260l-71 14q38 131 42 246z" />
    <glyph glyph-name="quotesinglbase" unicode="&#x201a;" horiz-adv-x="245" 
d="M84 98h119q-18 -111 -90 -260l-71 14q38 131 42 246z" />
    <glyph glyph-name="quotedblleft" unicode="&#x201c;" horiz-adv-x="430" 
d="M317 804l71 -14q-38 -127 -43 -246h-118q19 117 90 260zM133 804l70 -14q-38 -135 -42 -246h-119q20 119 91 260z" />
    <glyph glyph-name="quotedblright" unicode="&#x201d;" horiz-adv-x="430" 
d="M85 785h118q-19 -117 -90 -260l-71 14q38 129 43 246zM270 785h118q-20 -119 -91 -260l-70 14q38 129 43 246z" />
    <glyph glyph-name="quotedblbase" unicode="&#x201e;" horiz-adv-x="430" 
d="M85 98h118q-19 -117 -90 -260l-71 14q38 129 43 246zM270 98h118q-20 -119 -91 -260l-70 14q38 129 43 246z" />
    <glyph glyph-name="dagger" unicode="&#x2020;" horiz-adv-x="603" 
d="M244 700h116l-7 -258l227 8v-116l-226 9l-5 -586h-93l-7 586l-226 -9v116l227 -8z" />
    <glyph glyph-name="daggerdbl" unicode="&#x2021;" horiz-adv-x="603" 
d="M244 700h116l-7 -258l227 8v-116l-226 9l-2 -163l188 8v-113l-188 10l-3 -328h-93l-4 328l-192 -10v113l191 -8l-2 163l-226 -9v116l227 -8z" />
    <glyph glyph-name="bullet" unicode="&#x2022;" horiz-adv-x="465" 
d="M53 276q0 75 52.5 127t127.5 52q74 0 126.5 -52t52.5 -127q0 -74 -52.5 -126.5t-126.5 -52.5t-127 52.5t-53 126.5z" />
    <glyph glyph-name="ellipsis" unicode="&#x2026;" horiz-adv-x="1094" 
d="M118 61q0 29 21.5 50t51.5 21q29 0 49.5 -21t20.5 -50t-21 -50.5t-49 -21.5q-30 0 -51.5 21.5t-21.5 50.5zM475 61q0 29 21.5 50t51.5 21q29 0 49.5 -21t20.5 -50t-21 -50.5t-49 -21.5q-30 0 -51.5 21.5t-21.5 50.5zM832 61q0 29 21.5 50t51.5 21q29 0 49.5 -21t20.5 -50
t-21 -50.5t-49 -21.5q-30 0 -51.5 21.5t-21.5 50.5z" />
    <glyph glyph-name="perthousand" unicode="&#x2030;" horiz-adv-x="1201" 
d="M208 700q79 0 121 -48t42 -131q0 -82 -49 -135.5t-125 -53.5q-79 0 -121.5 47.5t-42.5 129.5q0 84 49 137.5t126 53.5zM200 615q-63 0 -63 -96q0 -100 68 -100q32 0 47 23t15 72q0 101 -67 101zM622 354q78 0 120.5 -48t42.5 -131q0 -82 -49.5 -135.5t-125.5 -53.5
q-79 0 -121 47t-42 130q0 84 49 137.5t126 53.5zM614 268q-33 0 -48 -22.5t-15 -72.5q0 -100 67 -100q33 0 48 22.5t15 72.5q0 100 -67 100zM1005 354q79 0 121 -48t42 -131q0 -82 -49 -135.5t-125 -53.5q-79 0 -121.5 47.5t-42.5 129.5q0 84 49 137.5t126 53.5zM997 268
q-32 0 -47 -23t-15 -72q0 -100 67 -100q33 0 47.5 22.5t14.5 72.5q0 100 -67 100zM608 690h115l-512 -690h-115z" />
    <glyph glyph-name="minute" unicode="&#x2032;" horiz-adv-x="198" 
d="M44 785h118l-55 -233h-68z" />
    <glyph glyph-name="second" unicode="&#x2033;" horiz-adv-x="367" 
d="M44 785h118l-55 -233h-68zM213 785h118l-55 -233h-67z" />
    <glyph glyph-name="guilsinglleft" unicode="&#x2039;" horiz-adv-x="324" 
d="M39 290l206 156l41 -70l-140 -128l140 -127l-41 -75l-206 157v87z" />
    <glyph glyph-name="guilsinglright" unicode="&#x203a;" horiz-adv-x="324" 
d="M80 446l206 -157v-87l-206 -156l-41 71l139 128l-139 127z" />
    <glyph glyph-name="fraction" unicode="&#x2044;" horiz-adv-x="187" 
d="M292 690h115l-512 -690h-115z" />
    <glyph glyph-name="fraction" unicode="&#x2215;" horiz-adv-x="187" 
d="M292 690h115l-512 -690h-115z" />
    <glyph glyph-name="Euro" unicode="&#x20ac;" 
d="M29 471h72q31 106 100.5 167.5t161.5 61.5q60 0 114 -20v-130q-58 37 -124 37q-107 0 -138 -116h188l-20 -81h-180v-35q0 -31 1 -45h171l-20 -81h-138q35 -125 153 -125q54 0 107 30v-101q-70 -47 -148 -47q-99 0 -163 61.5t-81 181.5h-56v81h51v6q0 42 4 74h-55v81z" />
    <glyph glyph-name="afii61352" unicode="&#x2116;" horiz-adv-x="1110" 
d="M77 690h155l262 -445v445h110v-690h-98l-319 539v-539h-110v690zM670 208h371v-89h-371v89zM853 622q-49 0 -77 -31t-28 -87q0 -61 31 -98t83 -37q50 0 77.5 30.5t27.5 86.5q0 60 -31 98t-83 38zM870 700q86 0 134.5 -55t48.5 -137q0 -89 -58 -153t-154 -64
q-84 0 -130.5 54t-46.5 137q0 89 56.5 153.5t149.5 64.5z" />
    <glyph glyph-name="trademark" unicode="&#x2122;" horiz-adv-x="627" 
d="M33 690h202v-66l-67 6v-160h-68v160l-67 -6v66zM274 690h90l47 -131l50 131h89l14 -220h-71l-9 132l-50 -129h-52l-49 130l-9 -133h-67z" />
    <glyph glyph-name="estimated" unicode="&#x212e;" horiz-adv-x="660" 
d="M622 356h-457v-2q0 -126 63 -192.5t174 -66.5q95 0 192 41v-104q-106 -46 -223 -46q-159 0 -244 90.5t-85 255.5q0 98 36.5 180t114 135t183.5 53q115 0 183 -81.5t68 -211.5q0 -26 -5 -51zM353 612q-71 0 -118 -50t-63 -131l325 10q0 72 -33.5 121.5t-110.5 49.5z" />
    <glyph glyph-name="onethird" unicode="&#x2153;" horiz-adv-x="783" 
d="M577 690h115l-512 -690h-115zM33 652l172 58v-345h56v-65h-202v65h62v241l-88 -40v86zM504 314v79q54 13 114 13q59 0 89.5 -23.5t30.5 -64.5q0 -58 -61 -94q73 -27 73 -98q0 -57 -43 -95.5t-114 -38.5q-49 0 -89 15v87q52 -26 94 -26q60 0 60 48q0 27 -20 44t-59 17
q-23 0 -39 -3v67q113 0 113 50q0 44 -59 44q-42 0 -90 -21z" />
    <glyph glyph-name="twothirds" unicode="&#x2154;" horiz-adv-x="803" 
d="M609 690h115l-512 -690h-115zM139 535l-75 -48q-27 43 -27 85q0 57 39.5 95.5t105.5 38.5q53 0 82.5 -29t29.5 -82q0 -59 -41.5 -118t-112.5 -110l157 9v-76h-264v54q169 117 169 222q0 31 -14 45.5t-34 14.5q-17 0 -28.5 -12.5t-11.5 -31.5q0 -31 25 -57zM524 314v79
q54 13 114 13q59 0 89.5 -23.5t30.5 -64.5q0 -58 -61 -94q73 -27 73 -98q0 -57 -43 -95.5t-114 -38.5q-49 0 -89 15v87q52 -26 94 -26q60 0 60 48q0 27 -20 44t-59 17q-23 0 -39 -3v67q113 0 113 50q0 44 -59 44q-42 0 -90 -21z" />
    <glyph glyph-name="oneeighth" unicode="&#x215b;" horiz-adv-x="759" 
d="M577 690h115l-512 -690h-115zM38 652l172 58v-345h56v-65h-202v65h62v241l-88 -40v86zM531 199q-63 40 -63 92t40 83.5t98 31.5q44 0 76 -22.5t32 -64.5q0 -53 -72 -102q39 -24 61.5 -49.5t22.5 -59.5q0 -53 -44.5 -84.5t-106.5 -31.5q-51 0 -85.5 24.5t-34.5 70.5
q0 59 76 112zM574 170q-37 -35 -37 -67q0 -46 53 -46q20 0 33.5 10t13.5 30q0 15 -10.5 29.5t-21.5 22.5t-31 21zM599 248q38 32 38 60q0 19 -13 28.5t-32 9.5q-17 0 -28.5 -10t-11.5 -27q0 -29 47 -61z" />
    <glyph glyph-name="threeeighths" unicode="&#x215c;" horiz-adv-x="734" 
d="M551 690h115l-512 -690h-115zM506 199q-63 40 -63 92t40 83.5t98 31.5q44 0 76 -22.5t32 -64.5q0 -53 -72 -102q39 -24 61.5 -49.5t22.5 -59.5q0 -53 -44.5 -84.5t-106.5 -31.5q-51 0 -85.5 24.5t-34.5 70.5q0 59 76 112zM549 170q-37 -35 -37 -67q0 -46 53 -46
q20 0 33.5 10t13.5 30q0 15 -10.5 29.5t-21.5 22.5t-31 21zM574 248q38 32 38 60q0 19 -13 28.5t-32 9.5q-17 0 -28.5 -10t-11.5 -27q0 -29 47 -61zM40 614v79q54 13 114 13q59 0 89.5 -23.5t30.5 -64.5q0 -58 -61 -94q73 -27 73 -98q0 -57 -43 -95.5t-114 -38.5
q-49 0 -89 15v87q52 -26 94 -26q60 0 60 48q0 27 -20 44t-59 17q-23 0 -39 -3v67q113 0 113 50q0 44 -59 44q-42 0 -90 -21z" />
    <glyph glyph-name="fiveeighths" unicode="&#x215d;" horiz-adv-x="735" 
d="M545 690h115l-512 -690h-115zM75 700l204 9v-77h-137l-3 -43q147 -19 147 -130q0 -67 -57 -117t-166 -50l4 74q143 0 143 74q0 79 -146 79zM507 199q-63 40 -63 92t40 83.5t98 31.5q44 0 76 -22.5t32 -64.5q0 -53 -72 -102q39 -24 61.5 -49.5t22.5 -59.5
q0 -53 -44.5 -84.5t-106.5 -31.5q-51 0 -85.5 24.5t-34.5 70.5q0 59 76 112zM550 170q-37 -35 -37 -67q0 -46 53 -46q20 0 33.5 10t13.5 30q0 15 -10.5 29.5t-21.5 22.5t-31 21zM575 248q38 32 38 60q0 19 -13 28.5t-32 9.5q-17 0 -28.5 -10t-11.5 -27q0 -29 47 -61z" />
    <glyph glyph-name="seveneighths" unicode="&#x215e;" horiz-adv-x="732" 
d="M545 690h115l-512 -690h-115zM504 199q-63 40 -63 92t40 83.5t98 31.5q44 0 76 -22.5t32 -64.5q0 -53 -72 -102q39 -24 61.5 -49.5t22.5 -59.5q0 -53 -44.5 -84.5t-106.5 -31.5q-51 0 -85.5 24.5t-34.5 70.5q0 59 76 112zM547 170q-37 -35 -37 -67q0 -46 53 -46
q20 0 33.5 10t13.5 30q0 15 -10.5 29.5t-21.5 22.5t-31 21zM572 248q38 32 38 60q0 19 -13 28.5t-32 9.5q-17 0 -28.5 -10t-11.5 -27q0 -29 47 -61zM78 700h270v-62l-148 -347l-59 10l110 328l-173 -7v78z" />
    <glyph glyph-name="arrowleft" unicode="&#x2190;" horiz-adv-x="852" 
d="M342 2l-284 283l284 283l94 -65l-202 -173h559v-92h-558l201 -172z" />
    <glyph glyph-name="arrowup" unicode="&#x2191;" horiz-adv-x="683" 
d="M58 369l284 284l283 -284l-65 -95l-173 203v-559h-92v558l-172 -202z" />
    <glyph glyph-name="arrowright" unicode="&#x2192;" horiz-adv-x="852" 
d="M509 567l284 -283l-284 -283l-95 64l203 173h-559v92h560l-203 173z" />
    <glyph glyph-name="arrowdown" unicode="&#x2193;" horiz-adv-x="684" 
d="M625 200l-283 -282l-284 282l65 94l172 -201v559h92v-560l173 202z" />
    <glyph glyph-name="arrowboth" unicode="&#x2194;" horiz-adv-x="940" 
d="M882 285l-284 -283l-95 64l202 172h-470l202 -172l-95 -64l-284 283l284 283l95 -65l-203 -173h472l-202 173l94 65z" />
    <glyph glyph-name="arrowupdn" unicode="&#x2195;" horiz-adv-x="684" 
d="M342 -127l-284 283l66 95l171 -202v471l-171 -202l-65 95l283 283l283 -283l-64 -95l-173 203v-473l173 203l65 -94z" />
    <glyph glyph-name="arrowupdnbse" unicode="&#x21a8;" horiz-adv-x="683" 
d="M342 -10l-284 284l65 95l172 -202v470l-172 -202l-65 95l284 284l283 -284l-65 -95l-173 203v-473l173 204l65 -95zM84 -38h515v-94h-515v94z" />
    <glyph glyph-name="partialdiff" unicode="&#x2202;" horiz-adv-x="547" 
d="M216 762l116 39q74 -76 124.5 -205t50.5 -270q0 -169 -65.5 -254.5t-184.5 -85.5q-101 0 -157.5 61.5t-56.5 167.5q0 109 62 178t160 69q89 0 140 -54q-14 90 -67.5 191t-121.5 163zM279 375q-55 0 -86.5 -37.5t-31.5 -111.5q0 -76 30 -114.5t84 -38.5t84.5 42t30.5 126
q0 134 -111 134z" />
    <glyph glyph-name="product" unicode="&#x220f;" horiz-adv-x="687" 
d="M77 690h539v-690h-123v591h-293v-591h-123v690z" />
    <glyph glyph-name="summation" unicode="&#x2211;" horiz-adv-x="605" 
d="M51 690h507v-115l-348 12l175 -226l-194 -259l379 13v-115h-536v97l197 264l-180 232v97z" />
    <glyph glyph-name="minus" unicode="&#x2212;" 
d="M21 298h463v-92h-463v92z" />
    <glyph glyph-name="radical" unicode="&#x221a;" horiz-adv-x="610" 
d="M3 497h174l102 -360l162 553h195v-101h-110l-181 -589h-145l-123 395h-74v102z" />
    <glyph glyph-name="infinity" unicode="&#x221e;" horiz-adv-x="738" 
d="M563 537q71 -3 107.5 -52t36.5 -122q0 -87 -49.5 -156t-128.5 -69q-53 0 -92 33t-78 92q-44 -59 -86.5 -92t-97.5 -33q-72 0 -108 48t-36 122q0 89 49 159t129 70q53 0 93 -34.5t80 -95.5q46 62 87 96t94 34zM198 242q61 0 122 80q-33 50 -62 76.5t-65 26.5
q-39 0 -59.5 -25t-20.5 -62q0 -39 22.5 -67.5t62.5 -28.5zM539 432q-57 0 -119 -83q32 -48 60.5 -73.5t64.5 -25.5q39 0 60 25t21 61q0 39 -23 67.5t-64 28.5z" />
    <glyph glyph-name="integral" unicode="&#x222b;" horiz-adv-x="426" 
d="M373 786v-111q-19 6 -37 6q-73 0 -73 -104v-558q0 -254 -229 -263l22 112q58 1 77.5 25.5t19.5 94.5v570q0 105 50.5 167t142.5 62q4 0 13.5 -0.5t13.5 -0.5z" />
    <glyph glyph-name="approxequal" unicode="&#x2248;" 
d="M110 286l-59 12q7 61 38 102.5t80 41.5q34 0 68 -22.5t62 -45t48 -22.5q24 0 35.5 18.5t12.5 45.5l60 -10q-7 -65 -39 -103.5t-79 -38.5q-32 0 -65 22.5t-61 45t-47 22.5q-28 0 -39 -18t-15 -50zM110 98l-59 11q7 62 38 103t80 41q34 0 68 -22.5t62 -45t48 -22.5
q24 0 35.5 18.5t12.5 45.5l60 -10q-7 -65 -39 -103.5t-79 -38.5q-32 0 -65 22.5t-61 45.5t-47 23q-28 0 -39 -18t-15 -50z" />
    <glyph glyph-name="notequal" unicode="&#x2260;" 
d="M21 197h157l77 110h-234v92h298l57 81h85l-57 -81h80v-92h-144l-77 -110h221v-93h-286l-67 -96h-85l67 96h-92v93z" />
    <glyph glyph-name="lessequal" unicode="&#x2264;" 
d="M51 429l370 193l29 -74l-270 -157l270 -156l-29 -78l-370 194v78zM21 92h463v-92h-463v92z" />
    <glyph glyph-name="greaterequal" unicode="&#x2265;" 
d="M80 622l370 -194v-78l-370 -193l-29 74l270 157l-270 156zM21 92h463v-92h-463v92z" />
    <glyph glyph-name="lozenge" unicode="&#x25ca;" horiz-adv-x="501" 
d="M199 703h113l166 -442l-176 -450h-113l-166 438zM249 573l-107 -314l110 -318l108 314z" />
    <glyph glyph-name="dotlessj" unicode="&#xf6be;" horiz-adv-x="227" 
d="M62 435l104 18v-434q0 -122 -51.5 -190t-171.5 -73l21 107q58 1 78 27.5t20 97.5v447z" />
    <glyph glyph-name="commaaccent" unicode="&#xf6c3;" horiz-adv-x="249" 
d="M88 -57h110q-25 -107 -84 -185l-62 19q30 72 36 166z" />
    <glyph glyph-name="Acute" unicode="&#xf6c9;" horiz-adv-x="317" 
d="M152 875h113l-142 -158l-70 8z" />
    <glyph glyph-name="Caron" unicode="&#xf6ca;" horiz-adv-x="402" 
d="M52 879l66 8l86 -90l85 90l63 -8l-106 -157h-89z" />
    <glyph glyph-name="Dieresis" unicode="&#xf6cb;" horiz-adv-x="404" 
d="M51 786q0 24 16.5 39t40.5 15q23 0 39.5 -15.5t16.5 -38.5q0 -24 -16.5 -40t-39.5 -16q-24 0 -40.5 16t-16.5 40zM242 786q0 24 16.5 39t40.5 15t40.5 -15t16.5 -39t-16.5 -40t-40.5 -16t-40.5 16t-16.5 40z" />
    <glyph glyph-name="Grave" unicode="&#xf6ce;" horiz-adv-x="317" 
d="M53 875h113l100 -150l-70 -8z" />
    <glyph glyph-name="Hungarumlaut" unicode="&#xf6cf;" horiz-adv-x="438" 
d="M143 875h93l-121 -145l-62 3zM292 875h93l-121 -145l-61 3z" />
    <glyph glyph-name="Macron" unicode="&#xf6d0;" horiz-adv-x="331" 
d="M51 823h231v-69h-231v69z" />
    <glyph glyph-name="Etilde" horiz-adv-x="519" 
d="M77 690h402v-109l-279 15v-199l234 15v-110l-234 15v-223l279 15v-109h-402v690zM168 728l-46 6q5 59 31.5 93t71.5 34q39 0 76 -29.5t57 -29.5q38 0 43 56l46 -3q-4 -63 -31.5 -94t-71.5 -31q-36 0 -72.5 29t-55.5 29q-24 0 -34.5 -15t-13.5 -45z" />
    <glyph glyph-name="etilde" horiz-adv-x="468" 
d="M431 218h-281q5 -131 135 -131q72 0 135 30v-89q-70 -42 -157 -42q-102 0 -161 56t-59 170q0 107 62.5 179t166.5 72q80 0 122 -49.5t42 -139.5q0 -11 -5 -56zM148 519l-48 6q14 124 104 124q30 0 50.5 -15.5t36 -30.5t31.5 -15q38 0 40 55l48 -4q-6 -63 -33 -93t-70 -30
q-28 0 -48.5 16t-35.5 31.5t-30 15.5q-22 0 -32 -15t-13 -45zM258 376q-77 0 -100 -80l172 8q0 72 -72 72z" />
    <glyph glyph-name="gacute" horiz-adv-x="526" 
d="M126 154q-67 43 -67 127q0 78 57 130t145 52q50 0 87 -14h169v-95l-89 13q11 -31 11 -71q0 -76 -58 -126.5t-146 -50.5q-29 0 -63 8q-26 -19 -26 -44q0 -28 45 -28q23 0 82.5 3.5t99.5 3.5q142 0 142 -109q0 -91 -87 -150.5t-226 -59.5q-90 0 -136 25.5t-46 71.5
q0 37 29.5 72t75.5 53q-42 4 -64.5 25t-22.5 50q0 28 24.5 60.5t63.5 53.5zM189 -37q-22 -10 -38.5 -30.5t-16.5 -42.5q0 -27 22.5 -39t76.5 -12q73 0 117 22t44 58q0 49 -65 49q-26 0 -72.5 -2.5t-67.5 -2.5zM248 383q-82 0 -82 -91q0 -46 22.5 -70.5t61.5 -24.5
q83 0 83 92q0 46 -22 70t-63 24zM263 690h121l-145 -176l-72 7z" />
    <glyph glyph-name="iacute_jacute" horiz-adv-x="462" 
d="M63 435l110 18v-453h-110v435zM291 435l109 18v-434q0 -253 -228 -263l21 112q58 2 78 26t20 94v447zM367 690h121l-145 -176l-72 7zM135 690h121l-145 -176l-72 7z" />
    <glyph glyph-name="zero.slash" 
d="M257 700q110 0 166.5 -98t56.5 -256q0 -152 -64 -256t-168 -104q-110 0 -166.5 97t-56.5 253q0 154 64 259t168 105zM250 605q-38 0 -61 -38l155 -369q11 57 11 138q0 120 -28 194.5t-77 74.5zM254 81q36 0 59 35l-154 368q-11 -51 -11 -139q0 -119 28.5 -191.5
t77.5 -72.5z" />
    <glyph glyph-name="zero.tab" 
d="M257 700q110 0 166.5 -98t56.5 -256q0 -152 -64 -256t-168 -104q-110 0 -166.5 97t-56.5 253q0 154 64 259t168 105zM250 605q-47 0 -74.5 -64t-27.5 -196q0 -119 28.5 -191.5t77.5 -72.5q47 0 74 62t27 193q0 120 -28 194.5t-77 74.5z" />
    <glyph glyph-name="one.tab" 
d="M128 91h102v463l-130 -60v118l246 94v-615h93v-91h-311v91z" />
    <glyph glyph-name="two.tab" 
d="M280 700q83 0 132 -50t49 -139q0 -107 -78.5 -215.5t-211.5 -202.5l294 17v-110h-424v80q142 100 216 207t74 194q0 60 -25 91t-63 31q-36 0 -58.5 -25.5t-22.5 -64.5q0 -56 46 -105l-119 -71q-39 66 -39 137q0 94 63.5 160t166.5 66z" />
    <glyph glyph-name="three.tab" 
d="M67 567v112q73 21 180 21q93 0 140.5 -38.5t47.5 -107.5q0 -106 -122 -172q67 -18 104.5 -62t37.5 -109q0 -95 -69 -160t-182 -65q-81 0 -137 23v125q66 -37 148 -37q54 0 84.5 24.5t30.5 72.5q0 54 -38.5 88t-110.5 34q-28 0 -52 -3v92q191 0 191 102q0 44 -31 67.5
t-82 23.5q-80 0 -140 -31z" />
    <glyph glyph-name="four.tab" 
d="M280 690h123v-416l95 4v-102h-95v-176h-113v176h-272v72zM121 263l169 5v280z" />
    <glyph glyph-name="five.tab" 
d="M96 392l19 298l318 14v-111h-232l-7 -100q131 -17 190 -77t59 -149q0 -53 -21 -102t-61.5 -90t-109.5 -65t-156 -24l7 107q241 0 241 142q0 69 -62 113t-185 44z" />
    <glyph glyph-name="six.tab" 
d="M312 700q64 0 111 -19v-118q-62 31 -129 31q-122 0 -147 -170q75 39 142 39q82 0 131 -59t49 -155q0 -111 -61 -187t-159 -76q-104 0 -156 80.5t-52 223.5q0 178 72.5 294t198.5 116zM229 370q-44 0 -87 -20v-15q0 -241 127 -241q47 0 72 34t25 98q0 68 -37 106t-100 38z
" />
    <glyph glyph-name="seven.tab" 
d="M42 690h431v-96l-247 -607l-72 13l187 588l-299 -13v115z" />
    <glyph glyph-name="eight.tab" 
d="M450 556q0 -57 -34.5 -97t-99.5 -84q36 -24 57 -40t46 -41t37 -53.5t12 -60.5q0 -89 -71 -141.5t-169 -52.5q-81 0 -135.5 40t-54.5 118q0 62 36 107t101 91q-56 37 -86 74t-30 90q0 89 63.5 141.5t155.5 52.5q71 0 121.5 -37t50.5 -107zM346 161q0 46 -31 78.5t-90 70.5
q-77 -63 -77 -139q0 -45 28.5 -69t75.5 -24q40 0 67 21.5t27 61.5zM172 538q0 -37 24.5 -66.5t71.5 -63.5q77 63 77 129q0 39 -25.5 59.5t-63.5 20.5q-36 0 -60 -21t-24 -58z" />
    <glyph glyph-name="nine.tab" 
d="M258 700q110 0 161 -69.5t51 -181.5q0 -95 -33 -182.5t-111.5 -164.5t-193.5 -116l-33 72q177 67 233 229q-68 -41 -139 -41q-73 0 -119.5 48.5t-46.5 144.5q0 110 64.5 185.5t166.5 75.5zM256 338q42 0 93 24q4 24 4 53q0 189 -120 189q-43 0 -69.5 -32t-26.5 -91
q0 -71 32 -107t87 -36z" />
    <glyph glyph-name="dollar.tab" 
d="M301 700q77 0 122 -17v-128q-48 23 -132 33v-188q40 -18 64.5 -32t53.5 -37t43.5 -54t14.5 -70q0 -73 -47.5 -131.5t-128.5 -79.5v-110h-76v100h-2q-90 0 -162 22v132q72 -30 164 -37v206q-38 18 -62 32t-51.5 36.5t-41 51.5t-13.5 64q0 64 43.5 119.5t124.5 76.5v100h76
v-89h10zM360 185q0 47 -69 87v-165q69 19 69 78zM153 514q0 -43 62 -78v150q-62 -13 -62 -72z" />
    <glyph glyph-name="cent.tab" 
d="M427 639v-111q-47 20 -88 27l-2 -271q51 7 90 25v-87q-44 -26 -90 -36l-1 -142h-76v136q-85 5 -136 63t-51 159q0 99 50.5 166.5t136.5 83.5v133h81l-1 -131q49 -3 87 -15zM180 428q0 -106 80 -137v263q-39 -10 -59.5 -43.5t-20.5 -82.5z" />
    <glyph glyph-name="sterling.tab" 
d="M49 395h36q-8 46 -8 93q0 85 66.5 148.5t186.5 63.5q78 0 122 -17v-126q-67 34 -155 34q-44 0 -69.5 -21t-25.5 -63q0 -41 15 -112h145v-93h-128q18 -119 -28 -208l251 15v-109h-373q23 39 34 76.5t9 79.5t-6.5 69t-15.5 77h-56v93z" />
    <glyph glyph-name="yen.tab" 
d="M-11 690h136l139 -290l137 290h117l-163 -316h103v-93h-139v-76h139v-92h-139v-113h-122v113h-142v92h142v76h-142v93h100z" />
    <glyph glyph-name="florin.tab" 
d="M421 356h-116v-337q0 -254 -229 -263l21 107q58 1 78 27.5t20 97.5v368h-80v93h80v109q0 104 53 166.5t145 62.5q5 0 14 -0.5t14 -0.5v-105q-16 5 -38 5q-78 0 -78 -103v-134h116v-93z" />
    <glyph glyph-name="Euro.tab" 
d="M29 471h72q31 106 100.5 167.5t161.5 61.5q60 0 114 -20v-130q-58 37 -124 37q-107 0 -138 -116h188l-20 -81h-180v-35q0 -31 1 -45h171l-20 -81h-138q35 -125 153 -125q54 0 107 30v-101q-70 -47 -148 -47q-99 0 -163 61.5t-81 181.5h-56v81h51v6q0 42 4 74h-55v81z" />
    <glyph glyph-name="numbersign.tab" 
d="M21 268h87v159h-87v92h87v171h96v-171h95v171h97v-171h88v-92h-88v-159h88v-93h-88v-175h-97v175h-95v-175h-96v175h-87v93zM204 427v-159h95v159h-95z" />
    <glyph glyph-name="zero.oldstyle" horiz-adv-x="526" 
d="M271 511q99 0 155 -69.5t56 -186.5t-64 -193t-167 -76q-98 0 -152.5 68.5t-54.5 181.5q0 118 62.5 196.5t164.5 78.5zM264 419q-101 0 -101 -170q0 -171 100 -171q98 0 98 165q0 176 -97 176z" />
    <glyph glyph-name="one.oldstyle" horiz-adv-x="370" 
d="M46 424l236 87v-511h-116v361l-120 -54v117z" />
    <glyph glyph-name="two.oldstyle" horiz-adv-x="505" 
d="M278 511q172 0 172 -136q0 -79 -70 -153.5t-184 -127.5l263 16v-110h-411v73q148 85 212 148.5t64 119.5q0 41 -18 59.5t-59 18.5q-51 0 -65.5 -42.5t22.5 -90.5l-111 -69q-25 46 -25.5 98t22 95.5t72 72t116.5 28.5z" />
    <glyph glyph-name="three.oldstyle" horiz-adv-x="470" 
d="M39 377v112q73 21 181 21q93 0 139.5 -38t46.5 -107q0 -107 -122 -173q67 -18 104 -62t37 -109q0 -94 -70.5 -159t-181.5 -65q-78 0 -134 23v125q66 -37 146 -37q33 0 49 15q66 17 66 81q0 55 -39.5 88.5t-120.5 33.5q-13 0 -39 -2v91q190 0 190 103q0 91 -111 91
q-79 0 -141 -32z" />
    <glyph glyph-name="four.oldstyle" horiz-adv-x="498" 
d="M272 497h123v-400l94 4v-101h-94v-205h-114v205h-272v71zM113 86l168 5v274z" />
    <glyph glyph-name="five.oldstyle" horiz-adv-x="445" 
d="M56 193l19 300l318 13v-110h-221l-6 -101q119 -18 178 -80t59 -149q0 -118 -94 -200.5t-255 -82.5l9 110q123 0 179 35.5t56 108.5q0 72 -59 114t-183 42z" />
    <glyph glyph-name="six.oldstyle" horiz-adv-x="509" 
d="M313 700q63 0 111 -19v-118q-62 31 -128 31q-129 0 -152 -173q77 42 146 42q82 0 128.5 -59t46.5 -155q0 -108 -59.5 -185.5t-157.5 -77.5q-102 0 -153 84.5t-51 226.5q0 178 71.5 290.5t197.5 112.5zM232 370q-46 0 -93 -23v-8q0 -115 32 -180t97 -65q46 0 70 35t24 97
q0 69 -33.5 106.5t-96.5 37.5z" />
    <glyph glyph-name="seven.oldstyle" horiz-adv-x="436" 
d="M14 497h408v-96l-235 -613l-72 13l176 593l-277 -12v115z" />
    <glyph glyph-name="eight.oldstyle" 
d="M442 558q0 -53 -32.5 -93.5t-93.5 -86.5q35 -26 55.5 -43t45.5 -43t37 -53.5t12 -58.5q0 -90 -70 -142t-168 -52q-81 0 -134.5 40t-53.5 118q0 60 36 106t102 95q-54 40 -83.5 77.5t-29.5 86.5q0 87 62 139t150 52q70 0 117.5 -35.5t47.5 -106.5zM346 161q0 43 -30 76
t-88 73q-80 -69 -80 -139q0 -45 28.5 -69t75.5 -24q40 0 67 21.5t27 61.5zM176 539q0 -57 91 -125q73 63 73 123q0 39 -23 59.5t-59 20.5q-34 0 -58 -20.5t-24 -57.5z" />
    <glyph glyph-name="nine.oldstyle" horiz-adv-x="511" 
d="M260 511q109 0 158.5 -71.5t49.5 -185.5q0 -96 -32 -181.5t-109.5 -161.5t-192.5 -114l-31 72q182 71 235 234q-62 -37 -138 -37q-72 0 -118 48t-46 143q0 110 61 182t163 72zM257 152q48 0 98 25q3 24 3 49q0 190 -118 190q-43 0 -70.5 -33t-27.5 -92q0 -70 30.5 -104.5
t84.5 -34.5z" />
    <glyph glyph-name="zero.taboldstyle" 
d="M261 511q99 0 155 -69.5t56 -186.5t-64 -193t-167 -76q-98 0 -152.5 68.5t-54.5 181.5q0 118 62.5 196.5t164.5 78.5zM254 419q-101 0 -101 -170q0 -171 100 -171q98 0 98 165q0 176 -97 176z" />
    <glyph glyph-name="one.taboldstyle" 
d="M121 91h105v279l-132 -56v112l242 85v-420h92v-91h-307v91z" />
    <glyph glyph-name="two.taboldstyle" 
d="M275 511q172 0 172 -136q0 -79 -70 -153.5t-184 -127.5l263 16v-110h-411v73q148 85 212 148.5t64 119.5q0 41 -18 59.5t-59 18.5q-51 0 -65.5 -42.5t22.5 -90.5l-111 -69q-25 46 -25.5 98t22 95.5t72 72t116.5 28.5z" />
    <glyph glyph-name="three.taboldstyle" 
d="M58 377v112q73 21 181 21q93 0 139.5 -38t46.5 -107q0 -107 -122 -173q67 -18 104 -62t37 -109q0 -94 -70.5 -159t-181.5 -65q-78 0 -134 23v125q66 -37 146 -37q33 0 49 15q66 17 66 81q0 55 -39.5 88.5t-120.5 33.5q-13 0 -39 -2v91q190 0 190 103q0 91 -111 91
q-79 0 -141 -32z" />
    <glyph glyph-name="four.taboldstyle" 
d="M276 497h123v-400l94 4v-101h-94v-205h-114v205h-272v71zM117 86l168 5v274z" />
    <glyph glyph-name="five.taboldstyle" 
d="M83 193l19 300l318 13v-110h-221l-6 -101q119 -18 178 -80t59 -149q0 -118 -94 -200.5t-255 -82.5l9 110q123 0 179 35.5t56 108.5q0 72 -59 114t-183 42z" />
    <glyph glyph-name="six.taboldstyle" 
d="M313 700q63 0 111 -19v-118q-62 31 -128 31q-129 0 -152 -173q77 42 146 42q82 0 128.5 -59t46.5 -155q0 -108 -59.5 -185.5t-157.5 -77.5q-102 0 -153 84.5t-51 226.5q0 178 71.5 290.5t197.5 112.5zM232 370q-46 0 -93 -23v-8q0 -115 32 -180t97 -65q46 0 70 35t24 97
q0 69 -33.5 106.5t-96.5 37.5z" />
    <glyph glyph-name="seven.taboldstyle" 
d="M52 497h408v-96l-235 -613l-72 13l176 593l-277 -12v115z" />
    <glyph glyph-name="eight.taboldstyle" 
d="M442 558q0 -53 -32.5 -93.5t-93.5 -86.5q35 -26 55.5 -43t45.5 -43t37 -53.5t12 -58.5q0 -90 -70 -142t-168 -52q-81 0 -134.5 40t-53.5 118q0 60 36 106t102 95q-54 40 -83.5 77.5t-29.5 86.5q0 87 62 139t150 52q70 0 117.5 -35.5t47.5 -106.5zM346 161q0 43 -30 76
t-88 73q-80 -69 -80 -139q0 -45 28.5 -69t75.5 -24q40 0 67 21.5t27 61.5zM176 539q0 -57 91 -125q73 63 73 123q0 39 -23 59.5t-59 20.5q-34 0 -58 -20.5t-24 -57.5z" />
    <glyph glyph-name="nine.taboldstyle" 
d="M258 511q109 0 158.5 -71.5t49.5 -185.5q0 -96 -32 -181.5t-109.5 -161.5t-192.5 -114l-31 72q182 71 235 234q-62 -37 -138 -37q-72 0 -118 48t-46 143q0 110 61 182t163 72zM255 152q48 0 98 25q3 24 3 49q0 190 -118 190q-43 0 -70.5 -33t-27.5 -92q0 -70 30.5 -104.5
t84.5 -34.5z" />
    <glyph glyph-name="zero.small" horiz-adv-x="441" 
d="M225 511q89 0 133 -67.5t44 -189.5q0 -118 -51 -193t-135 -75q-89 0 -133 68t-44 189q0 120 50.5 194t135.5 74zM219 430q-72 0 -72 -179q0 -83 20 -133t55 -50q72 0 72 177q0 84 -20.5 134.5t-54.5 50.5z" />
    <glyph glyph-name="one.small" horiz-adv-x="332" 
d="M26 435l232 76v-511h-110v388l-122 -61v108z" />
    <glyph glyph-name="two.small" horiz-adv-x="417" 
d="M231 511q68 0 106 -37t38 -103q0 -78 -57.5 -151.5t-152.5 -134.5l217 11v-96h-340v69q223 166 223 278q0 40 -16 60.5t-43 20.5q-30 0 -45 -19t-15 -50q0 -35 18 -71l-97 -38q-14 41 -14 82q0 82 50 130.5t128 48.5z" />
    <glyph glyph-name="three.small" horiz-adv-x="417" 
d="M53 398v96q60 16 142 16q74 0 117 -28.5t43 -82.5q0 -72 -93 -121q50 -16 78.5 -48.5t28.5 -76.5q0 -74 -56 -120.5t-149 -46.5q-62 0 -111 17v102q62 -27 121 -27q36 0 59.5 16.5t23.5 49.5q0 77 -121 77q-23 0 -34 -1v78q139 0 139 72q0 57 -74 57q-57 0 -114 -29z" />
    <glyph glyph-name="four.small" horiz-adv-x="413" 
d="M215 497h110v-289l69 3v-85h-69v-126h-104v126h-204v63zM115 201l106 2v162z" />
    <glyph glyph-name="five.small" horiz-adv-x="382" 
d="M56 278l14 220l259 9v-85h-172l-5 -68q189 -29 189 -161q0 -87 -69.5 -147t-215.5 -60l8 92q91 0 131 22t40 70q0 45 -44.5 76.5t-134.5 31.5z" />
    <glyph glyph-name="six.small" horiz-adv-x="431" 
d="M263 511q53 0 95 -16v-95q-53 25 -100 25q-92 0 -115 -103q54 19 106 19q65 0 103.5 -42t38.5 -116q0 -80 -50.5 -138.5t-128.5 -58.5q-84 0 -127.5 61.5t-43.5 164.5q0 129 59 214t163 85zM196 258q-26 0 -60 -12v-5q0 -170 89 -170q32 0 50 25t18 67q0 48 -26.5 71.5
t-70.5 23.5z" />
    <glyph glyph-name="seven.small" horiz-adv-x="366" 
d="M15 497h340v-82l-199 -425l-67 19l147 403l-221 -15v100z" />
    <glyph glyph-name="eight.small" horiz-adv-x="416" 
d="M227 511q58 0 100.5 -27.5t42.5 -80.5q0 -39 -26.5 -69t-74.5 -62q56 -34 86.5 -66t30.5 -77q0 -64 -56.5 -103.5t-139.5 -39.5q-72 0 -116 30.5t-44 89.5q0 44 27.5 78t75.5 66q-85 55 -85 120q0 67 52 104t127 37zM281 118q0 29 -23.5 51t-69.5 49q-58 -44 -58 -94
q0 -29 21 -45t56 -16q33 0 53.5 14.5t20.5 40.5zM211 441q-27 0 -45.5 -14t-18.5 -39q0 -40 69 -84q60 44 60 82q0 26 -18.5 40.5t-46.5 14.5z" />
    <glyph glyph-name="nine.small" horiz-adv-x="429" 
d="M89 44q119 37 173 140q-36 -12 -76 -12q-63 0 -107.5 40.5t-44.5 113.5q0 80 52 132.5t134 52.5q90 0 132 -53.5t42 -136.5q0 -109 -65 -203t-200 -138zM206 427q-34 0 -55 -24t-21 -63q0 -86 95 -86q33 0 64 12q2 20 2 33q0 128 -85 128z" />
    <glyph glyph-name="zerosmall.tab" horiz-adv-x="397" 
d="M204 511q89 0 133 -67.5t44 -189.5q0 -118 -51 -193t-135 -75q-89 0 -133 68t-44 189q0 120 50.5 194t135.5 74zM198 430q-72 0 -72 -179q0 -83 20 -133t55 -50q72 0 72 177q0 84 -20.5 134.5t-54.5 50.5z" />
    <glyph glyph-name="onesmall.tab" horiz-adv-x="397" 
d="M64 91h102v290l-111 -48v99l220 79v-420h86v-91h-297v91z" />
    <glyph glyph-name="twosmall.tab" horiz-adv-x="397" 
d="M219 511q68 0 106 -37t38 -103q0 -78 -57.5 -151.5t-152.5 -134.5l217 11v-96h-340v69q223 166 223 278q0 40 -16 60.5t-43 20.5q-30 0 -45 -19t-15 -50q0 -35 18 -71l-97 -38q-14 41 -14 82q0 82 50 130.5t128 48.5z" />
    <glyph glyph-name="threesmall.tab" horiz-adv-x="397" 
d="M41 398v96q60 16 142 16q74 0 117 -28.5t43 -82.5q0 -72 -93 -121q50 -16 78.5 -48.5t28.5 -76.5q0 -74 -56 -120.5t-149 -46.5q-62 0 -111 17v102q62 -27 121 -27q36 0 59.5 16.5t23.5 49.5q0 77 -121 77q-23 0 -34 -1v78q139 0 139 72q0 57 -74 57q-57 0 -114 -29z" />
    <glyph glyph-name="foursmall.tab" horiz-adv-x="397" 
d="M212 497h110v-289l69 3v-85h-69v-126h-104v126h-204v63zM112 201l106 2v162z" />
    <glyph glyph-name="fivesmall.tab" horiz-adv-x="397" 
d="M60 278l14 220l259 9v-85h-172l-5 -68q189 -29 189 -161q0 -87 -69.5 -147t-215.5 -60l8 92q91 0 131 22t40 70q0 45 -44.5 76.5t-134.5 31.5z" />
    <glyph glyph-name="sixsmall.tab" horiz-adv-x="397" 
d="M246 511q53 0 95 -16v-95q-53 25 -100 25q-92 0 -115 -103q54 19 106 19q65 0 103.5 -42t38.5 -116q0 -80 -50.5 -138.5t-128.5 -58.5q-84 0 -127.5 61.5t-43.5 164.5q0 129 59 214t163 85zM179 258q-26 0 -60 -12v-5q0 -170 89 -170q32 0 50 25t18 67q0 48 -26.5 71.5
t-70.5 23.5z" />
    <glyph glyph-name="sevensmall.tab" horiz-adv-x="397" 
d="M29 497h340v-82l-199 -425l-67 19l147 403l-221 -15v100z" />
    <glyph glyph-name="eightsmall.tab" horiz-adv-x="397" 
d="M218 511q58 0 100.5 -27.5t42.5 -80.5q0 -39 -26.5 -69t-74.5 -62q56 -34 86.5 -66t30.5 -77q0 -64 -56.5 -103.5t-139.5 -39.5q-72 0 -116 30.5t-44 89.5q0 44 27.5 78t75.5 66q-85 55 -85 120q0 67 52 104t127 37zM272 118q0 29 -23.5 51t-69.5 49q-58 -44 -58 -94
q0 -29 21 -45t56 -16q33 0 53.5 14.5t20.5 40.5zM202 441q-27 0 -45.5 -14t-18.5 -39q0 -40 69 -84q60 44 60 82q0 26 -18.5 40.5t-46.5 14.5z" />
    <glyph glyph-name="ninesmall.tab" horiz-adv-x="397" 
d="M75 44q119 37 173 140q-36 -12 -76 -12q-63 0 -107.5 40.5t-44.5 113.5q0 80 52 132.5t134 52.5q90 0 132 -53.5t42 -136.5q0 -109 -65 -203t-200 -138zM192 427q-34 0 -55 -24t-21 -63q0 -86 95 -86q33 0 64 12q2 20 2 33q0 128 -85 128z" />
    <glyph glyph-name="co" horiz-adv-x="707" 
d="M551 690h115l-512 -690h-115zM305 688v-85q-49 22 -90 22q-33 0 -50.5 -20.5t-17.5 -55.5q0 -40 20.5 -64t57.5 -24q35 0 80 20v-68q-48 -29 -103 -29q-62 0 -98.5 38.5t-36.5 108.5q0 76 43 122.5t113 46.5q37 0 82 -12zM523 303q69 0 108.5 -39.5t39.5 -110.5
q0 -73 -46 -119.5t-118 -46.5q-68 0 -107 39.5t-39 109.5q0 73 45.5 120t116.5 47zM514 236q-66 0 -66 -89q0 -45 19.5 -69t51.5 -24q64 0 64 87q0 46 -19 70.5t-50 24.5z" />
    <glyph glyph-name="ac" horiz-adv-x="706" 
d="M553 690h115l-512 -690h-115zM215 532q-33 -8 -53.5 -24.5t-20.5 -34.5q0 -17 18 -17q22 0 39 19.5t17 46.5v10zM192 700q54 0 80 -22.5t26 -72.5v-213h-63l-10 39q-39 -48 -97 -48q-35 0 -53.5 18.5t-18.5 49.5q0 88 159 141q0 23 -7.5 30.5t-25.5 7.5q-43 0 -108 -25
v78q56 17 118 17zM612 290v-85q-49 22 -90 22q-33 0 -50.5 -20.5t-17.5 -55.5q0 -40 20.5 -64t57.5 -24q35 0 80 20v-68q-48 -29 -103 -29q-62 0 -98.5 38.5t-36.5 108.5q0 76 43 122.5t113 46.5q37 0 82 -12z" />
    <glyph glyph-name="litre" horiz-adv-x="382" 
d="M170 411q41 30 64 78t23 89q0 42 -24 42q-21 0 -33 -13.5t-20.5 -60.5t-9.5 -135zM67 75v372q0 113 50.5 183t128.5 70q48 0 75 -30t27 -80q0 -66 -49 -138t-130 -118v-209q0 -44 43 -44q49 0 81 31l36 -75q-76 -47 -155 -47q-107 0 -107 85z" />
    <glyph glyph-name="publish" horiz-adv-x="778" 
d="M271 530h135q75 0 113.5 -34.5t38.5 -83.5q0 -67 -43.5 -102.5t-112.5 -35.5q-18 0 -36 3v-119h-95v372zM366 460v-113q15 -3 27 -3q35 0 49.5 14t14.5 43q0 61 -69 61q-8 0 -22 -2zM409 700q148 0 234.5 -97.5t86.5 -241.5q0 -155 -100 -265t-258 -110
q-149 0 -236.5 95.5t-87.5 243.5q0 158 103 266.5t258 108.5zM400 610q-113 0 -180.5 -73t-67.5 -192q0 -124 62.5 -197t171.5 -73q113 0 181 76t68 194q0 126 -61.5 195.5t-173.5 69.5z" />
    <glyph glyph-name="ampersand.small" horiz-adv-x="613" 
d="M291 511q48 0 79 -25t31 -69q0 -54 -35 -89t-99 -70q39 -65 101 -115l96 200h114l-168 -229q52 -30 99 -30q53 0 88 15v-84q-41 -29 -101 -29q-75 0 -158 54q-76 -54 -160 -54q-68 0 -106.5 30.5t-38.5 85.5q0 53 32 90.5t88 70.5q-21 51 -21 99q0 66 44.5 107.5
t114.5 41.5zM293 75q-70 59 -112 132q-46 -35 -46 -75q0 -70 78 -70q42 0 80 13zM230 376q0 -31 12 -64q67 39 67 78q0 43 -36 43q-19 0 -31 -14.5t-12 -42.5z" />
    <glyph glyph-name="at.small" horiz-adv-x="690" 
d="M504 497h89q44 -86 44 -182q0 -67 -20 -124.5t-61 -104t-110 -73.5t-159 -27q-111 0 -172.5 66t-61.5 162q0 73 34 139t107.5 112t171.5 46q118 0 118 -111v-266h-63l-15 60q-21 -32 -55.5 -52t-71.5 -20q-41 0 -63.5 22t-22.5 59q0 115 198 176v16q0 24 -13 34t-40 10
q-94 0 -148 -62t-54 -142q0 -81 48 -129t144 -48q229 0 229 216q0 120 -53 223zM391 287v28q-47 -9 -73 -31.5t-26 -49.5q0 -29 29 -29q27 0 48.5 23.5t21.5 58.5z" />
    <glyph glyph-name="A.small" horiz-adv-x="471" 
d="M187 500h102l185 -500h-125l-43 131h-153l-44 -131h-112zM229 369l-54 -158h107z" />
    <glyph glyph-name="B.small" horiz-adv-x="452" 
d="M171 418v-125q65 1 87 16.5t22 48.5q0 62 -83 62q-8 0 -26 -2zM171 221v-139q17 -4 41 -4q91 0 91 66q0 38 -26.5 57.5t-105.5 19.5zM62 497h147q105 0 143.5 -33.5t38.5 -87.5q0 -38 -29.5 -71t-72.5 -43q59 -6 94.5 -37.5t35.5 -79.5q0 -61 -55 -103t-158 -42h-144v497
z" />
    <glyph glyph-name="C.small" horiz-adv-x="462" 
d="M308 511q59 0 113 -16v-118q-60 32 -128 32q-70 0 -104 -45.5t-34 -116.5q0 -70 39 -115.5t110 -45.5q57 0 117 32v-116q-54 -16 -124 -16q-117 0 -186 69.5t-69 185.5q0 117 74 193.5t192 76.5z" />
    <glyph glyph-name="D.small" horiz-adv-x="538" 
d="M62 497h168q118 0 191.5 -58t73.5 -169q0 -123 -79.5 -196.5t-215.5 -73.5h-138v497zM171 414v-328q20 -2 31 -2q175 0 175 172q0 81 -43.5 120.5t-122.5 39.5q-12 0 -40 -2z" />
    <glyph glyph-name="E.small" horiz-adv-x="410" 
d="M62 497h313v-91l-204 10v-124l172 12v-93l-172 11v-141l204 10v-91h-313v497z" />
    <glyph glyph-name="F.small" horiz-adv-x="393" 
d="M62 497h313v-91l-204 10v-137l172 13v-93l-172 11v-210h-109v497z" />
    <glyph glyph-name="G.small" horiz-adv-x="509" 
d="M321 510q69 0 126 -16v-117q-62 31 -141 31q-70 0 -111 -47t-41 -114q0 -72 35 -117t105 -45q26 0 44 6v167h109v-248q-72 -24 -157 -24q-116 0 -182.5 69t-66.5 186q0 116 79.5 192.5t200.5 76.5z" />
    <glyph glyph-name="H.small" horiz-adv-x="527" 
d="M62 497h109v-191h184v191h110v-497h-110v218h-184v-218h-109v497z" />
    <glyph glyph-name="I.small" horiz-adv-x="233" 
d="M62 497h109v-497h-109v497z" />
    <glyph glyph-name="J.small" horiz-adv-x="233" 
d="M62 497h109v-475q0 -95 -63 -153.5t-165 -60.5l19 115q55 0 77.5 18t22.5 64v492z" />
    <glyph glyph-name="K.small" horiz-adv-x="517" 
d="M349 497h138l-200 -218l227 -279h-147l-195 252zM62 497h109v-497h-109v497z" />
    <glyph glyph-name="L.small" horiz-adv-x="378" 
d="M62 497h109v-411l198 11v-97h-307v497z" />
    <glyph glyph-name="M.small" horiz-adv-x="678" 
d="M80 497h140l124 -336l124 336h131l27 -497h-108l-16 343l-128 -340h-76l-127 340l-15 -343h-104z" />
    <glyph glyph-name="N.small" horiz-adv-x="518" 
d="M61 496h124l173 -281v281h98v-496h-85l-213 351v-351h-97v496z" />
    <glyph glyph-name="O.small" horiz-adv-x="582" 
d="M290 417q-65 0 -100.5 -44.5t-35.5 -121.5q0 -82 34.5 -126.5t102.5 -44.5q65 0 101.5 45.5t36.5 123.5q0 168 -139 168zM299 511q110 0 175.5 -74t65.5 -179q0 -114 -70.5 -193t-190.5 -79q-108 0 -172.5 74t-64.5 180q0 114 69 192.5t188 78.5z" />
    <glyph glyph-name="P.small" horiz-adv-x="435" 
d="M62 497h162q95 0 141 -43t46 -106q0 -77 -53 -123.5t-139 -46.5q-16 0 -48 4v-182h-109v497zM171 414v-153q19 -3 37 -3q42 0 65 20t23 56q0 81 -96 81q-19 0 -29 -1z" />
    <glyph glyph-name="Q.small" horiz-adv-x="582" 
d="M299 511q110 0 175.5 -74t65.5 -179q0 -95 -50.5 -168t-140.5 -95l176 -168h-148l-145 163q-88 16 -139 86.5t-51 163.5q0 114 69 192.5t188 78.5zM290 417q-65 0 -100.5 -44.5t-35.5 -121.5q0 -82 34.5 -126.5t102.5 -44.5q65 0 101.5 45.5t36.5 123.5q0 168 -139 168z
" />
    <glyph glyph-name="R.small" horiz-adv-x="482" 
d="M345 0l-130 189q-14 -2 -44 -2v-187h-110v496h122q228 0 228 -136q0 -105 -95 -147l163 -213h-134zM171 412v-143q17 -3 37 -3q38 0 63 17.5t25 56.5t-25 56t-61 17q-30 0 -39 -1z" />
    <glyph glyph-name="S.small" horiz-adv-x="391" 
d="M232 511q56 0 95 -15v-106q-55 29 -116 29t-61 -49q0 -20 21.5 -36.5t52 -31t61 -32t52 -48.5t21.5 -72q0 -73 -51 -118.5t-136 -45.5q-72 0 -123 17v108q74 -29 130 -29q33 0 53.5 13.5t20.5 39.5q0 21 -21.5 39t-52 32.5t-60.5 32t-51.5 47.5t-21.5 70q0 67 48.5 111
t138.5 44z" />
    <glyph glyph-name="T.small" horiz-adv-x="427" 
d="M3 497h421v-103l-156 10v-404h-110v404l-155 -10v103z" />
    <glyph glyph-name="U.small" horiz-adv-x="519" 
d="M62 497h109v-325q0 -90 91 -90q44 0 70.5 21t26.5 64v330h106v-331q0 -81 -64 -130t-151 -49q-80 0 -134 41.5t-54 121.5v347z" />
    <glyph glyph-name="V.small" horiz-adv-x="471" 
d="M-3 497h125l120 -370l119 370h113l-189 -497h-104z" />
    <glyph glyph-name="W.small" horiz-adv-x="726" 
d="M7 497h118l95 -348l105 348h88l105 -347l92 347h109l-159 -497h-99l-102 318l-102 -318h-95z" />
    <glyph glyph-name="X.small" horiz-adv-x="508" 
d="M363 497h132l-187 -239l197 -258h-139l-116 176l-118 -176h-129l195 252l-185 245h142l101 -162z" />
    <glyph glyph-name="Y.small" horiz-adv-x="472" 
d="M-8 497h130l120 -195l121 195h117l-192 -287v-210h-104v205z" />
    <glyph glyph-name="Z.small" horiz-adv-x="442" 
d="M35 497h375v-82l-255 -329l263 10v-96h-395v83l252 328l-240 -10v96z" />
    <glyph glyph-name="AE.small" horiz-adv-x="621" 
d="M252 497h335v-91l-204 10v-124l171 12v-93l-171 11v-141l204 10v-91h-314v131h-153l-85 -131h-122zM273 373l-109 -162h109v162z" />
    <glyph glyph-name="OE.small" horiz-adv-x="770" 
d="M702 211l-164 11q-9 -81 -55 -141l252 10v-91h-367q-42 -14 -90 -14q-108 0 -172.5 74t-64.5 180q0 113 69 191.5t189 78.5q45 0 85 -14h351v-91l-242 8q38 -55 45 -122l164 13v-93zM290 416q-65 0 -101 -44t-36 -122q0 -82 35 -126.5t103 -44.5q65 0 101 45.5t36 124.5
q0 81 -35 124t-103 43z" />
    <glyph glyph-name="Eng.small" horiz-adv-x="518" 
d="M61 496h124l173 -281v281h98v-496q0 -108 -54 -173t-174 -70q4 19 11 56.5t11 56.5q118 2 118 136l-210 345v-351h-97v496z" />
    <glyph glyph-name="Eth.small" horiz-adv-x="547" 
d="M71 497h169q118 0 191.5 -58t73.5 -169q0 -123 -80 -196.5t-215 -73.5h-139v227h-43v69h43v201zM181 414v-118h83v-69h-83v-141q20 -2 30 -2q176 0 176 172q0 81 -43.5 120.5t-122.5 39.5q-12 0 -40 -2z" />
    <glyph glyph-name="IJ.small" horiz-adv-x="461" 
d="M62 497h109v-497h-109v497zM289 497h110v-475q0 -95 -63 -153.5t-165 -60.5l19 115q54 0 76.5 18t22.5 64v492z" />
    <glyph glyph-name="Oslash.small" horiz-adv-x="582" 
d="M479 508l80 -11l-70 -78q51 -68 51 -161q0 -114 -70.5 -193t-190.5 -79q-81 0 -139 44l-38 -42l-79 12l69 77q-50 68 -50 163q0 114 69 192.5t188 78.5q81 0 143 -44zM429 249q0 50 -14 87l-208 -231q32 -25 84 -25q65 0 101.5 45.5t36.5 123.5zM290 417
q-65 0 -100.5 -44.5t-35.5 -121.5q0 -55 14 -90l207 231q-34 25 -85 25z" />
    <glyph glyph-name="Thorn.small" horiz-adv-x="435" 
d="M62 497h109v-79h53q95 0 141 -42.5t46 -105.5q0 -77 -53 -123.5t-139 -46.5q-27 0 -48 4v-104h-109v497zM171 335v-153q19 -3 37 -3q42 0 65 20.5t23 56.5q0 80 -92 80q-26 0 -33 -1z" />
    <glyph glyph-name="Aacute.small" horiz-adv-x="471" 
d="M257 720h121l-145 -176l-72 7zM187 500h102l185 -500h-125l-43 131h-153l-44 -131h-112zM229 369l-54 -158h107z" />
    <glyph glyph-name="Abreve.small" horiz-adv-x="471" 
d="M98 692l67 5q2 -72 72 -72q68 0 71 73l63 -6q-1 -73 -38.5 -112.5t-97.5 -39.5t-98 39.5t-39 112.5zM187 500h102l185 -500h-125l-43 131h-153l-44 -131h-112zM229 369l-54 -158h107z" />
    <glyph glyph-name="Acircumflex.small" horiz-adv-x="471" 
d="M187 500h102l185 -500h-125l-43 131h-153l-44 -131h-112zM229 369l-54 -158h107zM190 713h90l105 -167l-66 -8l-86 98l-86 -98l-62 8z" />
    <glyph glyph-name="Adieresis.small" horiz-adv-x="471" 
d="M187 500h102l185 -500h-125l-43 131h-153l-44 -131h-112zM229 369l-54 -158h107zM142 671q23 0 39 -16.5t16 -42.5t-16 -43t-39 -17q-24 0 -40 17t-16 43t16 42.5t40 16.5zM329 671q24 0 39.5 -16.5t15.5 -42.5t-16 -43t-39 -17q-24 0 -40 17t-16 43t16 42.5t40 16.5z
" />
    <glyph glyph-name="Agrave.small" horiz-adv-x="471" 
d="M81 720h121l96 -169l-72 -7zM187 500h102l185 -500h-125l-43 131h-153l-44 -131h-112zM229 369l-54 -158h107z" />
    <glyph glyph-name="Amacron.small" horiz-adv-x="471" 
d="M123 650h225v-69h-225v69zM187 500h102l185 -500h-125l-43 131h-153l-44 -131h-112zM229 369l-54 -158h107z" />
    <glyph glyph-name="Aogonek.small" horiz-adv-x="471" 
d="M187 500h102l185 -500h-50q-53 -38 -53 -94q0 -47 54 -47q30 0 57 16l11 -56q-41 -32 -106 -32q-54 0 -82 22t-28 61q0 38 24 74t61 56h-13l-43 131h-153l-44 -131h-112zM229 369l-54 -158h107z" />
    <glyph glyph-name="Aring.small" horiz-adv-x="471" 
d="M129 628q0 45 31.5 75t76.5 30t74.5 -29.5t29.5 -75.5q0 -45 -31 -74t-76 -29q-46 0 -75.5 29t-29.5 74zM233 674q-40 0 -40 -45q0 -22 11.5 -35.5t31.5 -13.5q39 0 39 45q0 22 -11.5 35.5t-30.5 13.5zM187 500h102l185 -500h-125l-43 131h-153l-44 -131h-112zM229 369
l-54 -158h107z" />
    <glyph glyph-name="Atilde.small" horiz-adv-x="471" 
d="M128 549l-48 6q14 124 104 124q30 0 50.5 -15.5t36 -30.5t31.5 -15q38 0 40 55l48 -4q-6 -63 -33 -93t-70 -30q-28 0 -48.5 16t-35.5 31.5t-30 15.5q-22 0 -32 -15t-13 -45zM187 500h102l185 -500h-125l-43 131h-153l-44 -131h-112zM229 369l-54 -158h107z" />
    <glyph glyph-name="Ccedilla.small" horiz-adv-x="462" 
d="M308 511q59 0 113 -16v-118q-60 32 -128 32q-70 0 -104 -45.5t-34 -116.5q0 -70 39 -115.5t110 -45.5q57 0 117 32v-116q-49 -14 -119 -16l-20 -44q54 -1 80.5 -22t26.5 -56q0 -43 -34.5 -71t-98.5 -28q-49 0 -82 14l20 53q19 -8 42 -8q50 0 50 36q0 40 -74 40l33 90
q-95 15 -149 81.5t-54 169.5q0 117 74 193.5t192 76.5z" />
    <glyph glyph-name="Cacute.small" horiz-adv-x="462" 
d="M287 720h121l-145 -176l-72 7zM308 511q59 0 113 -16v-118q-60 32 -128 32q-70 0 -104 -45.5t-34 -116.5q0 -70 39 -115.5t110 -45.5q57 0 117 32v-116q-54 -16 -124 -16q-117 0 -186 69.5t-69 185.5q0 117 74 193.5t192 76.5z" />
    <glyph glyph-name="Ccircumflex.small" horiz-adv-x="462" 
d="M308 511q59 0 113 -16v-118q-60 32 -128 32q-70 0 -104 -45.5t-34 -116.5q0 -70 39 -115.5t110 -45.5q57 0 117 32v-116q-54 -16 -124 -16q-117 0 -186 69.5t-69 185.5q0 117 74 193.5t192 76.5zM236 713h90l105 -167l-66 -8l-86 98l-86 -98l-62 8z" />
    <glyph glyph-name="Ccaron.small" horiz-adv-x="462" 
d="M134 713l66 8l85 -97l85 97l64 -8l-106 -166h-90zM308 511q59 0 113 -16v-118q-60 32 -128 32q-70 0 -104 -45.5t-34 -116.5q0 -70 39 -115.5t110 -45.5q57 0 117 32v-116q-54 -16 -124 -16q-117 0 -186 69.5t-69 185.5q0 117 74 193.5t192 76.5z" />
    <glyph glyph-name="Cdotaccent.small" horiz-adv-x="462" 
d="M308 511q59 0 113 -16v-118q-60 32 -128 32q-70 0 -104 -45.5t-34 -116.5q0 -70 39 -115.5t110 -45.5q57 0 117 32v-116q-54 -16 -124 -16q-117 0 -186 69.5t-69 185.5q0 117 74 193.5t192 76.5zM289 672q23 0 40 -16.5t17 -41.5t-17 -41.5t-40 -16.5q-24 0 -40.5 16.5
t-16.5 41.5t16.5 41.5t40.5 16.5z" />
    <glyph glyph-name="Dcroat.small" horiz-adv-x="538" 
d="M62 497h169q118 0 191.5 -58t73.5 -169q0 -123 -80 -196.5t-215 -73.5h-139v227h-43v69h43v201zM172 414v-118h83v-69h-83v-141q20 -2 30 -2q176 0 176 172q0 81 -43.5 120.5t-122.5 39.5q-12 0 -40 -2z" />
    <glyph glyph-name="Dcaron.small" horiz-adv-x="538" 
d="M85 713l66 8l85 -97l85 97l64 -8l-106 -166h-90zM62 497h168q118 0 191.5 -58t73.5 -169q0 -123 -79.5 -196.5t-215.5 -73.5h-138v497zM171 414v-328q20 -2 31 -2q175 0 175 172q0 81 -43.5 120.5t-122.5 39.5q-12 0 -40 -2z" />
    <glyph glyph-name="Eacute.small" horiz-adv-x="410" 
d="M238 720h121l-145 -176l-72 7zM62 497h313v-91l-204 10v-124l172 12v-93l-172 11v-141l204 10v-91h-313v497z" />
    <glyph glyph-name="Ebreve.small" horiz-adv-x="410" 
d="M84 692l67 5q2 -72 72 -72q68 0 71 73l63 -6q-1 -73 -38.5 -112.5t-97.5 -39.5t-98 39.5t-39 112.5zM62 497h313v-91l-204 10v-124l172 12v-93l-172 11v-141l204 10v-91h-313v497z" />
    <glyph glyph-name="Ecaron.small" horiz-adv-x="410" 
d="M76 713l66 8l85 -97l85 97l64 -8l-106 -166h-90zM62 497h313v-91l-204 10v-124l172 12v-93l-172 11v-141l204 10v-91h-313v497z" />
    <glyph glyph-name="Ecircumflex.small" horiz-adv-x="410" 
d="M62 497h313v-91l-204 10v-124l172 12v-93l-172 11v-141l204 10v-91h-313v497zM173 713h90l105 -167l-66 -8l-86 98l-86 -98l-62 8z" />
    <glyph glyph-name="Edieresis.small" horiz-adv-x="410" 
d="M62 497h313v-91l-204 10v-124l172 12v-93l-172 11v-141l204 10v-91h-313v497zM128 671q23 0 39 -16.5t16 -42.5t-16 -43t-39 -17q-24 0 -40 17t-16 43t16 42.5t40 16.5zM315 671q24 0 39.5 -16.5t15.5 -42.5t-16 -43t-39 -17q-24 0 -40 17t-16 43t16 42.5t40 16.5z" />
    <glyph glyph-name="Edotaccent.small" horiz-adv-x="410" 
d="M62 497h313v-91l-204 10v-124l172 12v-93l-172 11v-141l204 10v-91h-313v497zM226 672q23 0 40 -16.5t17 -41.5t-17 -41.5t-40 -16.5q-24 0 -40.5 16.5t-16.5 41.5t16.5 41.5t40.5 16.5z" />
    <glyph glyph-name="Egrave.small" horiz-adv-x="410" 
d="M76 720h121l96 -169l-72 -7zM62 497h313v-91l-204 10v-124l172 12v-93l-172 11v-141l204 10v-91h-313v497z" />
    <glyph glyph-name="Emacron.small" horiz-adv-x="410" 
d="M107 650h225v-69h-225v69zM62 497h313v-91l-204 10v-124l172 12v-93l-172 11v-141l204 10v-91h-313v497z" />
    <glyph glyph-name="Eogonek.small" horiz-adv-x="410" 
d="M62 497h313v-91l-204 10v-124l172 12v-93l-172 11v-141l204 10v-91h-41q-53 -38 -53 -94q0 -47 54 -47q30 0 57 16l11 -56q-41 -32 -106 -32q-54 0 -82 22t-28 61q0 38 24 74t61 56h-210v497z" />
    <glyph glyph-name="Etilde.small" horiz-adv-x="410" 
d="M113 549l-48 6q14 124 104 124q30 0 50.5 -15.5t36 -30.5t31.5 -15q38 0 40 55l48 -4q-6 -63 -33 -93t-70 -30q-28 0 -48.5 16t-35.5 31.5t-30 15.5q-22 0 -32 -15t-13 -45zM62 497h313v-91l-204 10v-124l172 12v-93l-172 11v-141l204 10v-91h-313v497z" />
    <glyph glyph-name="Gacute.small" horiz-adv-x="509" 
d="M294 720h121l-145 -176l-72 7zM321 510q69 0 126 -16v-117q-62 31 -141 31q-70 0 -111 -47t-41 -114q0 -72 35 -117t105 -45q26 0 44 6v167h109v-248q-72 -24 -157 -24q-116 0 -182.5 69t-66.5 186q0 116 79.5 192.5t200.5 76.5z" />
    <glyph glyph-name="Gbreve.small" horiz-adv-x="509" 
d="M155 692l67 5q2 -72 72 -72q68 0 71 73l63 -6q-1 -73 -38.5 -112.5t-97.5 -39.5t-98 39.5t-39 112.5zM321 510q69 0 126 -16v-117q-62 31 -141 31q-70 0 -111 -47t-41 -114q0 -72 35 -117t105 -45q26 0 44 6v167h109v-248q-72 -24 -157 -24q-116 0 -182.5 69t-66.5 186
q0 116 79.5 192.5t200.5 76.5z" />
    <glyph glyph-name="Gcircumflex.small" horiz-adv-x="509" 
d="M321 510q69 0 126 -16v-117q-62 31 -141 31q-70 0 -111 -47t-41 -114q0 -72 35 -117t105 -45q26 0 44 6v167h109v-248q-72 -24 -157 -24q-116 0 -182.5 69t-66.5 186q0 116 79.5 192.5t200.5 76.5zM247 713h90l105 -167l-66 -8l-86 98l-86 -98l-62 8z" />
    <glyph glyph-name="Gcommaaccent.small" horiz-adv-x="509" 
d="M321 510q69 0 126 -16v-117q-62 31 -141 31q-70 0 -111 -47t-41 -114q0 -72 35 -117t105 -45q26 0 44 6v167h109v-248q-72 -24 -157 -24q-116 0 -182.5 69t-66.5 186q0 116 79.5 192.5t200.5 76.5zM237 -57h110q-25 -107 -84 -185l-62 19q30 72 36 166z" />
    <glyph glyph-name="Gdotaccent.small" horiz-adv-x="509" 
d="M321 510q69 0 126 -16v-117q-62 31 -141 31q-70 0 -111 -47t-41 -114q0 -72 35 -117t105 -45q26 0 44 6v167h109v-248q-72 -24 -157 -24q-116 0 -182.5 69t-66.5 186q0 116 79.5 192.5t200.5 76.5zM300 672q23 0 40 -16.5t17 -41.5t-17 -41.5t-40 -16.5q-24 0 -40.5 16.5
t-16.5 41.5t16.5 41.5t40.5 16.5z" />
    <glyph glyph-name="Hcircumflex.small" horiz-adv-x="527" 
d="M62 497h109v-191h184v191h110v-497h-110v218h-184v-218h-109v497zM218 713h90l105 -167l-66 -8l-86 98l-86 -98l-62 8z" />
    <glyph glyph-name="Hbar.small" horiz-adv-x="527" 
d="M62 497h109v-66h184v66h110v-66h52v-63h-52v-368h-110v218h-184v-218h-109v368h-51v63h51v66zM171 306h184v62h-184v-62z" />
    <glyph glyph-name="Iacute.small" horiz-adv-x="233" 
d="M148 720h121l-145 -176l-72 7zM62 497h109v-497h-109v497z" />
    <glyph glyph-name="Ibreve.small" horiz-adv-x="233" 
d="M-19 692l67 5q2 -72 72 -72q68 0 71 73l63 -6q-1 -73 -38.5 -112.5t-97.5 -39.5t-98 39.5t-39 112.5zM62 497h109v-497h-109v497z" />
    <glyph glyph-name="Icircumflex.small" horiz-adv-x="233" 
d="M62 497h109v-497h-109v497zM72 713h90l105 -167l-66 -8l-86 98l-86 -98l-62 8z" />
    <glyph glyph-name="Idieresis.small" horiz-adv-x="233" 
d="M62 497h109v-497h-109v497zM24 671q23 0 39 -16.5t16 -42.5t-16 -43t-39 -17q-24 0 -40 17t-16 43t16 42.5t40 16.5zM211 671q24 0 39.5 -16.5t15.5 -42.5t-16 -43t-39 -17q-24 0 -40 17t-16 43t16 42.5t40 16.5z" />
    <glyph glyph-name="Igrave.small" horiz-adv-x="233" 
d="M-28 720h121l96 -169l-72 -7zM62 497h109v-497h-109v497z" />
    <glyph glyph-name="Imacron.small" horiz-adv-x="233" 
d="M5 650h225v-69h-225v69zM62 497h109v-497h-109v497z" />
    <glyph glyph-name="Iogonek.small" horiz-adv-x="233" 
d="M62 497h109v-497h-16q-53 -38 -53 -94q0 -47 54 -47q30 0 57 16l11 -56q-41 -32 -106 -32q-54 0 -82 22t-28 61q0 38 24 74t61 56h-31v497z" />
    <glyph glyph-name="Itilde.small" horiz-adv-x="233" 
d="M10 549l-48 6q14 124 104 124q30 0 50.5 -15.5t36 -30.5t31.5 -15q38 0 40 55l48 -4q-6 -63 -33 -93t-70 -30q-28 0 -48.5 16t-35.5 31.5t-30 15.5q-22 0 -32 -15t-13 -45zM62 497h109v-497h-109v497z" />
    <glyph glyph-name="Dotlessi.small" horiz-adv-x="233" 
d="M62 497h109v-497h-109v497z" />
    <glyph glyph-name="Jcircumflex.small" horiz-adv-x="233" 
d="M62 497h109v-475q0 -95 -63 -153.5t-165 -60.5l19 115q55 0 77.5 18t22.5 64v492zM74 713h90l105 -167l-66 -8l-86 98l-86 -98l-62 8z" />
    <glyph glyph-name="Kcommaaccent.small" horiz-adv-x="517" 
d="M349 497h138l-200 -218l227 -279h-147l-195 252zM62 497h109v-497h-109v497zM216 -57h110q-25 -107 -84 -185l-62 19q30 72 36 166z" />
    <glyph glyph-name="Lacute.small" horiz-adv-x="378" 
d="M183 720h121l-145 -176l-72 7zM62 497h109v-411l198 11v-97h-307v497z" />
    <glyph glyph-name="Lcaron.small" horiz-adv-x="378" 
d="M62 497h109v-411l198 11v-97h-307v497zM240 511h94l-46 -194l-57 6z" />
    <glyph glyph-name="Lcommaaccent.small" horiz-adv-x="378" 
d="M62 497h109v-411l198 11v-97h-307v497zM166 -57h110q-25 -107 -84 -185l-62 19q30 72 36 166z" />
    <glyph glyph-name="Lslash.small" horiz-adv-x="378" 
d="M62 497h109v-165l76 69l43 -49l-119 -109v-157l198 11v-97h-307v144l-30 -27l-43 49l73 66v265z" />
    <glyph glyph-name="Nacute.small" horiz-adv-x="518" 
d="M283 720h121l-145 -176l-72 7zM61 496h124l173 -281v281h98v-496h-85l-213 351v-351h-97v496z" />
    <glyph glyph-name="Napostrophe.small" horiz-adv-x="518" 
d="M61 496h124l173 -281v281h98v-496h-85l-213 351v-351h-97v496zM82 736h110q-25 -107 -84 -185l-62 19q30 72 36 166z" />
    <glyph glyph-name="Ncaron.small" horiz-adv-x="518" 
d="M109 713l66 8l85 -97l85 97l64 -8l-106 -166h-90zM61 496h124l173 -281v281h98v-496h-85l-213 351v-351h-97v496z" />
    <glyph glyph-name="Ncommaaccent.small" horiz-adv-x="527" 
d="M62 497h109v-191h184v191h110v-497h-110v218h-184v-218h-109v497zM215 -57h110q-25 -107 -84 -185l-62 19q30 72 36 166z" />
    <glyph glyph-name="Ntilde.small" horiz-adv-x="518" 
d="M152 549l-48 6q14 124 104 124q30 0 50.5 -15.5t36 -30.5t31.5 -15q38 0 40 55l48 -4q-6 -63 -33 -93t-70 -30q-28 0 -48.5 16t-35.5 31.5t-30 15.5q-22 0 -32 -15t-13 -45zM61 496h124l173 -281v281h98v-496h-85l-213 351v-351h-97v496z" />
    <glyph glyph-name="Oacute.small" horiz-adv-x="582" 
d="M284 720h121l-145 -176l-72 7zM290 417q-65 0 -100.5 -44.5t-35.5 -121.5q0 -82 34.5 -126.5t102.5 -44.5q65 0 101.5 45.5t36.5 123.5q0 168 -139 168zM299 511q110 0 175.5 -74t65.5 -179q0 -114 -70.5 -193t-190.5 -79q-108 0 -172.5 74t-64.5 180q0 114 69 192.5
t188 78.5z" />
    <glyph glyph-name="Obreve.small" horiz-adv-x="582" 
d="M154 692l67 5q2 -72 72 -72q68 0 71 73l63 -6q-1 -73 -38.5 -112.5t-97.5 -39.5t-98 39.5t-39 112.5zM290 417q-65 0 -100.5 -44.5t-35.5 -121.5q0 -82 34.5 -126.5t102.5 -44.5q65 0 101.5 45.5t36.5 123.5q0 168 -139 168zM299 511q110 0 175.5 -74t65.5 -179
q0 -114 -70.5 -193t-190.5 -79q-108 0 -172.5 74t-64.5 180q0 114 69 192.5t188 78.5z" />
    <glyph glyph-name="Ocircumflex.small" horiz-adv-x="582" 
d="M290 417q-65 0 -100.5 -44.5t-35.5 -121.5q0 -82 34.5 -126.5t102.5 -44.5q65 0 101.5 45.5t36.5 123.5q0 168 -139 168zM299 511q110 0 175.5 -74t65.5 -179q0 -114 -70.5 -193t-190.5 -79q-108 0 -172.5 74t-64.5 180q0 114 69 192.5t188 78.5zM246 713h90l105 -167
l-66 -8l-86 98l-86 -98l-62 8z" />
    <glyph glyph-name="Odieresis.small" horiz-adv-x="582" 
d="M290 417q-65 0 -100.5 -44.5t-35.5 -121.5q0 -82 34.5 -126.5t102.5 -44.5q65 0 101.5 45.5t36.5 123.5q0 168 -139 168zM299 511q110 0 175.5 -74t65.5 -179q0 -114 -70.5 -193t-190.5 -79q-108 0 -172.5 74t-64.5 180q0 114 69 192.5t188 78.5zM197 671q23 0 39 -16.5
t16 -42.5t-16 -43t-39 -17q-24 0 -40 17t-16 43t16 42.5t40 16.5zM384 671q24 0 39.5 -16.5t15.5 -42.5t-16 -43t-39 -17q-24 0 -40 17t-16 43t16 42.5t40 16.5z" />
    <glyph glyph-name="Ograve.small" horiz-adv-x="582" 
d="M163 720h121l96 -169l-72 -7zM290 417q-65 0 -100.5 -44.5t-35.5 -121.5q0 -82 34.5 -126.5t102.5 -44.5q65 0 101.5 45.5t36.5 123.5q0 168 -139 168zM299 511q110 0 175.5 -74t65.5 -179q0 -114 -70.5 -193t-190.5 -79q-108 0 -172.5 74t-64.5 180q0 114 69 192.5
t188 78.5z" />
    <glyph glyph-name="Ohungarumlaut.small" horiz-adv-x="582" 
d="M290 417q-65 0 -100.5 -44.5t-35.5 -121.5q0 -82 34.5 -126.5t102.5 -44.5q65 0 101.5 45.5t36.5 123.5q0 168 -139 168zM299 511q110 0 175.5 -74t65.5 -179q0 -114 -70.5 -193t-190.5 -79q-108 0 -172.5 74t-64.5 180q0 114 69 192.5t188 78.5zM230 720h99l-120 -177
l-61 9zM397 720h98l-120 -177l-61 9z" />
    <glyph glyph-name="Omacron.small" horiz-adv-x="582" 
d="M178 650h225v-69h-225v69zM290 417q-65 0 -100.5 -44.5t-35.5 -121.5q0 -82 34.5 -126.5t102.5 -44.5q65 0 101.5 45.5t36.5 123.5q0 168 -139 168zM299 511q110 0 175.5 -74t65.5 -179q0 -114 -70.5 -193t-190.5 -79q-108 0 -172.5 74t-64.5 180q0 114 69 192.5
t188 78.5z" />
    <glyph glyph-name="Otilde.small" horiz-adv-x="582" 
d="M186 549l-48 6q14 124 104 124q30 0 50.5 -15.5t36 -30.5t31.5 -15q38 0 40 55l48 -4q-6 -63 -33 -93t-70 -30q-28 0 -48.5 16t-35.5 31.5t-30 15.5q-22 0 -32 -15t-13 -45zM290 417q-65 0 -100.5 -44.5t-35.5 -121.5q0 -82 34.5 -126.5t102.5 -44.5q65 0 101.5 45.5
t36.5 123.5q0 168 -139 168zM299 511q110 0 175.5 -74t65.5 -179q0 -114 -70.5 -193t-190.5 -79q-108 0 -172.5 74t-64.5 180q0 114 69 192.5t188 78.5z" />
    <glyph glyph-name="Racute.small" horiz-adv-x="482" 
d="M345 0l-130 189q-14 -2 -44 -2v-187h-110v496h122q228 0 228 -136q0 -105 -95 -147l163 -213h-134zM236 720h121l-145 -176l-72 7zM171 412v-143q17 -3 37 -3q38 0 63 17.5t25 56.5t-25 56t-61 17q-30 0 -39 -1z" />
    <glyph glyph-name="Rcaron.small" horiz-adv-x="482" 
d="M345 0l-130 189q-14 -2 -44 -2v-187h-110v496h122q228 0 228 -136q0 -105 -95 -147l163 -213h-134zM70 713l66 8l85 -97l85 97l64 -8l-106 -166h-90zM171 412v-143q17 -3 37 -3q38 0 63 17.5t25 56.5t-25 56t-61 17q-30 0 -39 -1z" />
    <glyph glyph-name="Rcommaaccent.small" horiz-adv-x="482" 
d="M345 0l-130 189q-14 -2 -44 -2v-187h-110v496h122q228 0 228 -136q0 -105 -95 -147l163 -213h-134zM188 -57h110q-25 -107 -84 -185l-62 19q30 72 36 166zM171 412v-143q17 -3 37 -3q38 0 63 17.5t25 56.5t-25 56t-61 17q-30 0 -39 -1z" />
    <glyph glyph-name="Sacute.small" horiz-adv-x="391" 
d="M208 720h121l-145 -176l-72 7zM232 511q56 0 95 -15v-106q-55 29 -116 29t-61 -49q0 -20 21.5 -36.5t52 -31t61 -32t52 -48.5t21.5 -72q0 -73 -51 -118.5t-136 -45.5q-72 0 -123 17v108q74 -29 130 -29q33 0 53.5 13.5t20.5 39.5q0 21 -21.5 39t-52 32.5t-60.5 32
t-51.5 47.5t-21.5 70q0 67 48.5 111t138.5 44z" />
    <glyph glyph-name="Scaron.small" horiz-adv-x="391" 
d="M55 713l66 8l85 -97l85 97l64 -8l-106 -166h-90zM232 511q56 0 95 -15v-106q-55 29 -116 29t-61 -49q0 -20 21.5 -36.5t52 -31t61 -32t52 -48.5t21.5 -72q0 -73 -51 -118.5t-136 -45.5q-72 0 -123 17v108q74 -29 130 -29q33 0 53.5 13.5t20.5 39.5q0 21 -21.5 39
t-52 32.5t-60.5 32t-51.5 47.5t-21.5 70q0 67 48.5 111t138.5 44z" />
    <glyph glyph-name="Scedilla.small" horiz-adv-x="391" 
d="M232 511q56 0 95 -15v-106q-55 29 -116 29t-61 -49q0 -20 21.5 -36.5t52 -31t61 -32t52 -48.5t21.5 -72q0 -65 -41 -109t-112 -53l-21 -46q54 -1 80.5 -22t26.5 -56q0 -43 -34.5 -71t-98.5 -28q-49 0 -82 14l20 53q19 -8 42 -8q50 0 50 36q0 40 -74 40l32 87
q-53 2 -98 16v108q74 -29 130 -29q33 0 53.5 13.5t20.5 39.5q0 21 -21.5 39t-52 32.5t-60.5 32t-51.5 47.5t-21.5 70q0 67 48.5 111t138.5 44z" />
    <glyph glyph-name="Scircumflex.small" horiz-adv-x="391" 
d="M232 511q56 0 95 -15v-106q-55 29 -116 29t-61 -49q0 -20 21.5 -36.5t52 -31t61 -32t52 -48.5t21.5 -72q0 -73 -51 -118.5t-136 -45.5q-72 0 -123 17v108q74 -29 130 -29q33 0 53.5 13.5t20.5 39.5q0 21 -21.5 39t-52 32.5t-60.5 32t-51.5 47.5t-21.5 70q0 67 48.5 111
t138.5 44zM159 713h90l105 -167l-66 -8l-86 98l-86 -98l-62 8z" />
    <glyph glyph-name="Scommaaccent.small" horiz-adv-x="391" 
d="M232 511q56 0 95 -15v-106q-55 29 -116 29t-61 -49q0 -20 21.5 -36.5t52 -31t61 -32t52 -48.5t21.5 -72q0 -73 -51 -118.5t-136 -45.5q-72 0 -123 17v108q74 -29 130 -29q33 0 53.5 13.5t20.5 39.5q0 21 -21.5 39t-52 32.5t-60.5 32t-51.5 47.5t-21.5 70q0 67 48.5 111
t138.5 44zM144 -57h110q-25 -107 -84 -185l-62 19q30 72 36 166z" />
    <glyph glyph-name="Tbar.small" horiz-adv-x="427" 
d="M3 497h421v-103l-156 10v-138h58v-69h-58v-197h-110v197h-57v69h57v138l-155 -10v103z" />
    <glyph glyph-name="Tcaron.small" horiz-adv-x="427" 
d="M64 713l66 8l85 -97l85 97l64 -8l-106 -166h-90zM3 497h421v-103l-156 10v-404h-110v404l-155 -10v103z" />
    <glyph glyph-name="Tcommaaccent.small" horiz-adv-x="427" 
d="M3 497h421v-103l-156 10v-404h-110v404l-155 -10v103zM166 -57h110q-25 -107 -84 -185l-62 19q30 72 36 166z" />
    <glyph glyph-name="Uacute.small" horiz-adv-x="519" 
d="M271 720h121l-145 -176l-72 7zM62 497h109v-325q0 -90 91 -90q44 0 70.5 21t26.5 64v330h106v-331q0 -81 -64 -130t-151 -49q-80 0 -134 41.5t-54 121.5v347z" />
    <glyph glyph-name="Ubreve.small" horiz-adv-x="519" 
d="M122 692l67 5q2 -72 72 -72q68 0 71 73l63 -6q-1 -73 -38.5 -112.5t-97.5 -39.5t-98 39.5t-39 112.5zM62 497h109v-325q0 -90 91 -90q44 0 70.5 21t26.5 64v330h106v-331q0 -81 -64 -130t-151 -49q-80 0 -134 41.5t-54 121.5v347z" />
    <glyph glyph-name="Ucircumflex.small" horiz-adv-x="519" 
d="M62 497h109v-325q0 -90 91 -90q44 0 70.5 21t26.5 64v330h106v-331q0 -81 -64 -130t-151 -49q-80 0 -134 41.5t-54 121.5v347zM214 713h90l105 -167l-66 -8l-86 98l-86 -98l-62 8z" />
    <glyph glyph-name="Udieresis.small" horiz-adv-x="519" 
d="M62 497h109v-325q0 -90 91 -90q44 0 70.5 21t26.5 64v330h106v-331q0 -81 -64 -130t-151 -49q-80 0 -134 41.5t-54 121.5v347zM166 671q23 0 39 -16.5t16 -42.5t-16 -43t-39 -17q-24 0 -40 17t-16 43t16 42.5t40 16.5zM353 671q24 0 39.5 -16.5t15.5 -42.5t-16 -43
t-39 -17q-24 0 -40 17t-16 43t16 42.5t40 16.5z" />
    <glyph glyph-name="Ugrave.small" horiz-adv-x="519" 
d="M117 720h121l96 -169l-72 -7zM62 497h109v-325q0 -90 91 -90q44 0 70.5 21t26.5 64v330h106v-331q0 -81 -64 -130t-151 -49q-80 0 -134 41.5t-54 121.5v347z" />
    <glyph glyph-name="Uhungarumlaut.small" horiz-adv-x="519" 
d="M62 497h109v-325q0 -90 91 -90q44 0 70.5 21t26.5 64v330h106v-331q0 -81 -64 -130t-151 -49q-80 0 -134 41.5t-54 121.5v347zM196 720h99l-120 -177l-61 9zM363 720h98l-120 -177l-61 9z" />
    <glyph glyph-name="Umacron.small" horiz-adv-x="519" 
d="M147 650h225v-69h-225v69zM62 497h109v-325q0 -90 91 -90q44 0 70.5 21t26.5 64v330h106v-331q0 -81 -64 -130t-151 -49q-80 0 -134 41.5t-54 121.5v347z" />
    <glyph glyph-name="Uogonek.small" horiz-adv-x="519" 
d="M62 497h109v-325q0 -90 91 -90q44 0 70.5 21t26.5 64v330h106v-331q0 -68 -45.5 -114t-114.5 -59q-44 -39 -44 -87q0 -47 54 -47q30 0 57 16l11 -56q-41 -32 -106 -32q-54 0 -82 22t-28 61q0 32 18.5 64t47.5 54q-74 4 -122.5 45t-48.5 117v347z" />
    <glyph glyph-name="Uring.small" horiz-adv-x="519" 
d="M153 628q0 45 31.5 75t76.5 30t74.5 -29.5t29.5 -75.5q0 -45 -31 -74t-76 -29q-46 0 -75.5 29t-29.5 74zM257 674q-40 0 -40 -45q0 -22 11.5 -35.5t31.5 -13.5q39 0 39 45q0 22 -11.5 35.5t-30.5 13.5zM62 497h109v-325q0 -90 91 -90q44 0 70.5 21t26.5 64v330h106v-331
q0 -81 -64 -130t-151 -49q-80 0 -134 41.5t-54 121.5v347z" />
    <glyph glyph-name="Utilde.small" horiz-adv-x="519" 
d="M152 549l-48 6q14 124 104 124q30 0 50.5 -15.5t36 -30.5t31.5 -15q38 0 40 55l48 -4q-6 -63 -33 -93t-70 -30q-28 0 -48.5 16t-35.5 31.5t-30 15.5q-22 0 -32 -15t-13 -45zM62 497h109v-325q0 -90 91 -90q44 0 70.5 21t26.5 64v330h106v-331q0 -81 -64 -130t-151 -49
q-80 0 -134 41.5t-54 121.5v347z" />
    <glyph glyph-name="Wcircumflex.small" horiz-adv-x="726" 
d="M7 497h118l95 -348l105 348h88l105 -347l92 347h109l-159 -497h-99l-102 318l-102 -318h-95zM318 713h90l105 -167l-66 -8l-86 98l-86 -98l-62 8z" />
    <glyph glyph-name="Yacute.small" horiz-adv-x="472" 
d="M247 720h121l-145 -176l-72 7zM-8 497h130l120 -195l121 195h117l-192 -287v-210h-104v205z" />
    <glyph glyph-name="Ycircumflex.small" horiz-adv-x="472" 
d="M-8 497h130l120 -195l121 195h117l-192 -287v-210h-104v205zM191 713h90l105 -167l-66 -8l-86 98l-86 -98l-62 8z" />
    <glyph glyph-name="Ydieresis.small" horiz-adv-x="472" 
d="M-8 497h130l120 -195l121 195h117l-192 -287v-210h-104v205zM143 671q23 0 39 -16.5t16 -42.5t-16 -43t-39 -17q-24 0 -40 17t-16 43t16 42.5t40 16.5zM330 671q24 0 39.5 -16.5t15.5 -42.5t-16 -43t-39 -17q-24 0 -40 17t-16 43t16 42.5t40 16.5z" />
    <glyph glyph-name="Zacute.small" horiz-adv-x="442" 
d="M237 720h121l-145 -176l-72 7zM35 497h375v-82l-255 -329l263 10v-96h-395v83l252 328l-240 -10v96z" />
    <glyph glyph-name="Zcaron.small" horiz-adv-x="442" 
d="M73 713l66 8l85 -97l85 97l64 -8l-106 -166h-90zM35 497h375v-82l-255 -329l263 10v-96h-395v83l252 328l-240 -10v96z" />
    <glyph glyph-name="Zdotaccent.small" horiz-adv-x="442" 
d="M35 497h375v-82l-255 -329l263 10v-96h-395v83l252 328l-240 -10v96zM223 672q23 0 40 -16.5t17 -41.5t-17 -41.5t-40 -16.5q-24 0 -40.5 16.5t-16.5 41.5t16.5 41.5t40.5 16.5z" />
    <glyph glyph-name="AEacute.small" horiz-adv-x="621" 
d="M407 720h121l-145 -176l-72 7zM252 497h335v-91l-204 10v-124l171 12v-93l-171 11v-141l204 10v-91h-314v131h-153l-85 -131h-122zM273 373l-109 -162h109v162z" />
    <glyph glyph-name="Oslashacute.small" horiz-adv-x="582" 
d="M479 508l80 -11l-70 -78q51 -68 51 -161q0 -114 -70.5 -193t-190.5 -79q-81 0 -139 44l-38 -42l-79 12l69 77q-50 68 -50 163q0 114 69 192.5t188 78.5q81 0 143 -44zM429 249q0 50 -14 87l-208 -231q32 -25 84 -25q65 0 101.5 45.5t36.5 123.5zM290 417
q-65 0 -100.5 -44.5t-35.5 -121.5q0 -55 14 -90l207 231q-34 25 -85 25zM289 720h121l-145 -176l-72 7z" />
    <glyph glyph-name="Germandbls.small" horiz-adv-x="775" 
d="M327 496v-106q-55 29 -116 29t-61 -49q0 -20 21.5 -36.5t52 -31t61 -32t52 -48.5t21.5 -72q0 -73 -51 -118.5t-136 -45.5q-72 0 -123 17v108q74 -29 130 -29q33 0 53.5 13.5t20.5 39.5q0 21 -21.5 39t-52 32.5t-60.5 32t-51.5 47.5t-21.5 70q0 67 48.5 111t138.5 44
q56 0 95 -15zM711 496v-106q-55 29 -116 29t-61 -49q0 -20 21.5 -36.5t52 -31t61 -32t52 -48.5t21.5 -72q0 -73 -51 -118.5t-136 -45.5q-71 0 -123 17v108q74 -29 130 -29q33 0 53.5 13.5t20.5 39.5q0 21 -21.5 39t-52 32.5t-60.5 32t-51.5 47.5t-21.5 70q0 67 49 111
t139 44q57 0 94 -15z" />
    <glyph glyph-name="dollar.small" horiz-adv-x="391" 
d="M327 496v-103q-41 20 -96 26v-124q27 -13 46 -24.5t39.5 -29t31 -40.5t10.5 -51q0 -59 -34 -101t-93 -56v-106h-67v99q-69 2 -116 17v105q52 -21 116 -27v137q-55 26 -87 57.5t-32 80.5q0 52 30.5 92t88.5 55v94h67v-86q57 0 96 -15zM275 132q0 28 -44 53v-102
q44 12 44 49zM127 373q0 -24 37 -46v91q-37 -11 -37 -45z" />
    <glyph glyph-name="cent.small" horiz-adv-x="380" 
d="M205 568h72l-2 -65q27 -3 54 -11v-97q-31 14 -56 19l-5 -205q34 5 61 18v-80q-28 -16 -63 -24l-2 -73h-70l1 68q-70 6 -109.5 53t-39.5 129t42.5 136.5t114.5 66.5zM134 321q0 -84 63 -107l5 202q-68 -15 -68 -95z" />
    <glyph glyph-name="sterling.small" horiz-adv-x="378" 
d="M20 283h30q-4 21 -4 55q0 75 48.5 124t143.5 49q66 0 103 -15v-106q-55 29 -117 29q-73 0 -73 -63q0 -27 13 -73h93v-68h-76q9 -68 -22 -129l197 11v-97h-314q24 50 32 91t5 64t-13 60h-46v68z" />
    <glyph glyph-name="yen.small" horiz-adv-x="472" 
d="M101 193h83v12l-192 292h130l120 -195l121 195h117l-192 -287v-17h84v-69h-84v-124h-104v124h-83v69z" />
    <glyph glyph-name="florin.small" 
d="M113 328h81q0 86 54 134.5t144 48.5q4 0 13.5 -0.5t13.5 -0.5v-106q-16 6 -37 6q-42 0 -60 -15.5t-18 -66.5h115v-92h-116v-168q0 -255 -229 -263l22 106q57 1 77 28t20 98v199h-80v92z" />
    <glyph glyph-name="Euro.small" horiz-adv-x="450" 
d="M421 495v-112q-59 30 -127 30q-98 0 -130 -71h178l-22 -63h-170q-1 -7 -1 -20q0 -20 1 -29h153l-22 -62h-115q38 -83 141 -83q61 0 114 23v-87q-63 -35 -147 -35q-107 0 -169.5 64.5t-62.5 179.5q0 121 73.5 201t192.5 80q59 0 113 -16z" />
    <glyph glyph-name="numbersign.small" horiz-adv-x="550" 
d="M326 488h93v-118h103v-74h-103v-104h103v-74h-103v-118h-93v118h-103v-118h-92v118h-104v74h104v104h-104v74h104v118h92v-118h103v118zM223 296v-104h103v104h-103z" />
    <glyph glyph-name="slash.small" horiz-adv-x="401" 
d="M318 625h108l-342 -731h-109z" />
    <glyph glyph-name="bar.small" horiz-adv-x="282" 
d="M93 606h96v-746h-96v746z" />
    <glyph glyph-name="backslash.small" horiz-adv-x="401" 
d="M-25 625h108l343 -731h-108z" />
    <glyph glyph-name="parenleft.small" horiz-adv-x="293" 
d="M159 595h130q-137 -129 -137 -361q0 -120 35.5 -220t100.5 -165h-128q-111 150 -111 366q0 237 110 380z" />
    <glyph glyph-name="parenright.small" horiz-adv-x="293" 
d="M4 595h129q110 -149 110 -367q0 -236 -110 -379h-129q136 128 136 360q0 121 -35.5 221.5t-100.5 164.5z" />
    <glyph glyph-name="bracketleft.small" horiz-adv-x="304" 
d="M83 601h218v-78h-116v-601h116v-79h-218v758z" />
    <glyph glyph-name="bracketright.small" horiz-adv-x="304" 
d="M3 601h218v-758h-218v78h116v601h-116v79z" />
    <glyph glyph-name="braceleft.small" horiz-adv-x="291" 
d="M279 611v-74q-53 -2 -71.5 -22.5t-18.5 -55.5q0 -21 5 -62t5 -66q0 -80 -63 -101q36 -11 50 -35.5t14 -65.5q0 -21 -4 -61t-4 -65q0 -19 2.5 -32t11 -26t27 -20t46.5 -8v-73q-190 0 -190 146q0 21 4 63t4 67q0 37 -14 54t-49 17h-18v71h18q35 0 49 18.5t14 57.5
q0 19 -5 58t-5 62q0 69 47 110.5t145 42.5z" />
    <glyph glyph-name="braceright.small" horiz-adv-x="291" 
d="M12 537v74q191 -1 191 -150q0 -21 -4.5 -62t-4.5 -63q0 -38 14 -55.5t49 -17.5h19v-72h-19q-35 0 -48.5 -17.5t-13.5 -55.5q0 -22 4 -62t4 -62q0 -150 -191 -150v73q55 2 72 23t17 58q0 23 -5 63.5t-5 64.5q0 76 64 101q-37 10 -50 34t-13 67q0 23 4.5 63t4.5 64
q0 37 -18.5 58.5t-70.5 23.5z" />
    <glyph glyph-name="percent.small" horiz-adv-x="599" 
d="M155 511q56 0 87 -34t31 -93t-36 -96.5t-90 -37.5q-57 0 -87 33t-30 92q0 60 35.5 98t89.5 38zM149 444q-38 0 -38 -62q0 -64 42 -64q38 0 38 61q0 65 -42 65zM452 250q57 0 87.5 -34t30.5 -94q0 -58 -36 -96t-90 -38q-57 0 -88 34t-31 93t36.5 97t90.5 38zM447 182
q-39 0 -39 -61q0 -64 42 -64q38 0 38 61q0 64 -41 64zM432 497h101l-365 -497h-102z" />
    <glyph glyph-name="section.small" horiz-adv-x="445" 
d="M368 559v-97q-51 23 -98 23q-62 0 -62 -46q0 -23 17 -42.5t57 -50.5q30 -25 48.5 -43t42 -47.5t35.5 -64t12 -73.5q0 -106 -68 -160t-167 -54q-68 0 -125 17v98q55 -22 112 -22q78 0 78 47q0 24 -18 44.5t-58 51.5q-32 25 -52.5 44.5t-43.5 47.5t-34 61.5t-11 72.5
q0 90 65.5 148t165.5 58q56 0 104 -13zM120 428q-6 -20 -6 -40q0 -50 30 -90.5t90 -91.5q47 -44 73 -78.5t27 -70.5q8 19 8 42q0 50 -30 89.5t-90 88.5q-49 42 -75 77.5t-27 73.5z" />
    <glyph glyph-name="dagger.small" horiz-adv-x="469" 
d="M177 497h116l-7 -156l172 8v-116l-171 9l-5 -248h-93l-7 248l-170 -9v116l171 -8z" />
    <glyph glyph-name="summation.small" horiz-adv-x="461" 
d="M297 252l-130 -164l261 8v-96h-395v83l134 169l-122 163v82h375v-96l-239 8z" />
    <glyph glyph-name="question.small" horiz-adv-x="388" 
d="M197 510q155 0 155 -116q0 -38 -21.5 -75t-47 -61t-47 -51t-22.5 -48h-109q0 30 20 59.5t43.5 49t43.5 45t20 47.5q0 31 -18.5 42.5t-57.5 11.5q-66 0 -123 -35v108q86 23 164 23zM91 55q0 28 20.5 48t49.5 20q28 0 47.5 -20t19.5 -48q0 -29 -19.5 -49t-47.5 -20
q-29 0 -49.5 20.5t-20.5 48.5z" />
    <glyph glyph-name="exclam.small" horiz-adv-x="307" 
d="M85 55q0 28 20.5 48t48.5 20t48 -20t20 -48q0 -29 -20 -49t-48 -20t-48.5 20t-20.5 49zM86 497h135l-21 -323h-94z" />
    </font>
</defs>
</svg>
