<?xml version="1.0" standalone="no"?>
<!DOCTYPE svg PUBLIC "-//W3C//DTD SVG 1.1//EN" "http://www.w3.org/Graphics/SVG/1.1/DTD/svg11.dtd" >
<svg>
<metadata>
Created by FontForge 20110222 at Tue Oct 21 13:58:24 2014
 By deploy user
Copyright (c) 2011 by Frantisek Storm. All rights reserved.
</metadata>
<defs>
<font id="JannonSansBook" horiz-adv-x="512" >
  <font-face 
    font-family="Jannon Sans Book"
    font-weight="250"
    font-stretch="normal"
    units-per-em="1000"
    panose-1="2 0 5 3 0 0 0 2 0 3"
    ascent="800"
    descent="-200"
    x-height="443"
    cap-height="690"
    bbox="-220 -264 1341 970"
    underline-thickness="57"
    underline-position="-60"
    unicode-range="U+0020-F6D0"
  />
<missing-glyph horiz-adv-x="228" 
 />
    <glyph glyph-name="f_f" unicode="ff" horiz-adv-x="555" 
d="M307 787v-67q-24 4 -32 4q-96 0 -96 -126v-155h173v91q0 114 40.5 184t130.5 70q3 0 11.5 -0.5t11.5 -0.5v-67q-24 4 -33 4q-48 0 -71.5 -34t-23.5 -92v-155h128v-50h-128v-393h-66v393h-173v-393h-66v393h-80v50h80v91q0 114 40.5 184t131.5 70q3 0 11 -0.5t11 -0.5z
" />
    <glyph glyph-name="f_i" unicode="fi" horiz-adv-x="491" 
d="M179 587v-144h239v-443h-66v393h-173v-393h-66v393h-80v50h80v114q0 40 10 74.5t32 65t63.5 48t98.5 17.5q53 0 101 -15v-68q-63 24 -117 24q-56 0 -89 -29.5t-33 -86.5z" />
    <glyph glyph-name="f_j" unicode="fj" horiz-adv-x="491" 
d="M179 587v-144h239v-436q0 -107 -44.5 -174.5t-133.5 -76.5l14 72q58 1 78 34t20 124v407h-173v-393h-66v393h-80v50h80v115q0 40 10 74t32 64.5t63.5 48t98.5 17.5q53 0 101 -15v-68q-63 24 -117 24q-56 0 -89 -29.5t-33 -86.5z" />
    <glyph glyph-name="f_l" unicode="fl" horiz-adv-x="492" 
d="M179 595v-152h125v-51h-125v-392h-66v392h-80v51h80v124q0 90 53.5 143t140.5 53q57 0 113 -21v-742h-67v696q-29 9 -62 9q-51 0 -81.5 -28.5t-30.5 -81.5z" />
    <glyph glyph-name="f_f_i" unicode="ffi" horiz-adv-x="730" 
d="M307 787v-67q-15 4 -32 4q-48 0 -72 -34t-24 -91v-156h173v118q0 98 56.5 150t147.5 52q50 0 101 -16v-68q-64 25 -116 25q-57 0 -90 -29.5t-33 -86.5v-145h239v-443h-66v392h-173v-392h-66v392h-173v-392h-66v392h-80v51h80v129q0 94 46 155t126 61q3 0 11 -0.5t11 -0.5
z" />
    <glyph glyph-name="f_f_j" unicode="ffj" horiz-adv-x="730" 
d="M307 787v-67q-15 4 -32 4q-48 0 -72 -34t-24 -91v-156h173v118q0 98 56.5 150t147.5 52q50 0 101 -16v-68q-64 25 -116 25q-57 0 -90 -29.5t-33 -86.5v-145h239v-436q0 -107 -44 -175t-133 -77l14 72q58 2 77.5 35t19.5 123v407h-173v-392h-66v392h-173v-392h-66v392h-80
v51h80v129q0 94 46 155t126 61q3 0 11 -0.5t11 -0.5z" />
    <glyph glyph-name="f_f_k" unicode="ffk" horiz-adv-x="962" 
d="M307 787v-67q-15 4 -32 4q-48 0 -72 -34t-24 -91v-156h173v119q0 90 54 142.5t141 52.5q60 0 113 -20v-737h-67v691q-24 8 -62 8q-52 0 -82.5 -28.5t-30.5 -81.5v-146h125v-51h-125v-392h-66v392h-173v-392h-66v392h-80v51h80v129q0 94 46 155t126 61q3 0 11 -0.5
t11 -0.5zM843 443h82l-190 -196l222 -247h-91l-204 232z" />
    <glyph glyph-name="f_f_l" unicode="ffl" horiz-adv-x="732" 
d="M307 787v-67q-15 4 -32 4q-48 0 -72 -34t-24 -91v-156h173v119q0 90 54 142.5t141 52.5q60 0 113 -20v-737h-67v691q-24 8 -62 8q-52 0 -82.5 -28.5t-30.5 -81.5v-146h125v-51h-125v-392h-66v392h-173v-392h-66v392h-80v51h80v129q0 94 46 155t126 61q3 0 11 -0.5
t11 -0.5z" />
    <glyph glyph-name="T_h" unicode="Th" horiz-adv-x="945" 
d="M6 690h285l292 9v-329q32 40 78.5 63.5t89.5 23.5q57 0 89 -36t32 -111v-310h-66v293q0 106 -89 106q-59 0 -96.5 -42.5t-37.5 -95.5v-261h-67v635h-207v-635h-74v635l-229 -9v64z" />
    <glyph glyph-name=".notdef" horiz-adv-x="228" 
 />
    <glyph glyph-name=".null" horiz-adv-x="0" 
 />
    <glyph glyph-name="nonmarkingreturn" horiz-adv-x="333" 
 />
    <glyph glyph-name="space" unicode=" " horiz-adv-x="228" 
 />
    <glyph glyph-name="exclam" unicode="!" horiz-adv-x="268" 
d="M87 37q0 19 14 33t33 14q20 0 33.5 -14t13.5 -33q0 -20 -13.5 -34t-33.5 -14q-19 0 -33 14.5t-14 33.5zM88 690h92l-21 -520h-51z" />
    <glyph glyph-name="quotedbl" unicode="&#x22;" horiz-adv-x="305" 
d="M52 785h78l-38 -207h-44zM184 785h78l-39 -207h-43z" />
    <glyph glyph-name="numbersign" unicode="#" 
d="M24 253h106v191h-106v52h106v194h60v-194h130v194h60v-194h107v-52h-107v-191h107v-52h-107v-201h-60v201h-130v-201h-60v201h-106v52zM190 444v-191h130v191h-130z" />
    <glyph glyph-name="dollar" unicode="$" 
d="M283 700q80 0 127 -19v-80q-62 33 -139 36v-246q33 -17 51 -27.5t45.5 -30.5t41.5 -38.5t25 -46t11 -58.5q0 -73 -48.5 -128t-125.5 -71v-104h-47v99h-6q-88 0 -149 23v81q67 -35 155 -39v282q-38 21 -59.5 34.5t-47.5 36t-38 49.5t-12 60q0 67 41.5 116.5t115.5 64.5v94
h47v-88h12zM380 169q0 44 -28 75.5t-81 62.5v-253q48 8 78.5 37.5t30.5 77.5zM131 536q0 -38 24 -65.5t69 -53.5v219q-43 -7 -68 -32.5t-25 -67.5z" />
    <glyph glyph-name="percent" unicode="%" horiz-adv-x="705" 
d="M197 700q74 0 111 -46t37 -121t-43.5 -125.5t-117.5 -50.5t-111 44.5t-37 119.5q0 76 43.5 127.5t117.5 51.5zM189 656q-90 0 -90 -127q0 -128 94 -128q89 0 89 125q0 62 -24 96t-69 34zM521 329q74 0 111 -46t37 -121t-43.5 -125.5t-117.5 -50.5t-111 45t-37 120
q0 76 43.5 127t117.5 51zM512 285q-89 0 -89 -127q0 -128 94 -128q88 0 88 125q0 130 -93 130zM577 690h64l-512 -690h-64z" />
    <glyph glyph-name="ampersand" unicode="&#x26;" horiz-adv-x="775" 
d="M359 700q53 0 88.5 -28t35.5 -83q0 -34 -14 -64.5t-45 -59t-55.5 -46.5t-69.5 -47q60 -135 148 -226l157 297h81l-210 -325q85 -73 159 -73q66 0 125 27v-43q-64 -43 -145 -43q-91 0 -184 82q-104 -82 -223 -82q-75 0 -119 40t-44 110q0 73 47.5 125.5t134.5 109.5
q-38 95 -38 155q0 79 50.5 126.5t120.5 47.5zM403 93q-97 98 -161 240q-60 -42 -92.5 -81.5t-32.5 -88.5q0 -57 37 -89.5t96 -32.5q82 0 153 52zM252 555q0 -59 32 -147q65 43 99 78t34 79q0 39 -22.5 59.5t-56.5 20.5q-40 0 -63 -24t-23 -66z" />
    <glyph glyph-name="quotesingle" unicode="'" horiz-adv-x="173" 
d="M52 785h78l-38 -207h-44z" />
    <glyph glyph-name="parenleft" unicode="(" horiz-adv-x="303" 
d="M306 -243h-84q-66 87 -107.5 220t-41.5 286q0 345 149 522h84q-80 -75 -127 -208.5t-47 -296.5q0 -154 49.5 -297t124.5 -226z" />
    <glyph glyph-name="parenright" unicode=")" horiz-adv-x="303" 
d="M-3 785h84q66 -88 107.5 -220.5t41.5 -285.5q0 -345 -149 -522h-84q80 75 127 208t47 296q0 154 -49.5 297.5t-124.5 226.5z" />
    <glyph glyph-name="asterisk" unicode="*" horiz-adv-x="409" 
d="M62 632l132 -79l-31 149q19 4 45 4q19 0 39 -5l-32 -148l131 75q21 -36 26 -79l-151 -14l112 -105q-32 -34 -70 -49l-59 141l-63 -140q-38 17 -68 50l115 102l-152 17q4 37 26 81z" />
    <glyph glyph-name="plus" unicode="+" 
d="M24 273h206v204h51v-204h206v-52h-206v-207h-51v207h-206v52z" />
    <glyph glyph-name="comma" unicode="," horiz-adv-x="181" 
d="M57 86l83 13q9 -63 -14 -142t-64 -134l-32 15q65 119 27 248z" />
    <glyph glyph-name="hyphen" unicode="-" horiz-adv-x="323" 
d="M56 286h211v-62h-211v62z" />
    <glyph glyph-name="hyphen" unicode="&#xad;" horiz-adv-x="323" 
d="M56 286h211v-62h-211v62z" />
    <glyph glyph-name="period" unicode="." horiz-adv-x="218" 
d="M61 38q0 19 14.5 33t34.5 14t33.5 -13.5t13.5 -33.5t-14 -34.5t-33 -14.5q-20 0 -34.5 14.5t-14.5 34.5z" />
    <glyph glyph-name="slash" unicode="/" horiz-adv-x="449" 
d="M418 785h64l-484 -1028h-64z" />
    <glyph glyph-name="zero" unicode="0" horiz-adv-x="536" 
d="M271 700q105 0 158 -98t53 -256q0 -152 -60.5 -256t-159.5 -104q-105 0 -158 97t-53 253q0 154 60.5 259t159.5 105zM265 650q-62 0 -101 -76.5t-39 -226.5q0 -138 38.5 -225t103.5 -87q62 0 100.5 74.5t38.5 224.5q0 139 -38.5 227.5t-102.5 88.5z" />
    <glyph glyph-name="one" unicode="1" horiz-adv-x="368" 
d="M25 621l227 79v-700h-68v626l-159 -65v60z" />
    <glyph glyph-name="two" unicode="2" horiz-adv-x="515" 
d="M281 700q75 0 126 -49t51 -142q0 -110 -92.5 -233.5t-237.5 -224.5l336 14v-65h-409v44q164 119 244.5 232.5t80.5 211.5q0 76 -38 116t-92 40t-89.5 -37.5t-35.5 -93.5q0 -59 41 -116l-70 -44q-32 60 -32 125q0 92 61 157t156 65z" />
    <glyph glyph-name="three" unicode="3" horiz-adv-x="489" 
d="M55 611v68q73 21 169 21q82 0 129.5 -36.5t47.5 -108.5q0 -59 -39 -104.5t-107 -73.5q74 -17 121 -63.5t47 -115.5q0 -91 -65.5 -151.5t-165.5 -60.5q-81 0 -137 23v76q69 -39 153 -39q66 0 104 33t38 98q0 67 -51.5 114.5t-136.5 47.5q-23 0 -45 -2v52q94 0 154 34
t60 104q0 55 -35.5 87t-95.5 32q-80 0 -145 -35z" />
    <glyph glyph-name="four" unicode="4" horiz-adv-x="484" 
d="M288 690h84v-442l96 3v-55h-96v-196h-67v196h-290v32zM79 242l226 4v380z" />
    <glyph glyph-name="five" unicode="5" horiz-adv-x="455" 
d="M74 435l18 255l298 12v-66h-246l-8 -138q131 -18 195 -83.5t64 -155.5q0 -52 -20.5 -100t-58 -87t-98.5 -62.5t-136 -23.5l4 63q247 0 247 179q0 85 -67 146t-192 61z" />
    <glyph glyph-name="six" unicode="6" horiz-adv-x="499" 
d="M311 700q59 0 107 -19v-72q-62 31 -124 31q-79 0 -123.5 -63.5t-54.5 -175.5q76 50 154 50q80 0 131.5 -56.5t51.5 -153.5q0 -111 -59.5 -183t-147.5 -72q-194 0 -194 306q0 176 69 292t190 116zM230 398q-59 0 -116 -35v-29q0 -140 38 -215.5t112 -75.5q56 0 89 44
t33 129q0 88 -43.5 135t-112.5 47z" />
    <glyph glyph-name="seven" unicode="7" horiz-adv-x="444" 
d="M10 690h425v-49l-258 -650l-40 9l217 637l-344 -11v64z" />
    <glyph glyph-name="eight" unicode="8" 
d="M441 557q0 -61 -36.5 -101.5t-107.5 -86.5q40 -23 62.5 -38.5t50.5 -40t41 -53t13 -62.5q0 -86 -70 -137.5t-164 -51.5q-79 0 -130.5 39.5t-51.5 117.5q0 64 40 109.5t115 94.5q-63 36 -97 73t-34 92q0 85 62.5 136.5t147.5 51.5q69 0 114 -36t45 -107zM392 155
q0 31 -12 56.5t-38.5 47.5t-47 35t-59.5 35q-55 -38 -85.5 -77.5t-30.5 -95.5q0 -58 39 -89t99 -31q58 0 96.5 30.5t38.5 88.5zM137 539q0 -46 32.5 -80t95.5 -71q55 38 84.5 73.5t29.5 80.5q0 54 -33 82t-85 28t-88 -30t-36 -83z" />
    <glyph glyph-name="nine" unicode="9" horiz-adv-x="515" 
d="M262 700q104 0 152 -70.5t48 -185.5q0 -69 -19.5 -137t-59.5 -131.5t-108 -113.5t-156 -76l-16 37q108 33 175.5 105t95.5 167q-74 -48 -153 -48q-78 0 -129 52.5t-51 152.5q0 102 64 175t157 73zM259 297q63 0 124 38q9 45 9 90q0 103 -38.5 162t-116.5 59
q-59 0 -94.5 -43.5t-35.5 -123.5q0 -90 42.5 -136t109.5 -46z" />
    <glyph glyph-name="colon" unicode=":" horiz-adv-x="218" 
d="M61 38q0 19 14.5 33t34.5 14t33.5 -13.5t13.5 -33.5t-14 -34.5t-33 -14.5q-20 0 -34.5 14.5t-14.5 34.5zM61 412q0 19 14.5 33t34.5 14q19 0 33 -14t14 -33q0 -20 -14 -34.5t-33 -14.5q-20 0 -34.5 14.5t-14.5 34.5z" />
    <glyph glyph-name="semicolon" unicode=";" horiz-adv-x="218" 
d="M61 412q0 19 14.5 33t34.5 14q19 0 33 -14t14 -33q0 -20 -14 -34.5t-33 -14.5q-20 0 -34.5 14.5t-14.5 34.5zM60 86l82 12q8 -63 -16 -141t-65 -134l-32 15q67 122 31 248z" />
    <glyph glyph-name="less" unicode="&#x3c;" 
d="M61 264l372 210l17 -37l-309 -190l309 -190l-17 -40l-372 211v36z" />
    <glyph glyph-name="equal" unicode="=" 
d="M24 327h463v-52h-463v52zM24 219h463v-52h-463v52z" />
    <glyph glyph-name="greater" unicode="&#x3e;" 
d="M78 474l372 -211v-36l-372 -210l-17 38l308 190l-308 190z" />
    <glyph glyph-name="question" unicode="?" horiz-adv-x="431" 
d="M132 37q0 19 14.5 33t33.5 14t33 -14t14 -33q0 -20 -14 -34t-33 -14q-20 0 -34 14.5t-14 33.5zM291 542q0 49 -25 73.5t-67 24.5q-61 0 -123 -41v79q74 22 151 22q65 0 102.5 -37t37.5 -95q0 -42 -17 -80t-40.5 -67t-47.5 -58t-41 -64.5t-17 -73.5q0 -26 11 -64h-69
q-3 25 -3 46q0 52 23 102t51 82.5t51 73.5t23 77z" />
    <glyph glyph-name="at" unicode="@" horiz-adv-x="831" 
d="M650 540h64q53 -120 53 -240q0 -80 -25.5 -149.5t-74.5 -124t-130 -86t-184 -31.5q-137 0 -213 86t-76 208q0 65 23.5 126.5t67 112t114.5 81.5t159 31q66 0 100 -30.5t34 -103.5v-324h-41l-18 84q-25 -43 -69.5 -70.5t-91.5 -27.5q-46 0 -70 24.5t-24 65.5
q0 122 249 211v36q0 49 -22 68t-66 19q-137 0 -214.5 -83.5t-77.5 -195.5t74.5 -191t206.5 -79q161 0 239.5 84t78.5 225q0 134 -66 274zM497 280v54q-78 -18 -128.5 -59t-50.5 -86q0 -23 14.5 -36.5t38.5 -13.5q45 0 85.5 42t40.5 99z" />
    <glyph glyph-name="A" unicode="A" horiz-adv-x="603" 
d="M272 690h66l260 -690h-85l-87 237h-261l-85 -237h-76zM294 603l-113 -317h229z" />
    <glyph glyph-name="B" unicode="B" horiz-adv-x="542" 
d="M157 632v-248q119 1 166 36t47 99q0 116 -158 116q-26 0 -55 -3zM157 333v-275q36 -5 77 -5q88 0 134 35.5t46 94.5q0 32 -10 56t-35.5 46.5t-79 35t-132.5 12.5zM216 690q229 0 229 -161q0 -60 -40.5 -106t-102.5 -57q189 -27 189 -171q0 -79 -71 -137t-202 -58h-134
v690h132z" />
    <glyph glyph-name="C" unicode="C" horiz-adv-x="610" 
d="M424 700q84 0 144 -21v-81q-73 40 -166 40q-125 0 -191 -80.5t-66 -214.5q0 -132 68 -215.5t193 -83.5q89 0 162 40v-77q-60 -21 -168 -21q-149 0 -242.5 95.5t-93.5 252.5q0 161 101 263.5t259 102.5z" />
    <glyph glyph-name="D" unicode="D" horiz-adv-x="685" 
d="M84 690h181q160 0 258 -83.5t98 -231.5q0 -174 -101 -274.5t-303 -100.5h-133v690zM158 631v-570q40 -5 72 -5q146 0 228.5 79t82.5 222q0 135 -74.5 207t-222.5 72q-41 0 -86 -5z" />
    <glyph glyph-name="E" unicode="E" horiz-adv-x="516" 
d="M84 690h383v-62l-309 9v-255l261 10v-63l-261 9v-285l309 9v-62h-383v690z" />
    <glyph glyph-name="F" unicode="F" horiz-adv-x="495" 
d="M84 690h383v-62l-309 9v-261l259 10v-62l-259 9v-333h-74v690z" />
    <glyph glyph-name="G" unicode="G" horiz-adv-x="667" 
d="M584 347v-330q-80 -31 -184 -31q-149 0 -242.5 95t-93.5 252q0 161 105.5 264t269.5 103q85 0 145 -21v-81q-73 40 -167 40q-132 0 -202 -81t-70 -215q0 -132 68 -215t193 -83q62 0 105 14v289h73z" />
    <glyph glyph-name="H" unicode="H" horiz-adv-x="666" 
d="M508 690h74v-690h-74v336h-350v-336h-74v690h74v-302h350v302z" />
    <glyph glyph-name="I" unicode="I" horiz-adv-x="242" 
d="M84 690h74v-690h-74v690z" />
    <glyph glyph-name="J" unicode="J" horiz-adv-x="256" 
d="M99 690h73v-683q0 -110 -58.5 -177t-157.5 -73l15 78q66 0 97 38.5t31 126.5v690z" />
    <glyph glyph-name="K" unicode="K" horiz-adv-x="582" 
d="M84 690h74v-690h-74v690zM446 690h90l-301 -308l344 -382h-100l-320 362z" />
    <glyph glyph-name="L" unicode="L" horiz-adv-x="477" 
d="M84 690h74v-637l309 9v-62h-383v690z" />
    <glyph glyph-name="M" unicode="M" horiz-adv-x="852" 
d="M111 690h101l222 -577l216 577h91l47 -690h-76l-37 605l-227 -598h-51l-229 606l-37 -613h-67z" />
    <glyph glyph-name="N" unicode="N" horiz-adv-x="663" 
d="M84 690h95l340 -540v540h59v-690h-49l-385 614v-614h-60v690z" />
    <glyph glyph-name="O" unicode="O" horiz-adv-x="787" 
d="M394 643q-113 0 -181.5 -75.5t-68.5 -221.5t68 -224.5t180 -78.5q111 0 181 76.5t70 224.5q0 146 -68.5 222.5t-180.5 76.5zM405 700q146 0 231.5 -96.5t85.5 -246.5q0 -159 -96 -265t-246 -106q-145 0 -230.5 98.5t-85.5 251.5q0 155 95.5 259.5t245.5 104.5z" />
    <glyph glyph-name="P" unicode="P" horiz-adv-x="518" 
d="M247 690q116 0 175.5 -55t59.5 -139q0 -95 -63 -156.5t-180 -61.5q-44 0 -81 8v-286h-74v690h163zM158 632v-294q38 -9 71 -9q86 0 129.5 43t43.5 111q0 69 -42 111t-123 42q-51 0 -79 -4z" />
    <glyph glyph-name="Q" unicode="Q" horiz-adv-x="787" 
d="M405 700q146 0 231.5 -96.5t85.5 -246.5q0 -144 -79.5 -246t-208.5 -121l268 -233h-109l-241 230q-133 10 -210.5 106.5t-77.5 242.5q0 155 95.5 259.5t245.5 104.5zM394 643q-113 0 -181.5 -75.5t-68.5 -221.5t68 -224.5t180 -78.5q111 0 181 76.5t70 224.5
q0 146 -68.5 222.5t-180.5 76.5z" />
    <glyph glyph-name="R" unicode="R" horiz-adv-x="580" 
d="M249 690q115 0 174 -52.5t59 -129.5q0 -83 -44 -133.5t-117 -68.5l259 -306h-100l-232 297h-9q-38 0 -81 8v-305h-74v690h165zM158 632v-276q36 -9 76 -9q72 0 120.5 36t48.5 112q0 141 -175 141q-41 0 -70 -4z" />
    <glyph glyph-name="S" unicode="S" horiz-adv-x="499" 
d="M411 681v-80q-71 36 -148 36q-56 0 -88.5 -26t-32.5 -76q0 -41 31.5 -73t76 -55.5t89.5 -49.5t76.5 -68.5t31.5 -98.5q0 -86 -65 -145t-163 -59q-87 0 -149 23v81q78 -39 159 -39q61 0 101.5 30.5t40.5 87.5q0 44 -31.5 79t-76 60t-89 51t-76 65t-31.5 89q0 80 59 133.5
t158 53.5q80 0 127 -19z" />
    <glyph glyph-name="T" unicode="T" horiz-adv-x="544" 
d="M6 690h532v-66l-229 9v-633h-74v633l-229 -9v66z" />
    <glyph glyph-name="U" unicode="U" horiz-adv-x="650" 
d="M76 690h73v-464q0 -88 51 -132t130 -44q78 0 128 42.5t50 119.5v478h66v-472q0 -107 -76 -169.5t-184 -62.5q-103 0 -170.5 57t-67.5 166v481z" />
    <glyph glyph-name="V" unicode="V" horiz-adv-x="603" 
d="M4 690h86l218 -601l213 601h77l-268 -690h-65z" />
    <glyph glyph-name="W" unicode="W" horiz-adv-x="964" 
d="M14 690h85l177 -591l177 591h65l188 -591l172 591h72l-224 -690h-66l-187 573l-174 -573h-66z" />
    <glyph glyph-name="X" unicode="X" horiz-adv-x="620" 
d="M516 690h83l-255 -330l269 -360h-93l-214 308l-222 -308h-78l269 352l-255 338h97l196 -286z" />
    <glyph glyph-name="Y" unicode="Y" horiz-adv-x="594" 
d="M4 690h94l208 -331l205 331h78l-254 -385v-305h-74v300z" />
    <glyph glyph-name="Z" unicode="Z" horiz-adv-x="618" 
d="M43 51l429 587l-408 -15v67h499v-51l-432 -588l444 16v-67h-532v51z" />
    <glyph glyph-name="bracketleft" unicode="[" horiz-adv-x="377" 
d="M367 -243h-235v1028h235v-48h-170v-932h170v-48z" />
    <glyph glyph-name="backslash" unicode="\" horiz-adv-x="449" 
d="M-126 785h64l484 -1028h-64z" />
    <glyph glyph-name="bracketright" unicode="]" horiz-adv-x="377" 
d="M10 785h234v-1028h-234v48h170v932h-170v48z" />
    <glyph glyph-name="asciicircum" unicode="^" 
d="M238 700h36l210 -368l-39 -16l-190 305l-189 -305l-39 16z" />
    <glyph glyph-name="underscore" unicode="_" horiz-adv-x="673" 
d="M36 -93h601v-54h-601v54z" />
    <glyph glyph-name="grave" unicode="`" horiz-adv-x="277" 
d="M55 690h74l94 -165l-38 -4z" />
    <glyph glyph-name="a" unicode="a" horiz-adv-x="440" 
d="M74 368v62q79 27 155 27q139 0 139 -106v-351h-43l-18 84q-25 -43 -69.5 -70.5t-91.5 -27.5q-46 0 -70 24t-24 65q0 123 249 212v58q0 32 -19 46.5t-60 14.5q-67 0 -148 -38zM301 184v53q-78 -18 -128.5 -58.5t-50.5 -85.5q0 -24 14.5 -37t38.5 -13q45 0 85.5 41.5
t40.5 99.5z" />
    <glyph glyph-name="b" unicode="b" horiz-adv-x="542" 
d="M305 457q91 0 137.5 -58t46.5 -153q0 -110 -62.5 -185t-169.5 -75q-97 0 -144 67l-12 -53h-29v773l67 15v-397q27 27 73 46.5t93 19.5zM282 393q-79 0 -143 -44v-204q2 -47 37 -75t99 -28q68 0 110.5 51.5t42.5 127.5q0 75 -36.5 123.5t-109.5 48.5z" />
    <glyph glyph-name="c" unicode="c" horiz-adv-x="440" 
d="M398 437v-69q-61 32 -137 32q-68 0 -106 -48.5t-38 -124.5q0 -83 41.5 -132.5t116.5 -49.5q62 0 123 28v-44q-69 -43 -145 -43q-94 0 -147 59.5t-53 159.5q0 108 61.5 180t164.5 72q66 0 119 -20z" />
    <glyph glyph-name="d" unicode="d" horiz-adv-x="542" 
d="M403 773l67 15v-788h-40l-17 58q-28 -29 -77 -50.5t-99 -21.5q-91 0 -137.5 58t-46.5 153q0 110 62 185t169 75q72 0 119 -38v354zM260 50q73 0 143 45v202q-2 48 -37 76t-99 28q-68 0 -110.5 -51.5t-42.5 -127.5q0 -75 36.5 -123.5t109.5 -48.5z" />
    <glyph glyph-name="e" unicode="e" horiz-adv-x="462" 
d="M419 250h-302q-1 -7 -1 -22q0 -84 42 -134t123 -50q70 0 132 30v-45q-66 -43 -150 -43q-102 0 -156 58t-54 163q0 107 60 178.5t163 71.5q65 0 105.5 -43.5t40.5 -132.5q0 -4 -3 -31zM260 405q-52 0 -87 -30t-49 -82l232 9q0 103 -96 103z" />
    <glyph glyph-name="f" unicode="f" horiz-adv-x="316" 
d="M33 443h80v129q0 94 46 155t126 61q3 0 11 -0.5t11 -0.5v-67q-15 4 -32 4q-48 0 -72 -34t-24 -91v-156h128v-51h-128v-392h-66v392h-80v51z" />
    <glyph glyph-name="g" unicode="g" horiz-adv-x="510" 
d="M140 153q-73 41 -73 133q0 73 52.5 122t132.5 49q45 0 81 -14h163v-55l-107 11q27 -39 27 -97q0 -71 -55 -120.5t-133 -49.5q-29 0 -58 7q-21 -12 -33.5 -31t-12.5 -35q0 -34 52 -34q25 0 85.5 2.5t95.5 2.5q71 0 103.5 -24t32.5 -76q0 -90 -86.5 -145t-211.5 -55
q-80 0 -125 25.5t-45 72.5q0 39 32.5 80t78.5 61q-81 7 -81 63q0 27 22.5 56.5t62.5 50.5zM181 -18q-32 -13 -57 -43.5t-25 -65.5q0 -40 28.5 -56.5t101.5 -16.5q84 0 139.5 33.5t55.5 83.5q0 34 -20 52t-68 18q-22 0 -74 -2.5t-81 -2.5zM241 410q-49 0 -77.5 -30t-28.5 -86
t29 -87t77 -31q50 0 78.5 30t28.5 88q0 57 -28.5 86.5t-78.5 29.5z" />
    <glyph glyph-name="h" unicode="h" horiz-adv-x="501" 
d="M72 773l67 15v-418q32 40 78.5 63.5t89.5 23.5q57 0 89 -36t32 -111v-310h-66v293q0 106 -89 106q-59 0 -96.5 -42.5t-37.5 -95.5v-261h-67v773z" />
    <glyph glyph-name="i" unicode="i" horiz-adv-x="212" 
d="M74 432l66 15v-447h-66v432zM60 599q0 19 13.5 32t33.5 13q19 0 32 -13t13 -32q0 -20 -13 -33.5t-32 -13.5t-33 14t-14 33z" />
    <glyph glyph-name="j" unicode="j" horiz-adv-x="210" 
d="M73 432l66 15v-440q0 -107 -44 -175t-133 -77l14 72q58 2 77.5 35t19.5 123v447zM59 599q0 19 13.5 32t33.5 13q19 0 32 -13t13 -32q0 -20 -13 -33.5t-32 -13.5q-20 0 -33.5 14t-13.5 33z" />
    <glyph glyph-name="k" unicode="k" horiz-adv-x="441" 
d="M72 773l67 15v-788h-67v773zM324 443h83l-193 -196l224 -247h-91l-207 232z" />
    <glyph glyph-name="l" unicode="l" horiz-adv-x="211" 
d="M72 773l67 15v-788h-67v773z" />
    <glyph glyph-name="m" unicode="m" horiz-adv-x="760" 
d="M72 432l67 15v-75q67 85 161 85q87 0 107 -97q68 97 167 97q113 0 113 -150v-307h-66v283q0 60 -15.5 88t-64.5 28q-53 0 -90.5 -41t-37.5 -91v-267h-67v283q0 60 -15.5 88t-64.5 28q-53 0 -90 -40.5t-37 -91.5v-267h-67v432z" />
    <glyph glyph-name="n" unicode="n" horiz-adv-x="501" 
d="M72 432l67 15v-77q32 40 78.5 63.5t89.5 23.5q57 0 89 -36t32 -111v-310h-66v293q0 54 -21 80t-67 26q-59 0 -97 -43t-38 -95v-261h-67v432z" />
    <glyph glyph-name="o" unicode="o" horiz-adv-x="547" 
d="M280 457q98 0 156 -62.5t58 -165.5q0 -106 -64 -174.5t-164 -68.5q-97 0 -155 63.5t-58 166.5q0 105 63.5 173t163.5 68zM274 408q-68 0 -109 -47t-41 -139q0 -93 40.5 -140.5t109.5 -47.5q67 0 107.5 48t40.5 141q0 92 -40 138.5t-108 46.5z" />
    <glyph glyph-name="p" unicode="p" horiz-adv-x="542" 
d="M72 432l67 15v-52q72 62 166 62q91 0 137.5 -58t46.5 -153q0 -110 -62.5 -185t-169.5 -75q-72 0 -118 37v-266h-67v675zM282 393q-74 0 -143 -42v-206q2 -47 37 -75t99 -28q68 0 110.5 51t42.5 128q0 76 -36.5 124t-109.5 48z" />
    <glyph glyph-name="q" unicode="q" horiz-adv-x="542" 
d="M442 443h28v-686h-67v288q-29 -25 -74 -42t-92 -17q-91 0 -137.5 58t-46.5 153q0 110 62.5 185t169.5 75q95 0 143 -64zM260 50q74 0 143 44v203q-2 48 -37 76t-99 28q-68 0 -110.5 -51t-42.5 -128q0 -76 36.5 -124t109.5 -48z" />
    <glyph glyph-name="r" unicode="r" horiz-adv-x="303" 
d="M72 432l67 15v-77q22 37 56 62t73 25q16 0 26 -3v-67q-10 3 -31 3q-55 0 -89.5 -31.5t-34.5 -79.5v-279h-67v432z" />
    <glyph glyph-name="s" unicode="s" horiz-adv-x="374" 
d="M303 436v-62q-49 30 -100 30q-37 0 -58.5 -18.5t-21.5 -45.5q0 -26 20.5 -45t50 -31.5t59.5 -27t50.5 -40t20.5 -61.5q0 -67 -46 -108t-116 -41q-63 0 -103 21v66q52 -34 112 -34q42 0 65.5 20t23.5 57q0 25 -20.5 43.5t-50 32t-59 28.5t-50 40.5t-20.5 61.5
q0 56 43.5 95.5t111.5 39.5q51 0 88 -21z" />
    <glyph glyph-name="t" unicode="t" horiz-adv-x="316" 
d="M16 443h77v110l66 16v-126h145v-51h-145v-268q0 -39 13.5 -55t43.5 -16q45 0 88 26v-56q-58 -37 -121 -37q-90 0 -90 122v284h-77v51z" />
    <glyph glyph-name="u" unicode="u" horiz-adv-x="501" 
d="M72 443h67v-289q0 -56 19.5 -83t68.5 -27q56 0 95.5 39.5t39.5 92.5v267h66v-443h-42l-20 77q-69 -91 -172 -91q-57 0 -89.5 36.5t-32.5 110.5v310z" />
    <glyph glyph-name="v" unicode="v" horiz-adv-x="414" 
d="M6 443h75l133 -365l130 365h64l-176 -443h-56z" />
    <glyph glyph-name="w" unicode="w" horiz-adv-x="675" 
d="M6 443h74l116 -363l123 363h49l125 -363l112 363h64l-157 -443h-56l-121 345l-123 -345h-55z" />
    <glyph glyph-name="x" unicode="x" horiz-adv-x="451" 
d="M353 443h71l-167 -210l179 -233h-80l-135 185l-139 -185h-68l177 225l-166 218h83l120 -170z" />
    <glyph glyph-name="y" unicode="y" horiz-adv-x="414" 
d="M6 443h74l133 -367l131 367h64l-176 -445q-51 -131 -106.5 -185.5t-151.5 -55.5l15 70q72 1 110.5 38t71.5 122l5 14z" />
    <glyph glyph-name="z" unicode="z" horiz-adv-x="456" 
d="M48 45l278 351l-260 -10v57h340v-45l-278 -352l288 11v-57h-368v45z" />
    <glyph glyph-name="braceleft" unicode="{" horiz-adv-x="350" 
d="M20 248v44h18q60 0 80 32.5t20 100.5q0 21 -6.5 79t-6.5 84q0 196 209 197v-47q-87 -3 -116.5 -38t-29.5 -102q0 -24 7.5 -90.5t7.5 -94.5q0 -56 -24.5 -93t-74.5 -46q50 -8 75.5 -45t25.5 -92q0 -31 -6.5 -93.5t-6.5 -89.5q0 -35 4 -57t17 -46t43 -35.5t78 -12.5v-46
q-116 1 -161 50.5t-45 137.5q0 27 5.5 88.5t5.5 87.5q0 66 -20 96.5t-81 30.5h-18z" />
    <glyph glyph-name="bar" unicode="|" horiz-adv-x="291" 
d="M116 785h59v-1028h-59v1028z" />
    <glyph glyph-name="braceright" unicode="}" horiz-adv-x="350" 
d="M330 294v-44h-18q-60 0 -80 -32.5t-20 -100.5q0 -21 6.5 -79t6.5 -84q0 -196 -209 -197v47q87 3 116.5 38t29.5 102q0 24 -7.5 90.5t-7.5 94.5q0 56 24.5 93t74.5 46q-50 8 -75.5 45t-25.5 92q0 31 6.5 93.5t6.5 89.5q0 35 -4 57t-17 46t-43 35.5t-78 12.5v46
q116 -1 161 -50.5t45 -137.5q0 -27 -5.5 -88.5t-5.5 -87.5q0 -66 20 -96.5t81 -30.5h18z" />
    <glyph glyph-name="asciitilde" unicode="~" 
d="M90 255l-33 5q9 52 34.5 88t70.5 36q31 0 69 -26t73 -52t59 -26q53 0 59 75l32 -3q-6 -55 -32.5 -89t-71.5 -34q-30 0 -67 26.5t-71.5 52.5t-57.5 26q-55 0 -64 -79z" />
    <glyph glyph-name="nbspace" unicode="&#xa0;" horiz-adv-x="249" 
 />
    <glyph glyph-name="exclamdown" unicode="&#xa1;" horiz-adv-x="268" 
d="M181 417q0 -19 -14 -32.5t-34 -13.5q-19 0 -32.5 13.5t-13.5 32.5q0 20 13.5 34t32.5 14t33.5 -14.5t14.5 -33.5zM180 -236h-92l21 520h50z" />
    <glyph glyph-name="cent" unicode="&#xa2;" 
d="M424 635v-70q-51 26 -106 31v-353q57 5 106 28v-44q-50 -33 -106 -41v-149h-49v147q-90 3 -140.5 62t-50.5 156q0 98 51.5 167t139.5 82v134h50q0 -22 -0.5 -66t-0.5 -65q63 -3 106 -19zM142 425q0 -73 33 -121.5t94 -58.5v352q-60 -7 -93.5 -54.5t-33.5 -117.5z" />
    <glyph glyph-name="sterling" unicode="&#xa3;" 
d="M67 385h39q-12 67 -12 120q0 85 58.5 140t157.5 55q80 0 127 -19v-79q-70 37 -150 37q-55 0 -87.5 -28t-32.5 -84q0 -53 17 -142h165v-51h-156q9 -54 12 -93t-6 -90.5t-33 -97.5l279 9v-62h-353q21 30 32.5 65t15 62t-1 70.5t-8.5 65t-14 71.5h-49v51z" />
    <glyph glyph-name="currency" unicode="&#xa4;" 
d="M399 622l56 -40l-77 -100q44 -46 44 -117q0 -69 -42 -114l87 -119l-64 -40l-75 119q-34 -18 -72 -18q-41 0 -79 20l-79 -121l-53 40l88 114q-41 46 -41 114q0 70 43 116l-78 106l68 40l65 -107q34 17 70 17q39 0 71 -17zM253 483q-46 0 -71.5 -31.5t-25.5 -89.5
q0 -53 29 -86t74 -33q44 0 69.5 31t25.5 83q0 58 -28.5 92t-72.5 34z" />
    <glyph glyph-name="yen" unicode="&#xa5;" 
d="M4 690h84l176 -330l178 330h67l-194 -346h144v-51h-164v-98h164v-51h-164v-144h-73v144h-166v51h166v98h-166v51h142z" />
    <glyph glyph-name="brokenbar" unicode="&#xa6;" horiz-adv-x="291" 
d="M116 785h59v-386h-59v386zM116 143h59v-386h-59v386z" />
    <glyph glyph-name="section" unicode="&#xa7;" horiz-adv-x="575" 
d="M452 681v-77q-68 36 -144 36q-56 0 -88.5 -26t-32.5 -76q0 -35 19.5 -66.5t50.5 -57t68.5 -52t75 -57.5t68.5 -66.5t50.5 -85.5t19.5 -108q0 -77 -30 -135t-78 -90t-101 -47.5t-107 -15.5q-87 0 -153 23v77q72 -36 154 -36q74 0 119.5 25.5t45.5 80.5q0 35 -19.5 66.5
t-50.5 57.5t-68.5 52.5t-75.5 57.5t-69 66.5t-50.5 85.5t-19.5 108q0 114 81 196.5t201 82.5q81 0 134 -19zM121 553q-26 -44 -26 -106q0 -61 26.5 -114t66.5 -89t86.5 -73t86.5 -67.5t66.5 -71t26.5 -84.5q0 -14 -3 -27q26 44 26 101q0 53 -20 99t-51.5 80t-69.5 65
t-76.5 59.5t-70 56.5t-51.5 63t-20 73q0 18 3 35z" />
    <glyph glyph-name="dieresis" unicode="&#xa8;" horiz-adv-x="345" 
d="M92 622q17 0 28 -12t11 -31t-11 -32.5t-28 -13.5t-28.5 13t-11.5 33q0 19 11.5 31t28.5 12zM258 622q17 0 28.5 -12t11.5 -31t-11.5 -32.5t-28.5 -13.5t-28.5 13.5t-11.5 32.5t11.5 31t28.5 12z" />
    <glyph glyph-name="copyright" unicode="&#xa9;" horiz-adv-x="783" 
d="M410 700q141 0 226 -95t85 -248q0 -158 -96.5 -264.5t-245.5 -106.5q-147 0 -232.5 94.5t-85.5 251.5q0 154 102.5 261t246.5 107zM402 648q-123 0 -199.5 -85t-76.5 -223q0 -135 74.5 -219t187.5 -84q121 0 196.5 84t75.5 224q0 146 -70 224.5t-188 78.5zM506 534v-62
q-37 21 -92 21q-66 0 -97.5 -37t-31.5 -102q0 -70 34.5 -112t101.5 -42q42 0 85 19v-44q-43 -27 -103 -27q-88 0 -136 51.5t-48 137.5q0 90 56 150t148 60q44 0 83 -13z" />
    <glyph glyph-name="ordfeminine" unicode="&#xaa;" horiz-adv-x="294" 
d="M194 591q-47 -12 -77 -36.5t-30 -50.5q0 -13 8.5 -20.5t21.5 -7.5q32 0 54.5 29t22.5 71v15zM152 741q52 0 72.5 -22.5t20.5 -72.5v-206h-35l-10 46q-17 -24 -45.5 -39.5t-55.5 -15.5q-31 0 -48 16.5t-17 44.5q0 80 160 138q0 23 -0.5 31.5t-5 20t-14 15t-27.5 3.5
q-39 0 -99 -26v48q51 19 104 19z" />
    <glyph glyph-name="guillemotleft" unicode="&#xab;" horiz-adv-x="522" 
d="M47 263l217 158l20 -40l-166 -143l166 -143l-20 -42l-217 158v52zM238 263l216 158l21 -40l-166 -143l166 -143l-21 -42l-216 158v52z" />
    <glyph glyph-name="logicalnot" unicode="&#xac;" 
d="M24 273h455v-273h-56v221h-399v52z" />
    <glyph glyph-name="registered" unicode="&#xae;" horiz-adv-x="545" 
d="M282 700q97 0 153 -64.5t56 -163.5q0 -104 -65.5 -173.5t-164.5 -69.5q-96 0 -152 64.5t-56 164.5q0 106 65.5 174t163.5 68zM180 612h73q117 0 117 -72q0 -64 -66 -84l99 -122q36 52 36 129q0 96 -44.5 147.5t-117.5 51.5q-76 0 -126 -50.5t-50 -144.5
q0 -96 45.5 -148.5t119.5 -52.5q85 0 133 63h-48l-92 116q-11 -2 -33 -2v-113h-46v282zM226 581v-104q18 -2 27 -2q29 0 48.5 14t19.5 43q0 50 -68 50q-7 0 -16 -0.5t-11 -0.5z" />
    <glyph glyph-name="macron" unicode="&#xaf;" horiz-adv-x="312" 
d="M52 600h212v-41h-212v41z" />
    <glyph glyph-name="macron" unicode="&#x2c9;" horiz-adv-x="312" 
d="M52 600h212v-41h-212v41z" />
    <glyph glyph-name="degree" unicode="&#xb0;" horiz-adv-x="398" 
d="M205 700q74 0 111.5 -46t37.5 -121t-44 -125.5t-118 -50.5t-111 44.5t-37 119.5q0 76 43.5 127.5t117.5 51.5zM197 656q-90 0 -90 -127q0 -128 95 -128q88 0 88 125q0 130 -93 130z" />
    <glyph glyph-name="plusminus" unicode="&#xb1;" 
d="M24 389h206v205h51v-205h206v-52h-206v-206h-51v206h-206v52zM24 52h463v-52h-463v52z" />
    <glyph glyph-name="twosuperior" unicode="&#xb2;" horiz-adv-x="302" 
d="M104 663l-47 -29q-21 38 -21 75q0 53 35.5 90t91.5 37q44 0 73.5 -28t29.5 -81q0 -58 -47.5 -123.5t-122.5 -121.5l174 7v-46h-238v31q180 131 180 240q0 39 -20 59t-48 20q-27 0 -45.5 -19t-18.5 -48q0 -32 24 -63z" />
    <glyph glyph-name="threesuperior" unicode="&#xb3;" horiz-adv-x="302" 
d="M44 773v50q50 13 100 13q49 0 76.5 -21.5t27.5 -63.5q0 -63 -69 -95q37 -12 59 -38t22 -62q0 -53 -37.5 -87t-95.5 -34q-49 0 -83 14v55q50 -26 90 -26q34 0 54 16.5t20 49.5q0 34 -27 58.5t-71 24.5q-20 0 -31 -1v40q52 0 85 17t33 53q0 28 -18 43.5t-48 15.5
q-40 0 -87 -22z" />
    <glyph glyph-name="acute" unicode="&#xb4;" horiz-adv-x="277" 
d="M149 690h74l-129 -169l-39 4z" />
    <glyph glyph-name="mu" unicode="&#xb5;" horiz-adv-x="503" 
d="M482 52v-48q-33 -18 -61 -18q-32 0 -45.5 20t-15.5 71q-63 -90 -160 -90q-47 0 -76 26l9 -242l-68 -15l12 377l-8 303l73 12l-5 -295q0 -110 89 -110q56 0 93 39.5t37 93.5v260l66 12v-369q0 -20 6 -27t23 -7q12 0 31 7z" />
    <glyph glyph-name="mu" unicode="&#x3bc;" horiz-adv-x="503" 
d="M482 52v-48q-33 -18 -61 -18q-32 0 -45.5 20t-15.5 71q-63 -90 -160 -90q-47 0 -76 26l9 -242l-68 -15l12 377l-8 303l73 12l-5 -295q0 -110 89 -110q56 0 93 39.5t37 93.5v260l66 12v-369q0 -20 6 -27t23 -7q12 0 31 7z" />
    <glyph glyph-name="paragraph" unicode="&#xb6;" horiz-adv-x="518" 
d="M276 690h157v-690h-73v287q-37 -9 -81 -9q-118 0 -180.5 59t-62.5 154q0 89 61 144t179 55z" />
    <glyph glyph-name="periodcentered" unicode="&#xb7;" 
d="M202 247q0 22 16.5 37.5t38.5 15.5t37.5 -15.5t15.5 -37.5q0 -23 -15.5 -39t-37.5 -16t-38.5 16.5t-16.5 38.5z" />
    <glyph glyph-name="periodcentered" unicode="&#x2219;" 
d="M202 247q0 22 16.5 37.5t38.5 15.5t37.5 -15.5t15.5 -37.5q0 -23 -15.5 -39t-37.5 -16t-38.5 16.5t-16.5 38.5z" />
    <glyph glyph-name="cedilla" unicode="&#xb8;" horiz-adv-x="280" 
d="M122 10h37l-35 -74q106 0 106 -76q0 -44 -33 -69t-83 -25q-31 0 -64 12l11 29q19 -7 41 -7q68 0 68 50q0 54 -88 54z" />
    <glyph glyph-name="onesuperior" unicode="&#xb9;" horiz-adv-x="302" 
d="M68 791l138 47v-359h52v-36h-157v36h56v301l-89 -34v45z" />
    <glyph glyph-name="ordmasculine" unicode="&#xba;" horiz-adv-x="362" 
d="M188 741q65 0 101.5 -39t36.5 -107q0 -71 -43 -117t-109 -46q-64 0 -101 40t-37 108q0 69 43.5 115t108.5 46zM179 702q-90 0 -90 -113q0 -57 26.5 -87t68.5 -30q88 0 88 113q0 58 -25.5 87.5t-67.5 29.5z" />
    <glyph glyph-name="guillemotright" unicode="&#xbb;" horiz-adv-x="522" 
d="M258 421l217 -159v-52l-217 -157l-20 40l166 143l-166 143zM68 421l216 -159v-52l-216 -157l-21 40l166 143l-166 143z" />
    <glyph glyph-name="onequarter" unicode="&#xbc;" horiz-adv-x="665" 
d="M559 690h64l-512 -690h-64zM36 648l139 47v-359h51v-36h-157v36h57v301l-90 -33v44zM490 387h57v-242l53 2v-41h-53v-106h-49v106h-162v28zM498 326l-110 -183l110 1v182z" />
    <glyph glyph-name="onehalf" unicode="&#xbd;" horiz-adv-x="665" 
d="M558 690h64l-512 -690h-64zM38 648l139 47v-359h51v-36h-157v36h57v301l-90 -33v44zM462 220l-46 -29q-22 41 -22 75q0 53 36 90t92 37q44 0 73.5 -28t29.5 -81q0 -58 -47.5 -123.5t-123.5 -120.5l174 6v-46h-238v31q180 131 180 240q0 39 -20 59t-48 20q-27 0 -45 -18.5
t-18 -47.5q0 -34 23 -64z" />
    <glyph glyph-name="threequarters" unicode="&#xbe;" horiz-adv-x="660" 
d="M555 690h64l-512 -690h-64zM473 387h57v-242l53 2v-41h-53v-106h-49v106h-162v28zM481 326l-110 -183l110 1v182zM36 630v50q50 13 100 13q49 0 77 -21.5t28 -63.5q0 -62 -69 -95q37 -12 59 -37.5t22 -61.5q0 -53 -38 -87.5t-96 -34.5q-49 0 -83 14v55q52 -25 90 -25
q74 0 74 65q0 35 -27 59.5t-71 24.5q-9 0 -31 -2v40q52 0 85 17t33 53q0 27 -17.5 43t-47.5 16q-42 0 -88 -22z" />
    <glyph glyph-name="questiondown" unicode="&#xbf;" horiz-adv-x="431" 
d="M311 417q0 -19 -14 -32.5t-34 -13.5q-19 0 -33 13.5t-14 32.5q0 20 14 34t33 14t33.5 -14.5t14.5 -33.5zM152 -88q0 -48 25 -73t67 -25q62 0 123 41v-78q-74 -23 -152 -23q-64 0 -101.5 37t-37.5 95q0 42 17 80.5t41 67.5t47.5 57.5t40.5 64t17 74.5q0 27 -11 63h68
q4 -21 4 -45q0 -43 -15 -83.5t-37 -71t-44 -59.5t-37 -60.5t-15 -61.5z" />
    <glyph glyph-name="Agrave" unicode="&#xc0;" horiz-adv-x="603" 
d="M272 690h66l260 -690h-85l-87 237h-261l-85 -237h-76zM294 603l-113 -317h229zM181 874h72l94 -154l-34 -4z" />
    <glyph glyph-name="Aacute" unicode="&#xc1;" horiz-adv-x="603" 
d="M272 690h66l260 -690h-85l-87 237h-261l-85 -237h-76zM294 603l-113 -317h229zM337 874h72l-132 -158l-34 4z" />
    <glyph glyph-name="Acircumflex" unicode="&#xc2;" horiz-adv-x="603" 
d="M272 690h66l260 -690h-85l-87 237h-261l-85 -237h-76zM294 603l-113 -317h229zM274 869h56l95 -153l-35 -5l-90 106l-90 -106q-17 0 -32 5z" />
    <glyph glyph-name="Atilde" unicode="&#xc3;" horiz-adv-x="603" 
d="M272 690h66l260 -690h-85l-87 237h-261l-85 -237h-76zM294 603l-113 -317h229zM183 725l-27 4q4 48 26 78.5t59 30.5q30 0 70 -31t64 -31q40 0 47 62l27 -2q-4 -51 -26 -79.5t-59 -28.5q-28 0 -66.5 30.5t-62.5 30.5q-49 0 -52 -64z" />
    <glyph glyph-name="Adieresis" unicode="&#xc4;" horiz-adv-x="603" 
d="M272 690h66l260 -690h-85l-87 237h-261l-85 -237h-76zM294 603l-113 -317h229zM176 780q0 16 12 28t28 12q17 0 29.5 -12t12.5 -28q0 -17 -12.5 -29.5t-29.5 -12.5q-16 0 -28 12.5t-12 29.5zM346 780q0 16 12 28t29 12t29.5 -12t12.5 -28q0 -17 -12.5 -29.5t-29.5 -12.5
t-29 12.5t-12 29.5z" />
    <glyph glyph-name="Aring" unicode="&#xc5;" horiz-adv-x="603" 
d="M272 690h66l260 -690h-85l-87 237h-261l-85 -237h-76zM294 603l-113 -317h229zM209 805q0 36 26.5 60t66.5 24q39 0 65 -23.5t26 -60.5q0 -36 -26 -59t-65 -23q-41 0 -67 23t-26 59zM247 804q0 -24 15.5 -39t39.5 -15t37.5 14t13.5 38q0 25 -15.5 40t-38.5 15
q-25 0 -38.5 -14t-13.5 -39z" />
    <glyph glyph-name="AE" unicode="&#xc6;" horiz-adv-x="836" 
d="M407 690h380v-62l-309 9v-255l261 10v-63l-261 9v-285l309 9v-62h-383v237h-262l-174 -237h-84zM176 286h228v311z" />
    <glyph glyph-name="Ccedilla" unicode="&#xc7;" horiz-adv-x="610" 
d="M424 700q84 0 144 -21v-81q-73 40 -166 40q-125 0 -191 -80.5t-66 -214.5q0 -132 68 -215.5t193 -83.5q89 0 162 40v-77q-60 -21 -168 -21q-2 0 -5.5 0.5t-4.5 0.5l-24 -51q106 0 106 -76q0 -44 -33 -69t-83 -25q-31 0 -64 12l11 29q19 -7 41 -7q68 0 68 50q0 54 -88 54
l32 85q-131 14 -211.5 107t-80.5 238q0 161 101 263.5t259 102.5z" />
    <glyph glyph-name="Egrave" unicode="&#xc8;" horiz-adv-x="516" 
d="M84 690h383v-62l-309 9v-255l261 10v-63l-261 9v-285l309 9v-62h-383v690zM184 874h72l94 -154l-34 -4z" />
    <glyph glyph-name="Eacute" unicode="&#xc9;" horiz-adv-x="516" 
d="M84 690h383v-62l-309 9v-255l261 10v-63l-261 9v-285l309 9v-62h-383v690zM324 874h72l-132 -158l-34 4z" />
    <glyph glyph-name="Ecircumflex" unicode="&#xca;" horiz-adv-x="516" 
d="M84 690h383v-62l-309 9v-255l261 10v-63l-261 9v-285l309 9v-62h-383v690zM253 869h56l95 -153l-35 -5l-90 106l-90 -106q-17 0 -32 5z" />
    <glyph glyph-name="Edieresis" unicode="&#xcb;" horiz-adv-x="516" 
d="M84 690h383v-62l-309 9v-255l261 10v-63l-261 9v-285l309 9v-62h-383v690zM150 780q0 16 12 28t28 12q17 0 29.5 -12t12.5 -28q0 -17 -12.5 -29.5t-29.5 -12.5q-16 0 -28 12.5t-12 29.5zM320 780q0 16 12 28t29 12t29.5 -12t12.5 -28q0 -17 -12.5 -29.5t-29.5 -12.5
t-29 12.5t-12 29.5z" />
    <glyph glyph-name="Igrave" unicode="&#xcc;" horiz-adv-x="242" 
d="M84 690h74v-690h-74v690zM9 874h72l94 -154l-34 -4z" />
    <glyph glyph-name="Iacute" unicode="&#xcd;" horiz-adv-x="242" 
d="M84 690h74v-690h-74v690zM166 874h72l-132 -158l-34 4z" />
    <glyph glyph-name="Icircumflex" unicode="&#xce;" horiz-adv-x="242" 
d="M84 690h74v-690h-74v690zM94 869h56l95 -153l-35 -5l-90 106l-90 -106q-17 0 -32 5z" />
    <glyph glyph-name="Idieresis" unicode="&#xcf;" horiz-adv-x="242" 
d="M84 690h74v-690h-74v690zM-5 780q0 16 11.5 28t28.5 12t29.5 -12t12.5 -28q0 -17 -12.5 -29.5t-29.5 -12.5q-16 0 -28 12.5t-12 29.5zM165 780q0 16 12 28t29 12t29.5 -12t12.5 -28q0 -17 -12.5 -29.5t-29.5 -12.5t-29 12.5t-12 29.5z" />
    <glyph glyph-name="Eth" unicode="&#xd0;" horiz-adv-x="685" 
d="M84 690h181q160 0 258 -83.5t98 -231.5q0 -174 -101 -274.5t-303 -100.5h-133v345h-56v41h56v304zM158 631v-245h134v-41h-134v-284q40 -5 72 -5q146 0 228.5 79t82.5 222q0 135 -74.5 207t-222.5 72q-41 0 -86 -5z" />
    <glyph glyph-name="Ntilde" unicode="&#xd1;" horiz-adv-x="663" 
d="M84 690h95l340 -540v540h59v-690h-49l-385 614v-614h-60v690zM211 725l-27 4q4 48 26 78.5t59 30.5q30 0 70 -31t64 -31q40 0 47 62l27 -2q-4 -51 -26 -79.5t-59 -28.5q-28 0 -66.5 30.5t-62.5 30.5q-49 0 -52 -64z" />
    <glyph glyph-name="Ograve" unicode="&#xd2;" horiz-adv-x="787" 
d="M394 643q-113 0 -181.5 -75.5t-68.5 -221.5t68 -224.5t180 -78.5q111 0 181 76.5t70 224.5q0 146 -68.5 222.5t-180.5 76.5zM405 700q146 0 231.5 -96.5t85.5 -246.5q0 -159 -96 -265t-246 -106q-145 0 -230.5 98.5t-85.5 251.5q0 155 95.5 259.5t245.5 104.5zM316 874
h72l94 -154l-34 -4z" />
    <glyph glyph-name="Oacute" unicode="&#xd3;" horiz-adv-x="787" 
d="M394 643q-113 0 -181.5 -75.5t-68.5 -221.5t68 -224.5t180 -78.5q111 0 181 76.5t70 224.5q0 146 -68.5 222.5t-180.5 76.5zM405 700q146 0 231.5 -96.5t85.5 -246.5q0 -159 -96 -265t-246 -106q-145 0 -230.5 98.5t-85.5 251.5q0 155 95.5 259.5t245.5 104.5zM415 874
h72l-132 -158l-34 4z" />
    <glyph glyph-name="Ocircumflex" unicode="&#xd4;" horiz-adv-x="787" 
d="M394 643q-113 0 -181.5 -75.5t-68.5 -221.5t68 -224.5t180 -78.5q111 0 181 76.5t70 224.5q0 146 -68.5 222.5t-180.5 76.5zM405 700q146 0 231.5 -96.5t85.5 -246.5q0 -159 -96 -265t-246 -106q-145 0 -230.5 98.5t-85.5 251.5q0 155 95.5 259.5t245.5 104.5zM366 869
h56l95 -153l-35 -5l-90 106l-90 -106q-17 0 -32 5z" />
    <glyph glyph-name="Otilde" unicode="&#xd5;" horiz-adv-x="787" 
d="M394 643q-113 0 -181.5 -75.5t-68.5 -221.5t68 -224.5t180 -78.5q111 0 181 76.5t70 224.5q0 146 -68.5 222.5t-180.5 76.5zM405 700q146 0 231.5 -96.5t85.5 -246.5q0 -159 -96 -265t-246 -106q-145 0 -230.5 98.5t-85.5 251.5q0 155 95.5 259.5t245.5 104.5zM274 725
l-27 4q4 48 26 78.5t59 30.5q30 0 70 -31t64 -31q40 0 47 62l27 -2q-4 -51 -26 -79.5t-59 -28.5q-28 0 -66.5 30.5t-62.5 30.5q-49 0 -52 -64z" />
    <glyph glyph-name="Odieresis" unicode="&#xd6;" horiz-adv-x="787" 
d="M394 643q-113 0 -181.5 -75.5t-68.5 -221.5t68 -224.5t180 -78.5q111 0 181 76.5t70 224.5q0 146 -68.5 222.5t-180.5 76.5zM405 700q146 0 231.5 -96.5t85.5 -246.5q0 -159 -96 -265t-246 -106q-145 0 -230.5 98.5t-85.5 251.5q0 155 95.5 259.5t245.5 104.5zM267 780
q0 16 11.5 28t28.5 12t29.5 -12t12.5 -28q0 -17 -12.5 -29.5t-29.5 -12.5q-16 0 -28 12.5t-12 29.5zM437 780q0 16 12 28t29 12t29.5 -12t12.5 -28q0 -17 -12.5 -29.5t-29.5 -12.5t-29 12.5t-12 29.5z" />
    <glyph glyph-name="multiply" unicode="&#xd7;" 
d="M83 456l173 -174l173 174l37 -37l-173 -173l174 -174l-37 -36l-174 173l-174 -174l-37 37l175 174l-174 174z" />
    <glyph glyph-name="Oslash" unicode="&#xd8;" horiz-adv-x="787" 
d="M405 700q109 0 188 -57l42 54l53 -12l-58 -75q92 -95 92 -253q0 -159 -96 -265t-246 -106q-109 0 -187 58l-39 -51l-53 12l55 72q-92 98 -92 259q0 155 95.5 259.5t245.5 104.5zM643 344q0 129 -58 208l-350 -454q62 -55 157 -55q111 0 181 76.5t70 224.5zM394 643
q-113 0 -181.5 -75.5t-68.5 -221.5q0 -132 57 -211l351 454q-63 54 -158 54z" />
    <glyph glyph-name="Ugrave" unicode="&#xd9;" horiz-adv-x="650" 
d="M76 690h73v-464q0 -88 51 -132t130 -44q78 0 128 42.5t50 119.5v478h66v-472q0 -107 -76 -169.5t-184 -62.5q-103 0 -170.5 57t-67.5 166v481zM233 874h72l94 -154l-34 -4z" />
    <glyph glyph-name="Uacute" unicode="&#xda;" horiz-adv-x="650" 
d="M76 690h73v-464q0 -88 51 -132t130 -44q78 0 128 42.5t50 119.5v478h66v-472q0 -107 -76 -169.5t-184 -62.5q-103 0 -170.5 57t-67.5 166v481zM351 874h72l-132 -158l-34 4z" />
    <glyph glyph-name="Ucircumflex" unicode="&#xdb;" horiz-adv-x="650" 
d="M76 690h73v-464q0 -88 51 -132t130 -44q78 0 128 42.5t50 119.5v478h66v-472q0 -107 -76 -169.5t-184 -62.5q-103 0 -170.5 57t-67.5 166v481zM297 869h56l95 -153l-35 -5l-90 106l-90 -106q-17 0 -32 5z" />
    <glyph glyph-name="Udieresis" unicode="&#xdc;" horiz-adv-x="650" 
d="M76 690h73v-464q0 -88 51 -132t130 -44q78 0 128 42.5t50 119.5v478h66v-472q0 -107 -76 -169.5t-184 -62.5q-103 0 -170.5 57t-67.5 166v481zM198 780q0 16 12 28t28 12q17 0 29.5 -12t12.5 -28q0 -17 -12.5 -29.5t-29.5 -12.5q-16 0 -28 12.5t-12 29.5zM368 780
q0 16 12 28t29 12t29.5 -12t12.5 -28q0 -17 -12.5 -29.5t-29.5 -12.5t-29 12.5t-12 29.5z" />
    <glyph glyph-name="Yacute" unicode="&#xdd;" horiz-adv-x="594" 
d="M4 690h94l208 -331l205 331h78l-254 -385v-305h-74v300zM335 874h72l-132 -158l-34 4z" />
    <glyph glyph-name="Thorn" unicode="&#xde;" horiz-adv-x="518" 
d="M157 574h89q116 0 175.5 -55t59.5 -139q0 -95 -63 -156.5t-180 -61.5q-44 0 -81 9v-171h-73v690h73v-116zM237 520q-52 0 -80 -4v-295q42 -8 72 -8q86 0 129.5 42.5t43.5 111.5q0 68 -42 110.5t-123 42.5z" />
    <glyph glyph-name="germandbls" unicode="&#xdf;" horiz-adv-x="506" 
d="M297 780q72 0 120 -40.5t48 -114.5q0 -91 -54 -168q-34 13 -60 13q-37 0 -57.5 -20t-20.5 -52q0 -27 21 -52t50.5 -46.5t59 -44.5t50.5 -54t21 -66q0 -67 -46 -108t-116 -41q-61 0 -101 21v66q53 -34 110 -34q42 0 65.5 20.5t23.5 56.5q0 26 -20.5 51t-50.5 46.5
t-59.5 45t-50 55t-20.5 66.5q0 59 39.5 100t99.5 41q22 0 44 -5q13 32 13 81q0 59 -36 93t-92 34q-57 0 -98 -41.5t-41 -124.5v-558h-67v551q0 106 66 167.5t159 61.5z" />
    <glyph glyph-name="agrave" unicode="&#xe0;" horiz-adv-x="440" 
d="M74 368v62q79 27 155 27q139 0 139 -106v-351h-43l-18 84q-25 -43 -69.5 -70.5t-91.5 -27.5q-46 0 -70 24t-24 65q0 123 249 212v58q0 32 -19 46.5t-60 14.5q-67 0 -148 -38zM301 184v53q-78 -18 -128.5 -58.5t-50.5 -85.5q0 -24 14.5 -37t38.5 -13q45 0 85.5 41.5
t40.5 99.5zM125 690h74l94 -165l-38 -4z" />
    <glyph glyph-name="aacute" unicode="&#xe1;" horiz-adv-x="440" 
d="M74 368v62q79 27 155 27q139 0 139 -106v-351h-43l-18 84q-25 -43 -69.5 -70.5t-91.5 -27.5q-46 0 -70 24t-24 65q0 123 249 212v58q0 32 -19 46.5t-60 14.5q-67 0 -148 -38zM301 184v53q-78 -18 -128.5 -58.5t-50.5 -85.5q0 -24 14.5 -37t38.5 -13q45 0 85.5 41.5
t40.5 99.5zM251 690h74l-129 -169l-39 4z" />
    <glyph glyph-name="acircumflex" unicode="&#xe2;" horiz-adv-x="440" 
d="M74 368v62q79 27 155 27q139 0 139 -106v-351h-43l-18 84q-25 -43 -69.5 -70.5t-91.5 -27.5q-46 0 -70 24t-24 65q0 123 249 212v58q0 32 -19 46.5t-60 14.5q-67 0 -148 -38zM301 184v53q-78 -18 -128.5 -58.5t-50.5 -85.5q0 -24 14.5 -37t38.5 -13q45 0 85.5 41.5
t40.5 99.5zM192 681h56l97 -165l-36 -4l-90 117l-90 -117l-34 4z" />
    <glyph glyph-name="atilde" unicode="&#xe3;" horiz-adv-x="440" 
d="M74 368v62q79 27 155 27q139 0 139 -106v-351h-43l-18 84q-25 -43 -69.5 -70.5t-91.5 -27.5q-46 0 -70 24t-24 65q0 123 249 212v58q0 32 -19 46.5t-60 14.5q-67 0 -148 -38zM301 184v53q-78 -18 -128.5 -58.5t-50.5 -85.5q0 -24 14.5 -37t38.5 -13q45 0 85.5 41.5
t40.5 99.5zM125 531l-30 4q7 46 29 75t58 29q19 0 34.5 -10.5t24.5 -23.5t21.5 -23.5t26.5 -10.5q36 0 43 59l28 -2q-6 -50 -28.5 -76.5t-57.5 -26.5q-18 0 -32.5 11t-23 23.5t-20.5 23.5t-26 11q-42 0 -47 -63z" />
    <glyph glyph-name="adieresis" unicode="&#xe4;" horiz-adv-x="440" 
d="M74 368v62q79 27 155 27q139 0 139 -106v-351h-43l-18 84q-25 -43 -69.5 -70.5t-91.5 -27.5q-46 0 -70 24t-24 65q0 123 249 212v58q0 32 -19 46.5t-60 14.5q-67 0 -148 -38zM301 184v53q-78 -18 -128.5 -58.5t-50.5 -85.5q0 -24 14.5 -37t38.5 -13q45 0 85.5 41.5
t40.5 99.5zM135 622q17 0 28 -12t11 -31t-11 -32.5t-28 -13.5t-28.5 13t-11.5 33q0 19 11.5 31t28.5 12zM301 622q17 0 28.5 -12t11.5 -31t-11.5 -32.5t-28.5 -13.5t-28.5 13.5t-11.5 32.5t11.5 31t28.5 12z" />
    <glyph glyph-name="aring" unicode="&#xe5;" horiz-adv-x="440" 
d="M74 368v62q79 27 155 27q139 0 139 -106v-351h-43l-18 84q-25 -43 -69.5 -70.5t-91.5 -27.5q-46 0 -70 24t-24 65q0 123 249 212v58q0 32 -19 46.5t-60 14.5q-67 0 -148 -38zM301 184v53q-78 -18 -128.5 -58.5t-50.5 -85.5q0 -24 14.5 -37t38.5 -13q45 0 85.5 41.5
t40.5 99.5zM138 591q0 39 27.5 64.5t66.5 25.5q38 0 62.5 -25.5t24.5 -64.5t-27 -64.5t-65 -25.5q-39 0 -64 25.5t-25 64.5zM226 646q-48 0 -48 -53q0 -27 14 -43.5t38 -16.5q47 0 47 53q0 27 -14 43.5t-37 16.5z" />
    <glyph glyph-name="ae" unicode="&#xe6;" horiz-adv-x="704" 
d="M228 456q52 0 80.5 -19t39.5 -69q57 88 169 88q146 0 146 -179q0 -7 -3 -31q-9 0 -51 1.5t-63 1.5q-102 0 -187 -10v-11q0 -85 42.5 -134t122.5 -49q74 0 133 28v-44q-68 -43 -150 -43q-145 0 -187 117q-29 -58 -76.5 -87.5t-97.5 -29.5q-46 0 -70.5 24t-24.5 65
q0 64 58.5 115.5t192.5 79.5q-2 76 -21.5 105.5t-59.5 29.5q-69 0 -148 -37v61q79 27 155 27zM174 42q53 0 88 46t39 141q-179 -36 -179 -137q0 -23 14.5 -36.5t37.5 -13.5zM500 404q-53 0 -89 -33t-47 -90q96 14 232 15q0 52 -19 80t-77 28z" />
    <glyph glyph-name="ccedilla" unicode="&#xe7;" horiz-adv-x="440" 
d="M398 437v-69q-61 32 -137 32q-68 0 -106 -48.5t-38 -124.5q0 -83 41.5 -132.5t116.5 -49.5q62 0 123 28v-44q-67 -42 -142 -43l-23 -50q106 0 106 -76q0 -44 -33 -69t-83 -25q-31 0 -64 12l11 29q19 -7 41 -7q68 0 68 50q0 54 -88 54l31 84q-80 10 -124.5 68t-44.5 149
q0 108 61.5 180t164.5 72q66 0 119 -20z" />
    <glyph glyph-name="egrave" unicode="&#xe8;" horiz-adv-x="462" 
d="M419 250h-302q-1 -7 -1 -22q0 -84 42 -134t123 -50q70 0 132 30v-45q-66 -43 -150 -43q-102 0 -156 58t-54 163q0 107 60 178.5t163 71.5q65 0 105.5 -43.5t40.5 -132.5q0 -4 -3 -31zM260 405q-52 0 -87 -30t-49 -82l232 9q0 103 -96 103zM170 690h74l94 -165l-38 -4z
" />
    <glyph glyph-name="eacute" unicode="&#xe9;" horiz-adv-x="462" 
d="M419 250h-302q-1 -7 -1 -22q0 -84 42 -134t123 -50q70 0 132 30v-45q-66 -43 -150 -43q-102 0 -156 58t-54 163q0 107 60 178.5t163 71.5q65 0 105.5 -43.5t40.5 -132.5q0 -4 -3 -31zM260 405q-52 0 -87 -30t-49 -82l232 9q0 103 -96 103zM294 690h74l-129 -169l-39 4z
" />
    <glyph glyph-name="ecircumflex" unicode="&#xea;" horiz-adv-x="462" 
d="M419 250h-302q-1 -7 -1 -22q0 -84 42 -134t123 -50q70 0 132 30v-45q-66 -43 -150 -43q-102 0 -156 58t-54 163q0 107 60 178.5t163 71.5q65 0 105.5 -43.5t40.5 -132.5q0 -4 -3 -31zM260 405q-52 0 -87 -30t-49 -82l232 9q0 103 -96 103zM238 681h56l97 -165l-36 -4
l-90 117l-90 -117l-34 4z" />
    <glyph glyph-name="edieresis" unicode="&#xeb;" horiz-adv-x="462" 
d="M419 250h-302q-1 -7 -1 -22q0 -84 42 -134t123 -50q70 0 132 30v-45q-66 -43 -150 -43q-102 0 -156 58t-54 163q0 107 60 178.5t163 71.5q65 0 105.5 -43.5t40.5 -132.5q0 -4 -3 -31zM260 405q-52 0 -87 -30t-49 -82l232 9q0 103 -96 103zM346 622q17 0 28.5 -12
t11.5 -31t-11.5 -32.5t-28.5 -13.5t-28.5 13.5t-11.5 32.5t11.5 31t28.5 12zM180 622q17 0 28 -12t11 -31t-11 -32.5t-28 -13.5t-28.5 13t-11.5 33q0 19 11.5 31t28.5 12z" />
    <glyph glyph-name="igrave" unicode="&#xec;" horiz-adv-x="210" 
d="M-8 690h74l94 -165l-38 -4zM74 432l65 15v-447h-65v432z" />
    <glyph glyph-name="iacute" unicode="&#xed;" horiz-adv-x="210" 
d="M146 690h74l-129 -169l-39 4zM74 432l65 15v-447h-65v432z" />
    <glyph glyph-name="icircumflex" unicode="&#xee;" horiz-adv-x="210" 
d="M74 432l65 15v-447h-65v432zM78 681h56l97 -165l-36 -4l-90 117l-90 -117l-34 4z" />
    <glyph glyph-name="idieresis" unicode="&#xef;" horiz-adv-x="210" 
d="M22 622q17 0 28 -12t11 -31t-11 -32.5t-28 -13.5t-28.5 13t-11.5 33q0 19 11.5 31t28.5 12zM188 622q17 0 28.5 -12t11.5 -31t-11.5 -32.5t-28.5 -13.5t-28.5 13.5t-11.5 32.5t11.5 31t28.5 12zM74 432l65 15v-447h-65v432z" />
    <glyph glyph-name="eth" unicode="&#xf0;" horiz-adv-x="543" 
d="M256 771l69 26q41 -50 77 -124l67 30l17 -37l-68 -31q73 -168 73 -328q0 -170 -63 -245.5t-169 -75.5q-96 0 -151 63t-55 167q0 105 63.5 173t160.5 68q102 0 153 -72q-13 108 -68 225l-76 -34l-17 37l74 33q-38 71 -87 125zM275 407q-68 0 -109.5 -46.5t-41.5 -138.5
q0 -93 40 -139.5t109 -46.5q67 0 107 51t40 148q0 172 -145 172z" />
    <glyph glyph-name="ntilde" unicode="&#xf1;" horiz-adv-x="501" 
d="M72 432l67 15v-77q32 40 78.5 63.5t89.5 23.5q57 0 89 -36t32 -111v-310h-66v293q0 54 -21 80t-67 26q-59 0 -97 -43t-38 -95v-261h-67v432zM151 531l-30 4q7 46 29 75t58 29q19 0 34.5 -10.5t24.5 -23.5t21.5 -23.5t26.5 -10.5q36 0 43 59l28 -2q-6 -50 -28.5 -76.5
t-57.5 -26.5q-18 0 -32.5 11t-23 23.5t-20.5 23.5t-26 11q-42 0 -47 -63z" />
    <glyph glyph-name="ograve" unicode="&#xf2;" horiz-adv-x="547" 
d="M280 457q98 0 156 -62.5t58 -165.5q0 -106 -64 -174.5t-164 -68.5q-97 0 -155 63.5t-58 166.5q0 105 63.5 173t163.5 68zM274 408q-68 0 -109 -47t-41 -139q0 -93 40.5 -140.5t109.5 -47.5q67 0 107.5 48t40.5 141q0 92 -40 138.5t-108 46.5zM166 690h74l94 -165l-38 -4z
" />
    <glyph glyph-name="oacute" unicode="&#xf3;" horiz-adv-x="547" 
d="M280 457q98 0 156 -62.5t58 -165.5q0 -106 -64 -174.5t-164 -68.5q-97 0 -155 63.5t-58 166.5q0 105 63.5 173t163.5 68zM274 408q-68 0 -109 -47t-41 -139q0 -93 40.5 -140.5t109.5 -47.5q67 0 107.5 48t40.5 141q0 92 -40 138.5t-108 46.5zM284 690h74l-129 -169l-39 4
z" />
    <glyph glyph-name="ocircumflex" unicode="&#xf4;" horiz-adv-x="547" 
d="M280 457q98 0 156 -62.5t58 -165.5q0 -106 -64 -174.5t-164 -68.5q-97 0 -155 63.5t-58 166.5q0 105 63.5 173t163.5 68zM274 408q-68 0 -109 -47t-41 -139q0 -93 40.5 -140.5t109.5 -47.5q67 0 107.5 48t40.5 141q0 92 -40 138.5t-108 46.5zM245 681h56l97 -165l-36 -4
l-90 117l-90 -117l-34 4z" />
    <glyph glyph-name="otilde" unicode="&#xf5;" horiz-adv-x="547" 
d="M280 457q98 0 156 -62.5t58 -165.5q0 -106 -64 -174.5t-164 -68.5q-97 0 -155 63.5t-58 166.5q0 105 63.5 173t163.5 68zM274 408q-68 0 -109 -47t-41 -139q0 -93 40.5 -140.5t109.5 -47.5q67 0 107.5 48t40.5 141q0 92 -40 138.5t-108 46.5zM170 531l-30 4q7 46 29 75
t58 29q19 0 34.5 -10.5t24.5 -23.5t21.5 -23.5t26.5 -10.5q36 0 43 59l28 -2q-6 -50 -28.5 -76.5t-57.5 -26.5q-18 0 -32.5 11t-23 23.5t-20.5 23.5t-26 11q-42 0 -47 -63z" />
    <glyph glyph-name="odieresis" unicode="&#xf6;" horiz-adv-x="547" 
d="M280 457q98 0 156 -62.5t58 -165.5q0 -106 -64 -174.5t-164 -68.5q-97 0 -155 63.5t-58 166.5q0 105 63.5 173t163.5 68zM274 408q-68 0 -109 -47t-41 -139q0 -93 40.5 -140.5t109.5 -47.5q67 0 107.5 48t40.5 141q0 92 -40 138.5t-108 46.5zM190 622q17 0 28 -12t11 -31
t-11 -32.5t-28 -13.5t-28.5 13t-11.5 33q0 19 11.5 31t28.5 12zM356 622q17 0 28.5 -12t11.5 -31t-11.5 -32.5t-28.5 -13.5t-28.5 13.5t-11.5 32.5t11.5 31t28.5 12z" />
    <glyph glyph-name="divide" unicode="&#xf7;" 
d="M24 273h463v-52h-463v52zM210 410q0 19 14 32t33 13t32 -13t13 -32t-13 -33t-32 -14t-33 14t-14 33zM210 85q0 18 14 31.5t33 13.5t32 -13.5t13 -31.5q0 -19 -13 -33t-32 -14t-33 14t-14 33z" />
    <glyph glyph-name="oslash" unicode="&#xf8;" horiz-adv-x="546" 
d="M280 457q77 0 131 -41l29 33l53 -12l-47 -54q48 -60 48 -154q0 -106 -64 -174.5t-164 -68.5q-77 0 -131 41l-29 -33l-53 12l48 55q-48 60 -48 155q0 105 63.5 173t163.5 68zM422 223q0 64 -21 109l-228 -260q38 -38 101 -38q67 0 107.5 48t40.5 141zM274 408
q-68 0 -109 -47t-41 -139q0 -68 21 -111l227 260q-37 37 -98 37z" />
    <glyph glyph-name="ugrave" unicode="&#xf9;" horiz-adv-x="501" 
d="M72 443h67v-289q0 -56 19.5 -83t68.5 -27q56 0 95.5 39.5t39.5 92.5v267h66v-443h-42l-20 77q-69 -91 -172 -91q-57 0 -89.5 36.5t-32.5 110.5v310zM145 690h74l94 -165l-38 -4z" />
    <glyph glyph-name="uacute" unicode="&#xfa;" horiz-adv-x="501" 
d="M72 443h67v-289q0 -56 19.5 -83t68.5 -27q56 0 95.5 39.5t39.5 92.5v267h66v-443h-42l-20 77q-69 -91 -172 -91q-57 0 -89.5 36.5t-32.5 110.5v310zM289 690h74l-129 -169l-39 4z" />
    <glyph glyph-name="ucircumflex" unicode="&#xfb;" horiz-adv-x="501" 
d="M72 443h67v-289q0 -56 19.5 -83t68.5 -27q56 0 95.5 39.5t39.5 92.5v267h66v-443h-42l-20 77q-69 -91 -172 -91q-57 0 -89.5 36.5t-32.5 110.5v310zM221 681h56l97 -165l-36 -4l-90 117l-90 -117l-34 4z" />
    <glyph glyph-name="udieresis" unicode="&#xfc;" horiz-adv-x="501" 
d="M72 443h67v-289q0 -56 19.5 -83t68.5 -27q56 0 95.5 39.5t39.5 92.5v267h66v-443h-42l-20 77q-69 -91 -172 -91q-57 0 -89.5 36.5t-32.5 110.5v310zM167 622q17 0 28 -12t11 -31t-11 -32.5t-28 -13.5t-28.5 13t-11.5 33q0 19 11.5 31t28.5 12zM333 622q17 0 28.5 -12
t11.5 -31t-11.5 -32.5t-28.5 -13.5t-28.5 13.5t-11.5 32.5t11.5 31t28.5 12z" />
    <glyph glyph-name="yacute" unicode="&#xfd;" horiz-adv-x="414" 
d="M6 443h74l133 -367l131 367h64l-176 -445q-51 -131 -106.5 -185.5t-151.5 -55.5l15 70q72 1 110.5 38t71.5 122l5 14zM250 690h74l-129 -169l-39 4z" />
    <glyph glyph-name="thorn" unicode="&#xfe;" horiz-adv-x="542" 
d="M72 770l67 15v-390q72 62 166 62q91 0 137.5 -58t46.5 -153q0 -110 -62.5 -185t-169.5 -75q-72 0 -118 37v-266h-67v1013zM282 393q-74 0 -143 -42v-206q2 -47 37 -75t99 -28q68 0 110.5 51t42.5 128q0 76 -36.5 124t-109.5 48z" />
    <glyph glyph-name="ydieresis" unicode="&#xff;" horiz-adv-x="414" 
d="M6 443h74l133 -367l131 367h64l-176 -445q-51 -131 -106.5 -185.5t-151.5 -55.5l15 70q72 1 110.5 38t71.5 122l5 14zM124 622q17 0 28 -12t11 -31t-11 -32.5t-28 -13.5t-28.5 13t-11.5 33q0 19 11.5 31t28.5 12zM290 622q17 0 28.5 -12t11.5 -31t-11.5 -32.5
t-28.5 -13.5t-28.5 13.5t-11.5 32.5t11.5 31t28.5 12z" />
    <glyph glyph-name="Amacron" unicode="&#x100;" horiz-adv-x="603" 
d="M272 690h66l260 -690h-85l-87 237h-261l-85 -237h-76zM294 603l-113 -317h229zM194 797h214v-41h-214v41z" />
    <glyph glyph-name="amacron" unicode="&#x101;" horiz-adv-x="440" 
d="M74 368v62q79 27 155 27q139 0 139 -106v-351h-43l-18 84q-25 -43 -69.5 -70.5t-91.5 -27.5q-46 0 -70 24t-24 65q0 123 249 212v58q0 32 -19 46.5t-60 14.5q-67 0 -148 -38zM301 184v53q-78 -18 -128.5 -58.5t-50.5 -85.5q0 -24 14.5 -37t38.5 -13q45 0 85.5 41.5
t40.5 99.5zM119 600h212v-41h-212v41z" />
    <glyph glyph-name="Abreve" unicode="&#x102;" horiz-adv-x="603" 
d="M272 690h66l260 -690h-85l-87 237h-261l-85 -237h-76zM294 603l-113 -317h229zM188 838l37 4q1 -31 22.5 -51t54.5 -20q32 0 53.5 20.5t22.5 51.5l35 -4q-1 -50 -33 -81t-79 -31t-79.5 31t-33.5 80z" />
    <glyph glyph-name="abreve" unicode="&#x103;" horiz-adv-x="440" 
d="M74 368v62q79 27 155 27q139 0 139 -106v-351h-43l-18 84q-25 -43 -69.5 -70.5t-91.5 -27.5q-46 0 -70 24t-24 65q0 123 249 212v58q0 32 -19 46.5t-60 14.5q-67 0 -148 -38zM301 184v53q-78 -18 -128.5 -58.5t-50.5 -85.5q0 -24 14.5 -37t38.5 -13q45 0 85.5 41.5
t40.5 99.5zM106 657l37 4q2 -88 78 -88q74 0 77 89l36 -5q-2 -63 -32 -101t-82 -38t-82 38t-32 101z" />
    <glyph glyph-name="Aogonek" unicode="&#x104;" horiz-adv-x="603" 
d="M272 690h66l260 -690h-48q-55 -48 -55 -112q0 -29 19 -43.5t48 -14.5q33 0 60 15l7 -27q-44 -28 -98 -28q-42 0 -67 19.5t-25 59.5q0 38 22.5 74t55.5 57h-4l-87 237h-261l-85 -237h-76zM294 603l-113 -317h229z" />
    <glyph glyph-name="aogonek" unicode="&#x105;" horiz-adv-x="440" 
d="M74 368v62q79 27 155 27q139 0 139 -106v-351h-20q-55 -48 -55 -112q0 -29 19 -43.5t48 -14.5q33 0 60 15l7 -27q-44 -28 -98 -28q-42 0 -67 19.5t-25 59.5t25.5 78t61.5 58l-17 79q-25 -43 -69.5 -70.5t-91.5 -27.5q-46 0 -70 24t-24 65q0 123 249 212v58q0 32 -19 46.5
t-60 14.5q-67 0 -148 -38zM301 184v53q-78 -18 -128.5 -58.5t-50.5 -85.5q0 -24 14.5 -37t38.5 -13q45 0 85.5 41.5t40.5 99.5z" />
    <glyph glyph-name="Cacute" unicode="&#x106;" horiz-adv-x="610" 
d="M424 700q84 0 144 -21v-81q-73 40 -166 40q-125 0 -191 -80.5t-66 -214.5q0 -132 68 -215.5t193 -83.5q89 0 162 40v-77q-60 -21 -168 -21q-149 0 -242.5 95.5t-93.5 252.5q0 161 101 263.5t259 102.5zM406 874h72l-132 -158l-34 4z" />
    <glyph glyph-name="cacute" unicode="&#x107;" horiz-adv-x="440" 
d="M398 437v-69q-61 32 -137 32q-68 0 -106 -48.5t-38 -124.5q0 -83 41.5 -132.5t116.5 -49.5q62 0 123 28v-44q-69 -43 -145 -43q-94 0 -147 59.5t-53 159.5q0 108 61.5 180t164.5 72q66 0 119 -20zM294 690h74l-129 -169l-39 4z" />
    <glyph glyph-name="Ccircumflex" unicode="&#x108;" horiz-adv-x="610" 
d="M424 700q84 0 144 -21v-81q-73 40 -166 40q-125 0 -191 -80.5t-66 -214.5q0 -132 68 -215.5t193 -83.5q89 0 162 40v-77q-60 -21 -168 -21q-149 0 -242.5 95.5t-93.5 252.5q0 161 101 263.5t259 102.5zM376 869h56l95 -153l-35 -5l-90 106l-90 -106q-17 0 -32 5z" />
    <glyph glyph-name="ccircumflex" unicode="&#x109;" horiz-adv-x="440" 
d="M398 437v-69q-61 32 -137 32q-68 0 -106 -48.5t-38 -124.5q0 -83 41.5 -132.5t116.5 -49.5q62 0 123 28v-44q-69 -43 -145 -43q-94 0 -147 59.5t-53 159.5q0 108 61.5 180t164.5 72q66 0 119 -20zM240 681h56l97 -165l-36 -4l-90 117l-90 -117l-34 4z" />
    <glyph glyph-name="Cdotaccent" unicode="&#x10a;" horiz-adv-x="610" 
d="M424 700q84 0 144 -21v-81q-73 40 -166 40q-125 0 -191 -80.5t-66 -214.5q0 -132 68 -215.5t193 -83.5q89 0 162 40v-77q-60 -21 -168 -21q-149 0 -242.5 95.5t-93.5 252.5q0 161 101 263.5t259 102.5zM359 789q0 17 12 29t29 12t29.5 -12t12.5 -29t-12.5 -29t-29.5 -12
t-29 12t-12 29z" />
    <glyph glyph-name="cdotaccent" unicode="&#x10b;" horiz-adv-x="440" 
d="M398 437v-69q-61 32 -137 32q-68 0 -106 -48.5t-38 -124.5q0 -83 41.5 -132.5t116.5 -49.5q62 0 123 28v-44q-69 -43 -145 -43q-94 0 -147 59.5t-53 159.5q0 108 61.5 180t164.5 72q66 0 119 -20zM270 625q16 0 28.5 -12.5t12.5 -29.5q0 -18 -12.5 -30.5t-28.5 -12.5
q-17 0 -29.5 12.5t-12.5 30.5q0 17 12.5 29.5t29.5 12.5z" />
    <glyph glyph-name="Ccaron" unicode="&#x10c;" horiz-adv-x="610" 
d="M424 700q84 0 144 -21v-81q-73 40 -166 40q-125 0 -191 -80.5t-66 -214.5q0 -132 68 -215.5t193 -83.5q89 0 162 40v-77q-60 -21 -168 -21q-149 0 -242.5 95.5t-93.5 252.5q0 161 101 263.5t259 102.5zM373 718l-96 156l35 4l91 -107l90 107l33 -4l-97 -156h-56z" />
    <glyph glyph-name="ccaron" unicode="&#x10d;" horiz-adv-x="440" 
d="M398 437v-69q-61 32 -137 32q-68 0 -106 -48.5t-38 -124.5q0 -83 41.5 -132.5t116.5 -49.5q62 0 123 28v-44q-69 -43 -145 -43q-94 0 -147 59.5t-53 159.5q0 108 61.5 180t164.5 72q66 0 119 -20zM144 688l36 4l90 -116l90 116l34 -4l-98 -164h-56z" />
    <glyph glyph-name="Dcaron" unicode="&#x10e;" horiz-adv-x="685" 
d="M84 690h181q160 0 258 -83.5t98 -231.5q0 -174 -101 -274.5t-303 -100.5h-133v690zM158 631v-570q40 -5 72 -5q146 0 228.5 79t82.5 222q0 135 -74.5 207t-222.5 72q-41 0 -86 -5zM274 718l-96 156l35 4l91 -107l90 107l33 -4l-97 -156h-56z" />
    <glyph glyph-name="dcaron" unicode="&#x10f;" horiz-adv-x="542" 
d="M403 773l67 15v-788h-40l-17 58q-28 -29 -77 -50.5t-99 -21.5q-91 0 -137.5 58t-46.5 153q0 110 62 185t169 75q72 0 119 -38v354zM260 50q73 0 143 45v202q-2 48 -37 76t-99 28q-68 0 -110.5 -51.5t-42.5 -127.5q0 -75 36.5 -123.5t109.5 -48.5zM522 785h62l-39 -197
l-31 4z" />
    <glyph glyph-name="Dcroat" unicode="&#x110;" horiz-adv-x="685" 
d="M84 690h181q160 0 258 -83.5t98 -231.5q0 -174 -101 -274.5t-303 -100.5h-133v345h-56v41h56v304zM158 631v-245h134v-41h-134v-284q40 -5 72 -5q146 0 228.5 79t82.5 222q0 135 -74.5 207t-222.5 72q-41 0 -86 -5z" />
    <glyph glyph-name="dcroat" unicode="&#x111;" horiz-adv-x="542" 
d="M403 773l67 15v-188h57v-41h-57v-559h-40l-17 58q-28 -29 -77 -50.5t-99 -21.5q-91 0 -137.5 58t-46.5 153q0 110 62 185t169 75q72 0 119 -38v140h-88v41h88v173zM260 50q73 0 143 45v202q-2 48 -37 76t-99 28q-68 0 -110.5 -51.5t-42.5 -127.5q0 -75 36.5 -123.5
t109.5 -48.5z" />
    <glyph glyph-name="Emacron" unicode="&#x112;" horiz-adv-x="516" 
d="M84 690h383v-62l-309 9v-255l261 10v-63l-261 9v-285l309 9v-62h-383v690zM172 797h214v-41h-214v41z" />
    <glyph glyph-name="emacron" unicode="&#x113;" horiz-adv-x="462" 
d="M419 250h-302q-1 -7 -1 -22q0 -84 42 -134t123 -50q70 0 132 30v-45q-66 -43 -150 -43q-102 0 -156 58t-54 163q0 107 60 178.5t163 71.5q65 0 105.5 -43.5t40.5 -132.5q0 -4 -3 -31zM260 405q-52 0 -87 -30t-49 -82l232 9q0 103 -96 103zM159 600h212v-41h-212v41z" />
    <glyph glyph-name="Ebreve" unicode="&#x114;" horiz-adv-x="516" 
d="M84 690h383v-62l-309 9v-255l261 10v-63l-261 9v-285l309 9v-62h-383v690zM167 838l37 4q1 -31 22.5 -51t54.5 -20q32 0 53.5 20.5t22.5 51.5l35 -4q-1 -50 -33 -81t-79 -31t-79.5 31t-33.5 80z" />
    <glyph glyph-name="ebreve" unicode="&#x115;" horiz-adv-x="462" 
d="M419 250h-302q-1 -7 -1 -22q0 -84 42 -134t123 -50q70 0 132 30v-45q-66 -43 -150 -43q-102 0 -156 58t-54 163q0 107 60 178.5t163 71.5q65 0 105.5 -43.5t40.5 -132.5q0 -4 -3 -31zM260 405q-52 0 -87 -30t-49 -82l232 9q0 103 -96 103zM155 657l37 4q2 -88 78 -88
q74 0 77 89l36 -5q-2 -63 -32 -101t-82 -38t-82 38t-32 101z" />
    <glyph glyph-name="Edotaccent" unicode="&#x116;" horiz-adv-x="516" 
d="M84 690h383v-62l-309 9v-255l261 10v-63l-261 9v-285l309 9v-62h-383v690zM241 789q0 17 12 29t29 12t29.5 -12t12.5 -29t-12.5 -29t-29.5 -12t-29 12t-12 29z" />
    <glyph glyph-name="edotaccent" unicode="&#x117;" horiz-adv-x="462" 
d="M419 250h-302q-1 -7 -1 -22q0 -84 42 -134t123 -50q70 0 132 30v-45q-66 -43 -150 -43q-102 0 -156 58t-54 163q0 107 60 178.5t163 71.5q65 0 105.5 -43.5t40.5 -132.5q0 -4 -3 -31zM260 405q-52 0 -87 -30t-49 -82l232 9q0 103 -96 103zM268 625q16 0 28.5 -12.5
t12.5 -29.5q0 -18 -12.5 -30.5t-28.5 -12.5q-17 0 -29.5 12.5t-12.5 30.5q0 17 12.5 29.5t29.5 12.5z" />
    <glyph glyph-name="Eogonek" unicode="&#x118;" horiz-adv-x="516" 
d="M84 690h383v-62l-309 9v-255l261 10v-63l-261 9v-285l309 9v-62h-51q-55 -48 -55 -112q0 -29 19 -43.5t48 -14.5q33 0 60 15l7 -27q-44 -28 -98 -28q-42 0 -67 19.5t-25 59.5q0 38 22.5 74t55.5 57h-299v690z" />
    <glyph glyph-name="eogonek" unicode="&#x119;" horiz-adv-x="462" 
d="M419 250h-302q-1 -7 -1 -22q0 -84 42 -134t123 -50q70 0 132 30v-45q-42 -28 -99 -38q-45 -45 -45 -103q0 -29 19 -43.5t48 -14.5q33 0 60 15l7 -27q-44 -28 -98 -28q-42 0 -67 19.5t-25 59.5q0 65 59 117h-9q-102 0 -156 58t-54 163q0 107 60 178.5t163 71.5
q65 0 105.5 -43.5t40.5 -132.5q0 -4 -3 -31zM260 405q-52 0 -87 -30t-49 -82l232 9q0 103 -96 103z" />
    <glyph glyph-name="Ecaron" unicode="&#x11a;" horiz-adv-x="516" 
d="M84 690h383v-62l-309 9v-255l261 10v-63l-261 9v-285l309 9v-62h-383v690zM254 718l-96 156l35 4l91 -107l90 107l33 -4l-97 -156h-56z" />
    <glyph glyph-name="ecaron" unicode="&#x11b;" horiz-adv-x="462" 
d="M419 250h-302q-1 -7 -1 -22q0 -84 42 -134t123 -50q70 0 132 30v-45q-66 -43 -150 -43q-102 0 -156 58t-54 163q0 107 60 178.5t163 71.5q65 0 105.5 -43.5t40.5 -132.5q0 -4 -3 -31zM260 405q-52 0 -87 -30t-49 -82l232 9q0 103 -96 103zM147 688l36 4l90 -116l90 116
l34 -4l-98 -164h-56z" />
    <glyph glyph-name="Gcircumflex" unicode="&#x11c;" horiz-adv-x="667" 
d="M584 347v-330q-80 -31 -184 -31q-149 0 -242.5 95t-93.5 252q0 161 105.5 264t269.5 103q85 0 145 -21v-81q-73 40 -167 40q-132 0 -202 -81t-70 -215q0 -132 68 -215t193 -83q62 0 105 14v289h73zM390 869h56l95 -153l-35 -5l-90 106l-90 -106q-17 0 -32 5z" />
    <glyph glyph-name="gcircumflex" unicode="&#x11d;" horiz-adv-x="510" 
d="M140 153q-73 41 -73 133q0 73 52.5 122t132.5 49q45 0 81 -14h163v-55l-107 11q27 -39 27 -97q0 -71 -55 -120.5t-133 -49.5q-29 0 -58 7q-21 -12 -33.5 -31t-12.5 -35q0 -34 52 -34q25 0 85.5 2.5t95.5 2.5q71 0 103.5 -24t32.5 -76q0 -90 -86.5 -145t-211.5 -55
q-80 0 -125 25.5t-45 72.5q0 39 32.5 80t78.5 61q-81 7 -81 63q0 27 22.5 56.5t62.5 50.5zM181 -18q-32 -13 -57 -43.5t-25 -65.5q0 -40 28.5 -56.5t101.5 -16.5q84 0 139.5 33.5t55.5 83.5q0 34 -20 52t-68 18q-22 0 -74 -2.5t-81 -2.5zM241 410q-49 0 -77.5 -30t-28.5 -86
t29 -87t77 -31q50 0 78.5 30t28.5 88q0 57 -28.5 86.5t-78.5 29.5zM227 681h56l97 -165l-36 -4l-90 117l-90 -117l-34 4z" />
    <glyph glyph-name="Gbreve" unicode="&#x11e;" horiz-adv-x="667" 
d="M584 347v-330q-80 -31 -184 -31q-149 0 -242.5 95t-93.5 252q0 161 105.5 264t269.5 103q85 0 145 -21v-81q-73 40 -167 40q-132 0 -202 -81t-70 -215q0 -132 68 -215t193 -83q62 0 105 14v289h73zM297 838l37 4q1 -31 22.5 -51t54.5 -20q32 0 53.5 20.5t22.5 51.5l35 -4
q-1 -50 -33 -81t-79 -31t-79.5 31t-33.5 80z" />
    <glyph glyph-name="gbreve" unicode="&#x11f;" horiz-adv-x="510" 
d="M140 153q-73 41 -73 133q0 73 52.5 122t132.5 49q45 0 81 -14h163v-55l-107 11q27 -39 27 -97q0 -71 -55 -120.5t-133 -49.5q-29 0 -58 7q-21 -12 -33.5 -31t-12.5 -35q0 -34 52 -34q25 0 85.5 2.5t95.5 2.5q71 0 103.5 -24t32.5 -76q0 -90 -86.5 -145t-211.5 -55
q-80 0 -125 25.5t-45 72.5q0 39 32.5 80t78.5 61q-81 7 -81 63q0 27 22.5 56.5t62.5 50.5zM181 -18q-32 -13 -57 -43.5t-25 -65.5q0 -40 28.5 -56.5t101.5 -16.5q84 0 139.5 33.5t55.5 83.5q0 34 -20 52t-68 18q-22 0 -74 -2.5t-81 -2.5zM241 410q-49 0 -77.5 -30t-28.5 -86
t29 -87t77 -31q50 0 78.5 30t28.5 88q0 57 -28.5 86.5t-78.5 29.5zM144 657l37 4q2 -88 78 -88q74 0 77 89l36 -5q-2 -63 -32 -101t-82 -38t-82 38t-32 101z" />
    <glyph glyph-name="Gdotaccent" unicode="&#x120;" horiz-adv-x="667" 
d="M584 347v-330q-80 -31 -184 -31q-149 0 -242.5 95t-93.5 252q0 161 105.5 264t269.5 103q85 0 145 -21v-81q-73 40 -167 40q-132 0 -202 -81t-70 -215q0 -132 68 -215t193 -83q62 0 105 14v289h73zM373 789q0 17 12 29t29 12t29.5 -12t12.5 -29t-12.5 -29t-29.5 -12
t-29 12t-12 29z" />
    <glyph glyph-name="gdotaccent" unicode="&#x121;" horiz-adv-x="510" 
d="M140 153q-73 41 -73 133q0 73 52.5 122t132.5 49q45 0 81 -14h163v-55l-107 11q27 -39 27 -97q0 -71 -55 -120.5t-133 -49.5q-29 0 -58 7q-21 -12 -33.5 -31t-12.5 -35q0 -34 52 -34q25 0 85.5 2.5t95.5 2.5q71 0 103.5 -24t32.5 -76q0 -90 -86.5 -145t-211.5 -55
q-80 0 -125 25.5t-45 72.5q0 39 32.5 80t78.5 61q-81 7 -81 63q0 27 22.5 56.5t62.5 50.5zM181 -18q-32 -13 -57 -43.5t-25 -65.5q0 -40 28.5 -56.5t101.5 -16.5q84 0 139.5 33.5t55.5 83.5q0 34 -20 52t-68 18q-22 0 -74 -2.5t-81 -2.5zM241 410q-49 0 -77.5 -30t-28.5 -86
t29 -87t77 -31q50 0 78.5 30t28.5 88q0 57 -28.5 86.5t-78.5 29.5zM248 625q16 0 28.5 -12.5t12.5 -29.5q0 -18 -12.5 -30.5t-28.5 -12.5q-17 0 -29.5 12.5t-12.5 30.5q0 17 12.5 29.5t29.5 12.5z" />
    <glyph glyph-name="Gcommaaccent" unicode="&#x122;" horiz-adv-x="667" 
d="M584 347v-330q-80 -31 -184 -31q-149 0 -242.5 95t-93.5 252q0 161 105.5 264t269.5 103q85 0 145 -21v-81q-73 40 -167 40q-132 0 -202 -81t-70 -215q0 -132 68 -215t193 -83q62 0 105 14v289h73zM370 -58h70q-18 -91 -72 -168l-32 10q26 59 34 158z" />
    <glyph glyph-name="gcommaaccent" unicode="&#x123;" horiz-adv-x="510" 
d="M140 153q-73 41 -73 133q0 73 52.5 122t132.5 49q45 0 81 -14h163v-55l-107 11q27 -39 27 -97q0 -71 -55 -120.5t-133 -49.5q-29 0 -58 7q-21 -12 -33.5 -31t-12.5 -35q0 -34 52 -34q25 0 85.5 2.5t95.5 2.5q71 0 103.5 -24t32.5 -76q0 -90 -86.5 -145t-211.5 -55
q-80 0 -125 25.5t-45 72.5q0 39 32.5 80t78.5 61q-81 7 -81 63q0 27 22.5 56.5t62.5 50.5zM181 -18q-32 -13 -57 -43.5t-25 -65.5q0 -40 28.5 -56.5t101.5 -16.5q84 0 139.5 33.5t55.5 83.5q0 34 -20 52t-68 18q-22 0 -74 -2.5t-81 -2.5zM241 410q-49 0 -77.5 -30t-28.5 -86
t29 -87t77 -31q50 0 78.5 30t28.5 88q0 57 -28.5 86.5t-78.5 29.5zM266 513h-70q18 91 72 168l32 -10q-26 -59 -34 -158z" />
    <glyph glyph-name="Hcircumflex" unicode="&#x124;" horiz-adv-x="666" 
d="M508 690h74v-690h-74v336h-350v-336h-74v690h74v-302h350v302zM304 869h56l95 -153l-35 -5l-90 106l-90 -106q-17 0 -32 5z" />
    <glyph glyph-name="hcircumflex" unicode="&#x125;" horiz-adv-x="501" 
d="M72 773l67 15v-418q32 40 78.5 63.5t89.5 23.5q57 0 89 -36t32 -111v-310h-66v293q0 106 -89 106q-59 0 -96.5 -42.5t-37.5 -95.5v-261h-67v773zM151 945h56l95 -153l-35 -5l-90 106l-90 -106q-17 0 -32 5z" />
    <glyph glyph-name="Hbar" unicode="&#x126;" horiz-adv-x="666" 
d="M508 690h74v-133h65v-40h-65v-517h-74v336h-350v-336h-74v517h-67v40h67v133h74v-133h350v133zM158 388h350v129h-350v-129z" />
    <glyph glyph-name="hbar" unicode="&#x127;" horiz-adv-x="501" 
d="M17 600h55v173l67 15v-188h90v-41h-90v-189q32 40 78.5 63.5t89.5 23.5q57 0 89 -36t32 -111v-310h-66v293q0 106 -89 106q-59 0 -96.5 -42.5t-37.5 -95.5v-261h-67v559h-55v41z" />
    <glyph glyph-name="Itilde" unicode="&#x128;" horiz-adv-x="242" 
d="M84 690h74v-690h-74v690zM2 725l-27 4q4 48 26 78.5t59 30.5q30 0 70 -31t64 -31q40 0 47 62l27 -2q-4 -51 -26 -79.5t-59 -28.5q-28 0 -66.5 30.5t-62.5 30.5q-49 0 -52 -64z" />
    <glyph glyph-name="itilde" unicode="&#x129;" horiz-adv-x="210" 
d="M3 531l-30 4q7 46 29 75t58 29q19 0 34.5 -10.5t24.5 -23.5t21.5 -23.5t26.5 -10.5q36 0 43 59l28 -2q-6 -50 -28.5 -76.5t-57.5 -26.5q-18 0 -32.5 11t-23 23.5t-20.5 23.5t-26 11q-42 0 -47 -63zM74 432l65 15v-447h-65v432z" />
    <glyph glyph-name="Imacron" unicode="&#x12a;" horiz-adv-x="242" 
d="M84 690h74v-690h-74v690zM14 797h214v-41h-214v41z" />
    <glyph glyph-name="imacron" unicode="&#x12b;" horiz-adv-x="210" 
d="M0 600h212v-41h-212v41zM74 432l65 15v-447h-65v432z" />
    <glyph glyph-name="Ibreve" unicode="&#x12c;" horiz-adv-x="242" 
d="M84 690h74v-690h-74v690zM9 838l37 4q1 -31 22.5 -51t54.5 -20q32 0 53.5 20.5t22.5 51.5l35 -4q-1 -50 -33 -81t-79 -31t-79.5 31t-33.5 80z" />
    <glyph glyph-name="ibreve" unicode="&#x12d;" horiz-adv-x="210" 
d="M-8 657l37 4q2 -88 78 -88q74 0 77 89l36 -5q-2 -63 -32 -101t-82 -38t-82 38t-32 101zM74 432l65 15v-447h-65v432z" />
    <glyph glyph-name="Iogonek" unicode="&#x12e;" horiz-adv-x="242" 
d="M84 690h74v-690h-17q-55 -48 -55 -112q0 -29 19 -43.5t48 -14.5q33 0 60 15l7 -27q-44 -28 -98 -28q-42 0 -67 19.5t-25 59.5q0 38 22.5 74t55.5 57h-24v690z" />
    <glyph glyph-name="iogonek" unicode="&#x12f;" horiz-adv-x="212" 
d="M74 432l66 15v-447h-18q-55 -48 -55 -112q0 -29 19 -43.5t48 -14.5q33 0 60 15l7 -27q-44 -28 -98 -28q-42 0 -67 19.5t-25 59.5q0 38 22.5 74t55.5 57h-15v432zM60 599q0 19 13.5 32t33.5 13q19 0 32 -13t13 -32q0 -20 -13 -33.5t-32 -13.5t-33 14t-14 33z" />
    <glyph glyph-name="Idotaccent" unicode="&#x130;" horiz-adv-x="242" 
d="M84 690h74v-690h-74v690zM79 789q0 17 12 29t29 12t29.5 -12t12.5 -29t-12.5 -29t-29.5 -12t-29 12t-12 29z" />
    <glyph glyph-name="dotlessi" unicode="&#x131;" horiz-adv-x="210" 
d="M74 432l65 15v-447h-65v432z" />
    <glyph glyph-name="IJ" unicode="&#x132;" horiz-adv-x="486" 
d="M84 690h74v-690h-74v690zM329 690h73v-683q0 -110 -58.5 -177t-157.5 -73l15 78q66 0 97 38.5t31 126.5v690z" />
    <glyph glyph-name="ij" unicode="&#x133;" horiz-adv-x="411" 
d="M74 432l66 15v-447h-66v432zM60 599q0 19 13.5 32t33.5 13q19 0 32 -13t13 -32q0 -20 -13 -33.5t-32 -13.5t-33 14t-14 33zM273 432l67 15v-440q0 -107 -44.5 -175t-133.5 -77l14 72q58 2 77.5 34.5t19.5 123.5v447zM260 599q0 19 13.5 32t32.5 13t32 -13t13 -32
q0 -20 -13 -33.5t-32 -13.5t-32.5 14t-13.5 33z" />
    <glyph glyph-name="Jcircumflex" unicode="&#x134;" horiz-adv-x="256" 
d="M99 690h73v-683q0 -110 -58.5 -177t-157.5 -73l15 78q66 0 97 38.5t31 126.5v690zM107 869h56l95 -153l-35 -5l-90 106l-90 -106q-17 0 -32 5z" />
    <glyph glyph-name="jcircumflex" unicode="&#x135;" horiz-adv-x="209" 
d="M73 432l65 15v-440q0 -107 -43.5 -175t-132.5 -77l14 70q58 2 77.5 35.5t19.5 124.5v447zM77 681h56l97 -165l-36 -4l-90 117l-90 -117l-34 4z" />
    <glyph glyph-name="Kcommaaccent" unicode="&#x136;" horiz-adv-x="582" 
d="M84 690h74v-690h-74v690zM446 690h90l-301 -308l344 -382h-100l-320 362zM269 -58h70q-18 -91 -72 -168l-32 10q26 59 34 158z" />
    <glyph glyph-name="kcommaaccent" unicode="&#x137;" horiz-adv-x="441" 
d="M72 773l67 15v-788h-67v773zM324 443h83l-193 -196l224 -247h-91l-207 232zM197 -58h70q-18 -91 -72 -168l-32 10q26 59 34 158z" />
    <glyph glyph-name="Lacute" unicode="&#x139;" horiz-adv-x="477" 
d="M84 690h74v-637l309 9v-62h-383v690zM180 874h72l-132 -158l-34 4z" />
    <glyph glyph-name="lacute" unicode="&#x13a;" horiz-adv-x="211" 
d="M72 773l67 15v-788h-67v773zM149 970h72l-132 -158l-34 4z" />
    <glyph glyph-name="Lcommaaccent" unicode="&#x13b;" horiz-adv-x="477" 
d="M84 690h74v-637l309 9v-62h-383v690zM238 -58h70q-18 -91 -72 -168l-32 10q26 59 34 158z" />
    <glyph glyph-name="lcommaaccent" unicode="&#x13c;" horiz-adv-x="211" 
d="M72 773l67 15v-788h-67v773zM73 -58h70q-18 -91 -72 -168l-32 10q26 59 34 158z" />
    <glyph glyph-name="Lcaron" unicode="&#x13d;" horiz-adv-x="477" 
d="M84 690h74v-637l309 9v-62h-383v690zM248 716h62l-39 -197l-31 4z" />
    <glyph glyph-name="lcaron" unicode="&#x13e;" horiz-adv-x="211" 
d="M72 773l67 15v-788h-67v773zM185 785h62l-39 -197l-31 4z" />
    <glyph glyph-name="Lslash" unicode="&#x141;" horiz-adv-x="477" 
d="M84 690h74v-348l117 117l27 -30l-144 -145v-231l309 9v-62h-383v210l-51 -51l-27 31l78 78v422z" />
    <glyph glyph-name="lslash" unicode="&#x142;" horiz-adv-x="211" 
d="M72 773l67 15v-189l45 62l36 -27l-81 -111v-523h-67v432l-49 -66l-36 27l85 115v265z" />
    <glyph glyph-name="Nacute" unicode="&#x143;" horiz-adv-x="663" 
d="M84 690h95l340 -540v540h59v-690h-49l-385 614v-614h-60v690zM376 874h72l-132 -158l-34 4z" />
    <glyph glyph-name="nacute" unicode="&#x144;" horiz-adv-x="501" 
d="M72 432l67 15v-77q32 40 78.5 63.5t89.5 23.5q57 0 89 -36t32 -111v-310h-66v293q0 54 -21 80t-67 26q-59 0 -97 -43t-38 -95v-261h-67v432zM279 690h74l-129 -169l-39 4z" />
    <glyph glyph-name="Ncommaaccent" unicode="&#x145;" horiz-adv-x="663" 
d="M84 690h95l340 -540v540h59v-690h-49l-385 614v-614h-60v690zM295 -58h70q-18 -91 -72 -168l-32 10q26 59 34 158z" />
    <glyph glyph-name="ncommaaccent" unicode="&#x146;" horiz-adv-x="501" 
d="M72 432l67 15v-77q32 40 78.5 63.5t89.5 23.5q57 0 89 -36t32 -111v-310h-66v293q0 54 -21 80t-67 26q-59 0 -97 -43t-38 -95v-261h-67v432zM224 -58h70q-18 -91 -72 -168l-32 10q26 59 34 158z" />
    <glyph glyph-name="Ncaron" unicode="&#x147;" horiz-adv-x="663" 
d="M84 690h95l340 -540v540h59v-690h-49l-385 614v-614h-60v690zM302 718l-96 156l35 4l91 -107l90 107l33 -4l-97 -156h-56z" />
    <glyph glyph-name="ncaron" unicode="&#x148;" horiz-adv-x="501" 
d="M72 432l67 15v-77q32 40 78.5 63.5t89.5 23.5q57 0 89 -36t32 -111v-310h-66v293q0 54 -21 80t-67 26q-59 0 -97 -43t-38 -95v-261h-67v432zM123 688l36 4l90 -116l90 116l34 -4l-98 -164h-56z" />
    <glyph glyph-name="napostrophe" unicode="&#x149;" horiz-adv-x="501" 
d="M72 432l67 15v-77q32 40 78.5 63.5t89.5 23.5q57 0 89 -36t32 -111v-310h-66v293q0 54 -21 80t-67 26q-59 0 -97 -43t-38 -95v-261h-67v432zM86 666h70q-18 -91 -72 -168l-32 10q26 59 34 158z" />
    <glyph glyph-name="Eng" unicode="&#x14a;" horiz-adv-x="663" 
d="M84 690h95l340 -540v540h59v-683q0 -107 -44 -175t-133 -77l14 72q59 2 81 35.5t22 122.5v33l-374 596v-614h-60v690z" />
    <glyph glyph-name="eng" unicode="&#x14b;" horiz-adv-x="501" 
d="M72 432l67 15v-77q32 40 78.5 63.5t89.5 23.5q57 0 89 -36t32 -111v-303q0 -108 -43.5 -175.5t-132.5 -76.5l15 70q57 2 76 36t19 125v307q0 54 -21 80t-67 26q-59 0 -97 -43t-38 -95v-261h-67v432z" />
    <glyph glyph-name="Omacron" unicode="&#x14c;" horiz-adv-x="787" 
d="M394 643q-113 0 -181.5 -75.5t-68.5 -221.5t68 -224.5t180 -78.5q111 0 181 76.5t70 224.5q0 146 -68.5 222.5t-180.5 76.5zM405 700q146 0 231.5 -96.5t85.5 -246.5q0 -159 -96 -265t-246 -106q-145 0 -230.5 98.5t-85.5 251.5q0 155 95.5 259.5t245.5 104.5zM286 797
h214v-41h-214v41z" />
    <glyph glyph-name="omacron" unicode="&#x14d;" horiz-adv-x="547" 
d="M280 457q98 0 156 -62.5t58 -165.5q0 -106 -64 -174.5t-164 -68.5q-97 0 -155 63.5t-58 166.5q0 105 63.5 173t163.5 68zM274 408q-68 0 -109 -47t-41 -139q0 -93 40.5 -140.5t109.5 -47.5q67 0 107.5 48t40.5 141q0 92 -40 138.5t-108 46.5zM167 600h212v-41h-212v41z
" />
    <glyph glyph-name="Obreve" unicode="&#x14e;" horiz-adv-x="787" 
d="M394 643q-113 0 -181.5 -75.5t-68.5 -221.5t68 -224.5t180 -78.5q111 0 181 76.5t70 224.5q0 146 -68.5 222.5t-180.5 76.5zM405 700q146 0 231.5 -96.5t85.5 -246.5q0 -159 -96 -265t-246 -106q-145 0 -230.5 98.5t-85.5 251.5q0 155 95.5 259.5t245.5 104.5zM280 838
l37 4q1 -31 22.5 -51t54.5 -20q32 0 53.5 20.5t22.5 51.5l35 -4q-1 -50 -33 -81t-79 -31t-79.5 31t-33.5 80z" />
    <glyph glyph-name="obreve" unicode="&#x14f;" horiz-adv-x="547" 
d="M280 457q98 0 156 -62.5t58 -165.5q0 -106 -64 -174.5t-164 -68.5q-97 0 -155 63.5t-58 166.5q0 105 63.5 173t163.5 68zM274 408q-68 0 -109 -47t-41 -139q0 -93 40.5 -140.5t109.5 -47.5q67 0 107.5 48t40.5 141q0 92 -40 138.5t-108 46.5zM159 657l37 4q2 -88 78 -88
q74 0 77 89l36 -5q-2 -63 -32 -101t-82 -38t-82 38t-32 101z" />
    <glyph glyph-name="Ohungarumlaut" unicode="&#x150;" horiz-adv-x="787" 
d="M394 643q-113 0 -181.5 -75.5t-68.5 -221.5t68 -224.5t180 -78.5q111 0 181 76.5t70 224.5q0 146 -68.5 222.5t-180.5 76.5zM405 700q146 0 231.5 -96.5t85.5 -246.5q0 -159 -96 -265t-246 -106q-145 0 -230.5 98.5t-85.5 251.5q0 155 95.5 259.5t245.5 104.5zM359 874
h62l-113 -145l-32 3zM489 874h62l-113 -145l-32 3z" />
    <glyph glyph-name="ohungarumlaut" unicode="&#x151;" horiz-adv-x="547" 
d="M280 457q98 0 156 -62.5t58 -165.5q0 -106 -64 -174.5t-164 -68.5q-97 0 -155 63.5t-58 166.5q0 105 63.5 173t163.5 68zM274 408q-68 0 -109 -47t-41 -139q0 -93 40.5 -140.5t109.5 -47.5q67 0 107.5 48t40.5 141q0 92 -40 138.5t-108 46.5zM241 690h61l-116 -170l-33 5
zM375 690h60l-115 -170l-33 5z" />
    <glyph glyph-name="OE" unicode="&#x152;" horiz-adv-x="1014" 
d="M917 329l-196 8q-4 -91 -42 -166.5t-102 -122.5l388 14v-62h-485q-48 -14 -100 -14q-145 0 -230.5 98.5t-85.5 251.5q0 155 95.5 259.5t245.5 104.5q41 0 86 -10h474v-62l-370 13q57 -43 89 -109.5t37 -148.5l196 9v-63zM394 643q-113 0 -181.5 -75.5t-68.5 -221.5
t68 -224.5t180 -78.5q111 0 181 76.5t70 224.5q0 146 -68.5 222.5t-180.5 76.5z" />
    <glyph glyph-name="oe" unicode="&#x153;" horiz-adv-x="830" 
d="M280 457q129 0 179 -107q59 107 184 107q65 0 105.5 -43t40.5 -133q0 -17 -3 -31h-302q-1 -5 -1 -15v-6v-1q0 -84 42.5 -134t122.5 -50q70 0 133 30v-45q-68 -43 -151 -43q-135 0 -182 101q-59 -101 -182 -101q-97 0 -155 63.5t-58 166.5q0 105 63.5 173t163.5 68z
M274 408q-68 0 -109 -47t-41 -139q0 -93 40.5 -140.5t109.5 -47.5q67 0 107.5 48t40.5 141q0 92 -40 138.5t-108 46.5zM627 405q-52 0 -87 -30t-49 -82l232 9q0 103 -96 103z" />
    <glyph glyph-name="Racute" unicode="&#x154;" horiz-adv-x="580" 
d="M249 690q115 0 174 -52.5t59 -129.5q0 -83 -44 -133.5t-117 -68.5l259 -306h-100l-232 297h-9q-38 0 -81 8v-305h-74v690h165zM158 632v-276q36 -9 76 -9q72 0 120.5 36t48.5 112q0 141 -175 141q-41 0 -70 -4zM290 874h72l-132 -158l-34 4z" />
    <glyph glyph-name="racute" unicode="&#x155;" horiz-adv-x="303" 
d="M72 432l67 15v-77q22 37 56 62t73 25q16 0 26 -3v-67q-10 3 -31 3q-55 0 -89.5 -31.5t-34.5 -79.5v-279h-67v432zM232 690h74l-129 -169l-39 4z" />
    <glyph glyph-name="Rcommaaccent" unicode="&#x156;" horiz-adv-x="580" 
d="M249 690q115 0 174 -52.5t59 -129.5q0 -83 -44 -133.5t-117 -68.5l259 -306h-100l-232 297h-9q-38 0 -81 8v-305h-74v690h165zM158 632v-276q36 -9 76 -9q72 0 120.5 36t48.5 112q0 141 -175 141q-41 0 -70 -4zM262 -58h70q-18 -91 -72 -168l-32 10q26 59 34 158z" />
    <glyph glyph-name="rcommaaccent" unicode="&#x157;" horiz-adv-x="303" 
d="M72 432l67 15v-77q22 37 56 62t73 25q16 0 26 -3v-67q-10 3 -31 3q-55 0 -89.5 -31.5t-34.5 -79.5v-279h-67v432zM88 -58h70q-18 -91 -72 -168l-32 10q26 59 34 158z" />
    <glyph glyph-name="Rcaron" unicode="&#x158;" horiz-adv-x="580" 
d="M249 690q115 0 174 -52.5t59 -129.5q0 -83 -44 -133.5t-117 -68.5l259 -306h-100l-232 297h-9q-38 0 -81 8v-305h-74v690h165zM158 632v-276q36 -9 76 -9q72 0 120.5 36t48.5 112q0 141 -175 141q-41 0 -70 -4zM233 718l-96 156l35 4l91 -107l90 107l33 -4l-97 -156h-56z
" />
    <glyph glyph-name="rcaron" unicode="&#x159;" horiz-adv-x="303" 
d="M72 432l67 15v-77q22 37 56 62t73 25q16 0 26 -3v-67q-10 3 -31 3q-55 0 -89.5 -31.5t-34.5 -79.5v-279h-67v432zM59 688l36 4l90 -116l90 116l34 -4l-98 -164h-56z" />
    <glyph glyph-name="Sacute" unicode="&#x15a;" horiz-adv-x="499" 
d="M411 681v-80q-71 36 -148 36q-56 0 -88.5 -26t-32.5 -76q0 -41 31.5 -73t76 -55.5t89.5 -49.5t76.5 -68.5t31.5 -98.5q0 -86 -65 -145t-163 -59q-87 0 -149 23v81q78 -39 159 -39q61 0 101.5 30.5t40.5 87.5q0 44 -31.5 79t-76 60t-89 51t-76 65t-31.5 89q0 80 59 133.5
t158 53.5q80 0 127 -19zM288 874h72l-132 -158l-34 4z" />
    <glyph glyph-name="sacute" unicode="&#x15b;" horiz-adv-x="374" 
d="M303 436v-62q-49 30 -100 30q-37 0 -58.5 -18.5t-21.5 -45.5q0 -26 20.5 -45t50 -31.5t59.5 -27t50.5 -40t20.5 -61.5q0 -67 -46 -108t-116 -41q-63 0 -103 21v66q52 -34 112 -34q42 0 65.5 20t23.5 57q0 25 -20.5 43.5t-50 32t-59 28.5t-50 40.5t-20.5 61.5
q0 56 43.5 95.5t111.5 39.5q51 0 88 -21zM230 690h74l-129 -169l-39 4z" />
    <glyph glyph-name="Scircumflex" unicode="&#x15c;" horiz-adv-x="499" 
d="M411 681v-80q-71 36 -148 36q-56 0 -88.5 -26t-32.5 -76q0 -41 31.5 -73t76 -55.5t89.5 -49.5t76.5 -68.5t31.5 -98.5q0 -86 -65 -145t-163 -59q-87 0 -149 23v81q78 -39 159 -39q61 0 101.5 30.5t40.5 87.5q0 44 -31.5 79t-76 60t-89 51t-76 65t-31.5 89q0 80 59 133.5
t158 53.5q80 0 127 -19zM242 869h56l95 -153l-35 -5l-90 106l-90 -106q-17 0 -32 5z" />
    <glyph glyph-name="scircumflex" unicode="&#x15d;" horiz-adv-x="374" 
d="M303 436v-62q-49 30 -100 30q-37 0 -58.5 -18.5t-21.5 -45.5q0 -26 20.5 -45t50 -31.5t59.5 -27t50.5 -40t20.5 -61.5q0 -67 -46 -108t-116 -41q-63 0 -103 21v66q52 -34 112 -34q42 0 65.5 20t23.5 57q0 25 -20.5 43.5t-50 32t-59 28.5t-50 40.5t-20.5 61.5
q0 56 43.5 95.5t111.5 39.5q51 0 88 -21zM177 681h56l97 -165l-36 -4l-90 117l-90 -117l-34 4z" />
    <glyph glyph-name="Scedilla" unicode="&#x15e;" horiz-adv-x="499" 
d="M411 681v-80q-71 36 -148 36q-56 0 -88.5 -26t-32.5 -76q0 -41 31.5 -73t76 -55.5t89.5 -49.5t76.5 -68.5t31.5 -98.5q0 -78 -54.5 -135t-140.5 -67l-24 -52q106 0 106 -76q0 -44 -33 -69t-83 -25q-31 0 -64 12l11 29q19 -7 41 -7q68 0 68 50q0 54 -88 54l31 82
q-86 0 -147 23v81q78 -39 159 -39q61 0 101.5 30.5t40.5 87.5q0 44 -31.5 79t-76 60t-89 51t-76 65t-31.5 89q0 80 59 133.5t158 53.5q80 0 127 -19z" />
    <glyph glyph-name="Scedilla" unicode="&#xf6c1;" horiz-adv-x="499" 
d="M411 681v-80q-71 36 -148 36q-56 0 -88.5 -26t-32.5 -76q0 -41 31.5 -73t76 -55.5t89.5 -49.5t76.5 -68.5t31.5 -98.5q0 -78 -54.5 -135t-140.5 -67l-24 -52q106 0 106 -76q0 -44 -33 -69t-83 -25q-31 0 -64 12l11 29q19 -7 41 -7q68 0 68 50q0 54 -88 54l31 82
q-86 0 -147 23v81q78 -39 159 -39q61 0 101.5 30.5t40.5 87.5q0 44 -31.5 79t-76 60t-89 51t-76 65t-31.5 89q0 80 59 133.5t158 53.5q80 0 127 -19z" />
    <glyph glyph-name="scedilla" unicode="&#x15f;" horiz-adv-x="374" 
d="M303 436v-62q-49 30 -100 30q-37 0 -58.5 -18.5t-21.5 -45.5q0 -26 20.5 -45t50 -31.5t59.5 -27t50.5 -40t20.5 -61.5q0 -57 -34 -96t-90 -49l-25 -54q106 0 106 -76q0 -44 -33 -69t-83 -25q-31 0 -64 12l11 29q19 -7 41 -7q68 0 68 50q0 54 -88 54l31 82h-2
q-63 0 -103 21v66q52 -34 112 -34q42 0 65.5 20t23.5 57q0 25 -20.5 43.5t-50 32t-59 28.5t-50 40.5t-20.5 61.5q0 56 43.5 95.5t111.5 39.5q51 0 88 -21z" />
    <glyph glyph-name="scedilla" unicode="&#xf6c2;" horiz-adv-x="374" 
d="M303 436v-62q-49 30 -100 30q-37 0 -58.5 -18.5t-21.5 -45.5q0 -26 20.5 -45t50 -31.5t59.5 -27t50.5 -40t20.5 -61.5q0 -57 -34 -96t-90 -49l-25 -54q106 0 106 -76q0 -44 -33 -69t-83 -25q-31 0 -64 12l11 29q19 -7 41 -7q68 0 68 50q0 54 -88 54l31 82h-2
q-63 0 -103 21v66q52 -34 112 -34q42 0 65.5 20t23.5 57q0 25 -20.5 43.5t-50 32t-59 28.5t-50 40.5t-20.5 61.5q0 56 43.5 95.5t111.5 39.5q51 0 88 -21z" />
    <glyph glyph-name="Scaron" unicode="&#x160;" horiz-adv-x="499" 
d="M411 681v-80q-71 36 -148 36q-56 0 -88.5 -26t-32.5 -76q0 -41 31.5 -73t76 -55.5t89.5 -49.5t76.5 -68.5t31.5 -98.5q0 -86 -65 -145t-163 -59q-87 0 -149 23v81q78 -39 159 -39q61 0 101.5 30.5t40.5 87.5q0 44 -31.5 79t-76 60t-89 51t-76 65t-31.5 89q0 80 59 133.5
t158 53.5q80 0 127 -19zM232 718l-96 156l35 4l91 -107l90 107l33 -4l-97 -156h-56z" />
    <glyph glyph-name="scaron" unicode="&#x161;" horiz-adv-x="374" 
d="M303 436v-62q-49 30 -100 30q-37 0 -58.5 -18.5t-21.5 -45.5q0 -26 20.5 -45t50 -31.5t59.5 -27t50.5 -40t20.5 -61.5q0 -67 -46 -108t-116 -41q-63 0 -103 21v66q52 -34 112 -34q42 0 65.5 20t23.5 57q0 25 -20.5 43.5t-50 32t-59 28.5t-50 40.5t-20.5 61.5
q0 56 43.5 95.5t111.5 39.5q51 0 88 -21zM73 688l36 4l90 -116l90 116l34 -4l-98 -164h-56z" />
    <glyph glyph-name="Tcommaaccent" unicode="&#x162;" horiz-adv-x="544" 
d="M6 690h532v-66l-229 9v-633h-74v633l-229 -9v66zM241 -58h70q-18 -91 -72 -168l-32 10q26 59 34 158z" />
    <glyph glyph-name="Tcommaaccent" unicode="&#x21a;" horiz-adv-x="544" 
d="M6 690h532v-66l-229 9v-633h-74v633l-229 -9v66zM241 -58h70q-18 -91 -72 -168l-32 10q26 59 34 158z" />
    <glyph glyph-name="tcommaaccent" unicode="&#x163;" horiz-adv-x="316" 
d="M16 443h77v110l66 16v-126h145v-51h-145v-268q0 -39 13.5 -55t43.5 -16q45 0 88 26v-56q-58 -37 -121 -37q-90 0 -90 122v284h-77v51zM136 -58h70q-18 -91 -72 -168l-32 10q26 59 34 158z" />
    <glyph glyph-name="tcommaaccent" unicode="&#x21b;" horiz-adv-x="316" 
d="M16 443h77v110l66 16v-126h145v-51h-145v-268q0 -39 13.5 -55t43.5 -16q45 0 88 26v-56q-58 -37 -121 -37q-90 0 -90 122v284h-77v51zM136 -58h70q-18 -91 -72 -168l-32 10q26 59 34 158z" />
    <glyph glyph-name="Tcaron" unicode="&#x164;" horiz-adv-x="544" 
d="M6 690h532v-66l-229 9v-633h-74v633l-229 -9v66zM242 718l-96 156l35 4l91 -107l90 107l33 -4l-97 -156h-56z" />
    <glyph glyph-name="tcaron" unicode="&#x165;" horiz-adv-x="316" 
d="M16 443h77v110l66 16v-126h145v-51h-145v-268q0 -39 13.5 -55t43.5 -16q45 0 88 26v-56q-58 -37 -121 -37q-90 0 -90 122v284h-77v51zM243 706h62l-39 -197l-31 4z" />
    <glyph glyph-name="Tbar" unicode="&#x166;" horiz-adv-x="544" 
d="M6 690h532v-66l-229 9v-288h74v-41h-74v-304h-74v304h-75v41h75v288l-229 -9v66z" />
    <glyph glyph-name="tbar" unicode="&#x167;" horiz-adv-x="316" 
d="M16 443h77v110l66 16v-126h145v-51h-145v-131h92v-41h-92v-96q0 -39 13.5 -55t43.5 -16q45 0 88 26v-56q-58 -37 -121 -37q-90 0 -90 122v112h-54v41h54v131h-77v51z" />
    <glyph glyph-name="Utilde" unicode="&#x168;" horiz-adv-x="650" 
d="M76 690h73v-464q0 -88 51 -132t130 -44q78 0 128 42.5t50 119.5v478h66v-472q0 -107 -76 -169.5t-184 -62.5q-103 0 -170.5 57t-67.5 166v481zM205 725l-27 4q4 48 26 78.5t59 30.5q30 0 70 -31t64 -31q40 0 47 62l27 -2q-4 -51 -26 -79.5t-59 -28.5q-28 0 -66.5 30.5
t-62.5 30.5q-49 0 -52 -64z" />
    <glyph glyph-name="utilde" unicode="&#x169;" horiz-adv-x="501" 
d="M72 443h67v-289q0 -56 19.5 -83t68.5 -27q56 0 95.5 39.5t39.5 92.5v267h66v-443h-42l-20 77q-69 -91 -172 -91q-57 0 -89.5 36.5t-32.5 110.5v310zM150 531l-30 4q7 46 29 75t58 29q19 0 34.5 -10.5t24.5 -23.5t21.5 -23.5t26.5 -10.5q36 0 43 59l28 -2
q-6 -50 -28.5 -76.5t-57.5 -26.5q-18 0 -32.5 11t-23 23.5t-20.5 23.5t-26 11q-42 0 -47 -63z" />
    <glyph glyph-name="Umacron" unicode="&#x16a;" horiz-adv-x="650" 
d="M76 690h73v-464q0 -88 51 -132t130 -44q78 0 128 42.5t50 119.5v478h66v-472q0 -107 -76 -169.5t-184 -62.5q-103 0 -170.5 57t-67.5 166v481zM217 797h214v-41h-214v41z" />
    <glyph glyph-name="umacron" unicode="&#x16b;" horiz-adv-x="501" 
d="M72 443h67v-289q0 -56 19.5 -83t68.5 -27q56 0 95.5 39.5t39.5 92.5v267h66v-443h-42l-20 77q-69 -91 -172 -91q-57 0 -89.5 36.5t-32.5 110.5v310zM143 600h212v-41h-212v41z" />
    <glyph glyph-name="Ubreve" unicode="&#x16c;" horiz-adv-x="650" 
d="M76 690h73v-464q0 -88 51 -132t130 -44q78 0 128 42.5t50 119.5v478h66v-472q0 -107 -76 -169.5t-184 -62.5q-103 0 -170.5 57t-67.5 166v481zM211 838l37 4q1 -31 22.5 -51t54.5 -20q32 0 53.5 20.5t22.5 51.5l35 -4q-1 -50 -33 -81t-79 -31t-79.5 31t-33.5 80z" />
    <glyph glyph-name="ubreve" unicode="&#x16d;" horiz-adv-x="501" 
d="M72 443h67v-289q0 -56 19.5 -83t68.5 -27q56 0 95.5 39.5t39.5 92.5v267h66v-443h-42l-20 77q-69 -91 -172 -91q-57 0 -89.5 36.5t-32.5 110.5v310zM143 657l37 4q2 -88 78 -88q74 0 77 89l36 -5q-2 -63 -32 -101t-82 -38t-82 38t-32 101z" />
    <glyph glyph-name="Uring" unicode="&#x16e;" horiz-adv-x="650" 
d="M76 690h73v-464q0 -88 51 -132t130 -44q78 0 128 42.5t50 119.5v478h66v-472q0 -107 -76 -169.5t-184 -62.5q-103 0 -170.5 57t-67.5 166v481zM232 805q0 36 26.5 60t66.5 24q39 0 65 -23.5t26 -60.5q0 -36 -26 -59t-65 -23q-41 0 -67 23t-26 59zM270 804q0 -24 15.5 -39
t39.5 -15t37.5 14t13.5 38q0 25 -15.5 40t-38.5 15q-25 0 -38.5 -14t-13.5 -39z" />
    <glyph glyph-name="uring" unicode="&#x16f;" horiz-adv-x="501" 
d="M72 443h67v-289q0 -56 19.5 -83t68.5 -27q56 0 95.5 39.5t39.5 92.5v267h66v-443h-42l-20 77q-69 -91 -172 -91q-57 0 -89.5 36.5t-32.5 110.5v310zM159 591q0 39 27.5 64.5t66.5 25.5q38 0 62.5 -25.5t24.5 -64.5t-27 -64.5t-65 -25.5q-39 0 -64 25.5t-25 64.5zM247 646
q-48 0 -48 -53q0 -27 14 -43.5t38 -16.5q47 0 47 53q0 27 -14 43.5t-37 16.5z" />
    <glyph glyph-name="Uhungarumlaut" unicode="&#x170;" horiz-adv-x="650" 
d="M76 690h73v-464q0 -88 51 -132t130 -44q78 0 128 42.5t50 119.5v478h66v-472q0 -107 -76 -169.5t-184 -62.5q-103 0 -170.5 57t-67.5 166v481zM293 874h62l-113 -145l-32 3zM423 874h62l-113 -145l-32 3z" />
    <glyph glyph-name="uhungarumlaut" unicode="&#x171;" horiz-adv-x="501" 
d="M72 443h67v-289q0 -56 19.5 -83t68.5 -27q56 0 95.5 39.5t39.5 92.5v267h66v-443h-42l-20 77q-69 -91 -172 -91q-57 0 -89.5 36.5t-32.5 110.5v310zM231 690h61l-116 -170l-33 5zM365 690h60l-115 -170l-33 5z" />
    <glyph glyph-name="Uogonek" unicode="&#x172;" horiz-adv-x="650" 
d="M76 690h73v-464q0 -88 51 -132t130 -44q78 0 128 42.5t50 119.5v478h66v-472q0 -99 -67 -160.5t-166 -70.5q-42 -44 -42 -99q0 -29 19 -43.5t48 -14.5q33 0 60 15l7 -27q-44 -28 -98 -28q-42 0 -67 19.5t-25 59.5q0 65 59 117q-99 3 -162.5 60t-63.5 163v481z" />
    <glyph glyph-name="uogonek" unicode="&#x173;" horiz-adv-x="501" 
d="M72 443h67v-289q0 -56 19.5 -83t68.5 -27q56 0 95.5 39.5t39.5 92.5v267h66v-443h-20q-55 -48 -55 -112q0 -29 19 -43.5t48 -14.5q33 0 60 15l7 -27q-44 -28 -98 -28q-42 0 -67 19.5t-25 59.5q0 41 25.5 79t61.5 57l-18 72q-69 -91 -172 -91q-57 0 -89.5 36.5
t-32.5 110.5v310z" />
    <glyph glyph-name="Wcircumflex" unicode="&#x174;" horiz-adv-x="964" 
d="M14 690h85l177 -591l177 591h65l188 -591l172 591h72l-224 -690h-66l-187 573l-174 -573h-66zM456 869h56l95 -153l-35 -5l-90 106l-90 -106q-17 0 -32 5z" />
    <glyph glyph-name="wcircumflex" unicode="&#x175;" horiz-adv-x="675" 
d="M6 443h74l116 -363l123 363h49l125 -363l112 363h64l-157 -443h-56l-121 345l-123 -345h-55zM309 681h56l97 -165l-36 -4l-90 117l-90 -117l-34 4z" />
    <glyph glyph-name="Ycircumflex" unicode="&#x176;" horiz-adv-x="594" 
d="M4 690h94l208 -331l205 331h78l-254 -385v-305h-74v300zM271 869h56l95 -153l-35 -5l-90 106l-90 -106q-17 0 -32 5z" />
    <glyph glyph-name="ycircumflex" unicode="&#x177;" horiz-adv-x="414" 
d="M6 443h74l133 -367l131 367h64l-176 -445q-51 -131 -106.5 -185.5t-151.5 -55.5l15 70q72 1 110.5 38t71.5 122l5 14zM180 681h56l97 -165l-36 -4l-90 117l-90 -117l-34 4z" />
    <glyph glyph-name="Ydieresis" unicode="&#x178;" horiz-adv-x="594" 
d="M4 690h94l208 -331l205 331h78l-254 -385v-305h-74v300zM171 780q0 16 11.5 28t28.5 12t29.5 -12t12.5 -28q0 -17 -12.5 -29.5t-29.5 -12.5q-16 0 -28 12.5t-12 29.5zM341 780q0 16 12 28t29 12t29.5 -12t12.5 -28q0 -17 -12.5 -29.5t-29.5 -12.5t-29 12.5t-12 29.5z" />
    <glyph glyph-name="Zacute" unicode="&#x179;" horiz-adv-x="618" 
d="M43 51l429 587l-408 -15v67h499v-51l-432 -588l444 16v-67h-532v51zM349 874h72l-132 -158l-34 4z" />
    <glyph glyph-name="zacute" unicode="&#x17a;" horiz-adv-x="456" 
d="M48 45l278 351l-260 -10v57h340v-45l-278 -352l288 11v-57h-368v45zM276 690h74l-129 -169l-39 4z" />
    <glyph glyph-name="Zdotaccent" unicode="&#x17b;" horiz-adv-x="618" 
d="M43 51l429 587l-408 -15v67h499v-51l-432 -588l444 16v-67h-532v51zM268 789q0 17 12 29t29 12t29.5 -12t12.5 -29t-12.5 -29t-29.5 -12t-29 12t-12 29z" />
    <glyph glyph-name="zdotaccent" unicode="&#x17c;" horiz-adv-x="456" 
d="M48 45l278 351l-260 -10v57h340v-45l-278 -352l288 11v-57h-368v45zM241 625q16 0 28.5 -12.5t12.5 -29.5q0 -18 -12.5 -30.5t-28.5 -12.5q-17 0 -29.5 12.5t-12.5 30.5q0 17 12.5 29.5t29.5 12.5z" />
    <glyph glyph-name="Zcaron" unicode="&#x17d;" horiz-adv-x="618" 
d="M43 51l429 587l-408 -15v67h499v-51l-432 -588l444 16v-67h-532v51zM280 718l-96 156l35 4l91 -107l90 107l33 -4l-97 -156h-56z" />
    <glyph glyph-name="zcaron" unicode="&#x17e;" horiz-adv-x="456" 
d="M48 45l278 351l-260 -10v57h340v-45l-278 -352l288 11v-57h-368v45zM114 688l36 4l90 -116l90 116l34 -4l-98 -164h-56z" />
    <glyph glyph-name="longs" unicode="&#x17f;" horiz-adv-x="224" 
d="M266 787v-67q-15 4 -32 4q-48 0 -71.5 -33.5t-23.5 -91.5v-599h-67v572q0 94 46 155t126 61q3 0 11 -0.5t11 -0.5z" />
    <glyph glyph-name="florin" unicode="&#x192;" 
d="M408 787v-66q-16 4 -33 4q-48 0 -72.5 -34t-24.5 -91v-158h130v-50h-130v-301q0 -73 -6.5 -125t-24 -100.5t-54.5 -76t-93 -33.5q2 8 15 70q58 1 77.5 35t19.5 125v406h-80v50h80v92q0 114 41 184t132 70q3 0 11.5 -0.5t11.5 -0.5z" />
    <glyph glyph-name="AEacute" unicode="&#x1fc;" horiz-adv-x="836" 
d="M407 690h380v-62l-309 9v-255l261 10v-63l-261 9v-285l309 9v-62h-383v237h-262l-174 -237h-84zM176 286h228v311zM575 874h72l-132 -158l-34 4z" />
    <glyph glyph-name="aeacute" unicode="&#x1fd;" horiz-adv-x="720" 
d="M228 456q52 0 80.5 -19t39.5 -69q57 88 169 88q146 0 146 -179q0 -7 -3 -31q-9 0 -51 1.5t-63 1.5q-102 0 -187 -10v-11q0 -85 42.5 -134t122.5 -49q74 0 133 28v-44q-68 -43 -150 -43q-145 0 -187 117q-29 -58 -76.5 -87.5t-97.5 -29.5q-46 0 -70.5 24t-24.5 65
q0 64 58.5 115.5t192.5 79.5q-2 76 -21.5 105.5t-59.5 29.5q-69 0 -148 -37v61q79 27 155 27zM174 42q53 0 88 46t39 141q-179 -36 -179 -137q0 -23 14.5 -36.5t37.5 -13.5zM500 404q-53 0 -89 -33t-47 -90q96 14 232 15q0 52 -19 80t-77 28zM411 690h74l-129 -169l-39 4z
" />
    <glyph glyph-name="Oslashacute" unicode="&#x1fe;" horiz-adv-x="787" 
d="M405 700q109 0 188 -57l42 54l53 -12l-58 -75q92 -95 92 -253q0 -159 -96 -265t-246 -106q-109 0 -187 58l-39 -51l-53 12l55 72q-92 98 -92 259q0 155 95.5 259.5t245.5 104.5zM643 344q0 129 -58 208l-350 -454q62 -55 157 -55q111 0 181 76.5t70 224.5zM394 643
q-113 0 -181.5 -75.5t-68.5 -221.5q0 -132 57 -211l351 454q-63 54 -158 54zM409 874h72l-132 -158l-34 4z" />
    <glyph glyph-name="oslashacute" unicode="&#x1ff;" horiz-adv-x="546" 
d="M280 457q77 0 131 -41l29 33l53 -12l-47 -54q48 -60 48 -154q0 -106 -64 -174.5t-164 -68.5q-77 0 -131 41l-29 -33l-53 12l48 55q-48 60 -48 155q0 105 63.5 173t163.5 68zM422 223q0 64 -21 109l-228 -260q38 -38 101 -38q67 0 107.5 48t40.5 141zM274 408
q-68 0 -109 -47t-41 -139q0 -68 21 -111l227 260q-37 37 -98 37zM293 690h74l-129 -169l-39 4z" />
    <glyph glyph-name="Scommaaccent" unicode="&#x218;" horiz-adv-x="499" 
d="M411 681v-80q-71 36 -148 36q-56 0 -88.5 -26t-32.5 -76q0 -41 31.5 -73t76 -55.5t89.5 -49.5t76.5 -68.5t31.5 -98.5q0 -86 -65 -145t-163 -59q-87 0 -149 23v81q78 -39 159 -39q61 0 101.5 30.5t40.5 87.5q0 44 -31.5 79t-76 60t-89 51t-76 65t-31.5 89q0 80 59 133.5
t158 53.5q80 0 127 -19zM217 -58h70q-18 -91 -72 -168l-32 10q26 59 34 158z" />
    <glyph glyph-name="scommaaccent" unicode="&#x219;" horiz-adv-x="374" 
d="M303 436v-62q-49 30 -100 30q-37 0 -58.5 -18.5t-21.5 -45.5q0 -26 20.5 -45t50 -31.5t59.5 -27t50.5 -40t20.5 -61.5q0 -67 -46 -108t-116 -41q-63 0 -103 21v66q52 -34 112 -34q42 0 65.5 20t23.5 57q0 25 -20.5 43.5t-50 32t-59 28.5t-50 40.5t-20.5 61.5
q0 56 43.5 95.5t111.5 39.5q51 0 88 -21zM157 -58h70q-18 -91 -72 -168l-32 10q26 59 34 158z" />
    <glyph glyph-name="circumflex" unicode="&#x2c6;" horiz-adv-x="355" 
d="M151 681h56l97 -165l-36 -4l-90 117l-90 -117l-34 4z" />
    <glyph glyph-name="caron" unicode="&#x2c7;" horiz-adv-x="355" 
d="M55 688l36 4l90 -116l90 116l34 -4l-98 -164h-56z" />
    <glyph glyph-name="breve" unicode="&#x2d8;" horiz-adv-x="327" 
d="M51 657l37 4q2 -88 78 -88q74 0 77 89l36 -5q-2 -63 -32 -101t-82 -38t-82 38t-32 101z" />
    <glyph glyph-name="dotaccent" unicode="&#x2d9;" horiz-adv-x="187" 
d="M95 625q16 0 28.5 -12.5t12.5 -29.5q0 -18 -12.5 -30.5t-28.5 -12.5q-17 0 -29.5 12.5t-12.5 30.5q0 17 12.5 29.5t29.5 12.5z" />
    <glyph glyph-name="ring" unicode="&#x2da;" horiz-adv-x="282" 
d="M52 591q0 39 27.5 64.5t66.5 25.5q38 0 62.5 -25.5t24.5 -64.5t-27 -64.5t-65 -25.5q-39 0 -64 25.5t-25 64.5zM140 646q-48 0 -48 -53q0 -27 14 -43.5t38 -16.5q47 0 47 53q0 27 -14 43.5t-37 16.5z" />
    <glyph glyph-name="ogonek" unicode="&#x2db;" horiz-adv-x="291" 
d="M152 8h30q-28 -20 -47 -52t-19 -68q0 -29 19 -43.5t48 -14.5q33 0 60 15l7 -27q-44 -28 -98 -28q-42 0 -67 19.5t-25 59.5q0 42 27 81t65 58z" />
    <glyph glyph-name="tilde" unicode="&#x2dc;" horiz-adv-x="379" 
d="M89 531l-30 4q7 46 29 75t58 29q19 0 34.5 -10.5t24.5 -23.5t21.5 -23.5t26.5 -10.5q36 0 43 59l28 -2q-6 -50 -28.5 -76.5t-57.5 -26.5q-18 0 -32.5 11t-23 23.5t-20.5 23.5t-26 11q-42 0 -47 -63z" />
    <glyph glyph-name="hungarumlaut" unicode="&#x2dd;" horiz-adv-x="396" 
d="M146 690h61l-116 -170l-33 5zM280 690h60l-115 -170l-33 5z" />
    <glyph glyph-name="tonos" unicode="&#x384;" horiz-adv-x="177" 
d="M95 590h-40l3 195h70z" />
    <glyph glyph-name="dieresistonos" unicode="&#x385;" horiz-adv-x="409" 
d="M92 536q-17 0 -29 13t-12 32t12 31.5t29 12.5q16 0 27.5 -12.5t11.5 -31.5t-11.5 -32t-27.5 -13zM316 536q-17 0 -28.5 13t-11.5 32t11.5 31.5t28.5 12.5t28.5 -12.5t11.5 -31.5t-11.5 -32t-28.5 -13zM222 517h-48l3 195h78z" />
    <glyph glyph-name="Alphatonos" unicode="&#x386;" horiz-adv-x="603" 
d="M272 690h66l260 -690h-85l-87 237h-261l-85 -237h-76zM294 603l-113 -317h229zM132 590h-40l3 195h70z" />
    <glyph glyph-name="anoteleia" unicode="&#x387;" 
d="M202 247q0 22 16.5 37.5t38.5 15.5t37.5 -15.5t15.5 -37.5q0 -23 -15.5 -39t-37.5 -16t-38.5 16.5t-16.5 38.5z" />
    <glyph glyph-name="Epsilontonos" unicode="&#x388;" horiz-adv-x="516" 
d="M84 690h383v-62l-309 9v-255l261 10v-63l-261 9v-285l309 9v-62h-383v690zM15 590h-40l3 195h70z" />
    <glyph glyph-name="Etatonos" unicode="&#x389;" horiz-adv-x="666" 
d="M508 690h74v-690h-74v336h-350v-336h-74v690h74v-302h350v302zM15 590h-40l3 195h70z" />
    <glyph glyph-name="Iotatonos" unicode="&#x38a;" horiz-adv-x="242" 
d="M84 690h74v-690h-74v690zM11 590h-40l3 195h70z" />
    <glyph glyph-name="Omicrontonos" unicode="&#x38c;" horiz-adv-x="787" 
d="M394 643q-113 0 -181.5 -75.5t-68.5 -221.5t68 -224.5t180 -78.5q111 0 181 76.5t70 224.5q0 146 -68.5 222.5t-180.5 76.5zM405 700q146 0 231.5 -96.5t85.5 -246.5q0 -159 -96 -265t-246 -106q-145 0 -230.5 98.5t-85.5 251.5q0 155 95.5 259.5t245.5 104.5zM78 590
h-40l3 195h70z" />
    <glyph glyph-name="Upsilontonos" unicode="&#x38e;" horiz-adv-x="594" 
d="M-9 590h-40l3 195h70l-16 -95h90l208 -331l205 331h78l-254 -385v-305h-74v300l-254 385z" />
    <glyph glyph-name="Omegatonos" unicode="&#x38f;" horiz-adv-x="796" 
d="M759 0h-284v52q174 52 174 284q0 146 -72 224t-186 78q-112 0 -178 -72t-66 -214q0 -104 48.5 -187.5t128.5 -109.5v-55h-287v62l189 -9q-158 104 -158 281q0 155 98 260.5t248 105.5q146 0 229.5 -94t83.5 -244q0 -114 -39 -185.5t-116 -123.5l187 9v-62zM72 590h-40
l3 195h70z" />
    <glyph glyph-name="iotadieresistonos" unicode="&#x390;" horiz-adv-x="229" 
d="M200 53v-49q-30 -18 -61 -18q-65 0 -65 74v372l66 15v-368q0 -19 6 -26.5t23 -7.5q15 0 31 8zM6 536q-17 0 -29 13t-12 32t12 31.5t29 12.5q16 0 27.5 -12.5t11.5 -31.5t-11.5 -32t-27.5 -13zM230 536q-17 0 -28.5 13t-11.5 32t11.5 31.5t28.5 12.5t28.5 -12.5
t11.5 -31.5t-11.5 -32t-28.5 -13zM136 517h-48l3 195h78z" />
    <glyph glyph-name="Alpha" unicode="&#x391;" horiz-adv-x="603" 
d="M272 690h66l260 -690h-85l-87 237h-261l-85 -237h-76zM294 603l-113 -317h229z" />
    <glyph glyph-name="Beta" unicode="&#x392;" horiz-adv-x="542" 
d="M157 632v-248q119 1 166 36t47 99q0 116 -158 116q-26 0 -55 -3zM157 333v-275q36 -5 77 -5q88 0 134 35.5t46 94.5q0 32 -10 56t-35.5 46.5t-79 35t-132.5 12.5zM216 690q229 0 229 -161q0 -60 -40.5 -106t-102.5 -57q189 -27 189 -171q0 -79 -71 -137t-202 -58h-134
v690h132z" />
    <glyph glyph-name="Gamma" unicode="&#x393;" horiz-adv-x="477" 
d="M158 0h-74v690h383v-62l-309 9v-637z" />
    <glyph glyph-name="Delta" unicode="&#x394;" horiz-adv-x="603" 
d="M598 0h-594l268 690h66zM496 49l-202 554l-199 -554h401z" />
    <glyph glyph-name="Delta" unicode="&#x2206;" horiz-adv-x="603" 
d="M598 0h-594l268 690h66zM496 49l-202 554l-199 -554h401z" />
    <glyph glyph-name="Epsilon" unicode="&#x395;" horiz-adv-x="516" 
d="M84 690h383v-62l-309 9v-255l261 10v-63l-261 9v-285l309 9v-62h-383v690z" />
    <glyph glyph-name="Zeta" unicode="&#x396;" horiz-adv-x="618" 
d="M43 51l429 587l-408 -15v67h499v-51l-432 -588l444 16v-67h-532v51z" />
    <glyph glyph-name="Eta" unicode="&#x397;" horiz-adv-x="666" 
d="M508 690h74v-690h-74v336h-350v-336h-74v690h74v-302h350v302z" />
    <glyph glyph-name="Theta" unicode="&#x398;" horiz-adv-x="787" 
d="M198 374h391v-51h-391v51zM394 643q-113 0 -181.5 -75.5t-68.5 -221.5t68 -224.5t180 -78.5q111 0 181 76.5t70 224.5q0 146 -68.5 222.5t-180.5 76.5zM405 700q146 0 231.5 -96.5t85.5 -246.5q0 -159 -96 -265t-246 -106q-145 0 -230.5 98.5t-85.5 251.5
q0 155 95.5 259.5t245.5 104.5z" />
    <glyph glyph-name="Iota" unicode="&#x399;" horiz-adv-x="242" 
d="M84 690h74v-690h-74v690z" />
    <glyph glyph-name="Kappa" unicode="&#x39a;" horiz-adv-x="582" 
d="M158 0h-74v690h74v-332l288 332h90l-295 -304q43 -67 146.5 -182.5t189.5 -192.5l-88 -22q-75 70 -166.5 175t-131.5 169l-33 -38v-295z" />
    <glyph glyph-name="Lambda" unicode="&#x39b;" horiz-adv-x="603" 
d="M598 0h-85l-219 599l-213 -599h-77l268 690h66z" />
    <glyph glyph-name="Mu" unicode="&#x39c;" horiz-adv-x="852" 
d="M111 690h101l222 -577l216 577h91l47 -690h-76l-37 605l-227 -598h-51l-229 606l-37 -613h-67z" />
    <glyph glyph-name="Nu" unicode="&#x39d;" horiz-adv-x="663" 
d="M84 690h95l340 -540v540h59v-690h-49l-385 614v-614h-60v690z" />
    <glyph glyph-name="Xi" unicode="&#x39e;" horiz-adv-x="521" 
d="M429 326h-337v57h337v-57zM477 630h-433v60h433v-60zM477 0h-433v59h433v-59z" />
    <glyph glyph-name="Omicron" unicode="&#x39f;" horiz-adv-x="787" 
d="M394 643q-113 0 -181.5 -75.5t-68.5 -221.5t68 -224.5t180 -78.5q111 0 181 76.5t70 224.5q0 146 -68.5 222.5t-180.5 76.5zM405 700q146 0 231.5 -96.5t85.5 -246.5q0 -159 -96 -265t-246 -106q-145 0 -230.5 98.5t-85.5 251.5q0 155 95.5 259.5t245.5 104.5z" />
    <glyph glyph-name="Pi" unicode="&#x3a0;" horiz-adv-x="664" 
d="M84 690h498v-690h-74v638h-350v-638h-74v690z" />
    <glyph glyph-name="Rho" unicode="&#x3a1;" horiz-adv-x="518" 
d="M247 690q116 0 175.5 -55t59.5 -139q0 -95 -63 -156.5t-180 -61.5q-44 0 -81 8v-286h-74v690h163zM158 632v-294q38 -9 71 -9q86 0 129.5 43t43.5 111q0 69 -42 111t-123 42q-51 0 -79 -4z" />
    <glyph glyph-name="Sigma" unicode="&#x3a3;" horiz-adv-x="618" 
d="M64 690h499v-64l-407 10l208 -267l-232 -316l443 11v-64h-532v51l233 318l-212 270v51z" />
    <glyph glyph-name="Tau" unicode="&#x3a4;" horiz-adv-x="544" 
d="M6 690h532v-66l-229 9v-633h-74v633l-229 -9v66z" />
    <glyph glyph-name="Upsilon" unicode="&#x3a5;" horiz-adv-x="594" 
d="M4 690h94l208 -331l205 331h78l-254 -385v-305h-74v300z" />
    <glyph glyph-name="Phi" unicode="&#x3a6;" horiz-adv-x="720" 
d="M399 0h-73v105q-121 8 -197 72.5t-76 164.5q0 99 76.5 167.5t196.5 79.5v101h73v-100q119 -9 193.5 -75.5t74.5 -165.5q0 -98 -74.5 -164.5t-193.5 -77.5v-107zM126 348q0 -83 54.5 -135t145.5 -61v391q-92 -8 -146 -60t-54 -135zM595 342q0 82 -53.5 135t-142.5 64v-390
q90 8 143 58.5t53 132.5z" />
    <glyph glyph-name="Chi" unicode="&#x3a7;" horiz-adv-x="620" 
d="M516 690h83l-255 -330l269 -360h-93l-214 308l-222 -308h-78l269 352l-255 338h97l196 -286z" />
    <glyph glyph-name="Psi" unicode="&#x3a8;" horiz-adv-x="719" 
d="M325 690h73v-377q89 8 142 57t53 129q0 115 8 191h74q-10 -81 -10 -190q0 -100 -76 -165t-191 -76v-259h-73v258q-124 8 -197.5 74.5t-73.5 177.5q0 79 -9 180h73q8 -76 8 -187q0 -81 54 -131t145 -59v377z" />
    <glyph glyph-name="Omega" unicode="&#x3a9;" horiz-adv-x="796" 
d="M759 0h-284v52q174 52 174 284q0 146 -72 224t-186 78q-112 0 -178 -72t-66 -214q0 -104 48.5 -187.5t128.5 -109.5v-55h-287v62l189 -9q-158 104 -158 281q0 155 98 260.5t248 105.5q146 0 229.5 -94t83.5 -244q0 -114 -39 -185.5t-116 -123.5l187 9v-62z" />
    <glyph glyph-name="Omega" unicode="&#x2126;" horiz-adv-x="796" 
d="M759 0h-284v52q174 52 174 284q0 146 -72 224t-186 78q-112 0 -178 -72t-66 -214q0 -104 48.5 -187.5t128.5 -109.5v-55h-287v62l189 -9q-158 104 -158 281q0 155 98 260.5t248 105.5q146 0 229.5 -94t83.5 -244q0 -114 -39 -185.5t-116 -123.5l187 9v-62z" />
    <glyph glyph-name="Iotadieresis" unicode="&#x3aa;" horiz-adv-x="242" 
d="M84 690h74v-690h-74v690zM-5 780q0 16 11.5 28t28.5 12t29.5 -12t12.5 -28q0 -17 -12.5 -29.5t-29.5 -12.5q-16 0 -28 12.5t-12 29.5zM165 780q0 16 12 28t29 12t29.5 -12t12.5 -28q0 -17 -12.5 -29.5t-29.5 -12.5t-29 12.5t-12 29.5z" />
    <glyph glyph-name="Upsilondieresis" unicode="&#x3ab;" horiz-adv-x="594" 
d="M4 690h94l208 -331l205 331h78l-254 -385v-305h-74v300zM171 780q0 16 11.5 28t28.5 12t29.5 -12t12.5 -28q0 -17 -12.5 -29.5t-29.5 -12.5q-16 0 -28 12.5t-12 29.5zM341 780q0 16 12 28t29 12t29.5 -12t12.5 -28q0 -17 -12.5 -29.5t-29.5 -12.5t-29 12.5t-12 29.5z" />
    <glyph glyph-name="alphatonos" unicode="&#x3ac;" horiz-adv-x="575" 
d="M549 58l-20 -72q-38 0 -63 35.5t-50 103.5q-101 -139 -208 -139q-74 0 -114.5 59.5t-40.5 149.5q0 107 55 184.5t142 77.5q40 0 70.5 -17t52 -51t34 -64.5t27.5 -77.5q34 89 34 196h64q0 -119 -79 -259q19 -62 40.5 -94t55.5 -32zM230 52q39 0 85.5 32.5t82.5 90.5
q-15 42 -23.5 65.5t-25 58t-32 52.5t-38.5 32t-50 14q-53 0 -84.5 -50t-31.5 -124q0 -73 30.5 -122t86.5 -49zM273 518h-40l3 195h70z" />
    <glyph glyph-name="epsilontonos" unicode="&#x3ad;" horiz-adv-x="425" 
d="M247 518h-40l3 195h70zM372 72v-42q-72 -44 -152 -44q-82 0 -123.5 33t-41.5 84q0 43 30 77t82 49q-52 6 -78 32.5t-26 63.5q0 53 50.5 92.5t133.5 39.5q67 0 125 -20v-65q-58 32 -139 32q-50 0 -76 -21t-26 -51t23.5 -51t68.5 -21q28 0 55 8v-59q-12 2 -33 2
q-57 0 -89 -24.5t-32 -64.5q0 -33 30.5 -55t92.5 -22q66 0 125 27z" />
    <glyph glyph-name="etatonos" unicode="&#x3ae;" horiz-adv-x="496" 
d="M415 -243h-66q15 230 15 500q0 142 -91 142q-58 0 -94.5 -53.5t-36.5 -109.5v-236h-66l10 233q-3 128 -51 197l65 24q24 -45 35 -115q31 58 78 88t93 30q121 0 121 -180q0 -238 -12 -520zM269 518h-40l3 195h70z" />
    <glyph glyph-name="iotatonos" unicode="&#x3af;" horiz-adv-x="229" 
d="M200 53v-49q-30 -18 -61 -18q-65 0 -65 74v372l66 15v-368q0 -19 6 -26.5t23 -7.5q15 0 31 8zM122 518h-40l3 195h70z" />
    <glyph glyph-name="upsilondieresistonos" unicode="&#x3b0;" horiz-adv-x="573" 
d="M72 128v315h67v-301q0 -54 25.5 -76.5t63.5 -22.5q53 0 90 44.5t50 106t3.5 129t-42.5 111.5l74 17q36 -71 36 -155t-28.5 -151.5t-85 -113t-126.5 -45.5q-127 0 -127 142zM141 536q-17 0 -29 13t-12 32t12 31.5t29 12.5q16 0 27.5 -12.5t11.5 -31.5t-11.5 -32t-27.5 -13
zM365 536q-17 0 -28.5 13t-11.5 32t11.5 31.5t28.5 12.5t28.5 -12.5t11.5 -31.5t-11.5 -32t-28.5 -13zM271 517h-48l3 195h78z" />
    <glyph glyph-name="alpha" unicode="&#x3b1;" horiz-adv-x="575" 
d="M549 58l-20 -72q-38 0 -63 35.5t-50 103.5q-101 -139 -208 -139q-74 0 -114.5 59.5t-40.5 149.5q0 107 55 184.5t142 77.5q40 0 70.5 -17t52 -51t34 -64.5t27.5 -77.5q34 89 34 196h64q0 -119 -79 -259q19 -62 40.5 -94t55.5 -32zM230 52q39 0 85.5 32.5t82.5 90.5
q-15 42 -23.5 65.5t-25 58t-32 52.5t-38.5 32t-50 14q-53 0 -84.5 -50t-31.5 -124q0 -73 30.5 -122t86.5 -49z" />
    <glyph glyph-name="beta" unicode="&#x3b2;" horiz-adv-x="514" 
d="M139 -243h-67v709q0 106 59.5 170t146.5 64q74 0 117 -37.5t43 -109.5q0 -119 -133 -176q68 -17 112 -64t44 -116q0 -91 -59 -151t-150 -60q-64 0 -113 18v-247zM139 492v-415q60 -32 128 -32q60 0 94 33t34 98q0 68 -46 115t-122 47q-22 0 -40 -2v53q82 0 133 35t51 105
q0 54 -30 85.5t-82 31.5q-54 0 -87 -41t-33 -113z" />
    <glyph glyph-name="gamma" unicode="&#x3b3;" horiz-adv-x="414" 
d="M244 -243h-77q2 77 16 243q-13 90 -67 222t-110 210l70 22q113 -201 145 -376q84 185 115 365h65q-55 -224 -164 -443q7 -96 7 -243z" />
    <glyph glyph-name="delta" unicode="&#x3b4;" horiz-adv-x="516" 
d="M53 184q0 75 47 145t114 101q-33 17 -44.5 23.5t-36 22.5t-33.5 27t-18 28.5t-9 36.5q0 63 63.5 97.5t152.5 34.5q86 0 154 -24v-71q-28 20 -81 33t-105 13q-54 0 -89.5 -16.5t-35.5 -49.5q0 -23 24.5 -45.5t61.5 -41t79.5 -45t79.5 -55.5t61.5 -75t24.5 -101
q0 -93 -62 -164.5t-163 -71.5q-96 0 -140.5 55.5t-44.5 142.5zM396 200q0 72 -36 119t-99 84q-71 -25 -108.5 -79t-37.5 -121q0 -69 36 -111.5t104 -42.5q64 0 102.5 43.5t38.5 107.5z" />
    <glyph glyph-name="epsilon" unicode="&#x3b5;" horiz-adv-x="425" 
d="M372 72v-42q-72 -44 -152 -44q-82 0 -123.5 33t-41.5 84q0 43 30 77t82 49q-52 6 -78 32.5t-26 63.5q0 53 50.5 92.5t133.5 39.5q67 0 125 -20v-65q-58 32 -139 32q-50 0 -76 -21t-26 -51t23.5 -51t68.5 -21q28 0 55 8v-59q-12 2 -33 2q-57 0 -89 -24.5t-32 -64.5
q0 -33 30.5 -55t92.5 -22q66 0 125 27z" />
    <glyph glyph-name="zeta" unicode="&#x3b6;" horiz-adv-x="420" 
d="M282 -235l-31 20q23 18 45 56.5t22 69.5q0 33 -19.5 59.5t-48.5 43.5t-63.5 37t-63.5 38.5t-48.5 49.5t-19.5 70q0 125 292 429l-325 -10v62h407v-53q-126 -95 -211.5 -208t-85.5 -193q0 -36 19 -65.5t47 -47t61 -37t61 -37t47 -47t19 -65.5q0 -45 -32.5 -92.5
t-71.5 -79.5z" />
    <glyph glyph-name="eta" unicode="&#x3b7;" horiz-adv-x="496" 
d="M415 -243h-66q15 230 15 500q0 142 -91 142q-58 0 -94.5 -53.5t-36.5 -109.5v-236h-66l10 233q-3 128 -51 197l65 24q24 -45 35 -115q31 58 78 88t93 30q121 0 121 -180q0 -238 -12 -520z" />
    <glyph glyph-name="theta" unicode="&#x3b8;" horiz-adv-x="505" 
d="M247 -14q-103 0 -151.5 93.5t-48.5 251.5q0 101 24 184t72.5 134t113.5 51q104 0 152.5 -94.5t48.5 -254.5q0 -155 -56.5 -260t-154.5 -105zM257 37q128 0 128 285h-268q5 -128 42 -206.5t98 -78.5zM247 650q-127 0 -130 -279h267q-5 128 -41.5 203.5t-95.5 75.5z" />
    <glyph glyph-name="iota" unicode="&#x3b9;" horiz-adv-x="229" 
d="M200 53v-49q-30 -18 -61 -18q-65 0 -65 74v372l66 15v-368q0 -19 6 -26.5t23 -7.5q15 0 31 8z" />
    <glyph glyph-name="kappa" unicode="&#x3ba;" horiz-adv-x="439" 
d="M139 0h-66v432l66 15v-202l178 198h83l-193 -199q36 -55 109 -130t115 -98l-71 -29q-48 35 -101.5 93.5t-95.5 118.5l-24 -25v-174z" />
    <glyph glyph-name="lambda" unicode="&#x3bb;" horiz-adv-x="414" 
d="M73 683l67 14q44 -73 130.5 -337t139.5 -360h-71q-59 108 -136 363l-133 -363h-64l173 431q-59 177 -106 252z" />
    <glyph glyph-name="nu" unicode="&#x3bd;" horiz-adv-x="414" 
d="M232 0h-56q-79 259 -170 437l73 12q78 -170 134 -371q128 342 131 365h64q-3 -13 -82.5 -210.5t-93.5 -232.5z" />
    <glyph glyph-name="xi" unicode="&#x3be;" horiz-adv-x="423" 
d="M287 -243h-56q71 103 71 156q0 32 -26 54.5t-63 36.5t-74.5 28t-63.5 38.5t-26 59.5q0 57 58.5 110t152.5 96q-196 0 -196 73q0 45 86 116.5t177 109.5h-287v66l377 -11v-52q-111 -43 -193.5 -104.5t-82.5 -104.5q0 -33 52 -42.5t171 -9.5v-47q-110 -24 -175 -71
t-65 -103q0 -29 25 -50.5t61.5 -35.5t72.5 -29t61 -39t25 -56q0 -74 -82 -189z" />
    <glyph glyph-name="omicron" unicode="&#x3bf;" horiz-adv-x="529" 
d="M476 233q0 -107 -62 -177t-161 -70q-96 0 -148 60.5t-52 165.5q0 106 61.5 175.5t160.5 69.5q97 0 149 -60t52 -164zM273 47q147 0 147 172q0 90 -46 133t-117 43q-149 0 -149 -169q0 -90 46.5 -134.5t118.5 -44.5z" />
    <glyph glyph-name="pi" unicode="&#x3c0;" horiz-adv-x="519" 
d="M511 392h-113v-313q0 -19 6 -26.5t23 -7.5q13 0 31 8v-49q-32 -18 -61 -18q-66 0 -66 74v332h-147l-2 -384l-71 -15l12 399h-115v51h503v-51z" />
    <glyph glyph-name="rho" unicode="&#x3c1;" horiz-adv-x="542" 
d="M139 -239l-67 -8v478q0 86 63 156t166 70q93 0 140.5 -58t47.5 -153q0 -110 -62.5 -185t-169.5 -75q-72 0 -118 37v-262zM139 244v-99q2 -47 37 -75t99 -28q68 0 110.5 51t42.5 128q0 76 -36.5 124t-109.5 48q-67 0 -105 -40t-38 -109z" />
    <glyph glyph-name="sigma1" unicode="&#x3c2;" horiz-adv-x="432" 
d="M278 -243h-46q64 101 64 183q0 24 -18.5 44.5t-46 35t-60 35t-60 42t-46 57.5t-18.5 81q0 96 69.5 159t170.5 63q50 0 115 -20l-21 -63q-62 30 -121 30q-73 0 -110.5 -39.5t-37.5 -113.5q0 -46 26 -81.5t62.5 -57.5t73 -43t62.5 -49.5t26 -64.5q0 -67 -84 -198z" />
    <glyph glyph-name="sigma" unicode="&#x3c3;" horiz-adv-x="540" 
d="M524 387l-96 5q48 -59 48 -159q0 -107 -62 -177t-161 -70q-96 0 -148 60.5t-52 165.5q0 106 61.5 175.5t160.5 69.5q45 0 82 -14h167v-56zM273 47q147 0 147 172q0 90 -46 133t-117 43q-149 0 -149 -169q0 -90 46.5 -134.5t118.5 -44.5z" />
    <glyph glyph-name="tau" unicode="&#x3c4;" horiz-adv-x="411" 
d="M15 443h380v-51h-169v-281q0 -37 11.5 -50t36.5 -13q29 0 66 22v-51q-52 -33 -96 -33q-84 0 -84 110v296h-145v51z" />
    <glyph glyph-name="upsilon" unicode="&#x3c5;" horiz-adv-x="491" 
d="M72 128v315h67v-301q0 -54 25.5 -76.5t63.5 -22.5q53 0 90 44.5t50 106t3.5 129t-42.5 111.5l74 17q36 -71 36 -155t-28.5 -151.5t-85 -113t-126.5 -45.5q-127 0 -127 142z" />
    <glyph glyph-name="phi" unicode="&#x3c6;" horiz-adv-x="638" 
d="M352 -243h-66v230q-110 6 -171.5 68t-61.5 161q0 96 63.5 162t169.5 77v318l66 15v-332q109 -7 171 -67.5t62 -157.5q0 -98 -63.5 -164.5t-169.5 -78.5v-231zM126 223q0 -86 42 -133.5t118 -55.5v375q-160 -16 -160 -186zM511 223q0 86 -41.5 132t-117.5 54v-376
q159 18 159 190z" />
    <glyph glyph-name="chi" unicode="&#x3c7;" horiz-adv-x="451" 
d="M353 443h71l-171 -331q93 -231 182 -344l-76 -19q-66 110 -140 294l-137 -286h-68l182 349q-87 227 -171 328l76 17q53 -65 129 -274z" />
    <glyph glyph-name="psi" unicode="&#x3c8;" horiz-adv-x="605" 
d="M328 -243h-62v230q-72 5 -119 47t-65.5 108t-19 142t16.5 159h55q-17 -91 -14.5 -173t40.5 -145t106 -78v726l62 15v-744q61 5 98.5 43.5t48 98.5t7 124t-19.5 133h72q13 -76 7.5 -153t-25 -140.5t-68 -107.5t-120.5 -53v-232z" />
    <glyph glyph-name="omega" unicode="&#x3c9;" horiz-adv-x="692" 
d="M144 443h63q-37 -35 -61 -104t-24 -137q0 -67 24.5 -108.5t75.5 -41.5q45 0 74.5 50.5t29.5 131.5l-9 139h71l-9 -139q0 -82 30 -132t74 -50q48 0 73 44.5t25 112.5q0 63 -21.5 125t-57.5 96l73 22q55 -83 55 -223q0 -104 -38 -173.5t-113 -69.5q-101 0 -133 138
q-17 -63 -57 -100.5t-93 -37.5q-69 0 -102 50t-33 131q0 69 22.5 144.5t60.5 131.5z" />
    <glyph glyph-name="iotadieresis" unicode="&#x3ca;" horiz-adv-x="229" 
d="M200 53v-49q-30 -18 -61 -18q-65 0 -65 74v372l66 15v-368q0 -19 6 -26.5t23 -7.5q15 0 31 8zM32 622q17 0 28 -12t11 -31t-11 -32.5t-28 -13.5t-28.5 13t-11.5 33q0 19 11.5 31t28.5 12zM198 622q17 0 28.5 -12t11.5 -31t-11.5 -32.5t-28.5 -13.5t-28.5 13.5t-11.5 32.5
t11.5 31t28.5 12z" />
    <glyph glyph-name="upsilondieresis" unicode="&#x3cb;" horiz-adv-x="491" 
d="M72 128v315h67v-301q0 -54 25.5 -76.5t63.5 -22.5q53 0 90 44.5t50 106t3.5 129t-42.5 111.5l74 17q36 -71 36 -155t-28.5 -151.5t-85 -113t-126.5 -45.5q-127 0 -127 142zM163 622q17 0 28 -12t11 -31t-11 -32.5t-28 -13.5t-28.5 13t-11.5 33q0 19 11.5 31t28.5 12z
M329 622q17 0 28.5 -12t11.5 -31t-11.5 -32.5t-28.5 -13.5t-28.5 13.5t-11.5 32.5t11.5 31t28.5 12z" />
    <glyph glyph-name="omicrontonos" unicode="&#x3cc;" horiz-adv-x="529" 
d="M271 518h-40l3 195h70zM476 233q0 -107 -62 -177t-161 -70q-96 0 -148 60.5t-52 165.5q0 106 61.5 175.5t160.5 69.5q97 0 149 -60t52 -164zM273 47q147 0 147 172q0 90 -46 133t-117 43q-149 0 -149 -169q0 -90 46.5 -134.5t118.5 -44.5z" />
    <glyph glyph-name="upsilontonos" unicode="&#x3cd;" horiz-adv-x="491" 
d="M260 518h-40l3 195h70zM72 128v315h67v-301q0 -54 25.5 -76.5t63.5 -22.5q53 0 90 44.5t50 106t3.5 129t-42.5 111.5l74 17q36 -71 36 -155t-28.5 -151.5t-85 -113t-126.5 -45.5q-127 0 -127 142z" />
    <glyph glyph-name="omegatonos" unicode="&#x3ce;" horiz-adv-x="692" 
d="M144 443h63q-37 -35 -61 -104t-24 -137q0 -67 24.5 -108.5t75.5 -41.5q45 0 74.5 50.5t29.5 131.5l-9 139h71l-9 -139q0 -82 30 -132t74 -50q48 0 73 44.5t25 112.5q0 63 -21.5 125t-57.5 96l73 22q55 -83 55 -223q0 -104 -38 -173.5t-113 -69.5q-101 0 -133 138
q-17 -63 -57 -100.5t-93 -37.5q-69 0 -102 50t-33 131q0 69 22.5 144.5t60.5 131.5zM365 518h-40l3 195h70z" />
    <glyph glyph-name="afii10023" unicode="&#x401;" horiz-adv-x="516" 
d="M84 690h383v-62l-309 9v-255l261 10v-63l-261 9v-285l309 9v-62h-383v690zM150 780q0 16 12 28t28 12q17 0 29.5 -12t12.5 -28q0 -17 -12.5 -29.5t-29.5 -12.5q-16 0 -28 12.5t-12 29.5zM320 780q0 16 12 28t29 12t29.5 -12t12.5 -28q0 -17 -12.5 -29.5t-29.5 -12.5
t-29 12.5t-12 29.5z" />
    <glyph glyph-name="afii10051" unicode="&#x402;" horiz-adv-x="675" 
d="M419 -204l14 72q58 2 77.5 34.5t19.5 123.5v267q0 54 -21 80t-67 26q-59 0 -96 -41t-37 -92v-266h-74v635l-229 -9v64h532v-64l-229 9v-265q32 40 78.5 63.5t88.5 23.5q58 0 92 -36.5t34 -110.5v-265q0 -106 -46.5 -173t-136.5 -76z" />
    <glyph glyph-name="afii10052" unicode="&#x403;" horiz-adv-x="477" 
d="M318 874h72l-132 -158l-34 4zM158 0h-74v690h383v-62l-309 9v-637z" />
    <glyph glyph-name="afii10053" unicode="&#x404;" horiz-adv-x="610" 
d="M410 329l-271 8q4 -129 76.5 -206t202.5 -77q77 0 146 33v-55q-76 -46 -173 -46q-157 0 -242 91.5t-85 243.5q0 163 96 271t261 108q83 0 143 -21v-81q-68 36 -165 36q-118 0 -184.5 -68.5t-74.5 -183.5l270 10v-63z" />
    <glyph glyph-name="afii10054" unicode="&#x405;" horiz-adv-x="499" 
d="M411 681v-80q-71 36 -148 36q-56 0 -88.5 -26t-32.5 -76q0 -41 31.5 -73t76 -55.5t89.5 -49.5t76.5 -68.5t31.5 -98.5q0 -86 -65 -145t-163 -59q-87 0 -149 23v81q78 -39 159 -39q61 0 101.5 30.5t40.5 87.5q0 44 -31.5 79t-76 60t-89 51t-76 65t-31.5 89q0 80 59 133.5
t158 53.5q80 0 127 -19z" />
    <glyph glyph-name="afii10055" unicode="&#x406;" horiz-adv-x="242" 
d="M84 690h74v-690h-74v690z" />
    <glyph glyph-name="afii10056" unicode="&#x407;" horiz-adv-x="242" 
d="M84 690h74v-690h-74v690zM-5 780q0 16 11.5 28t28.5 12t29.5 -12t12.5 -28q0 -17 -12.5 -29.5t-29.5 -12.5q-16 0 -28 12.5t-12 29.5zM165 780q0 16 12 28t29 12t29.5 -12t12.5 -28q0 -17 -12.5 -29.5t-29.5 -12.5t-29 12.5t-12 29.5z" />
    <glyph glyph-name="afii10057" unicode="&#x408;" horiz-adv-x="256" 
d="M99 690h73v-683q0 -110 -58.5 -177t-157.5 -73l15 78q66 0 97 38.5t31 126.5v690z" />
    <glyph glyph-name="afii10058" unicode="&#x409;" horiz-adv-x="937" 
d="M616 0h-134v637h-206q-6 -98 -17 -184t-32 -174t-50 -151t-74 -102.5t-100 -39.5l16 80q46 0 81 54t56 146.5t32.5 198t15.5 225.5h351v-280q102 3 171 -10t103 -41t47.5 -60.5t13.5 -76.5q0 -94 -70.5 -158t-203.5 -64zM555 359v-300q41 -6 73 -6q185 0 185 150
q0 36 -10 61.5t-36.5 48.5t-79.5 34.5t-132 11.5z" />
    <glyph glyph-name="afii10059" unicode="&#x40a;" horiz-adv-x="963" 
d="M643 0h-135v357h-350v-357h-74v690h74v-281h350v281h74v-280q102 3 171 -10t103 -41t47.5 -60.5t13.5 -76.5q0 -94 -71 -158t-203 -64zM582 359v-300q40 -6 73 -6q185 0 185 150q0 36 -10 61.5t-36.5 48.5t-79.5 34.5t-132 11.5z" />
    <glyph glyph-name="afii10060" unicode="&#x40b;" horiz-adv-x="675" 
d="M602 0h-72v293q0 54 -21 80t-67 26q-59 0 -96 -41t-37 -92v-266h-74v635l-229 -9v64h532v-64l-229 9v-265q32 40 78.5 63.5t88.5 23.5q58 0 92 -36.5t34 -110.5v-310z" />
    <glyph glyph-name="afii10061" unicode="&#x40c;" horiz-adv-x="571" 
d="M353 874h72l-132 -158l-34 4zM158 0h-74v690h74v-690zM568 0h-100q-112 218 -309 357l287 333h90l-297 -309q97 -73 174 -165t155 -216z" />
    <glyph glyph-name="afii10062" unicode="&#x40e;" horiz-adv-x="519" 
d="M338 842l58 -3q-1 -51 -34.5 -79.5t-88.5 -28.5q-56 0 -90 29t-36 78l60 3q2 -36 16 -55t50 -19q35 0 49 19.5t16 55.5zM8 690h87l180 -402l163 402h78l-178 -404q-73 -166 -139.5 -233t-175.5 -67l15 77q76 0 115 28t76 114z" />
    <glyph glyph-name="afii10145" unicode="&#x40f;" horiz-adv-x="664" 
d="M357 -167h-40l-17 167h-216v690h74v-638h350v638h74v-690h-211z" />
    <glyph glyph-name="afii10017" unicode="&#x410;" horiz-adv-x="603" 
d="M272 690h66l260 -690h-85l-87 237h-261l-85 -237h-76zM294 603l-113 -317h229z" />
    <glyph glyph-name="afii10018" unicode="&#x411;" horiz-adv-x="542" 
d="M218 0h-134v690h346v-65l-273 11v-238q5 0 16 0.5t17 0.5q74 0 129 -10t87.5 -26t52 -40.5t26 -49.5t6.5 -57q0 -90 -70.5 -153t-202.5 -63zM157 349v-291q37 -5 82 -5q87 0 131 38t44 106q0 33 -8.5 58t-30.5 48t-67.5 35t-112.5 12q-25 0 -38 -1z" />
    <glyph glyph-name="afii10019" unicode="&#x412;" horiz-adv-x="542" 
d="M157 632v-248q119 1 166 36t47 99q0 116 -158 116q-26 0 -55 -3zM157 333v-275q36 -5 77 -5q88 0 134 35.5t46 94.5q0 32 -10 56t-35.5 46.5t-79 35t-132.5 12.5zM216 690q229 0 229 -161q0 -60 -40.5 -106t-102.5 -57q189 -27 189 -171q0 -79 -71 -137t-202 -58h-134
v690h132z" />
    <glyph glyph-name="afii10020" unicode="&#x413;" horiz-adv-x="477" 
d="M158 0h-74v690h383v-62l-309 9v-637z" />
    <glyph glyph-name="afii10021" unicode="&#x414;" horiz-adv-x="703" 
d="M679 -170h-63v170h-535v-170h-63l-12 223h98q108 287 108 637h347v-637h132zM286 637q0 -276 -111 -584h310v584h-199z" />
    <glyph glyph-name="afii10022" unicode="&#x415;" horiz-adv-x="516" 
d="M84 690h383v-62l-309 9v-255l261 10v-63l-261 9v-285l309 9v-62h-383v690z" />
    <glyph glyph-name="afii10024" unicode="&#x416;" horiz-adv-x="900" 
d="M487 0h-74v690h74v-690zM898 0h-101q-113 220 -309 357l287 333h90l-297 -309q97 -73 174 -165t156 -216zM103 0h-100q78 124 155 216t174 165l-297 309h90l287 -333q-197 -139 -309 -357z" />
    <glyph glyph-name="afii10025" unicode="&#x417;" horiz-adv-x="513" 
d="M61 9v76q77 -39 169 -39q74 0 115.5 33t41.5 98q0 69 -53.5 114.5t-153.5 45.5q-27 0 -51 -2v52q105 0 171 35t66 105q0 56 -36.5 87.5t-106.5 31.5q-89 0 -162 -35v68q78 21 186 21q192 0 192 -148q0 -60 -40 -106t-114 -71q85 -16 131.5 -61.5t46.5 -116.5
q0 -91 -71 -151t-180 -60q-90 0 -151 23z" />
    <glyph glyph-name="afii10026" unicode="&#x418;" horiz-adv-x="663" 
d="M578 0h-72v592l-344 -592h-78v690h73v-592l343 592h78v-690z" />
    <glyph glyph-name="afii10027" unicode="&#x419;" horiz-adv-x="663" 
d="M398 842l59 -3q-1 -51 -35 -79.5t-89 -28.5q-56 0 -90 29t-35 78l60 3q1 -36 15 -55t51 -19q35 0 48.5 19.5t15.5 55.5zM578 0h-72v592l-344 -592h-78v690h73v-592l343 592h78v-690z" />
    <glyph glyph-name="afii10028" unicode="&#x41a;" horiz-adv-x="571" 
d="M158 0h-74v690h74v-690zM568 0h-100q-112 218 -309 357l287 333h90l-297 -309q97 -73 174 -165t155 -216z" />
    <glyph glyph-name="afii10029" unicode="&#x41b;" horiz-adv-x="639" 
d="M555 0h-73v637h-206q-6 -98 -17 -184t-32 -174t-50 -151t-74 -102.5t-100 -39.5l16 80q46 0 81 54t56 146.5t32.5 198t15.5 225.5h351v-690z" />
    <glyph glyph-name="afii10030" unicode="&#x41c;" horiz-adv-x="852" 
d="M111 690h101l222 -577l216 577h91l47 -690h-76l-37 605l-227 -598h-51l-229 606l-37 -613h-67z" />
    <glyph glyph-name="afii10031" unicode="&#x41d;" horiz-adv-x="666" 
d="M508 690h74v-690h-74v336h-350v-336h-74v690h74v-302h350v302z" />
    <glyph glyph-name="afii10032" unicode="&#x41e;" horiz-adv-x="787" 
d="M394 643q-113 0 -181.5 -75.5t-68.5 -221.5t68 -224.5t180 -78.5q111 0 181 76.5t70 224.5q0 146 -68.5 222.5t-180.5 76.5zM405 700q146 0 231.5 -96.5t85.5 -246.5q0 -159 -96 -265t-246 -106q-145 0 -230.5 98.5t-85.5 251.5q0 155 95.5 259.5t245.5 104.5z" />
    <glyph glyph-name="afii10033" unicode="&#x41f;" horiz-adv-x="664" 
d="M84 690h498v-690h-74v638h-350v-638h-74v690z" />
    <glyph glyph-name="afii10034" unicode="&#x420;" horiz-adv-x="518" 
d="M247 690q116 0 175.5 -55t59.5 -139q0 -95 -63 -156.5t-180 -61.5q-44 0 -81 8v-286h-74v690h163zM158 632v-294q38 -9 71 -9q86 0 129.5 43t43.5 111q0 69 -42 111t-123 42q-51 0 -79 -4z" />
    <glyph glyph-name="afii10035" unicode="&#x421;" horiz-adv-x="610" 
d="M424 700q84 0 144 -21v-81q-73 40 -166 40q-125 0 -191 -80.5t-66 -214.5q0 -132 68 -215.5t193 -83.5q89 0 162 40v-77q-60 -21 -168 -21q-149 0 -242.5 95.5t-93.5 252.5q0 161 101 263.5t259 102.5z" />
    <glyph glyph-name="afii10036" unicode="&#x422;" horiz-adv-x="544" 
d="M6 690h532v-66l-229 9v-633h-74v633l-229 -9v66z" />
    <glyph glyph-name="afii10037" unicode="&#x423;" horiz-adv-x="519" 
d="M8 690h87l180 -402l163 402h78l-178 -404q-73 -166 -139.5 -233t-175.5 -67l15 77q76 0 115 28t76 114z" />
    <glyph glyph-name="afii10038" unicode="&#x424;" horiz-adv-x="720" 
d="M399 0h-73v105q-121 8 -197 72.5t-76 164.5q0 99 76.5 167.5t196.5 79.5v101h73v-100q119 -9 193.5 -75.5t74.5 -165.5q0 -98 -74.5 -164.5t-193.5 -77.5v-107zM126 348q0 -83 54.5 -135t145.5 -61v391q-92 -8 -146 -60t-54 -135zM595 342q0 82 -53.5 135t-142.5 64v-390
q90 8 143 58.5t53 132.5z" />
    <glyph glyph-name="afii10039" unicode="&#x425;" horiz-adv-x="620" 
d="M516 690h83l-255 -330l269 -360h-93l-214 308l-222 -308h-78l269 352l-255 338h97l196 -286z" />
    <glyph glyph-name="afii10040" unicode="&#x426;" horiz-adv-x="699" 
d="M675 -163h-58v163h-533v690h74v-638h332v638h74v-638h123z" />
    <glyph glyph-name="afii10041" unicode="&#x427;" horiz-adv-x="648" 
d="M564 0h-74v316q-49 -52 -116.5 -81t-131.5 -29q-75 0 -121.5 43.5t-46.5 128.5v312h74v-302q0 -58 37 -86t94 -28q80 0 145.5 47t65.5 124v245h74v-690z" />
    <glyph glyph-name="afii10042" unicode="&#x428;" horiz-adv-x="1000" 
d="M916 0h-832v690h74v-638h305v638h74v-638h305v638h74v-690z" />
    <glyph glyph-name="afii10043" unicode="&#x429;" horiz-adv-x="1051" 
d="M1027 -163h-58v163h-885v690h74v-638h305v638h74v-638h305v638h74v-638h123z" />
    <glyph glyph-name="afii10044" unicode="&#x42a;" horiz-adv-x="638" 
d="M317 0h-134v636l-177 -10v64h251v-280q50 2 62 2q82 0 138.5 -15.5t84.5 -43.5t39 -59t11 -72q0 -94 -71 -158t-204 -64zM257 359v-300q39 -6 73 -6q184 0 184 150q0 34 -9 59.5t-32 49t-69.5 36t-114.5 12.5q-5 0 -15.5 -0.5t-16.5 -0.5z" />
    <glyph glyph-name="afii10045" unicode="&#x42b;" horiz-adv-x="732" 
d="M218 0h-134v690h73v-281q52 2 63 2q82 0 138 -15t84 -43t39 -59.5t11 -71.5q0 -94 -70.5 -158t-203.5 -64zM157 358v-300q37 -5 81 -5q88 0 132.5 38.5t44.5 110.5q0 34 -9 59.5t-32 49t-69.5 36t-114.5 12.5q-5 0 -16 -0.5t-17 -0.5zM647 0h-73v690h73v-690z" />
    <glyph glyph-name="afii10046" unicode="&#x42c;" horiz-adv-x="539" 
d="M218 0h-134v690h73v-281q52 2 63 2q82 0 138 -15t84 -43t39 -59.5t11 -71.5q0 -94 -70.5 -158t-203.5 -64zM157 358v-300q37 -5 81 -5q88 0 132.5 38.5t44.5 110.5q0 34 -9 59.5t-32 49t-69.5 36t-114.5 12.5q-5 0 -16 -0.5t-17 -0.5z" />
    <glyph glyph-name="afii10047" unicode="&#x42d;" horiz-adv-x="617" 
d="M49 7v81q68 -36 166 -36q126 0 193 77.5t67 205.5v2l-272 -8v63l269 -10q-12 115 -84.5 182.5t-192.5 67.5q-75 0 -146 -33v55q78 46 173 46q157 0 242.5 -91t85.5 -244q0 -163 -96 -271t-261 -108q-84 0 -144 21z" />
    <glyph glyph-name="afii10048" unicode="&#x42e;" horiz-adv-x="1002" 
d="M644 700q133 0 214.5 -95.5t81.5 -243.5q0 -158 -93.5 -266.5t-229.5 -108.5q-131 0 -212.5 96t-81.5 247v7h-165v-336h-74v690h74v-302h169q18 134 107 223t210 89zM631 640q-98 0 -164 -78.5t-66 -222.5q0 -143 66 -218.5t165 -75.5q97 0 163.5 78.5t66.5 224.5
q0 143 -66 217.5t-165 74.5z" />
    <glyph glyph-name="afii10049" unicode="&#x42f;" horiz-adv-x="580" 
d="M342 690h154v-690h-73v303q-32 -8 -61 -9q-83 -143 -177 -225.5t-181 -82.5l15 78q68 0 142.5 61.5t125.5 167.5q-86 7 -137 51.5t-51 134.5q0 80 64.5 145.5t178.5 65.5zM354 637q-176 0 -176 -144q0 -77 49 -112.5t122 -35.5q38 0 74 9v278q-43 5 -69 5z" />
    <glyph glyph-name="afii10065" unicode="&#x430;" horiz-adv-x="440" 
d="M74 368v62q79 27 155 27q139 0 139 -106v-351h-43l-18 84q-25 -43 -69.5 -70.5t-91.5 -27.5q-46 0 -70 24t-24 65q0 123 249 212v58q0 32 -19 46.5t-60 14.5q-67 0 -148 -38zM301 184v53q-78 -18 -128.5 -58.5t-50.5 -85.5q0 -24 14.5 -37t38.5 -13q45 0 85.5 41.5
t40.5 99.5z" />
    <glyph glyph-name="afii10066" unicode="&#x431;" horiz-adv-x="516" 
d="M257 626q-129 -20 -140 -256q77 87 190 87q68 0 112.5 -52t44.5 -156q0 -111 -62 -187t-150 -76q-99 0 -149 78.5t-50 227.5q0 57 10 116t32 119t62.5 103.5t94.5 55.5q16 4 79.5 7t106.5 21v-73q-46 -11 -108.5 -12.5t-72.5 -2.5zM266 401q-44 0 -84.5 -25.5
t-63.5 -76.5q4 -127 43 -193.5t108 -66.5q55 0 91 49t36 135q0 178 -130 178z" />
    <glyph glyph-name="afii10067" unicode="&#x432;" horiz-adv-x="423" 
d="M138 400v-150q82 1 111 20t29 59q0 66 -89 73q-34 0 -51 -2zM138 211v-165q24 -3 54 -3q49 0 83 18t34 58q0 42 -35 67t-136 25zM175 0h-103v443h90q58 0 96 -8.5t56 -24t24 -31.5t6 -38q0 -36 -28.5 -65.5t-69.5 -40.5q131 -18 131 -107q0 -53 -51 -90.5t-151 -37.5z
" />
    <glyph glyph-name="afii10068" unicode="&#x433;" horiz-adv-x="349" 
d="M139 0h-67v443h271v-56l-204 9v-396z" />
    <glyph glyph-name="afii10069" unicode="&#x434;" horiz-adv-x="570" 
d="M542 -151h-53v151h-408v-151h-53l-12 201h76q78 175 78 393h276v-393h108zM235 392q-1 -154 -82 -342h226v342h-144z" />
    <glyph glyph-name="afii10070" unicode="&#x435;" horiz-adv-x="462" 
d="M419 250h-302q-1 -7 -1 -22q0 -84 42 -134t123 -50q70 0 132 30v-45q-66 -43 -150 -43q-102 0 -156 58t-54 163q0 107 60 178.5t163 71.5q65 0 105.5 -43.5t40.5 -132.5q0 -4 -3 -31zM260 405q-52 0 -87 -30t-49 -82l232 9q0 103 -96 103z" />
    <glyph glyph-name="afii10072" unicode="&#x436;" horiz-adv-x="656" 
d="M361 0h-66v443h66v-213l181 213h83l-190 -199q112 -90 216 -244h-89q-78 129 -201 230v-230zM93 0h-88q102 152 215 244l-190 199h83l181 -213q-58 -47 -111 -109t-90 -121z" />
    <glyph glyph-name="afii10073" unicode="&#x437;" horiz-adv-x="415" 
d="M195 457q158 0 158 -98q0 -78 -115 -114q62 -12 97.5 -42.5t35.5 -76.5q0 -63 -54 -101.5t-144 -38.5q-63 0 -109 15v62q67 -26 123 -26q113 0 113 80q0 44 -39.5 70.5t-113.5 26.5q-21 0 -32 -2v43q77 0 120.5 22t43.5 66q0 67 -96 67q-63 0 -119 -25v58q66 14 131 14z
" />
    <glyph glyph-name="afii10074" unicode="&#x438;" horiz-adv-x="494" 
d="M421 0h-66v356l-219 -356h-64v443h66v-347l214 347h69v-443z" />
    <glyph glyph-name="afii10075" unicode="&#x439;" horiz-adv-x="494" 
d="M316 638l58 -3q-1 -51 -34.5 -80.5t-88.5 -29.5t-89 29t-36 80l60 3q1 -36 15 -55.5t51 -19.5q35 0 48.5 19.5t15.5 56.5zM421 0h-66v356l-219 -356h-64v443h66v-347l214 347h69v-443z" />
    <glyph glyph-name="afii10076" unicode="&#x43a;" horiz-adv-x="440" 
d="M139 0h-67v443h67v-443zM433 0h-89q-78 129 -201 230l181 213h83l-190 -198q112 -92 216 -245z" />
    <glyph glyph-name="afii10077" unicode="&#x43b;" horiz-adv-x="513" 
d="M440 0h-66v392h-142q-3 -191 -66.5 -293.5t-156.5 -112.5l15 72q138 4 141 385h275v-443z" />
    <glyph glyph-name="afii10078" unicode="&#x43c;" horiz-adv-x="625" 
d="M563 0h-69l-18 365l-148 -360h-42l-142 361l-19 -366h-63l34 443h80l139 -340l141 340h78z" />
    <glyph glyph-name="afii10079" unicode="&#x43d;" horiz-adv-x="492" 
d="M420 0h-67v215h-215v-215h-66v443h66v-182h215v182h67v-443z" />
    <glyph glyph-name="afii10080" unicode="&#x43e;" horiz-adv-x="547" 
d="M280 457q98 0 156 -62.5t58 -165.5q0 -106 -64 -174.5t-164 -68.5q-97 0 -155 63.5t-58 166.5q0 105 63.5 173t163.5 68zM274 408q-68 0 -109 -47t-41 -139q0 -93 40.5 -140.5t109.5 -47.5q67 0 107.5 48t40.5 141q0 92 -40 138.5t-108 46.5z" />
    <glyph glyph-name="afii10081" unicode="&#x43f;" horiz-adv-x="492" 
d="M420 0h-66v396h-215v-396h-67v443h348v-443z" />
    <glyph glyph-name="afii10082" unicode="&#x440;" horiz-adv-x="542" 
d="M72 432l67 15v-52q72 62 166 62q91 0 137.5 -58t46.5 -153q0 -110 -62.5 -185t-169.5 -75q-72 0 -118 37v-266h-67v675zM282 393q-74 0 -143 -42v-206q2 -47 37 -75t99 -28q68 0 110.5 51t42.5 128q0 76 -36.5 124t-109.5 48z" />
    <glyph glyph-name="afii10083" unicode="&#x441;" horiz-adv-x="440" 
d="M398 437v-69q-61 32 -137 32q-68 0 -106 -48.5t-38 -124.5q0 -83 41.5 -132.5t116.5 -49.5q62 0 123 28v-44q-69 -43 -145 -43q-94 0 -147 59.5t-53 159.5q0 108 61.5 180t164.5 72q66 0 119 -20z" />
    <glyph glyph-name="afii10084" unicode="&#x442;" horiz-adv-x="385" 
d="M226 0h-67v396l-153 -8v55h373v-55l-153 8v-396z" />
    <glyph glyph-name="afii10085" unicode="&#x443;" horiz-adv-x="414" 
d="M6 443h74l133 -367l131 367h64l-176 -445q-51 -131 -106.5 -185.5t-151.5 -55.5l15 70q72 1 110.5 38t71.5 122l5 14z" />
    <glyph glyph-name="afii10086" unicode="&#x444;" horiz-adv-x="638" 
d="M352 -243h-66v230q-110 6 -171.5 68t-61.5 161q0 96 63.5 162t169.5 77v318l66 15v-332q109 -7 171 -67.5t62 -157.5q0 -98 -63.5 -164.5t-169.5 -78.5v-231zM126 223q0 -86 42 -133.5t118 -55.5v375q-160 -16 -160 -186zM511 223q0 86 -41.5 132t-117.5 54v-376
q159 18 159 190z" />
    <glyph glyph-name="afii10087" unicode="&#x445;" horiz-adv-x="451" 
d="M353 443h71l-167 -210l179 -233h-80l-135 185l-139 -185h-68l177 225l-166 218h83l120 -170z" />
    <glyph glyph-name="afii10088" unicode="&#x446;" horiz-adv-x="533" 
d="M513 -163h-59v163h-382v443h67v-393h215v393h66v-393h105z" />
    <glyph glyph-name="afii10089" unicode="&#x447;" horiz-adv-x="483" 
d="M411 0h-66v203q-33 -39 -77.5 -62t-86.5 -23q-118 0 -118 146v179h66v-162q0 -55 19.5 -80.5t65.5 -25.5q59 0 95 42.5t36 95.5v130h66v-443z" />
    <glyph glyph-name="afii10090" unicode="&#x448;" horiz-adv-x="759" 
d="M686 0h-614v443h67v-393h207v393h67v-393h207v393h66v-443z" />
    <glyph glyph-name="afii10091" unicode="&#x449;" horiz-adv-x="799" 
d="M779 -163h-58v163h-649v443h67v-393h207v393h67v-393h207v393h66v-393h105z" />
    <glyph glyph-name="afii10092" unicode="&#x44a;" horiz-adv-x="487" 
d="M6 443h190v-166q28 4 58 4q95 0 138.5 -36t43.5 -93q0 -63 -49 -107.5t-154 -44.5h-103v396l-124 -8v55zM196 235v-188q21 -3 40 -3q131 0 131 91q0 46 -29 73.5t-109 27.5q-21 0 -33 -1z" />
    <glyph glyph-name="afii10093" unicode="&#x44b;" horiz-adv-x="589" 
d="M72 443h66v-166q32 3 58 3q93 0 137.5 -36.5t44.5 -92.5q0 -66 -52 -108.5t-162 -42.5h-92v443zM138 234v-188q24 -2 37 -2q134 0 134 90q0 46 -29 74t-109 28q-9 0 -33 -2zM450 443h66v-443h-66v443z" />
    <glyph glyph-name="afii10094" unicode="&#x44c;" horiz-adv-x="430" 
d="M72 443h66v-166q32 3 58 3q93 0 137.5 -36.5t44.5 -92.5q0 -66 -52 -108.5t-162 -42.5h-92v443zM138 234v-188q26 -2 37 -2q134 0 134 90q0 46 -29 74t-109 28q-9 0 -33 -2z" />
    <glyph glyph-name="afii10095" unicode="&#x44d;" horiz-adv-x="441" 
d="M43 369v44q68 44 145 44q93 0 146.5 -60t53.5 -159q0 -109 -61.5 -180.5t-164.5 -71.5q-68 0 -119 19v70q61 -32 137 -32q65 0 103.5 47t40.5 119l-181 -6v57l179 -8q-8 69 -47.5 107.5t-107.5 38.5q-66 0 -124 -29z" />
    <glyph glyph-name="afii10096" unicode="&#x44e;" horiz-adv-x="707" 
d="M461 456q87 0 139.5 -60.5t52.5 -162.5q0 -105 -62.5 -176t-151.5 -71q-84 0 -136.5 61.5t-52.5 163.5v4h-112v-215h-66v442h66v-181h116q15 85 73.5 140t133.5 55zM447 406q-57 0 -92.5 -45t-35.5 -136t39.5 -140t96.5 -49q56 0 91 46t35 137q0 90 -39 138.5t-95 48.5z
" />
    <glyph glyph-name="afii10097" unicode="&#x44f;" horiz-adv-x="442" 
d="M7 -14l12 69q54 2 105 35t86 90q-62 4 -99.5 35.5t-37.5 84.5q0 56 47 99.5t126 43.5h123v-443h-66v189q-14 -3 -35 -7q-109 -177 -261 -196zM303 226v170q-20 2 -47 2q-112 0 -112 -87q0 -89 110 -89q17 0 49 4z" />
    <glyph glyph-name="afii10071" unicode="&#x451;" horiz-adv-x="462" 
d="M419 250h-302q-1 -7 -1 -22q0 -84 42 -134t123 -50q70 0 132 30v-45q-66 -43 -150 -43q-102 0 -156 58t-54 163q0 107 60 178.5t163 71.5q65 0 105.5 -43.5t40.5 -132.5q0 -4 -3 -31zM260 405q-52 0 -87 -30t-49 -82l232 9q0 103 -96 103zM346 622q17 0 28.5 -12
t11.5 -31t-11.5 -32.5t-28.5 -13.5t-28.5 13.5t-11.5 32.5t11.5 31t28.5 12zM180 622q17 0 28 -12t11 -31t-11 -32.5t-28 -13.5t-28.5 13t-11.5 33q0 19 11.5 31t28.5 12z" />
    <glyph glyph-name="afii10099" unicode="&#x452;" horiz-adv-x="501" 
d="M228 559h-89v-189q32 40 78.5 63.5t89.5 23.5q57 0 89 -36t32 -111v-303q0 -108 -44 -175.5t-133 -76.5l14 71q58 2 77.5 35t19.5 123v309q0 106 -89 106q-59 0 -96.5 -42.5t-37.5 -95.5v-261h-67v559h-56v41h56v173l67 15v-188h89v-41z" />
    <glyph glyph-name="afii10100" unicode="&#x453;" horiz-adv-x="349" 
d="M251 690h74l-129 -169l-39 4zM139 0h-67v443h271v-56l-204 9v-396z" />
    <glyph glyph-name="afii10101" unicode="&#x454;" horiz-adv-x="441" 
d="M278 456q69 0 120 -19v-70q-60 32 -138 32q-61 0 -98.5 -40.5t-44.5 -105.5l184 7v-57l-185 7q4 -77 44.5 -121.5t112.5 -44.5q65 0 125 29v-44q-66 -43 -145 -43q-94 0 -147.5 59.5t-53.5 158.5q0 108 61.5 180t164.5 72z" />
    <glyph glyph-name="afii10102" unicode="&#x455;" horiz-adv-x="374" 
d="M303 436v-62q-49 30 -100 30q-37 0 -58.5 -18.5t-21.5 -45.5q0 -26 20.5 -45t50 -31.5t59.5 -27t50.5 -40t20.5 -61.5q0 -67 -46 -108t-116 -41q-63 0 -103 21v66q52 -34 112 -34q42 0 65.5 20t23.5 57q0 25 -20.5 43.5t-50 32t-59 28.5t-50 40.5t-20.5 61.5
q0 56 43.5 95.5t111.5 39.5q51 0 88 -21z" />
    <glyph glyph-name="afii10103" unicode="&#x456;" horiz-adv-x="212" 
d="M74 432l66 15v-447h-66v432zM60 599q0 19 13.5 32t33.5 13q19 0 32 -13t13 -32q0 -20 -13 -33.5t-32 -13.5t-33 14t-14 33z" />
    <glyph glyph-name="afii10104" unicode="&#x457;" horiz-adv-x="210" 
d="M22 622q17 0 28 -12t11 -31t-11 -32.5t-28 -13.5t-28.5 13t-11.5 33q0 19 11.5 31t28.5 12zM188 622q17 0 28.5 -12t11.5 -31t-11.5 -32.5t-28.5 -13.5t-28.5 13.5t-11.5 32.5t11.5 31t28.5 12zM74 432l65 15v-447h-65v432z" />
    <glyph glyph-name="afii10105" unicode="&#x458;" horiz-adv-x="210" 
d="M73 432l66 15v-440q0 -107 -44 -175t-133 -77l14 72q58 2 77.5 35t19.5 123v447zM59 599q0 19 13.5 32t33.5 13q19 0 32 -13t13 -32q0 -20 -13 -33.5t-32 -13.5q-20 0 -33.5 14t-13.5 33z" />
    <glyph glyph-name="afii10106" unicode="&#x459;" horiz-adv-x="731" 
d="M165 443h275v-166q28 4 58 4q95 0 138.5 -36t43.5 -93q0 -63 -49 -107.5t-153 -44.5h-104v392h-142q-3 -191 -66.5 -293.5t-156.5 -112.5l15 72q138 4 141 385zM440 235v-188q21 -3 40 -3q131 0 131 91q0 46 -29 73.5t-109 27.5q-21 0 -33 -1z" />
    <glyph glyph-name="afii10107" unicode="&#x45a;" horiz-adv-x="711" 
d="M72 443h67v-171h215v171h66v-166q32 3 58 3q95 0 138 -35.5t43 -92.5q0 -63 -48.5 -107.5t-153.5 -44.5h-103v225h-215v-225h-67v443zM420 234v-187q21 -3 40 -3q131 0 131 91q0 46 -29 73t-109 27q-21 0 -33 -1z" />
    <glyph glyph-name="afii10108" unicode="&#x45b;" horiz-adv-x="501" 
d="M17 600h55v173l67 15v-188h90v-41h-90v-189q32 40 78.5 63.5t89.5 23.5q57 0 89 -36t32 -111v-310h-66v293q0 106 -89 106q-59 0 -96.5 -42.5t-37.5 -95.5v-261h-67v559h-55v41z" />
    <glyph glyph-name="afii10109" unicode="&#x45c;" horiz-adv-x="440" 
d="M289 690h74l-129 -169l-39 4zM139 0h-67v443h67v-443zM433 0h-89q-78 129 -201 230l181 213h83l-190 -198q112 -92 216 -245z" />
    <glyph glyph-name="afii10110" unicode="&#x45e;" horiz-adv-x="414" 
d="M286 638l58 -3q-1 -51 -34.5 -80.5t-88.5 -29.5q-56 0 -90 29t-35 80l60 3q1 -36 15 -55.5t50 -19.5t49.5 19.5t15.5 56.5zM6 443h74l133 -367l131 367h64l-176 -445q-51 -131 -106.5 -185.5t-151.5 -55.5l15 70q72 1 110.5 38t71.5 122l5 14z" />
    <glyph glyph-name="afii10193" unicode="&#x45f;" horiz-adv-x="494" 
d="M268 -167h-40l-17 167h-139v443h67v-397h216v397h66v-443h-139z" />
    <glyph glyph-name="afii10050" unicode="&#x490;" horiz-adv-x="477" 
d="M158 0h-74v690h324l19 101h40v-163l-309 9v-637z" />
    <glyph glyph-name="afii10098" unicode="&#x491;" horiz-adv-x="349" 
d="M72 443h215l18 99h38v-155l-205 9v-396h-66v443z" />
    <glyph glyph-name="Wgrave" unicode="&#x1e80;" horiz-adv-x="964" 
d="M14 690h85l177 -591l177 591h65l188 -591l172 591h72l-224 -690h-66l-187 573l-174 -573h-66zM365 874h72l94 -154l-34 -4z" />
    <glyph glyph-name="wgrave" unicode="&#x1e81;" horiz-adv-x="675" 
d="M6 443h74l116 -363l123 363h49l125 -363l112 363h64l-157 -443h-56l-121 345l-123 -345h-55zM227 690h74l94 -165l-38 -4z" />
    <glyph glyph-name="Wacute" unicode="&#x1e82;" horiz-adv-x="964" 
d="M14 690h85l177 -591l177 591h65l188 -591l172 591h72l-224 -690h-66l-187 573l-174 -573h-66zM529 874h72l-132 -158l-34 4z" />
    <glyph glyph-name="wacute" unicode="&#x1e83;" horiz-adv-x="675" 
d="M6 443h74l116 -363l123 363h49l125 -363l112 363h64l-157 -443h-56l-121 345l-123 -345h-55zM360 690h74l-129 -169l-39 4z" />
    <glyph glyph-name="Wdieresis" unicode="&#x1e84;" horiz-adv-x="964" 
d="M14 690h85l177 -591l177 591h65l188 -591l172 591h72l-224 -690h-66l-187 573l-174 -573h-66zM359 780q0 16 11.5 28t28.5 12t29.5 -12t12.5 -28q0 -17 -12.5 -29.5t-29.5 -12.5q-16 0 -28 12.5t-12 29.5zM529 780q0 16 12 28t29 12t29.5 -12t12.5 -28q0 -17 -12.5 -29.5
t-29.5 -12.5t-29 12.5t-12 29.5z" />
    <glyph glyph-name="wdieresis" unicode="&#x1e85;" horiz-adv-x="675" 
d="M6 443h74l116 -363l123 363h49l125 -363l112 363h64l-157 -443h-56l-121 345l-123 -345h-55zM254 622q17 0 28 -12t11 -31t-11 -32.5t-28 -13.5t-28.5 13t-11.5 33q0 19 11.5 31t28.5 12zM420 622q17 0 28.5 -12t11.5 -31t-11.5 -32.5t-28.5 -13.5t-28.5 13.5t-11.5 32.5
t11.5 31t28.5 12z" />
    <glyph glyph-name="Ygrave" unicode="&#x1ef2;" horiz-adv-x="594" 
d="M4 690h94l208 -331l205 331h78l-254 -385v-305h-74v300zM197 874h72l94 -154l-34 -4z" />
    <glyph glyph-name="ygrave" unicode="&#x1ef3;" horiz-adv-x="414" 
d="M6 443h74l133 -367l131 367h64l-176 -445q-51 -131 -106.5 -185.5t-151.5 -55.5l15 70q72 1 110.5 38t71.5 122l5 14zM108 690h74l94 -165l-38 -4z" />
    <glyph glyph-name="endash" unicode="&#x2013;" horiz-adv-x="617" 
d="M26 273h565v-52h-565v52z" />
    <glyph glyph-name="emdash" unicode="&#x2014;" horiz-adv-x="1012" 
d="M37 273h938v-52h-938v52z" />
    <glyph glyph-name="afii00208" unicode="&#x2015;" horiz-adv-x="1012" 
d="M37 273h938v-52h-938v52z" />
    <glyph glyph-name="quoteleft" unicode="&#x2018;" horiz-adv-x="227" 
d="M134 792l40 -5q-34 -112 -41 -218h-80q24 101 81 223z" />
    <glyph glyph-name="quoteright" unicode="&#x2019;" horiz-adv-x="227" 
d="M94 785h80q-21 -90 -81 -224l-40 6q33 106 41 218z" />
    <glyph glyph-name="quotesinglbase" unicode="&#x201a;" horiz-adv-x="227" 
d="M94 86h80q-22 -93 -81 -223l-40 5q33 106 41 218z" />
    <glyph glyph-name="quotedblleft" unicode="&#x201c;" horiz-adv-x="371" 
d="M278 792l39 -5q-34 -112 -41 -218h-79q24 101 81 223zM135 792l39 -5q-33 -110 -42 -218h-78q23 103 81 223z" />
    <glyph glyph-name="quotedblright" unicode="&#x201d;" horiz-adv-x="371" 
d="M95 785h79q-23 -98 -81 -224l-39 6q34 112 41 218zM239 785h78q-22 -97 -80 -224l-40 6q33 110 42 218z" />
    <glyph glyph-name="quotedblbase" unicode="&#x201e;" horiz-adv-x="371" 
d="M95 86h79q-24 -101 -81 -223l-39 5q34 112 41 218zM239 86h78q-23 -100 -80 -223l-40 5q33 110 42 218z" />
    <glyph glyph-name="dagger" unicode="&#x2020;" horiz-adv-x="563" 
d="M247 700h70l-7 -265l227 8v-70l-226 9l-5 -625h-47l-7 625l-226 -9v70l227 -8z" />
    <glyph glyph-name="daggerdbl" unicode="&#x2021;" horiz-adv-x="563" 
d="M247 700h70l-7 -265l227 8v-70l-226 9l-2 -214l188 8v-66l-188 10l-3 -363h-47l-4 363l-192 -10v66l191 -8l-2 214l-226 -9v70l227 -8z" />
    <glyph glyph-name="bullet" unicode="&#x2022;" horiz-adv-x="471" 
d="M56 276q0 75 52.5 127t127.5 52q74 0 126.5 -52t52.5 -127q0 -74 -52.5 -126.5t-126.5 -52.5t-127 52.5t-53 126.5z" />
    <glyph glyph-name="ellipsis" unicode="&#x2026;" horiz-adv-x="1003" 
d="M136 38q0 19 14 33t34 14t34 -13.5t14 -33.5t-14 -34.5t-34 -14.5q-19 0 -33.5 14.5t-14.5 34.5zM454 38q0 19 14 33t34 14t34 -13.5t14 -33.5t-14 -34.5t-34 -14.5q-19 0 -33.5 14.5t-14.5 34.5zM772 38q0 19 14 33t34 14t34 -13.5t14 -33.5t-14 -34.5t-34 -14.5
q-19 0 -33.5 14.5t-14.5 34.5z" />
    <glyph glyph-name="perthousand" unicode="&#x2030;" horiz-adv-x="1068" 
d="M197 700q74 0 111 -46t37 -121t-43.5 -125.5t-117.5 -50.5t-111 44.5t-37 119.5q0 76 43.5 127.5t117.5 51.5zM189 656q-90 0 -90 -127q0 -128 94 -128q89 0 89 125q0 62 -24 96t-69 34zM521 329q74 0 111 -46t37 -121t-43.5 -125.5t-117.5 -50.5t-111 45t-37 120
q0 76 43.5 127t117.5 51zM512 285q-89 0 -89 -127q0 -128 94 -128q88 0 88 125q0 130 -93 130zM884 329q74 0 111 -46t37 -121t-43.5 -125.5t-117.5 -50.5t-111 45t-37 120q0 76 43.5 127t117.5 51zM876 285q-90 0 -90 -127q0 -128 94 -128q89 0 89 125q0 62 -24 96t-69 34z
M577 690h64l-512 -690h-64z" />
    <glyph glyph-name="minute" unicode="&#x2032;" horiz-adv-x="173" 
d="M52 785h78l-38 -207h-44z" />
    <glyph glyph-name="second" unicode="&#x2033;" horiz-adv-x="305" 
d="M52 785h78l-38 -207h-44zM184 785h78l-39 -207h-43z" />
    <glyph glyph-name="guilsinglleft" unicode="&#x2039;" horiz-adv-x="331" 
d="M47 263l217 158l20 -40l-165 -143l165 -143l-20 -42l-217 158v52z" />
    <glyph glyph-name="guilsinglright" unicode="&#x203a;" horiz-adv-x="331" 
d="M67 421l217 -159v-52l-217 -157l-20 40l165 143l-165 143z" />
    <glyph glyph-name="fraction" unicode="&#x2044;" horiz-adv-x="136" 
d="M292 690h64l-512 -690h-64z" />
    <glyph glyph-name="fraction" unicode="&#x2215;" horiz-adv-x="136" 
d="M292 690h64l-512 -690h-64z" />
    <glyph glyph-name="Euro" unicode="&#x20ac;" 
d="M30 450h74q27 112 96.5 181t166.5 69q67 0 114 -21v-80q-54 36 -130 36q-150 0 -180 -185h202l-10 -48h-198q-1 -16 -1 -50q0 -18 2 -48h180l-10 -48h-166q15 -96 63.5 -149.5t133.5 -53.5q61 0 114 32v-53q-58 -46 -137 -46q-111 0 -175 71.5t-77 198.5h-62v48h59v17
q0 41 6 81h-65v48z" />
    <glyph glyph-name="afii61352" unicode="&#x2116;" horiz-adv-x="1072" 
d="M84 690h95l340 -540v540h59v-690h-49l-385 614v-614h-60v690zM662 201h325v-47h-325v47zM829 654q-56 0 -90.5 -36.5t-34.5 -107.5q0 -73 34.5 -112t91.5 -39q56 0 90 35.5t34 107.5t-34.5 112t-90.5 40zM838 699q79 0 124.5 -51t45.5 -132q0 -86 -53.5 -144.5
t-136.5 -58.5q-79 0 -123 50.5t-44 132.5q0 85 53 144t134 59z" />
    <glyph glyph-name="trademark" unicode="&#x2122;" horiz-adv-x="599" 
d="M36 690h190v-42l-73 6v-184h-45v184l-72 -6v42zM268 690h60l60 -162l63 162h59l16 -220h-49l-10 163l-62 -160h-39l-63 161l-9 -164h-44z" />
    <glyph glyph-name="estimated" unicode="&#x212e;" horiz-adv-x="654" 
d="M615 394h-490q-2 -14 -2 -42q0 -141 73.5 -222.5t201.5 -81.5q106 0 196 44v-52q-93 -54 -222 -54q-158 0 -239 88t-81 251q0 104 36.5 187.5t114.5 136t186 52.5q101 0 165 -67.5t64 -202.5q0 -10 -3 -37zM363 649q-89 0 -150.5 -60.5t-81.5 -154.5l410 11q0 37 -9 71
t-29 65t-56 49.5t-84 18.5z" />
    <glyph glyph-name="onethird" unicode="&#x2153;" horiz-adv-x="694" 
d="M559 690h64l-512 -690h-64zM36 648l139 47v-359h51v-36h-157v36h57v301l-90 -33v44zM441 330v50q50 13 100 13q49 0 77 -21.5t28 -63.5q0 -62 -69 -95q37 -12 59 -37.5t22 -61.5q0 -53 -38 -87.5t-96 -34.5q-49 0 -83 14v55q52 -25 90 -25q74 0 74 65q0 35 -27 59.5
t-71 24.5q-9 0 -31 -2v40q52 0 85 17t33 53q0 27 -17.5 43t-47.5 16q-42 0 -88 -22z" />
    <glyph glyph-name="twothirds" unicode="&#x2154;" horiz-adv-x="721" 
d="M599 690h64l-512 -690h-64zM108 520l-46 -29q-22 41 -22 75q0 53 36 90t92 37q44 0 73.5 -28t29.5 -81q0 -58 -47.5 -123.5t-123.5 -120.5l174 6v-46h-238v31q180 131 180 240q0 39 -20 59t-48 20q-27 0 -45 -18.5t-18 -47.5q0 -34 23 -64zM468 330v50q50 13 100 13
q49 0 77 -21.5t28 -63.5q0 -62 -69 -95q37 -12 59 -37.5t22 -61.5q0 -53 -38 -87.5t-96 -34.5q-49 0 -83 14v55q52 -25 90 -25q74 0 74 65q0 35 -27 59.5t-71 24.5q-9 0 -31 -2v40q52 0 85 17t33 53q0 27 -17.5 43t-47.5 16q-42 0 -88 -22z" />
    <glyph glyph-name="oneeighth" unicode="&#x215b;" horiz-adv-x="679" 
d="M558 690h64l-512 -690h-64zM46 648l139 47v-359h51v-36h-157v36h57v301l-90 -33v44zM481 195q-68 38 -68 90q0 49 37 78.5t86 29.5q40 0 66.5 -21.5t26.5 -62.5q0 -33 -19.5 -56t-54.5 -46q41 -23 64 -47.5t23 -59.5q0 -49 -40.5 -78.5t-94.5 -29.5q-46 0 -76.5 23
t-30.5 68q0 58 81 112zM508 178q-56 -44 -56 -87q0 -30 20 -45.5t50 -15.5q29 0 49 15t20 45q0 20 -14 37.5t-28 26.5t-41 24zM526 225q58 37 58 76q0 27 -17 40.5t-43 13.5t-44 -14.5t-18 -41.5q0 -36 64 -74z" />
    <glyph glyph-name="threeeighths" unicode="&#x215c;" horiz-adv-x="667" 
d="M550 690h64l-512 -690h-64zM469 195q-68 38 -68 90q0 49 37 78.5t86 29.5q40 0 66.5 -21.5t26.5 -62.5q0 -33 -19.5 -56t-54.5 -46q41 -23 64 -47.5t23 -59.5q0 -49 -40.5 -78.5t-94.5 -29.5q-46 0 -76.5 23t-30.5 68q0 58 81 112zM496 178q-56 -44 -56 -87
q0 -30 20 -45.5t50 -15.5q29 0 49 15t20 45q0 20 -14 37.5t-28 26.5t-41 24zM514 225q58 37 58 76q0 27 -17 40.5t-43 13.5t-44 -14.5t-18 -41.5q0 -36 64 -74zM46 630v50q50 13 100 13q49 0 77 -21.5t28 -63.5q0 -62 -69 -95q37 -12 59 -37.5t22 -61.5q0 -53 -38 -87.5
t-96 -34.5q-49 0 -83 14v55q52 -25 90 -25q74 0 74 65q0 35 -27 59.5t-71 24.5q-9 0 -31 -2v40q52 0 85 17t33 53q0 27 -17.5 43t-47.5 16q-42 0 -88 -22z" />
    <glyph glyph-name="fiveeighths" unicode="&#x215d;" horiz-adv-x="676" 
d="M548 690h64l-512 -690h-64zM83 687l178 8v-48h-137l-4 -65q73 -11 108.5 -46.5t35.5 -85.5q0 -62 -50.5 -110t-137.5 -48l3 45q138 0 138 95q0 45 -35 75t-108 30zM479 195q-68 38 -68 90q0 49 37 78.5t86 29.5q40 0 66.5 -21.5t26.5 -62.5q0 -33 -19.5 -56t-54.5 -46
q41 -23 64 -47.5t23 -59.5q0 -49 -40.5 -78.5t-94.5 -29.5q-46 0 -76.5 23t-30.5 68q0 58 81 112zM506 178q-56 -44 -56 -87q0 -30 20 -45.5t50 -15.5q29 0 49 15t20 45q0 20 -14 37.5t-28 26.5t-41 24zM524 225q58 37 58 76q0 27 -17 40.5t-43 13.5t-44 -14.5t-18 -41.5
q0 -36 64 -74z" />
    <glyph glyph-name="seveneighths" unicode="&#x215e;" horiz-adv-x="673" 
d="M548 690h64l-512 -690h-64zM476 195q-68 38 -68 90q0 49 37 78.5t86 29.5q40 0 66.5 -21.5t26.5 -62.5q0 -33 -19.5 -56t-54.5 -46q41 -23 64 -47.5t23 -59.5q0 -49 -40.5 -78.5t-94.5 -29.5q-46 0 -76.5 23t-30.5 68q0 58 81 112zM503 178q-56 -44 -56 -87
q0 -30 20 -45.5t50 -15.5q29 0 49 15t20 45q0 20 -14 37.5t-28 26.5t-41 24zM521 225q58 37 58 76q0 27 -17 40.5t-43 13.5t-44 -14.5t-18 -41.5q0 -36 64 -74zM86 687h248v-35l-146 -359l-33 9l120 346l-189 -7v46z" />
    <glyph glyph-name="arrowleft" unicode="&#x2190;" horiz-adv-x="837" 
d="M330 17l-264 263l265 264l62 -34l-235 -206h614v-48h-613l234 -206z" />
    <glyph glyph-name="arrowup" unicode="&#x2191;" horiz-adv-x="659" 
d="M66 370l264 264l263 -264l-33 -64l-205 235v-613h-50v612l-205 -234z" />
    <glyph glyph-name="arrowright" unicode="&#x2192;" horiz-adv-x="837" 
d="M507 543l264 -263l-264 -264l-64 33l236 206h-614v49h615l-236 205z" />
    <glyph glyph-name="arrowdown" unicode="&#x2193;" horiz-adv-x="660" 
d="M594 191l-264 -263l-265 263l35 62l205 -234v614h50v-615l205 235z" />
    <glyph glyph-name="arrowboth" unicode="&#x2194;" horiz-adv-x="880" 
d="M814 280l-264 -263l-64 33l235 206h-562l236 -206l-65 -33l-264 263l264 263l64 -33l-236 -206h563l-235 206l64 33z" />
    <glyph glyph-name="arrowupdn" unicode="&#x2195;" horiz-adv-x="660" 
d="M331 -93l-265 264l35 62l205 -235v563l-205 -235l-34 64l264 264l263 -264l-34 -64l-205 235v-563l205 235l35 -62z" />
    <glyph glyph-name="arrowupdnbse" unicode="&#x21a8;" horiz-adv-x="659" 
d="M330 -10l-264 264l34 64l205 -235v561l-205 -234l-34 64l264 264l263 -264l-33 -64l-205 235v-563l205 236l33 -64zM76 -51h507v-49h-507v49z" />
    <glyph glyph-name="partialdiff" unicode="&#x2202;" horiz-adv-x="543" 
d="M256 771l69 26q67 -80 116.5 -219.5t49.5 -270.5q0 -170 -63 -245.5t-169 -75.5q-96 0 -151 63t-55 167q0 105 63.5 173t160.5 68q102 0 153 -72q-11 96 -59 205.5t-115 180.5zM275 407q-68 0 -109.5 -46.5t-41.5 -138.5q0 -93 40 -139.5t109 -46.5q67 0 107 51t40 148
q0 172 -145 172z" />
    <glyph glyph-name="product" unicode="&#x220f;" horiz-adv-x="664" 
d="M84 690h498v-690h-74v638h-350v-638h-74v690z" />
    <glyph glyph-name="summation" unicode="&#x2211;" horiz-adv-x="618" 
d="M64 690h499v-64l-407 10l208 -267l-232 -316l443 11v-64h-532v51l233 318l-212 270v51z" />
    <glyph glyph-name="minus" unicode="&#x2212;" 
d="M24 273h463v-52h-463v52z" />
    <glyph glyph-name="radical" unicode="&#x221a;" horiz-adv-x="604" 
d="M6 458h151l113 -376l178 608h159v-50h-110l-200 -640h-67l-130 407h-94v51z" />
    <glyph glyph-name="infinity" unicode="&#x221e;" horiz-adv-x="743" 
d="M571 527q71 -1 107 -45.5t36 -114.5q0 -83 -50 -147t-133 -64q-57 0 -94.5 36t-74.5 102q-46 -66 -89.5 -102t-102.5 -36q-71 0 -106 44t-35 115q0 84 49.5 148t131.5 64q56 0 93.5 -36.5t77.5 -104.5q46 68 88 104.5t102 36.5zM186 218q47 0 83.5 28.5t73.5 81.5
q-19 33 -31.5 52t-32 41t-42 32t-49.5 10q-52 0 -82 -36.5t-30 -88.5t28 -86t82 -34zM555 466q-44 0 -79 -29.5t-75 -85.5q37 -64 70.5 -97.5t81.5 -33.5q53 0 83.5 36.5t30.5 88.5t-29 86.5t-83 34.5z" />
    <glyph glyph-name="integral" unicode="&#x222b;" horiz-adv-x="487" 
d="M393 787v-67q-15 4 -32 4q-48 0 -72 -34t-24 -91v-592q0 -107 -44 -175t-133 -77l14 72q58 2 77.5 35t19.5 123v587q0 94 46 155t126 61q3 0 11 -0.5t11 -0.5z" />
    <glyph glyph-name="approxequal" unicode="&#x2248;" 
d="M90 287l-33 5q9 52 34.5 88t70.5 36q31 0 69 -26t73 -52t59 -26q53 0 59 75l32 -4q-6 -54 -32.5 -88.5t-71.5 -34.5q-30 0 -67 26.5t-71.5 53t-57.5 26.5q-55 0 -64 -79zM90 108l-33 5q9 52 34.5 88t70.5 36q31 0 69 -26t73 -52t59 -26q53 0 59 75l32 -3
q-6 -54 -32.5 -88.5t-71.5 -34.5q-23 0 -52 16.5t-51 36t-48 36t-45 16.5q-55 0 -64 -79z" />
    <glyph glyph-name="notequal" unicode="&#x2260;" 
d="M24 179h161l98 136h-259v51h295l72 99h55l-72 -99h113v-51h-149l-98 -136h247v-52h-285l-80 -112h-55l80 112h-123v52z" />
    <glyph glyph-name="lessequal" unicode="&#x2264;" 
d="M57 374l372 210l16 -37l-309 -190l309 -190l-16 -40l-372 212v35zM24 52h463v-52h-463v52z" />
    <glyph glyph-name="greaterequal" unicode="&#x2265;" 
d="M74 584l371 -211v-35l-371 -211l-17 38l309 190l-309 190zM24 52h463v-52h-463v52z" />
    <glyph glyph-name="lozenge" unicode="&#x25ca;" horiz-adv-x="459" 
d="M207 701h59l167 -441l-182 -443h-58l-167 440zM229 623l-136 -363l137 -365l136 363z" />
    <glyph glyph-name="dotlessj" unicode="&#xf6be;" horiz-adv-x="209" 
d="M73 432l65 15v-440q0 -107 -43.5 -175t-132.5 -77l14 70q58 2 77.5 35.5t19.5 124.5v447z" />
    <glyph glyph-name="commaaccent" unicode="&#xf6c3;" horiz-adv-x="210" 
d="M88 -58h70q-18 -91 -72 -168l-32 10q26 59 34 158z" />
    <glyph glyph-name="Acute" unicode="&#xf6c9;" horiz-adv-x="276" 
d="M150 874h72l-132 -158l-34 4z" />
    <glyph glyph-name="Caron" unicode="&#xf6ca;" horiz-adv-x="355" 
d="M151 718l-96 156l35 4l91 -107l90 107l33 -4l-97 -156h-56z" />
    <glyph glyph-name="Dieresis" unicode="&#xf6cb;" horiz-adv-x="352" 
d="M52 780q0 16 12 28t28 12q17 0 29.5 -12t12.5 -28q0 -17 -12.5 -29.5t-29.5 -12.5q-16 0 -28 12.5t-12 29.5zM222 780q0 16 12 28t29 12t29.5 -12t12.5 -28q0 -17 -12.5 -29.5t-29.5 -12.5t-29 12.5t-12 29.5z" />
    <glyph glyph-name="Grave" unicode="&#xf6ce;" horiz-adv-x="275" 
d="M57 874h72l94 -154l-34 -4z" />
    <glyph glyph-name="Hungarumlaut" unicode="&#xf6cf;" horiz-adv-x="387" 
d="M139 874h62l-113 -145l-32 3zM269 874h62l-113 -145l-32 3z" />
    <glyph glyph-name="Macron" unicode="&#xf6d0;" horiz-adv-x="314" 
d="M52 797h214v-41h-214v41z" />
    <glyph glyph-name="Etilde" horiz-adv-x="516" 
d="M84 690h383v-62l-309 9v-255l261 10v-63l-261 9v-285l309 9v-62h-383v690zM168 725l-27 4q4 48 26 78.5t59 30.5q30 0 70 -31t64 -31q40 0 47 62l27 -2q-4 -51 -26 -79.5t-59 -28.5q-28 0 -66.5 30.5t-62.5 30.5q-49 0 -52 -64z" />
    <glyph glyph-name="etilde" horiz-adv-x="462" 
d="M419 250h-302q-1 -7 -1 -22q0 -84 42 -134t123 -50q70 0 132 30v-45q-66 -43 -150 -43q-102 0 -156 58t-54 163q0 107 60 178.5t163 71.5q65 0 105.5 -43.5t40.5 -132.5q0 -4 -3 -31zM260 405q-52 0 -87 -30t-49 -82l232 9q0 103 -96 103zM158 531l-30 4q7 46 29 75
t58 29q19 0 34.5 -10.5t24.5 -23.5t21.5 -23.5t26.5 -10.5q36 0 43 59l28 -2q-6 -50 -28.5 -76.5t-57.5 -26.5q-18 0 -32.5 11t-23 23.5t-20.5 23.5t-26 11q-42 0 -47 -63z" />
    <glyph glyph-name="gacute" horiz-adv-x="510" 
d="M140 153q-73 41 -73 133q0 73 52.5 122t132.5 49q45 0 81 -14h163v-55l-107 11q27 -39 27 -97q0 -71 -55 -120.5t-133 -49.5q-29 0 -58 7q-21 -12 -33.5 -31t-12.5 -35q0 -34 52 -34q25 0 85.5 2.5t95.5 2.5q71 0 103.5 -24t32.5 -76q0 -90 -86.5 -145t-211.5 -55
q-80 0 -125 25.5t-45 72.5q0 39 32.5 80t78.5 61q-81 7 -81 63q0 27 22.5 56.5t62.5 50.5zM181 -18q-32 -13 -57 -43.5t-25 -65.5q0 -40 28.5 -56.5t101.5 -16.5q84 0 139.5 33.5t55.5 83.5q0 34 -20 52t-68 18q-22 0 -74 -2.5t-81 -2.5zM241 410q-49 0 -77.5 -30t-28.5 -86
t29 -87t77 -31q50 0 78.5 30t28.5 88q0 57 -28.5 86.5t-78.5 29.5zM285 690h74l-129 -169l-39 4z" />
    <glyph glyph-name="iacute_jacute" horiz-adv-x="411" 
d="M74 432l66 15v-447h-66v432zM273 432l67 15v-440q0 -107 -44.5 -175t-133.5 -77l14 72q58 2 77.5 34.5t19.5 123.5v447zM354 690h74l-129 -169l-39 4zM148 690h74l-129 -169l-39 4z" />
    <glyph glyph-name="zero.slash" 
d="M260 700q105 0 158 -98t53 -256q0 -152 -60.5 -256t-159.5 -104q-105 0 -158 97t-53 253q0 154 60.5 259t159.5 105zM254 650q-51 0 -86 -50l193 -480q34 78 34 214q0 139 -38.5 227.5t-102.5 88.5zM256 35q48 0 82 44l-192 480q-32 -78 -32 -212q0 -138 38.5 -225
t103.5 -87z" />
    <glyph glyph-name="zero.tab" 
d="M260 700q105 0 158 -98t53 -256q0 -152 -60.5 -256t-159.5 -104q-105 0 -158 97t-53 253q0 154 60.5 259t159.5 105zM254 650q-62 0 -101 -76.5t-39 -226.5q0 -138 38.5 -225t103.5 -87q62 0 100.5 74.5t38.5 224.5q0 139 -38.5 227.5t-102.5 88.5z" />
    <glyph glyph-name="one.tab" 
d="M172 48h101v578l-154 -61v59l222 78v-654h90v-48h-259v48z" />
    <glyph glyph-name="two.tab" 
d="M279 700q75 0 126 -49t51 -142q0 -110 -92.5 -233.5t-237.5 -224.5l336 14v-65h-409v44q164 119 244.5 232.5t80.5 211.5q0 76 -38 116t-92 40t-89.5 -37.5t-35.5 -93.5q0 -59 41 -116l-70 -44q-32 60 -32 125q0 92 61 157t156 65z" />
    <glyph glyph-name="three.tab" 
d="M74 611v68q73 21 169 21q82 0 129.5 -36.5t47.5 -108.5q0 -59 -39 -104.5t-107 -73.5q74 -17 121 -63.5t47 -115.5q0 -91 -65.5 -151.5t-165.5 -60.5q-81 0 -137 23v76q69 -39 153 -39q66 0 104 33t38 98q0 67 -51.5 114.5t-136.5 47.5q-23 0 -45 -2v52q94 0 154 34
t60 104q0 55 -35.5 87t-95.5 32q-80 0 -145 -35z" />
    <glyph glyph-name="four.tab" 
d="M304 690h84v-442l96 3v-55h-96v-196h-67v196h-290v32zM95 242l226 4v380z" />
    <glyph glyph-name="five.tab" 
d="M102 435l18 255l298 12v-66h-246l-8 -138q131 -18 195 -83.5t64 -155.5q0 -52 -20.5 -100t-58 -87t-98.5 -62.5t-136 -23.5l4 63q247 0 247 179q0 85 -67 146t-192 61z" />
    <glyph glyph-name="six.tab" 
d="M318 700q60 0 107 -19v-72q-62 31 -124 31q-79 0 -123.5 -63.5t-54.5 -175.5q76 50 154 50q80 0 131.5 -56.5t51.5 -153.5q0 -111 -59.5 -183t-147.5 -72q-194 0 -194 306q0 176 69 292t190 116zM237 398q-59 0 -116 -35v-29q0 -140 38 -215.5t112 -75.5q56 0 89 44
t33 129q0 88 -43.5 135t-112.5 47z" />
    <glyph glyph-name="seven.tab" 
d="M50 690h425v-49l-258 -650l-40 9l217 637l-344 -11v64z" />
    <glyph glyph-name="eight.tab" 
d="M441 557q0 -61 -36.5 -101.5t-107.5 -86.5q40 -23 62.5 -38.5t50.5 -40t41 -53t13 -62.5q0 -86 -70 -137.5t-164 -51.5q-79 0 -130.5 39.5t-51.5 117.5q0 64 40 109.5t115 94.5q-63 36 -97 73t-34 92q0 85 62.5 136.5t147.5 51.5q69 0 114 -36t45 -107zM392 155
q0 31 -12 56.5t-38.5 47.5t-47 35t-59.5 35q-55 -38 -85.5 -77.5t-30.5 -95.5q0 -58 39 -89t99 -31q58 0 96.5 30.5t38.5 88.5zM137 539q0 -46 32.5 -80t95.5 -71q55 38 84.5 73.5t29.5 80.5q0 54 -33 82t-85 28t-88 -30t-36 -83z" />
    <glyph glyph-name="nine.tab" 
d="M260 700q104 0 152 -70.5t48 -185.5q0 -69 -19.5 -137t-59.5 -131.5t-108 -113.5t-156 -76l-16 37q108 33 175.5 105t95.5 167q-74 -48 -153 -48q-78 0 -129 52.5t-51 152.5q0 102 64 175t157 73zM257 297q63 0 124 38q9 45 9 90q0 103 -38.5 162t-116.5 59
q-59 0 -94.5 -43.5t-35.5 -123.5q0 -90 42.5 -136t109.5 -46z" />
    <glyph glyph-name="dollar.tab" 
d="M286 700q80 0 127 -19v-80q-62 33 -139 36v-246q33 -17 51 -27.5t45.5 -30.5t41.5 -38.5t25 -46t11 -58.5q0 -73 -48.5 -128t-125.5 -71v-104h-47v99h-6q-88 0 -149 23v81q67 -35 155 -39v282q-38 21 -59.5 34.5t-47.5 36t-38 49.5t-12 60q0 67 41.5 116.5t115.5 64.5v94
h47v-88h12zM383 169q0 44 -28 75.5t-81 62.5v-253q48 8 78.5 37.5t30.5 77.5zM134 536q0 -38 24 -65.5t69 -53.5v219q-43 -7 -68 -32.5t-25 -67.5z" />
    <glyph glyph-name="cent.tab" 
d="M424 635v-70q-51 26 -106 31v-353q57 5 106 28v-44q-50 -33 -106 -41v-149h-49v147q-90 3 -140.5 62t-50.5 156q0 98 51.5 167t139.5 82v134h50q0 -22 -0.5 -66t-0.5 -65q63 -3 106 -19zM142 425q0 -73 33 -121.5t94 -58.5v352q-60 -7 -93.5 -54.5t-33.5 -117.5z" />
    <glyph glyph-name="sterling.tab" 
d="M67 385h39q-12 67 -12 120q0 85 58.5 140t157.5 55q80 0 127 -19v-79q-70 37 -150 37q-55 0 -87.5 -28t-32.5 -84q0 -53 17 -142h165v-51h-156q9 -54 12 -93t-6 -90.5t-33 -97.5l279 9v-62h-353q21 30 32.5 65t15 62t-1 70.5t-8.5 65t-14 71.5h-49v51z" />
    <glyph glyph-name="yen.tab" 
d="M4 690h84l176 -330l178 330h67l-194 -346h144v-51h-164v-98h164v-51h-164v-144h-73v144h-166v51h166v98h-166v51h142z" />
    <glyph glyph-name="florin.tab" 
d="M408 392h-130v-385q0 -107 -44 -175t-133 -77l14 70q58 2 77.5 35.5t19.5 124.5v407h-80v51h80v129q0 94 47 155t127 61q3 0 11 -0.5t11 -0.5v-65q-16 4 -32 4q-49 0 -73.5 -34t-24.5 -91v-158h130v-51z" />
    <glyph glyph-name="Euro.tab" 
d="M30 450h74q27 112 96.5 181t166.5 69q67 0 114 -21v-80q-54 36 -130 36q-150 0 -180 -185h202l-10 -48h-198q-1 -16 -1 -50q0 -18 2 -48h180l-10 -48h-166q15 -96 63.5 -149.5t133.5 -53.5q61 0 114 32v-53q-58 -46 -137 -46q-111 0 -175 71.5t-77 198.5h-62v48h59v17
q0 41 6 81h-65v48z" />
    <glyph glyph-name="numbersign.tab" 
d="M24 253h106v191h-106v52h106v194h60v-194h130v194h60v-194h107v-52h-107v-191h107v-52h-107v-201h-60v201h-130v-201h-60v201h-106v52zM190 444v-191h130v191h-130z" />
    <glyph glyph-name="zero.oldstyle" horiz-adv-x="518" 
d="M268 505q93 0 145 -72t52 -182q0 -112 -59.5 -188.5t-156.5 -76.5q-94 0 -144.5 70t-50.5 179q0 112 59 191t155 79zM259 455q-65 0 -98 -56t-33 -155t32.5 -154t97.5 -55t98 54t33 153q0 100 -32.5 156.5t-97.5 56.5z" />
    <glyph glyph-name="one.oldstyle" horiz-adv-x="352" 
d="M36 429l219 76v-505h-68v429l-151 -59v59z" />
    <glyph glyph-name="two.oldstyle" horiz-adv-x="490" 
d="M266 505q79 0 121 -35.5t42 -103.5q0 -83 -78 -165t-214 -148l302 12v-65h-389v41q166 94 235 164.5t69 136.5q0 58 -27 84.5t-87 26.5q-74 0 -98 -55t21 -122l-66 -39q-25 44 -22 91.5t23.5 86.5t65.5 64.5t102 25.5z" />
    <glyph glyph-name="three.oldstyle" horiz-adv-x="471" 
d="M47 416v67q71 21 173 21q82 0 127.5 -35t45.5 -108q0 -58 -39 -105t-108 -74q74 -17 120.5 -64t46.5 -116q0 -91 -67.5 -151t-165.5 -60q-77 0 -133 23v77q71 -40 149 -40q62 0 103 35t41 96q0 68 -54 114.5t-151 46.5q-17 0 -26 -1v52q94 0 153.5 35t59.5 105
q0 116 -126 116q-85 0 -149 -34z" />
    <glyph glyph-name="four.oldstyle" horiz-adv-x="484" 
d="M287 491h85v-439l95 3v-55h-95v-205h-67v205h-290v32zM79 46l226 4v380z" />
    <glyph glyph-name="five.oldstyle" horiz-adv-x="435" 
d="M62 234l18 255l298 12v-65h-242l-8 -139q127 -19 191 -85t64 -155q0 -111 -85 -192t-229 -81l5 64q245 0 245 179q0 86 -66 146.5t-191 60.5z" />
    <glyph glyph-name="six.oldstyle" horiz-adv-x="513" 
d="M298 640q-80 0 -125 -64t-54 -177q79 50 156 50q79 0 129.5 -56t50.5 -153q0 -102 -58.5 -178t-144.5 -76q-97 0 -146 82t-49 228q0 175 68.5 289.5t189.5 114.5q59 0 107 -19v-72q-62 31 -124 31zM240 398q-62 0 -123 -36v-26q0 -135 40 -212.5t113 -77.5q55 0 87 45
t32 125q0 84 -40.5 133t-108.5 49z" />
    <glyph glyph-name="seven.oldstyle" horiz-adv-x="437" 
d="M18 491h401v-50l-245 -651l-41 9l205 639l-320 -12v65z" />
    <glyph glyph-name="eight.oldstyle" 
d="M439 557q0 -59 -36.5 -100.5t-105.5 -86.5q41 -25 62.5 -40t49.5 -40t41 -53.5t13 -61.5q0 -87 -69.5 -138t-163.5 -51q-79 0 -130 39.5t-51 117.5q0 63 40 109t115 96q-63 37 -96.5 74t-33.5 91q0 85 62 136t145 51q69 0 113.5 -36t44.5 -107zM392 155q0 30 -12 55.5
t-38 48t-47 36t-59 35.5q-56 -40 -86.5 -80t-30.5 -94q0 -58 39 -89t99 -31q58 0 96.5 30.5t38.5 88.5zM139 539q0 -45 32.5 -79t93.5 -71q54 38 83.5 73.5t29.5 79.5q0 54 -32.5 82t-83.5 28t-87 -30.5t-36 -82.5z" />
    <glyph glyph-name="nine.oldstyle" horiz-adv-x="513" 
d="M259 505q104 0 152 -71.5t48 -186.5q0 -148 -86 -277t-257 -179l-14 37q111 34 179 109t94 173q-74 -50 -156 -50q-77 0 -127 51.5t-50 150.5q0 102 62 172.5t155 70.5zM251 107q66 0 133 42q7 47 7 81q0 104 -36.5 164t-114.5 60q-59 0 -96 -46.5t-37 -126.5
q0 -87 39.5 -130.5t104.5 -43.5z" />
    <glyph glyph-name="zero.taboldstyle" 
d="M265 505q93 0 145 -72t52 -182q0 -112 -59.5 -188.5t-156.5 -76.5q-94 0 -144.5 70t-50.5 179q0 112 59 191t155 79zM256 455q-65 0 -98 -56t-33 -155t32.5 -154t97.5 -55t98 54t33 153q0 100 -32.5 156.5t-97.5 56.5z" />
    <glyph glyph-name="one.taboldstyle" 
d="M156 48h102v384l-155 -60v57l221 76v-457h90v-48h-258v48z" />
    <glyph glyph-name="two.taboldstyle" 
d="M271 505q79 0 121 -35.5t42 -103.5q0 -83 -78 -165t-214 -148l302 12v-65h-389v41q166 94 235 164.5t69 136.5q0 58 -27 84.5t-87 26.5q-74 0 -98 -55t21 -122l-66 -39q-25 44 -22 91.5t23.5 86.5t65.5 64.5t102 25.5z" />
    <glyph glyph-name="three.taboldstyle" 
d="M71 416v67q71 21 173 21q82 0 127.5 -35t45.5 -108q0 -58 -39 -105t-108 -74q74 -17 120.5 -64t46.5 -116q0 -91 -67.5 -151t-165.5 -60q-77 0 -133 23v77q71 -40 149 -40q62 0 103 35t41 96q0 68 -54 114.5t-151 46.5q-17 0 -26 -1v52q94 0 153.5 35t59.5 105
q0 116 -126 116q-85 0 -149 -34z" />
    <glyph glyph-name="four.taboldstyle" 
d="M301 491h85v-439l95 3v-55h-95v-205h-67v205h-290v32zM93 46l226 4v380z" />
    <glyph glyph-name="five.taboldstyle" 
d="M98 234l18 255l298 12v-65h-242l-8 -139q127 -19 191 -85t64 -155q0 -111 -85 -192t-229 -81l5 64q245 0 245 179q0 86 -66 146.5t-191 60.5z" />
    <glyph glyph-name="six.taboldstyle" 
d="M300 640q-80 0 -125 -64t-54 -177q79 50 156 50q79 0 129.5 -56t50.5 -153q0 -102 -58.5 -178t-144.5 -76q-97 0 -146 82t-49 228q0 175 68.5 289.5t189.5 114.5q59 0 107 -19v-72q-62 31 -124 31zM242 398q-62 0 -123 -36v-26q0 -135 40 -212.5t113 -77.5q55 0 87 45
t32 125q0 84 -40.5 133t-108.5 49z" />
    <glyph glyph-name="seven.taboldstyle" 
d="M61 491h401v-50l-245 -651l-41 9l205 639l-320 -12v65z" />
    <glyph glyph-name="eight.taboldstyle" 
d="M439 557q0 -59 -36.5 -100.5t-105.5 -86.5q41 -25 62.5 -40t49.5 -40t41 -53.5t13 -61.5q0 -87 -69.5 -138t-163.5 -51q-79 0 -130 39.5t-51 117.5q0 63 40 109t115 96q-63 37 -96.5 74t-33.5 91q0 85 62 136t145 51q69 0 113.5 -36t44.5 -107zM392 155q0 30 -12 55.5
t-38 48t-47 36t-59 35.5q-56 -40 -86.5 -80t-30.5 -94q0 -58 39 -89t99 -31q58 0 96.5 30.5t38.5 88.5zM139 539q0 -45 32.5 -79t93.5 -71q54 38 83.5 73.5t29.5 79.5q0 54 -32.5 82t-83.5 28t-87 -30.5t-36 -82.5z" />
    <glyph glyph-name="nine.taboldstyle" 
d="M259 505q104 0 152 -71.5t48 -186.5q0 -148 -86 -277t-257 -179l-14 37q111 34 179 109t94 173q-74 -50 -156 -50q-77 0 -127 51.5t-50 150.5q0 102 62 172.5t155 70.5zM251 107q66 0 133 42q7 47 7 81q0 104 -36.5 164t-114.5 60q-59 0 -96 -46.5t-37 -126.5
q0 -87 39.5 -130.5t104.5 -43.5z" />
    <glyph glyph-name="zero.small" horiz-adv-x="440" 
d="M225 505q83 0 125.5 -70t42.5 -186q0 -112 -49 -187.5t-128 -75.5q-84 0 -126.5 70.5t-42.5 185.5q0 114 49 188.5t129 74.5zM218 461q-46 0 -76.5 -55.5t-30.5 -159.5q0 -96 31 -156t80 -60q46 0 76 55.5t30 160.5q0 96 -30.5 155.5t-79.5 59.5z" />
    <glyph glyph-name="one.small" horiz-adv-x="317" 
d="M34 447l192 60v-507h-66v437l-126 -48v58z" />
    <glyph glyph-name="two.small" horiz-adv-x="413" 
d="M229 505q60 0 95.5 -35t35.5 -104q0 -82 -67 -166t-176 -155l252 10v-55h-323v38q246 169 246 313q0 52 -23.5 79t-61.5 27q-43 0 -65.5 -24.5t-22.5 -63.5q0 -38 21 -82l-60 -28q-15 41 -15 80q0 72 45 119t119 47z" />
    <glyph glyph-name="three.small" horiz-adv-x="413" 
d="M63 431v58q66 15 125 15q66 0 107.5 -25.5t41.5 -81.5q0 -82 -109 -126q57 -14 91 -48t34 -83q0 -69 -51 -111.5t-135 -42.5q-58 0 -104 16v63q63 -29 116 -29q47 0 77 24t30 68q0 51 -40.5 80.5t-110.5 29.5q-16 0 -24 -1v44q72 0 114.5 24.5t42.5 74.5q0 79 -92 79
q-60 0 -113 -28z" />
    <glyph glyph-name="four.small" horiz-adv-x="401" 
d="M237 491h72v-306l73 3v-48h-73v-140h-61v140h-226v29zM84 180l164 3v241z" />
    <glyph glyph-name="five.small" horiz-adv-x="378" 
d="M66 302l14 189l242 9v-54h-189l-7 -96q197 -27 197 -163q0 -85 -64.5 -143t-187.5 -58l5 54q188 0 188 125q0 58 -50 97.5t-148 39.5z" />
    <glyph glyph-name="six.small" horiz-adv-x="417" 
d="M256 505q50 0 89 -15v-60q-54 26 -100 26q-118 0 -137 -161q62 31 121 31q64 0 103.5 -40t39.5 -112q0 -75 -48 -131.5t-117 -56.5q-78 0 -118.5 60t-40.5 165q0 127 55 210.5t153 83.5zM197 280q-44 0 -92 -24v-18q0 -94 31 -149.5t85 -55.5q40 0 65.5 33.5t25.5 89.5
q0 61 -32.5 92.5t-82.5 31.5z" />
    <glyph glyph-name="seven.small" horiz-adv-x="373" 
d="M25 491h334v-45l-210 -454l-40 11l177 442l-261 -12v58z" />
    <glyph glyph-name="eight.small" horiz-adv-x="412" 
d="M224 505q56 0 94 -27t38 -79q0 -41 -28.5 -70.5t-82.5 -63.5q40 -22 63.5 -38t44 -44t20.5 -60q0 -63 -54 -100t-131 -37q-65 0 -106.5 30t-41.5 88q0 45 31 78.5t87 68.5q-46 26 -71.5 53.5t-25.5 67.5q0 63 47 98t116 35zM310 110q0 28 -19 52t-39.5 37t-59.5 34
q-89 -58 -89 -122q0 -40 28 -61.5t73 -21.5q44 0 75 21.5t31 60.5zM212 465q-40 0 -67 -20.5t-27 -57.5q0 -31 24.5 -54.5t69.5 -48.5q43 27 66 51.5t23 54.5q0 36 -25.5 55.5t-63.5 19.5z" />
    <glyph glyph-name="nine.small" horiz-adv-x="423" 
d="M87 18q78 20 132 68.5t79 114.5q-52 -25 -108 -25q-64 0 -107 38t-43 113q0 74 50.5 126t124.5 52q85 0 125 -52.5t40 -135.5q0 -107 -69 -201.5t-206 -132.5zM203 461q-46 0 -75.5 -34t-29.5 -88q0 -61 32.5 -90t83.5 -29q52 0 97 24q7 28 7 61q0 71 -28.5 113.5
t-86.5 42.5z" />
    <glyph glyph-name="zerosmall.tab" horiz-adv-x="396" 
d="M203 505q83 0 125.5 -70t42.5 -186q0 -112 -49 -187.5t-128 -75.5q-84 0 -126.5 70.5t-42.5 185.5q0 114 49 188.5t129 74.5zM196 461q-46 0 -76.5 -55.5t-30.5 -159.5q0 -96 31 -156t80 -60q46 0 76 55.5t30 160.5q0 96 -30.5 155.5t-79.5 59.5z" />
    <glyph glyph-name="onesmall.tab" horiz-adv-x="396" 
d="M89 48h101v389l-117 -44v54l183 59v-458h88v-48h-255v48z" />
    <glyph glyph-name="twosmall.tab" horiz-adv-x="396" 
d="M221 505q60 0 95.5 -35t35.5 -104q0 -82 -67 -166t-176 -155l252 10v-55h-323v38q246 169 246 313q0 52 -23.5 79t-61.5 27q-43 0 -65.5 -24.5t-22.5 -63.5q0 -38 21 -82l-60 -28q-15 41 -15 80q0 72 45 119t119 47z" />
    <glyph glyph-name="threesmall.tab" horiz-adv-x="396" 
d="M54 431v58q66 15 125 15q66 0 107.5 -25.5t41.5 -81.5q0 -82 -109 -126q57 -14 91 -48t34 -83q0 -69 -51 -111.5t-135 -42.5q-58 0 -104 16v63q63 -29 116 -29q47 0 77 24t30 68q0 51 -40.5 80.5t-110.5 29.5q-16 0 -24 -1v44q72 0 114.5 24.5t42.5 74.5q0 79 -92 79
q-60 0 -113 -28z" />
    <glyph glyph-name="foursmall.tab" horiz-adv-x="396" 
d="M238 491h72v-306l73 3v-48h-73v-140h-61v140h-226v29zM85 180l164 3v241z" />
    <glyph glyph-name="fivesmall.tab" horiz-adv-x="396" 
d="M75 302l14 189l242 9v-54h-189l-7 -96q197 -27 197 -163q0 -85 -64.5 -143t-187.5 -58l5 54q188 0 188 125q0 58 -50 97.5t-148 39.5z" />
    <glyph glyph-name="sixsmall.tab" horiz-adv-x="396" 
d="M244 505q50 0 89 -15v-60q-54 26 -100 26q-118 0 -137 -161q62 31 121 31q64 0 103.5 -40t39.5 -112q0 -75 -48 -131.5t-117 -56.5q-78 0 -118.5 60t-40.5 165q0 127 55 210.5t153 83.5zM185 280q-44 0 -92 -24v-18q0 -94 31 -149.5t85 -55.5q40 0 65.5 33.5t25.5 89.5
q0 61 -32.5 92.5t-82.5 31.5z" />
    <glyph glyph-name="sevensmall.tab" horiz-adv-x="396" 
d="M34 491h334v-45l-210 -454l-40 11l177 442l-261 -12v58z" />
    <glyph glyph-name="eightsmall.tab" horiz-adv-x="396" 
d="M216 505q56 0 94 -27t38 -79q0 -41 -28.5 -70.5t-82.5 -63.5q40 -22 63.5 -38t44 -44t20.5 -60q0 -63 -54 -100t-131 -37q-65 0 -106.5 30t-41.5 88q0 45 31 78.5t87 68.5q-46 26 -71.5 53.5t-25.5 67.5q0 63 47 98t116 35zM302 110q0 28 -19 52t-39.5 37t-59.5 34
q-89 -58 -89 -122q0 -40 28 -61.5t73 -21.5q44 0 75 21.5t31 60.5zM204 465q-40 0 -67 -20.5t-27 -57.5q0 -31 24.5 -54.5t69.5 -48.5q43 27 66 51.5t23 54.5q0 36 -25.5 55.5t-63.5 19.5z" />
    <glyph glyph-name="ninesmall.tab" horiz-adv-x="396" 
d="M75 18q78 20 132 68.5t79 114.5q-52 -25 -108 -25q-64 0 -107 38t-43 113q0 74 50.5 126t124.5 52q85 0 125 -52.5t40 -135.5q0 -107 -69 -201.5t-206 -132.5zM191 461q-46 0 -75.5 -34t-29.5 -88q0 -61 32.5 -90t83.5 -29q52 0 97 24q7 28 7 61q0 71 -28.5 113.5
t-86.5 42.5z" />
    <glyph glyph-name="co" horiz-adv-x="670" 
d="M559 690h64l-512 -690h-64zM304 686v-53q-41 22 -92 22q-42 0 -65.5 -29.5t-23.5 -75.5q0 -51 26 -82.5t72 -31.5q38 0 83 20v-36q-45 -29 -97 -29q-62 0 -97 39t-35 104q0 72 40.5 119t108.5 47q46 0 80 -14zM489 296q65 0 101.5 -39.5t36.5 -107.5q0 -70 -43 -116
t-109 -46q-64 0 -101 40t-37 108q0 69 43.5 115t108.5 46zM480 256q-90 0 -90 -112q0 -58 26.5 -88t68.5 -30q41 0 64.5 28t23.5 86q0 57 -25.5 86.5t-67.5 29.5z" />
    <glyph glyph-name="ac" horiz-adv-x="670" 
d="M560 690h64l-512 -690h-64zM241 550q-47 -12 -77 -36.5t-30 -51.5q0 -12 8.5 -19.5t21.5 -7.5q33 0 55 29t22 71v15zM199 700q52 0 72.5 -22.5t20.5 -72.5v-206h-35q-7 34 -10 46q-17 -24 -45 -39.5t-56 -15.5q-31 0 -48 16.5t-17 44.5q0 81 160 138q0 23 -0.5 31.5
t-5 20t-14 15t-27.5 3.5q-39 0 -99 -26v48q51 19 104 19zM588 282v-53q-41 22 -92 22q-42 0 -65.5 -29.5t-23.5 -75.5q0 -51 26 -82.5t72 -31.5q38 0 83 20v-36q-45 -29 -97 -29q-62 0 -97 39t-35 104q0 72 40.5 119t108.5 47q46 0 80 -14z" />
    <glyph glyph-name="litre" horiz-adv-x="322" 
d="M138 419q45 42 68.5 91t23.5 92q0 49 -29 49q-15 0 -25 -8.5t-19 -32t-13.5 -70.5t-5.5 -121zM74 60v387q0 114 38.5 183.5t101.5 69.5q32 0 51 -24.5t19 -65.5q0 -58 -40 -121t-107 -120v-283q0 -45 36 -45q44 0 76 32l21 -36q-54 -48 -117 -48q-79 0 -79 71z" />
    <glyph glyph-name="publish" horiz-adv-x="783" 
d="M283 538h113q72 0 110.5 -31t38.5 -78q0 -62 -42 -98t-117 -36q-22 0 -39 4v-141h-64v380zM347 494v-153q19 -3 36 -3q92 0 92 78q0 80 -97 80q-11 0 -31 -2zM410 700q141 0 226 -95.5t85 -248.5q0 -157 -96.5 -263.5t-245.5 -106.5q-147 0 -232.5 94.5t-85.5 251.5
q0 154 102 261t247 107zM401 648q-123 0 -199 -84.5t-76 -222.5q0 -136 74 -220.5t187 -84.5q121 0 196.5 84.5t75.5 224.5q0 146 -70 224.5t-188 78.5z" />
    <glyph glyph-name="ampersand.small" horiz-adv-x="587" 
d="M281 505q39 0 66 -22t27 -62q0 -36 -22 -67.5t-45.5 -49t-66.5 -43.5q44 -90 110 -153l120 215h71l-169 -234q60 -48 111 -48q53 0 90 17v-42q-42 -30 -103 -30q-66 0 -140 59q-78 -59 -161 -59q-54 0 -88.5 29.5t-34.5 79.5q0 52 33.5 90.5t92.5 74.5q-25 59 -25 107
q0 64 40 101t94 37zM308 65q-75 69 -121 162q-78 -53 -78 -110q0 -82 89 -82q60 0 110 30zM206 385q0 -41 20 -92q44 27 67 51t23 54q0 28 -13.5 43t-36.5 15q-27 0 -43.5 -18t-16.5 -53z" />
    <glyph glyph-name="at.small" horiz-adv-x="675" 
d="M516 492h60q43 -95 43 -192q0 -139 -80 -226.5t-248 -87.5q-111 0 -173 69t-62 167q0 111 79 197t213 86q112 0 112 -109v-260h-35l-15 66q-20 -34 -57.5 -56.5t-74.5 -22.5t-57.5 20.5t-20.5 53.5q0 109 203 178v21q0 39 -17.5 52.5t-53.5 13.5q-107 0 -164.5 -65.5
t-57.5 -155.5t55 -148.5t162 -58.5q119 0 180.5 64.5t61.5 174.5t-53 219zM403 288v43q-66 -14 -103 -46t-37 -69q0 -19 10.5 -30t29.5 -11q37 0 68.5 33t31.5 80z" />
    <glyph glyph-name="A.small" horiz-adv-x="446" 
d="M198 497h54l189 -497h-73l-60 167h-179l-61 -167h-64zM218 418l-76 -208h151z" />
    <glyph glyph-name="B.small" horiz-adv-x="424" 
d="M139 446v-171q81 0 110.5 22.5t29.5 66.5t-30 64.5t-76 20.5q-17 0 -34 -3zM139 237v-190q18 -3 43 -3q128 0 128 90q0 48 -35 75.5t-136 27.5zM72 491h102q172 0 172 -117q0 -39 -28.5 -71.5t-69.5 -42.5q61 -9 96 -39t35 -79q0 -57 -53.5 -99.5t-150.5 -42.5h-103v491z
" />
    <glyph glyph-name="C.small" horiz-adv-x="456" 
d="M310 505q59 0 108 -17v-71q-59 32 -126 32q-86 0 -128 -58.5t-42 -148.5q0 -89 47.5 -146.5t134.5 -57.5q53 0 114 33v-68q-49 -17 -120 -17q-114 0 -180 70.5t-66 181.5t71 189t187 78z" />
    <glyph glyph-name="D.small" horiz-adv-x="524" 
d="M72 491h136q120 0 191.5 -58t71.5 -165q0 -123 -76 -195.5t-214 -72.5h-109v491zM139 444v-396q26 -2 40 -2q222 0 222 211q0 95 -56 142.5t-152 47.5q-36 0 -54 -3z" />
    <glyph glyph-name="E.small" horiz-adv-x="400" 
d="M72 491h285v-54l-218 8v-169l183 8v-55l-183 8v-191l218 9v-55h-285v491z" />
    <glyph glyph-name="F.small" horiz-adv-x="381" 
d="M72 491h285v-54l-218 8v-173l183 8v-55l-183 8v-233h-67v491z" />
    <glyph glyph-name="G.small" horiz-adv-x="508" 
d="M320 504q64 0 115 -16v-72q-57 32 -133 32q-87 0 -133.5 -59t-46.5 -147q0 -91 42.5 -148t128.5 -57q44 0 78 12v200h64v-240q-65 -23 -144 -23q-115 0 -177 69.5t-62 181.5q0 111 74.5 189t193.5 78z" />
    <glyph glyph-name="H.small" 
d="M72 491h67v-209h234v209h66v-491h-66v236h-234v-236h-67v491z" />
    <glyph glyph-name="I.small" horiz-adv-x="211" 
d="M72 491h67v-491h-67v491z" />
    <glyph glyph-name="J.small" horiz-adv-x="211" 
d="M72 491h67v-481q0 -79 -51.5 -132.5t-128.5 -58.5l14 71q50 0 74.5 25.5t24.5 86.5v489z" />
    <glyph glyph-name="K.small" horiz-adv-x="458" 
d="M72 491h67v-235l201 235h82l-211 -219l241 -272h-90l-223 256v-256h-67v491z" />
    <glyph glyph-name="L.small" horiz-adv-x="364" 
d="M72 491h67v-443l217 9v-57h-284v491z" />
    <glyph glyph-name="M.small" horiz-adv-x="663" 
d="M98 491h83l154 -390l153 390h80l33 -491h-69l-21 412l-163 -407h-43l-162 408l-21 -413h-60z" />
    <glyph glyph-name="N.small" horiz-adv-x="510" 
d="M72 490h77l234 -357v357h54v-490h-45l-265 410v-410h-55v490z" />
    <glyph glyph-name="O.small" horiz-adv-x="584" 
d="M294 455q-78 0 -125 -54t-47 -154q0 -103 45.5 -157t123.5 -54q76 0 124 55t48 157t-45.5 154.5t-123.5 52.5zM299 505q105 0 168.5 -71t63.5 -180q0 -114 -69 -191t-178 -77q-105 0 -168.5 72.5t-63.5 182.5q0 112 68.5 188t178.5 76z" />
    <glyph glyph-name="P.small" horiz-adv-x="405" 
d="M72 491h129q85 0 127.5 -38.5t42.5 -99.5q0 -71 -47 -115.5t-135 -44.5q-29 0 -50 4v-197h-67v491zM139 445v-203q21 -5 46 -5q59 0 88.5 27.5t29.5 73.5q0 109 -124 109q-27 0 -40 -2z" />
    <glyph glyph-name="Q.small" horiz-adv-x="584" 
d="M299 505q105 0 168.5 -71t63.5 -180q0 -102 -56 -175.5t-147 -88.5l186 -163h-92l-166 161q-93 10 -148.5 80t-55.5 173q0 112 68.5 188t178.5 76zM294 455q-78 0 -125 -54t-47 -154q0 -103 45.5 -157t123.5 -54q76 0 124 55t48 157t-45.5 154.5t-123.5 52.5z" />
    <glyph glyph-name="R.small" horiz-adv-x="453" 
d="M72 490h112q94 0 141.5 -33.5t47.5 -89.5q0 -111 -112 -146l185 -221h-86l-165 207q-18 -2 -57 -2v-205h-66v490zM138 444v-190q22 -3 47 -3q50 0 83 24t33 74t-33 73.5t-78 23.5q-30 0 -52 -2z" />
    <glyph glyph-name="S.small" horiz-adv-x="368" 
d="M208 505q64 0 95 -15v-66q-55 29 -111 29q-37 0 -59 -17.5t-22 -51.5q0 -29 22.5 -52.5t54.5 -40.5t64 -36t54.5 -49.5t22.5 -70.5q0 -65 -47 -107t-120 -42q-66 0 -111 17v68q64 -31 119 -31q41 0 68.5 21t27.5 59q0 31 -22 55t-54 41.5t-64 36t-54 48t-22 67.5
q0 60 43 98.5t115 38.5z" />
    <glyph glyph-name="T.small" horiz-adv-x="403" 
d="M6 491h391v-57l-162 8v-442h-66v442l-163 -8v57z" />
    <glyph glyph-name="U.small" horiz-adv-x="509" 
d="M72 491h67v-329q0 -61 33 -90.5t86 -29.5q54 0 88 28.5t34 81.5v339h59v-335q0 -77 -56.5 -122.5t-135.5 -45.5q-76 0 -125.5 41t-49.5 120v342z" />
    <glyph glyph-name="V.small" horiz-adv-x="446" 
d="M4 491h74l149 -419l147 419h67l-191 -491h-60z" />
    <glyph glyph-name="W.small" horiz-adv-x="705" 
d="M14 491h72l120 -404l123 404h53l129 -405l117 405h63l-160 -491h-55l-129 384l-122 -384h-55z" />
    <glyph glyph-name="X.small" horiz-adv-x="465" 
d="M372 491h77l-184 -236l194 -255h-83l-146 209l-150 -209h-74l194 250l-183 241h86l132 -193z" />
    <glyph glyph-name="Y.small" horiz-adv-x="433" 
d="M-1 491h77l147 -229l142 229h69l-185 -276v-215h-65v212z" />
    <glyph glyph-name="Z.small" horiz-adv-x="451" 
d="M45 491h364v-45l-303 -402l311 12v-56h-387v45l301 401l-286 -10v55z" />
    <glyph glyph-name="AE.small" horiz-adv-x="609" 
d="M275 491h291v-54l-218 8v-169l183 8v-55l-183 8v-191l218 9v-55h-285v167h-176l-117 -167h-72zM281 418l-149 -208h149v208z" />
    <glyph glyph-name="OE.small" horiz-adv-x="778" 
d="M699 228l-169 8q-6 -121 -89 -193l293 11v-54h-367q-40 -14 -84 -14q-105 0 -168 72t-63 182q0 113 68.5 188.5t177.5 75.5q44 0 83 -14h353v-54l-277 7q65 -64 73 -167l169 8v-56zM293 454q-77 0 -124 -54t-47 -154q0 -103 45 -156.5t123 -53.5q77 0 125 55t48 157
t-46 154t-124 52z" />
    <glyph glyph-name="Eng.small" horiz-adv-x="510" 
d="M72 490h77l234 -357v357h54v-490q0 -103 -44 -168.5t-133 -74.5l14 72q112 4 112 182l-259 399v-410h-55v490z" />
    <glyph glyph-name="Eth.small" horiz-adv-x="527" 
d="M75 491h136q120 0 191.5 -58t71.5 -165q0 -123 -76 -195.5t-214 -72.5h-109v237h-48v41h48v213zM142 444v-166h101v-41h-101v-189q26 -2 40 -2q222 0 222 211q0 95 -56 142.5t-152 47.5q-36 0 -54 -3z" />
    <glyph glyph-name="IJ.small" horiz-adv-x="410" 
d="M72 491h67v-491h-67v491zM272 491h66v-481q0 -79 -51.5 -132.5t-128.5 -58.5l14 71q50 0 75 25.5t25 86.5v489z" />
    <glyph glyph-name="Oslash.small" horiz-adv-x="584" 
d="M499 504l53 -4l-73 -80q52 -69 52 -166q0 -114 -69 -191t-178 -77q-90 0 -151 55l-49 -54l-52 3l73 81q-53 69 -53 170q0 112 68.5 188t178.5 76q90 0 152 -54zM463 248q0 77 -26 126l-265 -290q45 -48 119 -48q76 0 124 55t48 157zM294 455q-78 0 -125 -54t-47 -154
q0 -79 27 -129l263 290q-43 47 -118 47z" />
    <glyph glyph-name="Thorn.small" horiz-adv-x="405" 
d="M72 491h67v-87h62q85 0 127.5 -37t42.5 -98q0 -71 -47.5 -117t-134.5 -46q-23 0 -50 5v-111h-67v491zM139 357v-202q23 -4 46 -4q59 0 88.5 28.5t29.5 74.5q0 105 -123 105q-29 0 -41 -2z" />
    <glyph glyph-name="Aacute.small" horiz-adv-x="446" 
d="M265 720h74l-129 -169l-39 4zM198 497h54l189 -497h-73l-60 167h-179l-61 -167h-64zM218 418l-76 -208h151z" />
    <glyph glyph-name="Abreve.small" horiz-adv-x="446" 
d="M108 687l37 4q2 -88 78 -88q74 0 77 89l36 -5q-2 -63 -32 -101t-82 -38t-82 38t-32 101zM198 497h54l189 -497h-73l-60 167h-179l-61 -167h-64zM218 418l-76 -208h151z" />
    <glyph glyph-name="Acircumflex.small" horiz-adv-x="446" 
d="M198 497h54l189 -497h-73l-60 167h-179l-61 -167h-64zM218 418l-76 -208h151zM194 711h56l97 -165l-36 -4l-90 117l-90 -117l-34 4z" />
    <glyph glyph-name="Adieresis.small" horiz-adv-x="446" 
d="M198 497h54l189 -497h-73l-60 167h-179l-61 -167h-64zM218 418l-76 -208h151zM139 652q17 0 28 -12t11 -31t-11 -32.5t-28 -13.5t-28.5 13t-11.5 33q0 19 11.5 31t28.5 12zM305 652q17 0 28.5 -12t11.5 -31t-11.5 -32.5t-28.5 -13.5t-28.5 13.5t-11.5 32.5t11.5 31
t28.5 12z" />
    <glyph glyph-name="Agrave.small" horiz-adv-x="446" 
d="M105 720h74l94 -165l-38 -4zM198 497h54l189 -497h-73l-60 167h-179l-61 -167h-64zM218 418l-76 -208h151z" />
    <glyph glyph-name="Amacron.small" horiz-adv-x="446" 
d="M116 630h212v-41h-212v41zM198 497h54l189 -497h-73l-60 167h-179l-61 -167h-64zM218 418l-76 -208h151z" />
    <glyph glyph-name="Aogonek.small" horiz-adv-x="446" 
d="M198 497h54l189 -497h-42q-55 -48 -55 -112q0 -29 19 -43.5t48 -14.5q33 0 60 15l7 -27q-44 -28 -98 -28q-42 0 -67 19.5t-25 59.5q0 38 22.5 74.5t56.5 57.5l-59 166h-179l-61 -167h-64zM218 418l-76 -208h151z" />
    <glyph glyph-name="Aring.small" horiz-adv-x="446" 
d="M132 621q0 39 27.5 64.5t66.5 25.5q38 0 62.5 -25.5t24.5 -64.5t-27 -64.5t-65 -25.5q-39 0 -64 25.5t-25 64.5zM220 676q-48 0 -48 -53q0 -27 14 -43.5t38 -16.5q47 0 47 53q0 27 -14 43.5t-37 16.5zM198 497h54l189 -497h-73l-60 167h-179l-61 -167h-64zM218 418
l-76 -208h151z" />
    <glyph glyph-name="Atilde.small" horiz-adv-x="446" 
d="M119 561l-30 4q7 46 29 75t58 29q19 0 34.5 -10.5t24.5 -23.5t21.5 -23.5t26.5 -10.5q36 0 43 59l28 -2q-6 -50 -28.5 -76.5t-57.5 -26.5q-18 0 -32.5 11t-23 23.5t-20.5 23.5t-26 11q-42 0 -47 -63zM198 497h54l189 -497h-73l-60 167h-179l-61 -167h-64zM218 418
l-76 -208h151z" />
    <glyph glyph-name="Ccedilla.small" horiz-adv-x="456" 
d="M310 505q59 0 108 -17v-71q-59 32 -126 32q-86 0 -128 -58.5t-42 -148.5q0 -89 47.5 -146.5t134.5 -57.5q53 0 114 33v-68q-49 -17 -120 -17h-2l-23 -50q106 0 106 -76q0 -44 -33 -69t-83 -25q-31 0 -64 12l11 29q19 -7 41 -7q68 0 68 50q0 54 -88 54l31 84
q-99 11 -154.5 79.5t-55.5 170.5q0 111 71 189t187 78z" />
    <glyph glyph-name="Cacute.small" horiz-adv-x="456" 
d="M316 720h74l-129 -169l-39 4zM310 505q59 0 108 -17v-71q-59 32 -126 32q-86 0 -128 -58.5t-42 -148.5q0 -89 47.5 -146.5t134.5 -57.5q53 0 114 33v-68q-49 -17 -120 -17q-114 0 -180 70.5t-66 181.5t71 189t187 78z" />
    <glyph glyph-name="Ccircumflex.small" horiz-adv-x="456" 
d="M310 505q59 0 108 -17v-71q-59 32 -126 32q-86 0 -128 -58.5t-42 -148.5q0 -89 47.5 -146.5t134.5 -57.5q53 0 114 33v-68q-49 -17 -120 -17q-114 0 -180 70.5t-66 181.5t71 189t187 78zM260 711h56l97 -165l-36 -4l-90 117l-90 -117l-34 4z" />
    <glyph glyph-name="Ccaron.small" horiz-adv-x="456" 
d="M162 718l36 4l90 -116l90 116l34 -4l-98 -164h-56zM310 505q59 0 108 -17v-71q-59 32 -126 32q-86 0 -128 -58.5t-42 -148.5q0 -89 47.5 -146.5t134.5 -57.5q53 0 114 33v-68q-49 -17 -120 -17q-114 0 -180 70.5t-66 181.5t71 189t187 78z" />
    <glyph glyph-name="Cdotaccent.small" horiz-adv-x="456" 
d="M310 505q59 0 108 -17v-71q-59 32 -126 32q-86 0 -128 -58.5t-42 -148.5q0 -89 47.5 -146.5t134.5 -57.5q53 0 114 33v-68q-49 -17 -120 -17q-114 0 -180 70.5t-66 181.5t71 189t187 78zM289 655q16 0 28.5 -12.5t12.5 -29.5q0 -18 -12.5 -30.5t-28.5 -12.5
q-17 0 -29.5 12.5t-12.5 30.5q0 17 12.5 29.5t29.5 12.5z" />
    <glyph glyph-name="Dcroat.small" horiz-adv-x="524" 
d="M72 491h136q120 0 191.5 -58t71.5 -165q0 -123 -76 -195.5t-214 -72.5h-109v237h-48v41h48v213zM139 444v-166h101v-41h-101v-189q26 -2 40 -2q222 0 222 211q0 95 -56 142.5t-152 47.5q-36 0 -54 -3z" />
    <glyph glyph-name="Dcaron.small" horiz-adv-x="524" 
d="M107 718l36 4l90 -116l90 116l34 -4l-98 -164h-56zM72 491h136q120 0 191.5 -58t71.5 -165q0 -123 -76 -195.5t-214 -72.5h-109v491zM139 444v-396q26 -2 40 -2q222 0 222 211q0 95 -56 142.5t-152 47.5q-36 0 -54 -3z" />
    <glyph glyph-name="Eacute.small" horiz-adv-x="400" 
d="M259 720h74l-129 -169l-39 4zM72 491h285v-54l-218 8v-169l183 8v-55l-183 8v-191l218 9v-55h-285v491z" />
    <glyph glyph-name="Ebreve.small" horiz-adv-x="400" 
d="M106 687l37 4q2 -88 78 -88q74 0 77 89l36 -5q-2 -63 -32 -101t-82 -38t-82 38t-32 101zM72 491h285v-54l-218 8v-169l183 8v-55l-183 8v-191l218 9v-55h-285v491z" />
    <glyph glyph-name="Ecaron.small" horiz-adv-x="400" 
d="M98 718l36 4l90 -116l90 116l34 -4l-98 -164h-56zM72 491h285v-54l-218 8v-169l183 8v-55l-183 8v-191l218 9v-55h-285v491z" />
    <glyph glyph-name="Ecircumflex.small" horiz-adv-x="400" 
d="M72 491h285v-54l-218 8v-169l183 8v-55l-183 8v-191l218 9v-55h-285v491zM186 711h56l97 -165l-36 -4l-90 117l-90 -117l-34 4z" />
    <glyph glyph-name="Edieresis.small" horiz-adv-x="400" 
d="M72 491h285v-54l-218 8v-169l183 8v-55l-183 8v-191l218 9v-55h-285v491zM137 652q17 0 28 -12t11 -31t-11 -32.5t-28 -13.5t-28.5 13t-11.5 33q0 19 11.5 31t28.5 12zM303 652q17 0 28.5 -12t11.5 -31t-11.5 -32.5t-28.5 -13.5t-28.5 13.5t-11.5 32.5t11.5 31t28.5 12z
" />
    <glyph glyph-name="Edotaccent.small" horiz-adv-x="400" 
d="M72 491h285v-54l-218 8v-169l183 8v-55l-183 8v-191l218 9v-55h-285v491zM230 655q16 0 28.5 -12.5t12.5 -29.5q0 -18 -12.5 -30.5t-28.5 -12.5q-17 0 -29.5 12.5t-12.5 30.5q0 17 12.5 29.5t29.5 12.5z" />
    <glyph glyph-name="Egrave.small" horiz-adv-x="400" 
d="M108 720h74l94 -165l-38 -4zM72 491h285v-54l-218 8v-169l183 8v-55l-183 8v-191l218 9v-55h-285v491z" />
    <glyph glyph-name="Emacron.small" horiz-adv-x="400" 
d="M113 630h212v-41h-212v41zM72 491h285v-54l-218 8v-169l183 8v-55l-183 8v-191l218 9v-55h-285v491z" />
    <glyph glyph-name="Eogonek.small" horiz-adv-x="400" 
d="M72 491h285v-54l-218 8v-169l183 8v-55l-183 8v-191l218 9v-55h-42q-55 -48 -55 -112q0 -29 19 -43.5t48 -14.5q33 0 60 15l7 -27q-44 -28 -98 -28q-42 0 -67 19.5t-25 59.5q0 38 22.5 74t55.5 57h-210v491z" />
    <glyph glyph-name="Etilde.small" horiz-adv-x="400" 
d="M114 561l-30 4q7 46 29 75t58 29q19 0 34.5 -10.5t24.5 -23.5t21.5 -23.5t26.5 -10.5q36 0 43 59l28 -2q-6 -50 -28.5 -76.5t-57.5 -26.5q-18 0 -32.5 11t-23 23.5t-20.5 23.5t-26 11q-42 0 -47 -63zM72 491h285v-54l-218 8v-169l183 8v-55l-183 8v-191l218 9v-55h-285
v491z" />
    <glyph glyph-name="Gacute.small" horiz-adv-x="508" 
d="M315 720h74l-129 -169l-39 4zM320 504q64 0 115 -16v-72q-57 32 -133 32q-87 0 -133.5 -59t-46.5 -147q0 -91 42.5 -148t128.5 -57q44 0 78 12v200h64v-240q-65 -23 -144 -23q-115 0 -177 69.5t-62 181.5q0 111 74.5 189t193.5 78z" />
    <glyph glyph-name="Gbreve.small" horiz-adv-x="508" 
d="M180 687l37 4q2 -88 78 -88q74 0 77 89l36 -5q-2 -63 -32 -101t-82 -38t-82 38t-32 101zM320 504q64 0 115 -16v-72q-57 32 -133 32q-87 0 -133.5 -59t-46.5 -147q0 -91 42.5 -148t128.5 -57q44 0 78 12v200h64v-240q-65 -23 -144 -23q-115 0 -177 69.5t-62 181.5
q0 111 74.5 189t193.5 78z" />
    <glyph glyph-name="Gcircumflex.small" horiz-adv-x="508" 
d="M320 504q64 0 115 -16v-72q-57 32 -133 32q-87 0 -133.5 -59t-46.5 -147q0 -91 42.5 -148t128.5 -57q44 0 78 12v200h64v-240q-65 -23 -144 -23q-115 0 -177 69.5t-62 181.5q0 111 74.5 189t193.5 78zM267 711h56l97 -165l-36 -4l-90 117l-90 -117l-34 4z" />
    <glyph glyph-name="Gcommaaccent.small" horiz-adv-x="508" 
d="M320 504q64 0 115 -16v-72q-57 32 -133 32q-87 0 -133.5 -59t-46.5 -147q0 -91 42.5 -148t128.5 -57q44 0 78 12v200h64v-240q-65 -23 -144 -23q-115 0 -177 69.5t-62 181.5q0 111 74.5 189t193.5 78zM258 -58h70q-18 -91 -72 -168l-32 10q26 59 34 158z" />
    <glyph glyph-name="Gdotaccent.small" horiz-adv-x="508" 
d="M320 504q64 0 115 -16v-72q-57 32 -133 32q-87 0 -133.5 -59t-46.5 -147q0 -91 42.5 -148t128.5 -57q44 0 78 12v200h64v-240q-65 -23 -144 -23q-115 0 -177 69.5t-62 181.5q0 111 74.5 189t193.5 78zM299 655q16 0 28.5 -12.5t12.5 -29.5q0 -18 -12.5 -30.5t-28.5 -12.5
q-17 0 -29.5 12.5t-12.5 30.5q0 17 12.5 29.5t29.5 12.5z" />
    <glyph glyph-name="Hcircumflex.small" 
d="M72 491h67v-209h234v209h66v-491h-66v236h-234v-236h-67v491zM227 711h56l97 -165l-36 -4l-90 117l-90 -117l-34 4z" />
    <glyph glyph-name="Hbar.small" 
d="M72 491h67v-85h234v85h66v-85h60v-39h-60v-367h-66v236h-234v-236h-67v367h-59v39h59v85zM139 282h234v85h-234v-85z" />
    <glyph glyph-name="Iacute.small" horiz-adv-x="211" 
d="M155 720h74l-129 -169l-39 4zM72 491h67v-491h-67v491z" />
    <glyph glyph-name="Ibreve.small" horiz-adv-x="211" 
d="M-8 687l37 4q2 -88 78 -88q74 0 77 89l36 -5q-2 -63 -32 -101t-82 -38t-82 38t-32 101zM72 491h67v-491h-67v491z" />
    <glyph glyph-name="Icircumflex.small" horiz-adv-x="211" 
d="M72 491h67v-491h-67v491zM78 711h56l97 -165l-36 -4l-90 117l-90 -117l-34 4z" />
    <glyph glyph-name="Idieresis.small" horiz-adv-x="211" 
d="M72 491h67v-491h-67v491zM23 652q17 0 28 -12t11 -31t-11 -32.5t-28 -13.5t-28.5 13t-11.5 33q0 19 11.5 31t28.5 12zM189 652q17 0 28.5 -12t11.5 -31t-11.5 -32.5t-28.5 -13.5t-28.5 13.5t-11.5 32.5t11.5 31t28.5 12z" />
    <glyph glyph-name="Igrave.small" horiz-adv-x="211" 
d="M-18 720h74l94 -165l-38 -4zM72 491h67v-491h-67v491z" />
    <glyph glyph-name="Imacron.small" horiz-adv-x="211" 
d="M0 630h212v-41h-212v41zM72 491h67v-491h-67v491z" />
    <glyph glyph-name="Iogonek.small" horiz-adv-x="211" 
d="M72 491h67v-491h-17q-55 -48 -55 -112q0 -29 19 -43.5t48 -14.5q33 0 60 15l7 -27q-44 -28 -98 -28q-42 0 -67 19.5t-25 59.5q0 38 22.5 74t55.5 57h-17v491z" />
    <glyph glyph-name="Itilde.small" horiz-adv-x="211" 
d="M3 561l-30 4q7 46 29 75t58 29q19 0 34.5 -10.5t24.5 -23.5t21.5 -23.5t26.5 -10.5q36 0 43 59l28 -2q-6 -50 -28.5 -76.5t-57.5 -26.5q-18 0 -32.5 11t-23 23.5t-20.5 23.5t-26 11q-42 0 -47 -63zM72 491h67v-491h-67v491z" />
    <glyph glyph-name="Dotlessi.small" horiz-adv-x="211" 
d="M72 491h67v-491h-67v491z" />
    <glyph glyph-name="Jcircumflex.small" horiz-adv-x="211" 
d="M72 491h67v-481q0 -79 -51.5 -132.5t-128.5 -58.5l14 71q50 0 74.5 25.5t24.5 86.5v489zM80 711h56l97 -165l-36 -4l-90 117l-90 -117l-34 4z" />
    <glyph glyph-name="Kcommaaccent.small" horiz-adv-x="458" 
d="M72 491h67v-235l201 235h82l-211 -219l241 -272h-90l-223 256v-256h-67v491zM211 -58h70q-18 -91 -72 -168l-32 10q26 59 34 158z" />
    <glyph glyph-name="Lacute.small" horiz-adv-x="364" 
d="M187 720h74l-129 -169l-39 4zM72 491h67v-443l217 9v-57h-284v491z" />
    <glyph glyph-name="Lcaron.small" horiz-adv-x="364" 
d="M72 491h67v-443l217 9v-57h-284v491zM219 505h62l-39 -197l-31 4z" />
    <glyph glyph-name="Lcommaaccent.small" horiz-adv-x="364" 
d="M72 491h67v-443l217 9v-57h-284v491zM186 -58h70q-18 -91 -72 -168l-32 10q26 59 34 158z" />
    <glyph glyph-name="Lslash.small" horiz-adv-x="364" 
d="M72 491h67v-214l99 96l26 -28l-125 -122v-175l217 9v-57h-284v158l-42 -40l-26 29l68 65v279z" />
    <glyph glyph-name="Nacute.small" horiz-adv-x="510" 
d="M304 720h74l-129 -169l-39 4zM72 490h77l234 -357v357h54v-490h-45l-265 410v-410h-55v490z" />
    <glyph glyph-name="Napostrophe.small" horiz-adv-x="510" 
d="M72 490h77l234 -357v357h54v-490h-45l-265 410v-410h-55v490zM87 734h70q-18 -91 -72 -168l-32 10q26 59 34 158z" />
    <glyph glyph-name="Ncaron.small" horiz-adv-x="510" 
d="M129 718l36 4l90 -116l90 116l34 -4l-98 -164h-56zM72 490h77l234 -357v357h54v-490h-45l-265 410v-410h-55v490z" />
    <glyph glyph-name="Ncommaaccent.small" 
d="M72 491h67v-209h234v209h66v-491h-66v236h-234v-236h-67v491zM221 -58h70q-18 -91 -72 -168l-32 10q26 59 34 158z" />
    <glyph glyph-name="Ntilde.small" horiz-adv-x="510" 
d="M151 561l-30 4q7 46 29 75t58 29q19 0 34.5 -10.5t24.5 -23.5t21.5 -23.5t26.5 -10.5q36 0 43 59l28 -2q-6 -50 -28.5 -76.5t-57.5 -26.5q-18 0 -32.5 11t-23 23.5t-20.5 23.5t-26 11q-42 0 -47 -63zM72 490h77l234 -357v357h54v-490h-45l-265 410v-410h-55v490z" />
    <glyph glyph-name="Oacute.small" horiz-adv-x="584" 
d="M308 720h74l-129 -169l-39 4zM294 455q-78 0 -125 -54t-47 -154q0 -103 45.5 -157t123.5 -54q76 0 124 55t48 157t-45.5 154.5t-123.5 52.5zM299 505q105 0 168.5 -71t63.5 -180q0 -114 -69 -191t-178 -77q-105 0 -168.5 72.5t-63.5 182.5q0 112 68.5 188t178.5 76z" />
    <glyph glyph-name="Obreve.small" horiz-adv-x="584" 
d="M178 687l37 4q2 -88 78 -88q74 0 77 89l36 -5q-2 -63 -32 -101t-82 -38t-82 38t-32 101zM294 455q-78 0 -125 -54t-47 -154q0 -103 45.5 -157t123.5 -54q76 0 124 55t48 157t-45.5 154.5t-123.5 52.5zM299 505q105 0 168.5 -71t63.5 -180q0 -114 -69 -191t-178 -77
q-105 0 -168.5 72.5t-63.5 182.5q0 112 68.5 188t178.5 76z" />
    <glyph glyph-name="Ocircumflex.small" horiz-adv-x="584" 
d="M294 455q-78 0 -125 -54t-47 -154q0 -103 45.5 -157t123.5 -54q76 0 124 55t48 157t-45.5 154.5t-123.5 52.5zM299 505q105 0 168.5 -71t63.5 -180q0 -114 -69 -191t-178 -77q-105 0 -168.5 72.5t-63.5 182.5q0 112 68.5 188t178.5 76zM264 711h56l97 -165l-36 -4
l-90 117l-90 -117l-34 4z" />
    <glyph glyph-name="Odieresis.small" horiz-adv-x="584" 
d="M294 455q-78 0 -125 -54t-47 -154q0 -103 45.5 -157t123.5 -54q76 0 124 55t48 157t-45.5 154.5t-123.5 52.5zM299 505q105 0 168.5 -71t63.5 -180q0 -114 -69 -191t-178 -77q-105 0 -168.5 72.5t-63.5 182.5q0 112 68.5 188t178.5 76zM208 652q17 0 28 -12t11 -31
t-11 -32.5t-28 -13.5t-28.5 13t-11.5 33q0 19 11.5 31t28.5 12zM374 652q17 0 28.5 -12t11.5 -31t-11.5 -32.5t-28.5 -13.5t-28.5 13.5t-11.5 32.5t11.5 31t28.5 12z" />
    <glyph glyph-name="Ograve.small" horiz-adv-x="584" 
d="M199 720h74l94 -165l-38 -4zM294 455q-78 0 -125 -54t-47 -154q0 -103 45.5 -157t123.5 -54q76 0 124 55t48 157t-45.5 154.5t-123.5 52.5zM299 505q105 0 168.5 -71t63.5 -180q0 -114 -69 -191t-178 -77q-105 0 -168.5 72.5t-63.5 182.5q0 112 68.5 188t178.5 76z" />
    <glyph glyph-name="Ohungarumlaut.small" horiz-adv-x="584" 
d="M294 455q-78 0 -125 -54t-47 -154q0 -103 45.5 -157t123.5 -54q76 0 124 55t48 157t-45.5 154.5t-123.5 52.5zM299 505q105 0 168.5 -71t63.5 -180q0 -114 -69 -191t-178 -77q-105 0 -168.5 72.5t-63.5 182.5q0 112 68.5 188t178.5 76zM271 720h61l-116 -170l-33 5z
M405 720h60l-115 -170l-33 5z" />
    <glyph glyph-name="Omacron.small" horiz-adv-x="584" 
d="M186 630h212v-41h-212v41zM294 455q-78 0 -125 -54t-47 -154q0 -103 45.5 -157t123.5 -54q76 0 124 55t48 157t-45.5 154.5t-123.5 52.5zM299 505q105 0 168.5 -71t63.5 -180q0 -114 -69 -191t-178 -77q-105 0 -168.5 72.5t-63.5 182.5q0 112 68.5 188t178.5 76z" />
    <glyph glyph-name="Otilde.small" horiz-adv-x="584" 
d="M189 561l-30 4q7 46 29 75t58 29q19 0 34.5 -10.5t24.5 -23.5t21.5 -23.5t26.5 -10.5q36 0 43 59l28 -2q-6 -50 -28.5 -76.5t-57.5 -26.5q-18 0 -32.5 11t-23 23.5t-20.5 23.5t-26 11q-42 0 -47 -63zM294 455q-78 0 -125 -54t-47 -154q0 -103 45.5 -157t123.5 -54
q76 0 124 55t48 157t-45.5 154.5t-123.5 52.5zM299 505q105 0 168.5 -71t63.5 -180q0 -114 -69 -191t-178 -77q-105 0 -168.5 72.5t-63.5 182.5q0 112 68.5 188t178.5 76z" />
    <glyph glyph-name="Racute.small" horiz-adv-x="453" 
d="M72 490h112q94 0 141.5 -33.5t47.5 -89.5q0 -111 -112 -146l185 -221h-86l-165 207q-18 -2 -57 -2v-205h-66v490zM138 444v-190q22 -3 47 -3q50 0 83 24t33 74t-33 73.5t-78 23.5q-30 0 -52 -2zM243 720h74l-129 -169l-39 4z" />
    <glyph glyph-name="Rcaron.small" horiz-adv-x="453" 
d="M72 490h112q94 0 141.5 -33.5t47.5 -89.5q0 -111 -112 -146l185 -221h-86l-165 207q-18 -2 -57 -2v-205h-66v490zM138 444v-190q22 -3 47 -3q50 0 83 24t33 74t-33 73.5t-78 23.5q-30 0 -52 -2zM85 718l36 4l90 -116l90 116l34 -4l-98 -164h-56z" />
    <glyph glyph-name="Rcommaaccent.small" horiz-adv-x="453" 
d="M72 490h112q94 0 141.5 -33.5t47.5 -89.5q0 -111 -112 -146l185 -221h-86l-165 207q-18 -2 -57 -2v-205h-66v490zM138 444v-190q22 -3 47 -3q50 0 83 24t33 74t-33 73.5t-78 23.5q-30 0 -52 -2zM194 -58h70q-18 -91 -72 -168l-32 10q26 59 34 158z" />
    <glyph glyph-name="Sacute.small" horiz-adv-x="368" 
d="M217 720h74l-129 -169l-39 4zM208 505q64 0 95 -15v-66q-55 29 -111 29q-37 0 -59 -17.5t-22 -51.5q0 -29 22.5 -52.5t54.5 -40.5t64 -36t54.5 -49.5t22.5 -70.5q0 -65 -47 -107t-120 -42q-66 0 -111 17v68q64 -31 119 -31q41 0 68.5 21t27.5 59q0 31 -22 55t-54 41.5
t-64 36t-54 48t-22 67.5q0 60 43 98.5t115 38.5z" />
    <glyph glyph-name="Scaron.small" horiz-adv-x="368" 
d="M67 718l36 4l90 -116l90 116l34 -4l-98 -164h-56zM208 505q64 0 95 -15v-66q-55 29 -111 29q-37 0 -59 -17.5t-22 -51.5q0 -29 22.5 -52.5t54.5 -40.5t64 -36t54.5 -49.5t22.5 -70.5q0 -65 -47 -107t-120 -42q-66 0 -111 17v68q64 -31 119 -31q41 0 68.5 21t27.5 59
q0 31 -22 55t-54 41.5t-64 36t-54 48t-22 67.5q0 60 43 98.5t115 38.5z" />
    <glyph glyph-name="Scedilla.small" horiz-adv-x="368" 
d="M208 505q64 0 95 -15v-66q-55 29 -111 29q-37 0 -59 -17.5t-22 -51.5q0 -29 22.5 -52.5t54.5 -40.5t64 -36t54.5 -49.5t22.5 -70.5q0 -59 -40 -99.5t-103 -47.5l-24 -52q106 0 106 -76q0 -44 -33 -69t-83 -25q-31 0 -64 12l11 29q19 -7 41 -7q68 0 68 50q0 54 -88 54
l31 82q-60 2 -100 17v68q64 -31 119 -31q41 0 68.5 21t27.5 59q0 31 -22 55t-54 41.5t-64 36t-54 48t-22 67.5q0 60 43 98.5t115 38.5z" />
    <glyph glyph-name="Scircumflex.small" horiz-adv-x="368" 
d="M208 505q64 0 95 -15v-66q-55 29 -111 29q-37 0 -59 -17.5t-22 -51.5q0 -29 22.5 -52.5t54.5 -40.5t64 -36t54.5 -49.5t22.5 -70.5q0 -65 -47 -107t-120 -42q-66 0 -111 17v68q64 -31 119 -31q41 0 68.5 21t27.5 59q0 31 -22 55t-54 41.5t-64 36t-54 48t-22 67.5
q0 60 43 98.5t115 38.5zM164 711h56l97 -165l-36 -4l-90 117l-90 -117l-34 4z" />
    <glyph glyph-name="Scommaaccent.small" horiz-adv-x="368" 
d="M208 505q64 0 95 -15v-66q-55 29 -111 29q-37 0 -59 -17.5t-22 -51.5q0 -29 22.5 -52.5t54.5 -40.5t64 -36t54.5 -49.5t22.5 -70.5q0 -65 -47 -107t-120 -42q-66 0 -111 17v68q64 -31 119 -31q41 0 68.5 21t27.5 59q0 31 -22 55t-54 41.5t-64 36t-54 48t-22 67.5
q0 60 43 98.5t115 38.5zM148 -58h70q-18 -91 -72 -168l-32 10q26 59 34 158z" />
    <glyph glyph-name="Tbar.small" horiz-adv-x="403" 
d="M6 491h391v-57l-162 8v-181h72v-41h-72v-220h-66v220h-74v41h74v181l-163 -8v57z" />
    <glyph glyph-name="Tcaron.small" horiz-adv-x="403" 
d="M76 718l36 4l90 -116l90 116l34 -4l-98 -164h-56zM6 491h391v-57l-162 8v-442h-66v442l-163 -8v57z" />
    <glyph glyph-name="Tcommaaccent.small" horiz-adv-x="403" 
d="M6 491h391v-57l-162 8v-442h-66v442l-163 -8v57zM174 -58h70q-18 -91 -72 -168l-32 10q26 59 34 158z" />
    <glyph glyph-name="Uacute.small" horiz-adv-x="509" 
d="M283 720h74l-129 -169l-39 4zM72 491h67v-329q0 -61 33 -90.5t86 -29.5q54 0 88 28.5t34 81.5v339h59v-335q0 -77 -56.5 -122.5t-135.5 -45.5q-76 0 -125.5 41t-49.5 120v342z" />
    <glyph glyph-name="Ubreve.small" horiz-adv-x="509" 
d="M141 687l37 4q2 -88 78 -88q74 0 77 89l36 -5q-2 -63 -32 -101t-82 -38t-82 38t-32 101zM72 491h67v-329q0 -61 33 -90.5t86 -29.5q54 0 88 28.5t34 81.5v339h59v-335q0 -77 -56.5 -122.5t-135.5 -45.5q-76 0 -125.5 41t-49.5 120v342z" />
    <glyph glyph-name="Ucircumflex.small" horiz-adv-x="509" 
d="M72 491h67v-329q0 -61 33 -90.5t86 -29.5q54 0 88 28.5t34 81.5v339h59v-335q0 -77 -56.5 -122.5t-135.5 -45.5q-76 0 -125.5 41t-49.5 120v342zM226 711h56l97 -165l-36 -4l-90 117l-90 -117l-34 4z" />
    <glyph glyph-name="Udieresis.small" horiz-adv-x="509" 
d="M72 491h67v-329q0 -61 33 -90.5t86 -29.5q54 0 88 28.5t34 81.5v339h59v-335q0 -77 -56.5 -122.5t-135.5 -45.5q-76 0 -125.5 41t-49.5 120v342zM171 652q17 0 28 -12t11 -31t-11 -32.5t-28 -13.5t-28.5 13t-11.5 33q0 19 11.5 31t28.5 12zM337 652q17 0 28.5 -12
t11.5 -31t-11.5 -32.5t-28.5 -13.5t-28.5 13.5t-11.5 32.5t11.5 31t28.5 12z" />
    <glyph glyph-name="Ugrave.small" horiz-adv-x="509" 
d="M150 720h74l94 -165l-38 -4zM72 491h67v-329q0 -61 33 -90.5t86 -29.5q54 0 88 28.5t34 81.5v339h59v-335q0 -77 -56.5 -122.5t-135.5 -45.5q-76 0 -125.5 41t-49.5 120v342z" />
    <glyph glyph-name="Uhungarumlaut.small" horiz-adv-x="509" 
d="M72 491h67v-329q0 -61 33 -90.5t86 -29.5q54 0 88 28.5t34 81.5v339h59v-335q0 -77 -56.5 -122.5t-135.5 -45.5q-76 0 -125.5 41t-49.5 120v342zM234 720h61l-116 -170l-33 5zM368 720h60l-115 -170l-33 5z" />
    <glyph glyph-name="Umacron.small" horiz-adv-x="509" 
d="M148 630h212v-41h-212v41zM72 491h67v-329q0 -61 33 -90.5t86 -29.5q54 0 88 28.5t34 81.5v339h59v-335q0 -77 -56.5 -122.5t-135.5 -45.5q-76 0 -125.5 41t-49.5 120v342z" />
    <glyph glyph-name="Uogonek.small" horiz-adv-x="509" 
d="M72 491h67v-329q0 -61 33 -90.5t86 -29.5q54 0 88 28.5t34 81.5v339h59v-335q0 -67 -44 -111t-110 -54q-45 -43 -45 -103q0 -29 19 -43.5t48 -14.5q33 0 60 15l7 -27q-44 -28 -98 -28q-42 0 -67 19.5t-25 59.5q0 67 61 119q-75 1 -124 41.5t-49 119.5v342z" />
    <glyph glyph-name="Uring.small" horiz-adv-x="509" 
d="M164 621q0 39 27.5 64.5t66.5 25.5q38 0 62.5 -25.5t24.5 -64.5t-27 -64.5t-65 -25.5q-39 0 -64 25.5t-25 64.5zM252 676q-48 0 -48 -53q0 -27 14 -43.5t38 -16.5q47 0 47 53q0 27 -14 43.5t-37 16.5zM72 491h67v-329q0 -61 33 -90.5t86 -29.5q54 0 88 28.5t34 81.5v339
h59v-335q0 -77 -56.5 -122.5t-135.5 -45.5q-76 0 -125.5 41t-49.5 120v342z" />
    <glyph glyph-name="Utilde.small" horiz-adv-x="509" 
d="M151 561l-30 4q7 46 29 75t58 29q19 0 34.5 -10.5t24.5 -23.5t21.5 -23.5t26.5 -10.5q36 0 43 59l28 -2q-6 -50 -28.5 -76.5t-57.5 -26.5q-18 0 -32.5 11t-23 23.5t-20.5 23.5t-26 11q-42 0 -47 -63zM72 491h67v-329q0 -61 33 -90.5t86 -29.5q54 0 88 28.5t34 81.5v339
h59v-335q0 -77 -56.5 -122.5t-135.5 -45.5q-76 0 -125.5 41t-49.5 120v342z" />
    <glyph glyph-name="Wcircumflex.small" horiz-adv-x="705" 
d="M14 491h72l120 -404l123 404h53l129 -405l117 405h63l-160 -491h-55l-129 384l-122 -384h-55zM324 711h56l97 -165l-36 -4l-90 117l-90 -117l-34 4z" />
    <glyph glyph-name="Yacute.small" horiz-adv-x="433" 
d="M255 720h74l-129 -169l-39 4zM-1 491h77l147 -229l142 229h69l-185 -276v-215h-65v212z" />
    <glyph glyph-name="Ycircumflex.small" horiz-adv-x="433" 
d="M-1 491h77l147 -229l142 229h69l-185 -276v-215h-65v212zM188 711h56l97 -165l-36 -4l-90 117l-90 -117l-34 4z" />
    <glyph glyph-name="Ydieresis.small" horiz-adv-x="433" 
d="M-1 491h77l147 -229l142 229h69l-185 -276v-215h-65v212zM133 652q17 0 28 -12t11 -31t-11 -32.5t-28 -13.5t-28.5 13t-11.5 33q0 19 11.5 31t28.5 12zM299 652q17 0 28.5 -12t11.5 -31t-11.5 -32.5t-28.5 -13.5t-28.5 13.5t-11.5 32.5t11.5 31t28.5 12z" />
    <glyph glyph-name="Zacute.small" horiz-adv-x="451" 
d="M265 720h74l-129 -169l-39 4zM45 491h364v-45l-303 -402l311 12v-56h-387v45l301 401l-286 -10v55z" />
    <glyph glyph-name="Zcaron.small" horiz-adv-x="451" 
d="M101 718l36 4l90 -116l90 116l34 -4l-98 -164h-56zM45 491h364v-45l-303 -402l311 12v-56h-387v45l301 401l-286 -10v55z" />
    <glyph glyph-name="Zdotaccent.small" horiz-adv-x="451" 
d="M45 491h364v-45l-303 -402l311 12v-56h-387v45l301 401l-286 -10v55zM226 655q16 0 28.5 -12.5t12.5 -29.5q0 -18 -12.5 -30.5t-28.5 -12.5q-17 0 -29.5 12.5t-12.5 30.5q0 17 12.5 29.5t29.5 12.5z" />
    <glyph glyph-name="AEacute.small" horiz-adv-x="609" 
d="M415 720h74l-129 -169l-39 4zM275 491h291v-54l-218 8v-169l183 8v-55l-183 8v-191l218 9v-55h-285v167h-176l-117 -167h-72zM281 418l-149 -208h149v208z" />
    <glyph glyph-name="Oslashacute.small" horiz-adv-x="584" 
d="M499 504l53 -4l-73 -80q52 -69 52 -166q0 -114 -69 -191t-178 -77q-90 0 -151 55l-49 -54l-52 3l73 81q-53 69 -53 170q0 112 68.5 188t178.5 76q90 0 152 -54zM463 248q0 77 -26 126l-265 -290q45 -48 119 -48q76 0 124 55t48 157zM294 455q-78 0 -125 -54t-47 -154
q0 -79 27 -129l263 290q-43 47 -118 47zM316 720h74l-129 -169l-39 4z" />
    <glyph glyph-name="Germandbls.small" horiz-adv-x="723" 
d="M303 490v-66q-55 29 -111 29q-37 0 -59 -17.5t-22 -51.5q0 -29 22.5 -52.5t54.5 -40.5t64 -36t54.5 -49.5t22.5 -70.5q0 -65 -47 -107t-120 -42q-66 0 -111 17v68q64 -31 119 -31q41 0 68.5 21t27.5 59q0 31 -22 55t-54 41.5t-64 36t-54 48t-22 67.5q0 60 43 98.5
t115 38.5q64 0 95 -15zM659 490v-66q-55 29 -112 29q-36 0 -58 -17.5t-22 -51.5q0 -29 22.5 -52.5t54.5 -40.5t63.5 -36t54 -49.5t22.5 -70.5q0 -65 -47 -107t-119 -42q-67 0 -112 17v68q64 -31 119 -31q41 0 68.5 21t27.5 59q0 31 -22 55t-54 41.5t-64 36t-54 48t-22 67.5
q0 60 43 98.5t116 38.5q62 0 95 -15z" />
    <glyph glyph-name="dollar.small" horiz-adv-x="368" 
d="M303 490v-66q-45 24 -98 29v-173q29 -15 46 -26t37.5 -29t30.5 -40.5t10 -49.5q0 -54 -34 -93.5t-90 -50.5v-102h-43v97q-66 0 -111 17v67q50 -26 111 -31v194q-36 20 -56 34t-38 41t-18 60q0 50 29.5 86t82.5 47v91h43v-87h1q66 0 97 -15zM273 119q0 49 -68 90v-167
q30 6 49 26t19 51zM104 385q0 -43 58 -80v146q-58 -12 -58 -66z" />
    <glyph glyph-name="cent.small" horiz-adv-x="346" 
d="M204 568h43l-2 -66q38 -2 66 -12v-61q-28 15 -67 22l-7 -281q37 5 74 21v-43q-30 -21 -75 -27l-1 -71h-42l1 69q-74 5 -112.5 54t-38.5 129q0 79 42 134t117 65zM97 319q0 -57 25.5 -96.5t72.5 -49.5l6 279q-51 -6 -77.5 -42.5t-26.5 -90.5z" />
    <glyph glyph-name="sterling.small" horiz-adv-x="364" 
d="M24 273h36q-6 30 -6 69q0 70 44 116.5t126 46.5q67 0 100 -15v-66q-55 29 -114 29q-47 0 -70.5 -24.5t-23.5 -63.5q0 -38 13 -92h111v-40h-101q23 -102 -20 -185l217 9v-57h-286q19 40 28 71.5t7 64t-4.5 45.5t-12.5 52h-44v40z" />
    <glyph glyph-name="yen.small" horiz-adv-x="433" 
d="M103 178h81v34l-185 279h77l147 -229l142 229h69l-185 -276v-37h81v-41h-81v-137h-65v137h-81v41z" />
    <glyph glyph-name="florin.small" 
d="M132 332h80q0 173 173 173q3 0 11.5 -0.5t11.5 -0.5v-66q-16 4 -33 4q-55 0 -76 -20t-21 -90h130v-51h-130v-217q0 -108 -44.5 -175.5t-133.5 -76.5l15 70q58 1 77.5 35t19.5 125v239h-80v51z" />
    </font>
</defs>
</svg>
